<?xml version="1.0" standalone="no"?>
<!DOCTYPE svg PUBLIC "-//W3C//DTD SVG 1.1//EN" "http://www.w3.org/Graphics/SVG/1.1/DTD/svg11.dtd" >
<svg xmlns="http://www.w3.org/2000/svg" xmlns:xlink="http://www.w3.org/1999/xlink" version="1.1">
<metadata>
Created by FontForge 20201107 at Sat Dec  7 11:28:33 2024
 By 
Copyright (c) 2016 by Radomir Tinkov. All rights reserved.
</metadata>
<defs>
<font id="SVN-GilroyMedium" horiz-adv-x="1296" >
  <font-face 
    font-family="SVN-Gilroy Medium"
    font-weight="500"
    font-stretch="normal"
    units-per-em="2048"
    panose-1="0 0 6 0 0 0 0 0 0 0"
    ascent="1638"
    descent="-410"
    x-height="1024"
    cap-height="1434"
    bbox="-717 -508 2118 2187"
    underline-thickness="102"
    underline-position="-204"
    unicode-range="U+0020-FB02"
  />
<missing-glyph horiz-adv-x="1024" 
d="M190 1638h650v-2048h-650v2048zM682 1434v67h-338v-67h133v-76h-135v-68h340v68h-135v76h135zM547 1094v143h-205v-213h340v70h-135zM410 1167h67v-73h-67v73zM682 901v68h-340v-68h135v-76h-135v-67h205v143h135zM682 641v205h-68v-135h-272v-70h340zM682 365v231h-205
v-115h70v47h67v-96h-204v164h-68v-231h340zM682 10v232h-340v-232h340zM410 174h204v-96h-204v96zM682 -104v67h-340v-67h143l-143 -97v-67h340v67h-209l143 97h66z" />
    <glyph glyph-name="fi" unicode="fi" horiz-adv-x="1085" 
d="M391 1024h557v-1024h-178v852h-379v-852h-178v852h-164v172h164v31q0 405 449 405q89 0 210 -26v-162q-134 16 -210 16q-142 0 -206.5 -53t-64.5 -180v-31z" />
    <glyph glyph-name="fl" unicode="fl" horiz-adv-x="1085" 
d="M662 1460q122 0 286 -30v-1430h-178v1296q-98 4 -108 4q-139 0 -205 -58t-66 -187v-31h213v-172h-213v-852h-178v852h-164v172h164v31q0 405 449 405z" />
    <glyph glyph-name="f_f" unicode="ff" horiz-adv-x="1218" 
d="M1219 1481v-172q-269 21 -269 -234v-51h269v-172h-269v-852h-178v852h-381v-852h-178v852h-164v172h164v31q0 207 116.5 312.5t332.5 92.5v-172q-271 21 -271 -233v-31h381v51q0 208 115.5 313.5t331.5 92.5z" />
    <glyph glyph-name="f_f_i" unicode="ffi" horiz-adv-x="1642" 
d="M950 1024h557v-1024h-178v852h-379v-852h-178v852h-381v-852h-178v852h-164v172h164v31q0 207 116.5 312.5t332.5 92.5v-172q-271 21 -271 -233v-31h381v51q0 406 447 406q88 0 211 -27v-162q-136 17 -211 17q-142 0 -205.5 -53.5t-63.5 -180.5v-51z" />
    <glyph glyph-name="f_f_l" unicode="ffl" horiz-adv-x="1642" 
d="M1219 1481q119 0 288 -31v-1450h-178v1317q-98 4 -110 4q-138 0 -203.5 -58.5t-65.5 -187.5v-51h213v-172h-213v-852h-178v852h-381v-852h-178v852h-164v172h164v31q0 207 116.5 312.5t332.5 92.5v-172q-271 21 -271 -233v-31h381v51q0 406 447 406z" />
    <glyph glyph-name=".notdef" horiz-adv-x="1024" 
d="M190 1638h650v-2048h-650v2048zM682 1434v67h-338v-67h133v-76h-135v-68h340v68h-135v76h135zM547 1094v143h-205v-213h340v70h-135zM410 1167h67v-73h-67v73zM682 901v68h-340v-68h135v-76h-135v-67h205v143h135zM682 641v205h-68v-135h-272v-70h340zM682 365v231h-205
v-115h70v47h67v-96h-204v164h-68v-231h340zM682 10v232h-340v-232h340zM410 174h204v-96h-204v96zM682 -104v67h-340v-67h143l-143 -97v-67h340v67h-209l143 97h66z" />
    <glyph glyph-name=".null" horiz-adv-x="0" 
 />
    <glyph glyph-name="nonmarkingreturn" horiz-adv-x="682" 
 />
    <glyph glyph-name="space" unicode=" " horiz-adv-x="512" 
 />
    <glyph glyph-name="exclam" unicode="!" horiz-adv-x="497" 
d="M317 420h-137l-39 604v410h215v-410zM248 -23q-55 0 -94 39t-39 95q0 55 38.5 94t94.5 39q57 0 95 -38.5t38 -94.5t-38 -95t-95 -39z" />
    <glyph glyph-name="quotedbl" unicode="&#x22;" horiz-adv-x="681" 
d="M252 1004h-129l-25 430h178zM559 1004h-129l-24 430h178z" />
    <glyph glyph-name="numbersign" unicode="#" horiz-adv-x="1239" 
d="M1182 979l-25 -150h-237l-37 -225h239l-24 -147h-240l-59 -355h-156l59 355h-249l-60 -355h-157l59 355h-238l25 147h237l37 225h-239l24 150h240l59 352h158l-59 -352h249l60 352h156l-60 -352h238zM477 604h250l37 225h-250z" />
    <glyph glyph-name="dollar" unicode="$" horiz-adv-x="1126" 
d="M1055 383q0 -169 -111 -277t-287 -129v-182h-129v180q-166 12 -284 92t-172 216l164 94q71 -191 292 -215v495q-94 33 -149.5 61t-116.5 75q-121 93 -121 274q0 165 111 270q112 106 276 121v180h129v-182q125 -18 220.5 -87.5t148.5 -186.5l-160 -90q-59 151 -209 178
v-471q90 -33 150 -62q64 -31 121 -75q127 -91 127 -279zM330 1067q0 -77 46 -126t152 -93v424q-92 -12 -145 -66.5t-53 -138.5zM657 610v-444q97 13 152 71t55 144q0 82 -48 132.5t-159 96.5z" />
    <glyph glyph-name="percent" unicode="%" horiz-adv-x="1490" 
d="M436 825q-138 0 -231 93q-92 92 -92 225q0 131 92 223q94 94 231 94q140 0 232 -92t92 -225t-92 -225q-90 -93 -232 -93zM272 1143q0 -72 46 -120t118 -48q71 0 117.5 49t46.5 119t-46.5 118t-117.5 48t-117.5 -48t-46.5 -118zM307 145l-98 58l952 1065l101 -56zM1286 68
q-93 -93 -231 -93q-139 0 -232 93q-92 92 -92 225t92 225t232 92q139 0 231 -92t92 -225t-92 -225zM936 174q47 -47 119 -47q69 0 116 47q47 50 47 119.5t-47 116.5q-46 49 -116 49q-73 0 -119 -49q-44 -47 -44 -117t44 -119z" />
    <glyph glyph-name="ampersand" unicode="&#x26;" horiz-adv-x="1355" 
d="M1118 262l191 -203l-160 -92l-145 156q-159 -150 -410 -150q-216 0 -348 111q-133 115 -133 303q0 133 67.5 242.5t194.5 171.5q-92 118 -92 260q0 178 123 289q125 110 299 110q144 0 260.5 -79t167.5 -214l-160 -92q-31 94 -101.5 147.5t-162.5 53.5q-100 0 -168 -60
t-68 -153q0 -64 29.5 -117.5t97.5 -126.5l391 -418q53 109 74 261l164 -95q-27 -167 -111 -305zM598 154q171 0 283 100l-387 416q-94 -40 -142.5 -112.5t-48.5 -158.5q0 -116 78 -180.5t217 -64.5z" />
    <glyph glyph-name="quotesingle" unicode="'" horiz-adv-x="374" 
d="M252 1004h-129l-25 430h178z" />
    <glyph glyph-name="parenleft" unicode="(" horiz-adv-x="573" 
d="M522 -205h-178q-226 450 -226 921.5t226 921.5h178q-226 -450 -226 -921.5t226 -921.5z" />
    <glyph glyph-name="parenright" unicode=")" horiz-adv-x="573" 
d="M229 -205h-178q226 450 226 921.5t-226 921.5h178q226 -450 226 -921.5t-226 -921.5z" />
    <glyph glyph-name="asterisk" unicode="*" horiz-adv-x="806" 
d="M504 1239l186 10v-131l-186 8l108 -149l-116 -70l-93 168l-92 -168l-114 70l106 149l-184 -8v131l184 -10l-106 152l114 69l92 -168l93 168l116 -69z" />
    <glyph glyph-name="plus" unicode="+" horiz-adv-x="1116" 
d="M643 803h356v-170h-356v-357h-170v357h-354v170h354v354h170v-354z" />
    <glyph glyph-name="comma" unicode="," horiz-adv-x="518" 
d="M197 211h204l-133 -498h-153z" />
    <glyph glyph-name="hyphen" unicode="-" horiz-adv-x="1054" 
d="M901 543h-747v172h747v-172z" />
    <glyph glyph-name="period" unicode="." horiz-adv-x="497" 
d="M248 -23q-55 0 -94 39t-39 95q0 55 38.5 94t94.5 39q57 0 95 -38.5t38 -94.5t-38 -95t-95 -39z" />
    <glyph glyph-name="slash" unicode="/" horiz-adv-x="1081" 
d="M1004 1638l-820 -1843h-106l819 1843h107z" />
    <glyph glyph-name="zero" unicode="0" horiz-adv-x="1290" 
d="M1053 176q-144 -203 -408 -203q-263 0 -407 203q-146 205 -146 541q0 335 146 540q144 203 407 203q264 0 408 -203q145 -204 145 -540q0 -337 -145 -541zM283 717q0 -266 94.5 -411.5t267.5 -145.5t269 146t96 411t-96 412t-269 147t-267.5 -145.5t-94.5 -413.5z" />
    <glyph glyph-name="one" unicode="1" horiz-adv-x="729" 
d="M29 1303l377 131h163v-1434h-188v1229l-305 -90z" />
    <glyph glyph-name="two" unicode="2" horiz-adv-x="1079" 
d="M999 0h-925v156l506 516q202 202 202 348q0 118 -72.5 187t-181.5 69q-204 0 -295 -193l-159 95q66 137 184.5 209.5t267.5 72.5q183 0 314 -119q133 -121 133 -319q0 -217 -256 -473l-367 -365h649v-184z" />
    <glyph glyph-name="three" unicode="3" horiz-adv-x="1095" 
d="M958 1266l-311 -420q168 -31 270.5 -143t102.5 -279q0 -211 -143 -330q-145 -121 -349 -121q-167 0 -292.5 76t-178.5 215l160 94q64 -198 311 -198q136 0 218.5 70.5t82.5 193.5t-83 194.5t-218 71.5h-49l-76 117l332 448h-637v179h860v-168z" />
    <glyph glyph-name="four" unicode="4" horiz-adv-x="1187" 
d="M971 451h174v-179h-174v-272h-191v272h-731v179l514 983h205l-514 -983h526v405h191v-405z" />
    <glyph glyph-name="five" unicode="5" horiz-adv-x="1112" 
d="M344 874h209q204 0 342 -120q141 -120 141 -330q0 -211 -143 -330q-145 -121 -348 -121q-168 0 -295.5 81t-177.5 227l161 92q29 -103 110.5 -158t201.5 -55q137 0 220 70.5t83 193.5t-83 194.5t-216 71.5h-406l54 744h784v-179h-612z" />
    <glyph glyph-name="six" unicode="6" horiz-adv-x="1101" 
d="M551 938q216 0 354 -135q139 -133 139 -346q0 -212 -139 -348t-354 -136q-217 0 -356 136q-138 135 -138 348q0 165 86 286l461 691h217l-338 -500q62 4 68 4zM551 756q-137 0 -221 -82t-84 -217t85 -218t220 -83t220 83t85 218q0 134 -84.5 216.5t-220.5 82.5z" />
    <glyph glyph-name="seven" unicode="7" horiz-adv-x="1003" 
d="M37 1253v181h895v-170l-522 -1264h-199l518 1253h-692z" />
    <glyph glyph-name="eight" unicode="8" horiz-adv-x="1136" 
d="M836 741q106 -55 164.5 -144.5t58.5 -203.5q0 -196 -137 -309q-138 -111 -355 -111q-214 0 -352 111q-137 113 -137 309q0 114 58.5 203.5t164.5 144.5q-176 111 -176 314q0 194 129 299q130 106 313 106q187 0 314 -106q131 -104 131 -299q0 -203 -176 -314zM567 1278
q-113 0 -183.5 -59t-70.5 -168q0 -106 72.5 -168t181.5 -62t181.5 62t72.5 168q0 109 -70 168t-184 59zM567 156q139 0 221 65.5t82 184.5q0 117 -82 182t-221 65q-137 0 -219 -65t-82 -182q0 -119 81.5 -184.5t219.5 -65.5z" />
    <glyph glyph-name="nine" unicode="9" horiz-adv-x="1101" 
d="M1044 979q0 -167 -88 -289h2l-462 -690h-215l340 502q-62 -4 -70 -4q-217 0 -356 133q-138 135 -138 348q0 214 138 346q138 135 356 135q216 0 354 -135q139 -133 139 -346zM551 1278q-136 0 -220.5 -82.5t-84.5 -216.5q0 -135 85 -218t220 -83t220 83t85 218t-84 217
t-221 82z" />
    <glyph glyph-name="colon" unicode=":" horiz-adv-x="497" 
d="M248 782q-56 0 -94.5 39t-38.5 94q0 56 39 95t94 39q57 0 95 -39t38 -95t-38 -94.5t-95 -38.5zM248 -23q-55 0 -94 39t-39 95q0 55 38.5 94t94.5 39q57 0 95 -38.5t38 -94.5t-38 -95t-95 -39z" />
    <glyph glyph-name="semicolon" unicode=";" horiz-adv-x="524" 
d="M276 782q-56 0 -94.5 39t-38.5 94q0 56 39 95t94 39q57 0 95.5 -39t38.5 -95t-38.5 -94.5t-95.5 -38.5zM197 211h204l-133 -498h-153z" />
    <glyph glyph-name="less" unicode="&#x3c;" horiz-adv-x="1071" 
d="M113 805l845 369v-193l-643 -264l643 -262v-193l-845 369v174z" />
    <glyph glyph-name="equal" unicode="=" horiz-adv-x="1095" 
d="M983 840h-870v170h870v-170zM983 424h-870v170h870v-170z" />
    <glyph glyph-name="greater" unicode="&#x3e;" horiz-adv-x="1071" 
d="M113 981v193l845 -369v-174l-845 -369v193l643 262z" />
    <glyph glyph-name="question" unicode="?" horiz-adv-x="1103" 
d="M610 420h-190q0 168 133 301q19 19 64.5 61t69 67t53.5 62.5t43.5 75.5t13.5 78q0 101 -69.5 156t-184.5 55q-225 0 -289 -199l-162 90q50 140 172 216.5t281 76.5q182 0 311 -102q131 -101 131 -285q0 -160 -133 -293q-16 -16 -54 -52t-57.5 -56t-49 -54.5t-45 -62
t-27 -63.5t-11.5 -72zM514 -23q-55 0 -94 39t-39 95q0 55 38.5 94t94.5 39q57 0 95 -38.5t38 -94.5t-38 -95t-95 -39z" />
    <glyph glyph-name="at" unicode="@" horiz-adv-x="1615" 
d="M823 1253q219 0 385 -106q163 -101 247.5 -258t84.5 -336q0 -212 -90 -328q-88 -110 -215 -110q-195 0 -244 172q-83 -105 -219 -105q-140 0 -231 94q-90 96 -90 236t90 236q91 94 231 94q123 0 207 -90v73h158v-452q0 -180 129 -180q94 0 150.5 91.5t56.5 268.5
q0 269 -189 455q-187 184 -461 184q-281 0 -481 -197q-199 -193 -199 -483q0 -293 203 -487q205 -193 514 -193q208 0 348 57v-65q-145 -53 -348 -53q-335 0 -559 211q-223 207 -223 530q0 308 213 524q214 217 532 217zM664 379q56 -49 133.5 -49t128.5 49q53 53 53 133
q0 81 -53 131q-51 51 -128.5 51t-133.5 -51q-54 -51 -54 -131q0 -79 54 -133z" />
    <glyph glyph-name="A" unicode="A" horiz-adv-x="1316" 
d="M1300 0h-202l-117 322h-645l-117 -322h-203l535 1434h215zM657 1206l-256 -706h514z" />
    <glyph glyph-name="B" unicode="B" horiz-adv-x="1259" 
d="M973 743q100 -48 157.5 -136t57.5 -201q0 -171 -121 -289q-120 -117 -295 -117h-618v1434h573q169 0 285 -113t116 -279q0 -192 -155 -299zM727 1255h-383v-438h383q91 0 152 63.5t61 155.5q0 91 -63 154q-62 65 -150 65zM344 178h428q96 0 161.5 67.5t65.5 166.5
q0 96 -67 163q-65 68 -160 68h-428v-465z" />
    <glyph glyph-name="C" unicode="C" horiz-adv-x="1513" 
d="M827 -27q-326 0 -538 215q-211 214 -211 529q0 314 211 528q212 215 538 215q195 0 360.5 -93.5t258.5 -254.5l-166 -96q-62 119 -184 189.5t-269 70.5q-248 0 -405 -160q-156 -159 -156 -399q0 -239 156 -398t405 -159q147 0 269 70t184 188l166 -94q-90 -162 -256 -256
q-167 -95 -363 -95z" />
    <glyph glyph-name="D" unicode="D" horiz-adv-x="1470" 
d="M154 1434h559q291 0 485 -209q195 -207 195 -508q0 -300 -195 -510q-195 -207 -485 -207h-559v1434zM344 180h369q219 0 358 154t139 383t-139 383q-138 153 -358 153h-369v-1073z" />
    <glyph glyph-name="E" unicode="E" horiz-adv-x="1085" 
d="M344 635v-455h666v-180h-856v1434h845v-181h-655v-440h604v-178h-604z" />
    <glyph glyph-name="F" unicode="F" horiz-adv-x="1056" 
d="M979 1434v-181h-635v-465h608v-180h-608v-608h-190v1434h825z" />
    <glyph glyph-name="G" unicode="G" horiz-adv-x="1613" 
d="M819 711h717v-86q0 -280 -193 -467q-194 -185 -509 -185q-328 0 -543 215q-213 219 -213 529t213 526q214 217 538 217q196 0 365 -96q168 -96 256 -250l-164 -96q-62 117 -186 187.5t-273 70.5q-248 0 -403 -162q-158 -161 -158 -397q0 -237 158 -398q159 -159 412 -159
q211 0 345.5 104t164.5 275h-527v172z" />
    <glyph glyph-name="H" unicode="H" horiz-adv-x="1382" 
d="M1040 825v609h189v-1434h-189v645h-696v-645h-190v1434h190v-609h696z" />
    <glyph glyph-name="I" unicode="I" horiz-adv-x="497" 
d="M154 0v1434h190v-1434h-190z" />
    <glyph glyph-name="J" unicode="J" horiz-adv-x="1142" 
d="M526 -27q-157 0 -275 66.5t-173 189.5l162 95q65 -164 286 -164q139 0 216 66.5t77 193.5v1014h189v-1014q0 -215 -138 -332q-136 -115 -344 -115z" />
    <glyph glyph-name="K" unicode="K" horiz-adv-x="1212" 
d="M543 737l653 -737h-233l-619 688v-688h-190v1434h190v-648l598 648h234z" />
    <glyph glyph-name="L" unicode="L" horiz-adv-x="999" 
d="M344 1434v-1254h619v-180h-809v1434h190z" />
    <glyph glyph-name="M" unicode="M" horiz-adv-x="1648" 
d="M1280 1434h215v-1434h-188v1120l-469 -780h-25l-469 778v-1118h-190v1434h215l456 -758z" />
    <glyph glyph-name="N" unicode="N" horiz-adv-x="1388" 
d="M1044 365v1069h191v-1434h-154l-737 1071v-1071h-190v1434h153z" />
    <glyph glyph-name="O" unicode="O" horiz-adv-x="1638" 
d="M78 717q0 311 215 526q214 217 526 217q313 0 527 -217q217 -214 217 -526q0 -310 -217 -527q-214 -217 -527 -217q-312 0 -526 217q-215 218 -215 527zM1372 717q0 237 -160 397q-155 162 -393 162q-237 0 -395 -162q-158 -161 -158 -397q0 -232 158 -398
q159 -159 395 -159q237 0 393 159q160 165 160 398z" />
    <glyph glyph-name="P" unicode="P" horiz-adv-x="1208" 
d="M154 1434h520q196 0 330 -134q133 -133 133 -327q0 -195 -133 -328t-330 -133h-330v-512h-190v1434zM344 690h330q119 0 196 80q78 84 78 203q0 123 -77.5 202.5t-196.5 79.5h-330v-565z" />
    <glyph glyph-name="Q" unicode="Q" horiz-adv-x="1648" 
d="M1563 717q0 -295 -203 -510l158 -158l-132 -119l-161 164q-189 -121 -406 -121q-307 0 -524 217t-217 527q0 309 217 526t524 217t524 -217q220 -220 220 -526zM819 160q151 0 271 69l-287 289l131 117l295 -295q143 155 143 377q0 235 -162 397q-158 162 -391 162
q-231 0 -393 -162q-160 -165 -160 -397q0 -230 160 -395q162 -162 393 -162z" />
    <glyph glyph-name="R" unicode="R" horiz-adv-x="1251" 
d="M1214 0h-210l-322 549h-338v-549h-190v1434h573q184 0 315 -131q132 -129 132 -314q0 -138 -84 -254q-84 -117 -213 -162zM727 1255h-383v-534h383q105 0 180 78q76 79 76 190q0 113 -76 189q-74 77 -180 77z" />
    <glyph glyph-name="S" unicode="S" horiz-adv-x="1183" 
d="M616 -27q-200 0 -342.5 94t-199.5 259l164 94q82 -260 383 -260q145 0 224 59.5t79 161.5q0 100 -78 154q-66 46 -260 108l-137 45q-51 20 -119 53q-72 38 -105 74q-90 98 -90 240q0 188 131 295q131 110 320 110q167 0 294 -84.5t191 -228.5l-160 -92q-92 221 -325 221
q-118 0 -189 -57.5t-71 -155.5q0 -94 67 -143q70 -51 234 -103l84 -26q40 -15 75 -29q70 -26 144 -68q27 -15 47 -30.5t30.5 -26.5t32.5 -37q72 -72 72 -215q0 -188 -137 -301q-138 -111 -359 -111z" />
    <glyph glyph-name="T" unicode="T" horiz-adv-x="1105" 
d="M37 1434h1034v-181h-424v-1253h-188v1253h-422v181z" />
    <glyph glyph-name="U" unicode="U" horiz-adv-x="1347" 
d="M135 481v953h191v-945q0 -154 91 -241.5t257 -87.5t257 87.5t91 241.5v945h188v-953q0 -233 -149 -370q-150 -138 -387 -138q-239 0 -389 138t-150 370z" />
    <glyph glyph-name="V" unicode="V" horiz-adv-x="1271" 
d="M743 0h-215l-512 1434h205l416 -1196l414 1196h206z" />
    <glyph glyph-name="W" unicode="W" horiz-adv-x="2048" 
d="M684 0h-221l-412 1434h201l328 -1180l348 1180h192l348 -1180l328 1180h201l-412 -1434h-221l-340 1145z" />
    <glyph glyph-name="X" unicode="X" horiz-adv-x="1208" 
d="M713 739l461 -739h-218l-352 565l-352 -565h-215l461 737l-435 697h216l325 -523l326 523h215z" />
    <glyph glyph-name="Y" unicode="Y" horiz-adv-x="1236" 
d="M1008 1434h213l-508 -854v-580h-191v582l-506 852h213l389 -672z" />
    <glyph glyph-name="Z" unicode="Z" horiz-adv-x="1075" 
d="M999 1270l-694 -1090h711v-180h-936v166l692 1087h-674v181h901v-164z" />
    <glyph glyph-name="bracketleft" unicode="[" horiz-adv-x="593" 
d="M553 1638v-172h-256v-1499h256v-172h-434v1843h434z" />
    <glyph glyph-name="backslash" unicode="\" horiz-adv-x="1081" 
d="M1004 -205h-107l-819 1843h106z" />
    <glyph glyph-name="bracketright" unicode="]" horiz-adv-x="593" 
d="M41 1638h434v-1843h-434v172h256v1499h-256v172z" />
    <glyph glyph-name="asciicircum" unicode="^" horiz-adv-x="1064" 
d="M453 1434h159l371 -635h-201l-250 434l-249 -434h-201z" />
    <glyph glyph-name="underscore" unicode="_" horiz-adv-x="1064" 
d="M989 -309h-911v172h911v-172z" />
    <glyph glyph-name="grave" unicode="`" horiz-adv-x="460" 
d="M420 1163h-172l-207 271h215z" />
    <glyph glyph-name="a" unicode="a" 
d="M983 848v176h178v-1024h-178v176q-132 -203 -387 -203q-217 0 -367 156q-151 157 -151 383q0 224 151 381q152 158 367 158q255 0 387 -203zM618 145q156 0 261 105q104 107 104 262q0 156 -104 260q-104 107 -261 107q-154 0 -258 -107q-104 -104 -104 -260
q0 -155 104 -262q105 -105 258 -105z" />
    <glyph glyph-name="b" unicode="b" 
d="M700 1051q215 0 367 -158t152 -381q0 -225 -152 -383q-150 -156 -367 -156q-255 0 -387 203v-176h-178v1434h178v-586q132 203 387 203zM678 145q153 0 258 105q104 107 104 262q0 156 -104 260q-104 107 -258 107q-156 0 -260 -107q-105 -105 -105 -260q0 -154 105 -262
q105 -105 260 -105z" />
    <glyph glyph-name="c" unicode="c" horiz-adv-x="1120" 
d="M616 -27q-231 0 -385 154q-153 156 -153 385q0 230 153 383q153 156 385 156q151 0 271.5 -72.5t181.5 -196.5l-149 -86q-39 82 -120.5 131.5t-183.5 49.5q-153 0 -258 -105q-102 -105 -102 -260q0 -153 102 -258q104 -104 258 -104q102 0 184.5 48t125.5 130l151 -88
q-67 -123 -190 -195t-271 -72z" />
    <glyph glyph-name="d" unicode="d" 
d="M983 848v586h178v-1434h-178v176q-132 -203 -387 -203q-217 0 -367 156q-151 157 -151 383q0 224 151 381q152 158 367 158q255 0 387 -203zM618 145q156 0 261 105q104 107 104 262q0 156 -104 260q-104 107 -261 107q-154 0 -258 -107q-104 -104 -104 -260
q0 -155 104 -262q105 -105 258 -105z" />
    <glyph glyph-name="e" unicode="e" horiz-adv-x="1193" 
d="M1118 430h-858q26 -136 125 -212.5t246 -76.5q203 0 295 150l151 -86q-151 -232 -450 -232q-243 0 -398 152q-151 154 -151 387t149 385q151 154 387 154q225 0 367 -160q143 -155 143 -381q0 -40 -6 -80zM614 883q-141 0 -236 -80.5t-118 -216.5h684q-23 142 -113 219.5
t-217 77.5z" />
    <glyph glyph-name="f" unicode="f" horiz-adv-x="661" 
d="M662 1460v-172q-271 21 -271 -233v-31h271v-172h-271v-852h-178v852h-164v172h164v31q0 207 116.5 312.5t332.5 92.5z" />
    <glyph glyph-name="g" unicode="g" 
d="M985 848v176h176v-981q0 -226 -153 -352q-154 -127 -369 -127q-172 0 -297 64.5t-188 185.5l155 88q82 -172 334 -172q160 0 251 83.5t91 229.5v145q-134 -204 -385 -204q-222 0 -371 155q-151 157 -151 379q0 223 151 377q150 156 371 156q253 0 385 -203zM985 518
q0 154 -104 258q-105 105 -260 105q-156 0 -261 -105q-104 -104 -104 -258q0 -156 104 -260t261 -104q156 0 260 104t104 260z" />
    <glyph glyph-name="h" unicode="h" horiz-adv-x="1155" 
d="M645 1051q181 0 289 -114t108 -308v-629h-178v618q0 124 -67.5 193.5t-186.5 69.5q-138 0 -217.5 -85.5t-79.5 -252.5v-543h-178v1434h178v-557q107 174 332 174z" />
    <glyph glyph-name="i" unicode="i" horiz-adv-x="450" 
d="M225 1151q-51 0 -86 34.5t-35 84.5t35 85.5t86 35.5q49 0 84 -35.5t35 -85.5t-35 -84.5t-84 -34.5zM313 0h-178v1024h178v-1024z" />
    <glyph glyph-name="j" unicode="j" horiz-adv-x="493" 
d="M180 -61v1085h178v-1085q0 -198 -100 -293t-295 -82v172q113 -11 165 37t52 166zM270 1151q-51 0 -85.5 34.5t-34.5 84.5t34.5 85.5t85.5 35.5q49 0 84 -35.5t35 -85.5t-34.5 -84.5t-84.5 -34.5z" />
    <glyph glyph-name="k" unicode="k" horiz-adv-x="1032" 
d="M496 528l505 -528h-221l-467 485v-485h-178v1434h178v-863l443 453h229z" />
    <glyph glyph-name="l" unicode="l" horiz-adv-x="450" 
d="M313 0h-178v1495h178v-1495z" />
    <glyph glyph-name="m" unicode="m" horiz-adv-x="1738" 
d="M1241 1051q173 0 279 -112.5t106 -301.5v-637h-178v631q0 117 -60.5 183.5t-164.5 66.5q-119 0 -185.5 -78.5t-66.5 -233.5v-569h-178v631q0 118 -58.5 184t-159.5 66q-117 0 -189.5 -81t-72.5 -231v-569h-178v1024h178v-137q105 164 305 164q208 0 302 -174
q107 174 321 174z" />
    <glyph glyph-name="n" unicode="n" horiz-adv-x="1155" 
d="M645 1051q181 0 289 -114t108 -308v-629h-178v618q0 124 -67.5 193.5t-186.5 69.5q-138 0 -217.5 -85.5t-79.5 -252.5v-543h-178v1024h178v-147q107 174 332 174z" />
    <glyph glyph-name="o" unicode="o" horiz-adv-x="1232" 
d="M999 129q-156 -156 -383 -156t-383 156q-155 155 -155 383t155 383q156 156 383 156t383 -156q158 -158 158 -383t-158 -383zM616 147q153 0 258 105t105 260t-105 260t-258 105q-151 0 -256 -105q-104 -104 -104 -260t104 -260q105 -105 256 -105z" />
    <glyph glyph-name="p" unicode="p" 
d="M700 1051q215 0 367 -158t152 -381q0 -225 -152 -383q-150 -156 -367 -156q-255 0 -387 203v-586h-178v1434h178v-176q132 203 387 203zM678 145q153 0 258 105q104 107 104 262q0 156 -104 260q-104 107 -258 107q-156 0 -260 -107q-105 -105 -105 -260q0 -154 105 -262
q105 -105 260 -105z" />
    <glyph glyph-name="q" unicode="q" 
d="M983 848v176h178v-1434h-178v586q-132 -203 -387 -203q-217 0 -367 156q-151 157 -151 383q0 224 151 381q152 158 367 158q255 0 387 -203zM618 145q156 0 261 105q104 107 104 262q0 156 -104 260q-104 107 -261 107q-154 0 -258 -107q-104 -104 -104 -260
q0 -155 104 -262q105 -105 258 -105z" />
    <glyph glyph-name="r" unicode="r" horiz-adv-x="671" 
d="M313 1024v-172q88 190 320 190v-186q-131 6 -225 -70q-95 -77 -95 -243v-543h-178v1024h178z" />
    <glyph glyph-name="s" unicode="s" horiz-adv-x="937" 
d="M289 748q0 -56 53.5 -92t149.5 -62q41 -9 71.5 -17t71.5 -22t71 -30t61 -40t51 -52.5t32 -67t12 -84.5q0 -141 -108 -224q-110 -84 -275 -84q-147 0 -254.5 65t-152.5 175l153 88q25 -74 93 -117t161 -43q92 0 147.5 35.5t55.5 104.5q0 102 -203 151q-35 9 -50.5 13.5
t-50 14.5t-51.5 17.5t-47.5 20.5t-47 25.5t-39.5 30t-35.5 37t-25 43t-18 51.5t-5.5 60q0 134 102 220q106 86 260 86q124 0 221.5 -56.5t147.5 -156.5l-150 -84q-55 131 -219 131q-78 0 -130 -36.5t-52 -100.5z" />
    <glyph glyph-name="t" unicode="t" horiz-adv-x="774" 
d="M692 1024v-172h-272v-555q0 -76 30 -107.5t90.5 -32.5t151.5 3v-160q-235 -31 -342.5 38.5t-107.5 258.5v555h-203v172h203v233l178 54v-287h272z" />
    <glyph glyph-name="u" unicode="u" horiz-adv-x="1155" 
d="M842 481v543h178v-1024h-178v147q-107 -174 -332 -174q-181 0 -289 114t-108 308v629h178v-618q0 -124 67.5 -193.5t186.5 -69.5q138 0 217.5 85.5t79.5 252.5z" />
    <glyph glyph-name="v" unicode="v" horiz-adv-x="1060" 
d="M530 190l322 834h192l-409 -1024h-209l-410 1024h193z" />
    <glyph glyph-name="w" unicode="w" horiz-adv-x="1576" 
d="M1116 244l225 780h187l-318 -1024h-182l-240 758l-239 -758h-182l-318 1024h187l225 -778l241 778h172z" />
    <glyph glyph-name="x" unicode="x" horiz-adv-x="1054" 
d="M633 528l391 -528h-209l-287 387l-288 -387h-209l393 526l-371 498h211l264 -356l265 356h208z" />
    <glyph glyph-name="y" unicode="y" horiz-adv-x="1054" 
d="M555 221l295 803h190l-417 -1087q-67 -175 -185 -266t-270 -81v166q188 -15 276 209l19 39l-447 1020h191z" />
    <glyph glyph-name="z" unicode="z" horiz-adv-x="964" 
d="M866 905l-524 -735h545v-170h-789v119l523 735h-502v170h747v-119z" />
    <glyph glyph-name="braceleft" unicode="{" horiz-adv-x="729" 
d="M688 -49v-172q-389 -30 -389 348v330q0 106 -44 142t-153 34v172q109 -2 153 34.5t44 141.5v330q0 378 389 348v-172q-114 12 -162.5 -26.5t-48.5 -149.5v-330q0 -203 -147 -262q147 -55 147 -262v-330q0 -110 49 -149t162 -27z" />
    <glyph glyph-name="bar" unicode="|" horiz-adv-x="485" 
d="M332 -410h-178v1885h178v-1885z" />
    <glyph glyph-name="braceright" unicode="}" horiz-adv-x="729" 
d="M41 -221v172q113 -12 162 27t49 149v330q0 207 147 262q-147 59 -147 262v330q0 111 -48.5 149.5t-162.5 26.5v172q389 30 389 -348v-330q0 -105 44 -141.5t153 -34.5v-172q-109 2 -153 -34t-44 -142v-330q0 -378 -389 -348z" />
    <glyph glyph-name="asciitilde" unicode="~" horiz-adv-x="1220" 
d="M954 868l154 -73q-55 -185 -186 -228.5t-330 64.5q-156 83 -223 65q-68 -15 -103 -131l-153 72q54 184 188 228.5t326 -62.5q159 -85 225 -70q68 18 102 135z" />
    <glyph glyph-name="exclamdown" unicode="&#xa1;" horiz-adv-x="497" 
d="M248 1047q57 0 95 -39t38 -95t-38 -94.5t-95 -38.5q-56 0 -94.5 39t-38.5 94q0 56 39 95t94 39zM141 0l39 604h137l39 -604v-410h-215v410z" />
    <glyph glyph-name="cent" unicode="&#xa2;" horiz-adv-x="1120" 
d="M926 532l151 -88q-67 -122 -190 -194t-271 -72q-60 0 -133 17l-63 -195h-109l74 227q-141 63 -224 194.5t-83 295.5q0 230 153 383q152 155 385 155q60 0 99 -8l59 187h109l-70 -215q176 -65 256 -232l-149 -86q-53 106 -160 152l-223 -691q31 -8 79 -8q102 0 184.5 48
t125.5 130zM256 717q0 -104 48.5 -188.5t135.5 -131.5l219 682q-10 2 -43 2q-154 0 -258 -104q-102 -105 -102 -260z" />
    <glyph glyph-name="sterling" unicode="&#xa3;" horiz-adv-x="1196" 
d="M444 582v-398h723v-184h-1089v184h178v398h-143v168h143v274q0 209 127 324q127 112 303 112q145 0 249 -73.5t159 -208.5l-158 -91q-68 189 -248 189q-109 0 -176.5 -66.5t-67.5 -189.5v-270h455v-168h-455z" />
    <glyph glyph-name="currency" unicode="&#xa4;" horiz-adv-x="1124" 
d="M905 444l144 -143l-70 -70l-145 146q-115 -92 -271 -92q-150 0 -272 90l-144 -144l-69 70l141 143q-94 116 -94 273q0 156 94 272l-141 144l69 69l144 -143q118 92 272 92q150 0 271 -92l145 143l70 -69l-144 -144q94 -116 94 -272q0 -157 -94 -273zM823 717
q0 112 -74.5 187t-185.5 75q-112 0 -186 -74.5t-74 -187.5q0 -110 75 -186t185 -76t185 76t75 186z" />
    <glyph glyph-name="yen" unicode="&#xa5;" horiz-adv-x="1196" 
d="M1008 1434h213l-424 -713h252v-133h-330l-6 -8v-105h336v-135h-336v-340h-191v340h-375v135h375v107l-4 6h-371v133h293l-424 713h213l389 -672z" />
    <glyph glyph-name="brokenbar" unicode="&#xa6;" horiz-adv-x="485" 
d="M332 717h-178v758h178v-758zM332 -410h-178v758h178v-758z" />
    <glyph glyph-name="section" unicode="&#xa7;" horiz-adv-x="1067" 
d="M987 551q0 -155 -129 -254q84 -90 84 -209q0 -142 -106 -229q-107 -88 -277 -88q-331 0 -436 268l153 88q64 -193 283 -193q94 0 149.5 40.5t55.5 113.5q0 79 -86 127q-40 30 -86 49q-39 17 -51 21q-7 3 -31 14t-45 20t-31 13q-159 64 -239 146t-80 206q0 153 139 256
q-76 82 -76 205q0 139 105 227q104 88 260 88q133 0 233 -65.5t150 -184.5l-146 -82q-67 166 -237 166q-80 0 -133.5 -41t-53.5 -108q0 -77 82 -129q68 -43 187 -94q15 -5 39 -17q165 -71 244 -151t79 -203zM293 690q0 -71 53.5 -121t161.5 -90q150 -56 219 -90
q82 61 82 152q0 74 -53 121.5t-170 95.5q-155 60 -205 86q-88 -58 -88 -154z" />
    <glyph glyph-name="dieresis" unicode="&#xa8;" horiz-adv-x="686" 
d="M225 1190q-31 -31 -76 -31t-77 31q-31 32 -31 77t31 76q32 31 77 31t76 -31t31 -76t-31 -77zM614 1190q-31 -31 -76 -31t-77 31q-31 32 -31 77t31 76q32 31 77 31t76 -31t31 -76t-31 -77z" />
    <glyph glyph-name="copyright" unicode="&#xa9;" horiz-adv-x="1636" 
d="M1343 193q-218 -218 -524 -218t-524 218q-217 217 -217 524t217 524t524 217t524 -217q218 -218 218 -524t-218 -524zM819 37q279 0 475 199q199 199 199 481t-199 481q-196 199 -475 199q-280 0 -479 -199q-197 -200 -197 -481t197 -481q199 -199 479 -199zM825 322
q-167 0 -284 114q-117 117 -117 281t117 278q117 117 284 117q109 0 199 -51t139 -141l-141 -82q-52 114 -199 114q-102 0 -167.5 -68t-65.5 -167t65.5 -167.5t167.5 -68.5q67 0 122 31t79 86l141 -84q-50 -88 -141 -140t-199 -52z" />
    <glyph glyph-name="guillemotleft" unicode="&#xab;" horiz-adv-x="1044" 
d="M365 1008h192l-225 -375l225 -373h-192l-226 373zM713 1008h192l-225 -375l225 -373h-192l-226 373z" />
    <glyph glyph-name="logicalnot" unicode="&#xac;" horiz-adv-x="1085" 
d="M113 633v170h860v-410h-178v240h-682z" />
    <glyph glyph-name="registered" unicode="&#xae;" horiz-adv-x="1636" 
d="M295 1241q217 217 524 217t524 -217q218 -218 218 -524t-218 -524t-524 -218t-524 218q-217 217 -217 524t217 524zM819 37q279 0 475 199q199 199 199 481t-199 481q-196 199 -475 199q-280 0 -479 -199q-197 -200 -197 -481t197 -481q199 -199 479 -199zM1120 850
q0 -158 -129 -223l158 -289h-172l-133 256h-13h-98v-256h-158v758h256q131 0 210 -69.5t79 -176.5zM831 948h-98v-211h98q61 0 96.5 28.5t35.5 76.5q0 106 -132 106z" />
    <glyph glyph-name="overscore" unicode="&#xaf;" horiz-adv-x="634" 
d="M594 1178h-553v149h553v-149z" />
    <glyph glyph-name="degree" unicode="&#xb0;" horiz-adv-x="800" 
d="M401 1024q-139 0 -231 92t-92 225q0 134 92 226t231 92q140 0 232 -92t92 -226q0 -133 -92 -225q-89 -92 -232 -92zM285 1225q44 -47 116.5 -47t116.5 47t44 116.5t-44 116.5t-116.5 47t-116.5 -47t-44 -116.5t44 -116.5z" />
    <glyph glyph-name="plusminus" unicode="&#xb1;" horiz-adv-x="1116" 
d="M643 1276v-324h356v-170h-356v-321h-170v321h-354v170h354v324h170zM999 160h-880v170h880v-170z" />
    <glyph glyph-name="acute" unicode="&#xb4;" horiz-adv-x="460" 
d="M41 1163l164 271h215l-207 -271h-172z" />
    <glyph glyph-name="uni00B5" unicode="&#xb5;" horiz-adv-x="1249" 
d="M1114 170h78v-170h-105q-159 0 -208 137q-108 -164 -326 -164q-148 0 -240 80v-463h-178v1434h178v-616q0 -127 67.5 -196t186.5 -69q138 0 217.5 85.5t79.5 252.5v543h178v-782q0 -32 20 -52t52 -20z" />
    <glyph glyph-name="paragraph" unicode="&#xb6;" horiz-adv-x="1249" 
d="M492 1434h671v-162h-125v-1682h-170v1682h-206v-1682h-170v1004q-174 0 -297 123t-123 297q0 173 121 297q123 123 299 123z" />
    <glyph glyph-name="middot" unicode="&#xb7;" horiz-adv-x="497" 
d="M248 582q-56 0 -94.5 39t-38.5 94t38.5 94t94.5 39q57 0 95 -38.5t38 -94.5t-38 -94.5t-95 -38.5z" />
    <glyph glyph-name="cedilla" unicode="&#xb8;" horiz-adv-x="512" 
d="M297 0v-92q80 -18 127 -61t47 -103q0 -210 -430 -186v135q274 -21 274 63q0 65 -170 74v170h152z" />
    <glyph glyph-name="guillemotright" unicode="&#xbb;" horiz-adv-x="1044" 
d="M139 1008h193l225 -375l-225 -373h-193l226 373zM487 1008h193l225 -375l-225 -373h-193l226 373z" />
    <glyph glyph-name="onequarter" unicode="&#xbc;" horiz-adv-x="1677" 
d="M393 1434v-820h-157v654l-181 -54l-39 134l240 86h137zM254 0l819 1434h144l-820 -1434h-143zM1542 291h96v-146h-96v-145h-156v145h-407v146l291 528h170l-287 -528h233v180h156v-180z" />
    <glyph glyph-name="onehalf" unicode="&#xbd;" horiz-adv-x="1656" 
d="M393 1434v-820h-157v654l-181 -54l-39 134l240 86h137zM254 0l819 1434h144l-820 -1434h-143zM1450 334l-207 -187h352v-147h-585v117l331 313q80 74 80 158q0 49 -34 78.5t-91 29.5q-112 0 -161 -118l-131 73q83 195 292 195q124 0 204.5 -72.5t80.5 -181.5
q0 -139 -131 -258z" />
    <glyph glyph-name="threequarters" unicode="&#xbe;" horiz-adv-x="1875" 
d="M647 856q0 -123 -82.5 -195.5t-222.5 -72.5q-218 0 -301 176l133 76q47 -105 168 -105q71 0 109 32.5t38 88.5t-41 89.5t-108 33.5h-18l-70 102l172 205h-352v148h538v-136l-172 -204q98 -20 153.5 -83t55.5 -155zM453 0l819 1434h143l-819 -1434h-143zM1741 291h96v-146
h-96v-145h-156v145h-407v146l290 528h170l-286 -528h233v180h156v-180z" />
    <glyph glyph-name="questiondown" unicode="&#xbf;" horiz-adv-x="1103" 
d="M590 1047q55 0 94 -39t39 -95q0 -55 -38.5 -94t-94.5 -39q-57 0 -95 38.5t-38 94.5t38 95t95 39zM494 604h190q0 -168 -133 -301q-19 -19 -64.5 -61t-69 -67t-53.5 -62.5t-43.5 -75.5t-13.5 -78q0 -101 69.5 -156t184.5 -55q225 0 289 199l162 -90q-50 -140 -172 -216.5
t-281 -76.5q-181 0 -313 102q-129 102 -129 285q0 160 133 293q16 16 54 52t57.5 56t49 54.5t45 62t27 63.5t11.5 72z" />
    <glyph glyph-name="Agrave" unicode="&#xc0;" horiz-adv-x="1316" 
d="M631 1843l164 -270h-172l-207 270h215zM1300 0h-202l-117 322h-645l-117 -322h-203l535 1434h215zM657 1206l-256 -706h514z" />
    <glyph glyph-name="Aacute" unicode="&#xc1;" horiz-adv-x="1316" 
d="M698 1843h215l-206 -270h-172zM1300 0h-202l-117 322h-645l-117 -322h-203l535 1434h215zM657 1206l-256 -706h514z" />
    <glyph glyph-name="Acircumflex" unicode="&#xc2;" horiz-adv-x="1316" 
d="M780 1567l-125 166l-125 -166h-190l217 276h197l217 -276h-191zM1300 0h-202l-117 322h-645l-117 -322h-203l535 1434h215zM657 1206l-256 -706h514z" />
    <glyph glyph-name="Atilde" unicode="&#xc3;" horiz-adv-x="1316" 
d="M647 1632q-73 65 -110 56t-37 -105h-150q0 99 28 162t73.5 83.5t101 9.5t113.5 -52q75 -65 111 -56.5t36 103.5h150q0 -130 -47 -195.5t-118 -63.5t-151 58zM1300 0h-202l-117 322h-645l-117 -322h-203l535 1434h215zM657 1206l-256 -706h514z" />
    <glyph glyph-name="Adieresis" unicode="&#xc4;" horiz-adv-x="1316" 
d="M539 1599q-31 -31 -76.5 -31t-77.5 31q-31 32 -31 77.5t31 76.5q32 31 77.5 31t76.5 -31t31 -76.5t-31 -77.5zM928 1599q-31 -31 -76.5 -31t-77.5 31q-31 32 -31 77.5t31 76.5q32 31 77.5 31t76.5 -31t31 -76.5t-31 -77.5zM1300 0h-202l-117 322h-645l-117 -322h-203
l535 1434h215zM657 1206l-256 -706h514z" />
    <glyph glyph-name="Aring" unicode="&#xc5;" horiz-adv-x="1316" 
d="M1300 0h-202l-117 322h-645l-117 -322h-203l514 1378q-102 58 -102 185q0 94 64.5 155.5t166.5 61.5t167 -61.5t65 -155.5q0 -129 -105 -187zM659 1655q-43 0 -69.5 -26.5t-26.5 -65.5q0 -42 26 -68.5t70 -26.5q62 -5 87.5 44.5t0 99t-87.5 43.5zM657 1206l-256 -706h514
z" />
    <glyph glyph-name="AE" unicode="&#xc6;" horiz-adv-x="1802" 
d="M1108 635v-455h618v-180h-804v322h-512l-195 -322h-215l868 1434h848v-181h-608v-440h571v-178h-571zM922 1171l-406 -671h406v671z" />
    <glyph glyph-name="Ccedilla" unicode="&#xc7;" horiz-adv-x="1513" 
d="M827 160q147 0 269 70t184 188l166 -94q-80 -143 -225.5 -236.5t-317.5 -110.5v-69q80 -18 127 -61t47 -103q0 -210 -430 -186v135q275 -21 275 63q0 65 -170 74v147q-295 27 -486 236q-188 212 -188 504q0 314 211 528q212 215 538 215q195 0 360.5 -93.5t258.5 -254.5
l-166 -96q-62 119 -184 189.5t-269 70.5q-248 0 -405 -160q-156 -159 -156 -399q0 -239 156 -398t405 -159z" />
    <glyph glyph-name="Egrave" unicode="&#xc8;" horiz-adv-x="1085" 
d="M551 1843l164 -270h-172l-207 270h215zM344 635v-455h666v-180h-856v1434h845v-181h-655v-440h604v-178h-604z" />
    <glyph glyph-name="Eacute" unicode="&#xc9;" horiz-adv-x="1085" 
d="M635 1843h215l-207 -270h-172zM344 635v-455h666v-180h-856v1434h845v-181h-655v-440h604v-178h-604z" />
    <glyph glyph-name="Ecircumflex" unicode="&#xca;" horiz-adv-x="1085" 
d="M700 1567l-125 166l-124 -166h-191l217 276h197l217 -276h-191zM344 635v-455h666v-180h-856v1434h845v-181h-655v-440h604v-178h-604z" />
    <glyph glyph-name="Edieresis" unicode="&#xcb;" horiz-adv-x="1085" 
d="M459 1599q-31 -31 -76.5 -31t-77.5 31q-31 32 -31 77.5t31 76.5q32 31 77.5 31t76.5 -31t31 -76.5t-31 -77.5zM848 1599q-31 -31 -76.5 -31t-77.5 31q-31 32 -31 77.5t31 76.5q32 31 77.5 31t76.5 -31t31 -76.5t-31 -77.5zM344 635v-455h666v-180h-856v1434h845v-181
h-655v-440h604v-178h-604z" />
    <glyph glyph-name="Igrave" unicode="&#xcc;" horiz-adv-x="497" 
d="M385 1573h-172l-207 270h215zM154 1434v-1434h190v1434h-190z" />
    <glyph glyph-name="Iacute" unicode="&#xcd;" horiz-adv-x="497" 
d="M125 1573l164 270h215l-207 -270h-172zM154 1434v-1434h190v1434h-190z" />
    <glyph glyph-name="Icircumflex" unicode="&#xce;" horiz-adv-x="497" 
d="M147 1843h197l217 -276h-190l-125 166l-125 -166h-191zM344 0h-190v1434h190v-1434z" />
    <glyph glyph-name="Idieresis" unicode="&#xcf;" horiz-adv-x="497" 
d="M129 1599q-31 -31 -76 -31t-76 31q-32 32 -32 77.5t32 76.5q31 31 76 31t76 -31t31 -76.5t-31 -77.5zM518 1599q-31 -31 -76 -31t-77 31q-31 32 -31 77.5t31 76.5q32 31 77 31t76 -31t31 -76.5t-31 -77.5zM154 0v1434h190v-1434h-190z" />
    <glyph glyph-name="Eth" unicode="&#xd0;" horiz-adv-x="1521" 
d="M205 1434h559q291 0 485 -209q195 -207 195 -508q0 -300 -195 -510q-195 -207 -485 -207h-559v627h-150v172h150v635zM395 180h369q219 0 358 154q140 155 140 383t-140 383q-138 153 -358 153h-369v-454h408v-172h-408v-447z" />
    <glyph glyph-name="Ntilde" unicode="&#xd1;" horiz-adv-x="1388" 
d="M530 1583h-149q0 80 18 136.5t49 85t71.5 36t85.5 -7t91 -47.5q75 -65 111.5 -56.5t36.5 103.5h149q0 -79 -18 -135.5t-48 -84.5t-70.5 -35.5t-86 7t-92.5 47.5q-74 65 -111 56t-37 -105zM1044 365v1069h191v-1434h-154l-737 1071v-1071h-190v1434h153z" />
    <glyph glyph-name="Ograve" unicode="&#xd2;" horiz-adv-x="1638" 
d="M1008 1579h-172l-207 270h215zM78 717q0 -309 215 -527q214 -217 526 -217q313 0 527 217q217 217 217 527q0 312 -217 526q-214 217 -527 217q-312 0 -526 -217q-215 -215 -215 -526zM1372 717q0 -233 -160 -398q-156 -159 -393 -159q-236 0 -395 159q-158 166 -158 398
q0 236 158 397q158 162 395 162q238 0 393 -162q160 -160 160 -397z" />
    <glyph glyph-name="Oacute" unicode="&#xd3;" horiz-adv-x="1638" 
d="M764 1579l164 270h215l-207 -270h-172zM78 717q0 -309 215 -527q214 -217 526 -217q313 0 527 217q217 217 217 527q0 312 -217 526q-214 217 -527 217q-312 0 -526 -217q-215 -215 -215 -526zM1372 717q0 -233 -160 -398q-156 -159 -393 -159q-236 0 -395 159
q-158 166 -158 398q0 236 158 397q158 162 395 162q238 0 393 -162q160 -160 160 -397z" />
    <glyph glyph-name="Ocircumflex" unicode="&#xd4;" horiz-adv-x="1638" 
d="M942 1573l-125 166l-125 -166h-190l217 276h196l218 -276h-191zM1563 717q0 -310 -217 -527q-214 -217 -527 -217q-312 0 -526 217q-215 218 -215 527q0 311 215 526q214 217 526 217q313 0 527 -217q217 -214 217 -526zM1372 717q0 237 -160 397q-155 162 -393 162
q-237 0 -395 -162q-158 -161 -158 -397q0 -232 158 -398q159 -159 395 -159q237 0 393 159q160 165 160 398z" />
    <glyph glyph-name="Otilde" unicode="&#xd5;" horiz-adv-x="1638" 
d="M686 1589h-149q0 80 18 136.5t49 85t71.5 36t85.5 -7t91 -47.5q75 -65 111 -56.5t36 103.5h150q0 -79 -18 -135.5t-48 -84.5t-70.5 -35.5t-86 7t-92.5 47.5q-74 65 -111 56t-37 -105zM78 717q0 311 215 526q214 217 526 217q313 0 527 -217q217 -214 217 -526
q0 -310 -217 -527q-214 -217 -527 -217q-312 0 -526 217q-215 218 -215 527zM1372 717q0 237 -160 397q-155 162 -393 162q-237 0 -395 -162q-158 -161 -158 -397q0 -232 158 -398q159 -159 395 -159q237 0 393 159q160 165 160 398z" />
    <glyph glyph-name="Odieresis" unicode="&#xd6;" horiz-adv-x="1638" 
d="M700 1606q-31 -31 -76 -31t-77 31q-31 32 -31 77t31 76q32 31 77 31t76 -31t31 -76t-31 -77zM1090 1606q-31 -31 -76.5 -31t-77.5 31q-31 32 -31 77t31 76q32 31 77.5 31t76.5 -31t31 -76t-31 -77zM78 717q0 311 215 526q214 217 526 217q313 0 527 -217
q217 -214 217 -526q0 -310 -217 -527q-214 -217 -527 -217q-312 0 -526 217q-215 218 -215 527zM1372 717q0 237 -160 397q-155 162 -393 162q-237 0 -395 -162q-158 -161 -158 -397q0 -232 158 -398q159 -159 395 -159q237 0 393 159q160 165 160 398z" />
    <glyph glyph-name="multiply" unicode="&#xd7;" horiz-adv-x="993" 
d="M770 1108l121 -115l-277 -276l277 -277l-121 -114l-272 274l-275 -274l-121 114l277 277l-277 276l121 115l275 -272z" />
    <glyph glyph-name="Oslash" unicode="&#xd8;" horiz-adv-x="1656" 
d="M1479 1378l-113 -135q215 -215 215 -526q0 -310 -217 -527q-214 -217 -526 -217q-235 0 -430 136l-101 -117l-110 65l112 136q-213 219 -213 524q0 311 215 526q214 217 527 217q242 0 432 -135l98 117zM285 717q0 -226 145 -383l719 850q-142 92 -311 92
q-238 0 -396 -162q-157 -160 -157 -397zM838 160q237 0 393 159q160 165 160 398q0 219 -146 385l-719 -850q139 -92 312 -92z" />
    <glyph glyph-name="Ugrave" unicode="&#xd9;" horiz-adv-x="1347" 
d="M811 1573h-172l-207 270h215zM135 481q0 -232 150 -370t389 -138q237 0 387 138q149 137 149 370v953h-188v-945q0 -154 -91 -241.5t-257 -87.5t-257 87.5t-91 241.5v945h-191v-953z" />
    <glyph glyph-name="Uacute" unicode="&#xda;" horiz-adv-x="1347" 
d="M592 1573l164 270h215l-207 -270h-172zM135 481q0 -232 150 -370t389 -138q237 0 387 138q149 137 149 370v953h-188v-945q0 -154 -91 -241.5t-257 -87.5t-257 87.5t-91 241.5v945h-191v-953z" />
    <glyph glyph-name="Ucircumflex" unicode="&#xdb;" horiz-adv-x="1347" 
d="M797 1567l-125 166l-125 -166h-191l217 276h197l217 -276h-190zM1022 489v945h188v-953q0 -233 -149 -370q-150 -138 -387 -138q-239 0 -389 138t-150 370v953h191v-945q0 -154 91 -241.5t257 -87.5t257 87.5t91 241.5z" />
    <glyph glyph-name="Udieresis" unicode="&#xdc;" horiz-adv-x="1347" 
d="M555 1599q-31 -31 -76.5 -31t-77.5 31q-31 32 -31 77.5t31 76.5q32 31 77.5 31t76.5 -31t31 -76.5t-31 -77.5zM944 1599q-31 -31 -76 -31t-77 31q-31 32 -31 77.5t31 76.5q32 31 77 31t76 -31t31 -76.5t-31 -77.5zM135 481v953h191v-945q0 -154 91 -241.5t257 -87.5
t257 87.5t91 241.5v945h188v-953q0 -233 -149 -370q-150 -138 -387 -138q-239 0 -389 138t-150 370z" />
    <glyph glyph-name="Yacute" unicode="&#xdd;" horiz-adv-x="1236" 
d="M698 1843h215l-206 -270h-172zM1008 1434h213l-508 -854v-580h-191v582l-506 852h213l389 -672z" />
    <glyph glyph-name="Thorn" unicode="&#xde;" horiz-adv-x="1208" 
d="M344 1178h332q194 0 328 -134q133 -133 133 -327q0 -195 -133 -328t-328 -133h-332v-256h-190v1434h190v-256zM344 434h332q117 0 194 80q78 84 78 203q0 123 -77.5 202.5t-194.5 79.5h-332v-565z" />
    <glyph glyph-name="germandbls" unicode="&#xdf;" horiz-adv-x="1071" 
d="M586 -8v160q268 -18 268 155q0 56 -40 124.5t-99 127.5q-137 149 -137 246q0 60 79 158q82 98 82 157q0 79 -53 125.5t-141 46.5q-104 0 -168 -61t-64 -180v-1051h-178v1051q0 189 113.5 299t300.5 110q170 0 268 -94q101 -94 101 -231q2 -47 -23.5 -100.5t-56.5 -91.5
t-56.5 -76t-23.5 -58q0 -68 137 -213q56 -56 96.5 -140t40.5 -165q0 -154 -115 -235.5t-331 -63.5z" />
    <glyph glyph-name="agrave" unicode="&#xe0;" 
d="M690 1434l164 -271h-172l-207 271h215zM983 848v176h178v-1024h-178v176q-132 -203 -387 -203q-217 0 -367 156q-151 157 -151 383q0 224 151 381q152 158 367 158q255 0 387 -203zM618 145q156 0 261 105q104 107 104 262q0 156 -104 260q-104 107 -261 107
q-154 0 -258 -107q-104 -104 -104 -260q0 -155 104 -262q105 -105 258 -105z" />
    <glyph glyph-name="aacute" unicode="&#xe1;" 
d="M748 1434h215l-207 -271h-172zM983 848v176h178v-1024h-178v176q-132 -203 -387 -203q-217 0 -367 156q-151 157 -151 383q0 224 151 381q152 158 367 158q255 0 387 -203zM618 145q156 0 261 105q104 107 104 262q0 156 -104 260q-104 107 -261 107q-154 0 -258 -107
q-104 -104 -104 -260q0 -155 104 -262q105 -105 258 -105z" />
    <glyph glyph-name="acircumflex" unicode="&#xe2;" 
d="M834 1157l-125 166l-125 -166h-191l217 277h197l217 -277h-190zM983 848v176h178v-1024h-178v176q-132 -203 -387 -203q-217 0 -367 156q-151 157 -151 383q0 224 151 381q152 158 367 158q255 0 387 -203zM618 145q156 0 261 105q104 107 104 262q0 156 -104 260
q-104 107 -261 107q-154 0 -258 -107q-104 -104 -104 -260q0 -155 104 -262q105 -105 258 -105z" />
    <glyph glyph-name="atilde" unicode="&#xe3;" 
d="M686 1223q-74 65 -110.5 56t-36.5 -105h-150q0 99 28 162t73.5 83t101 9t113.5 -52q75 -65 111 -56.5t36 103.5h149q0 -98 -27 -160.5t-72 -82.5t-101 -9t-115 52zM983 848v176h178v-1024h-178v176q-132 -203 -387 -203q-217 0 -367 156q-151 157 -151 383q0 224 151 381
q152 158 367 158q255 0 387 -203zM618 145q156 0 261 105q104 107 104 262q0 156 -104 260q-104 107 -261 107q-154 0 -258 -107q-104 -104 -104 -260q0 -155 104 -262q105 -105 258 -105z" />
    <glyph glyph-name="adieresis" unicode="&#xe4;" 
d="M508 1190q-31 -31 -76.5 -31t-77.5 31q-31 32 -31 77t31 76q32 31 77.5 31t76.5 -31t31 -76t-31 -77zM897 1190q-31 -31 -76.5 -31t-77.5 31q-31 32 -31 77t31 76q32 31 77.5 31t76.5 -31t31 -76t-31 -77zM983 848v176h178v-1024h-178v176q-132 -203 -387 -203
q-217 0 -367 156q-151 157 -151 383q0 224 151 381q152 158 367 158q255 0 387 -203zM618 145q156 0 261 105q104 107 104 262q0 156 -104 260q-104 107 -261 107q-154 0 -258 -107q-104 -104 -104 -260q0 -155 104 -262q105 -105 258 -105z" />
    <glyph glyph-name="aring" unicode="&#xe5;" 
d="M793 1180q-65 -62 -166 -62q-103 0 -168 62q-64 64 -64 157q0 95 64 156t168 61q102 0 166 -61q65 -62 65 -156q0 -92 -65 -157zM627 1430q-43 0 -70 -27t-27 -66q0 -42 26.5 -68t70.5 -26q62 -5 87.5 44.5t0 99t-87.5 43.5zM983 848v176h178v-1024h-178v176
q-132 -203 -387 -203q-217 0 -367 156q-151 157 -151 383q0 224 151 381q152 158 367 158q255 0 387 -203zM618 145q156 0 261 105q104 107 104 262q0 156 -104 260q-104 107 -261 107q-154 0 -258 -107q-104 -104 -104 -260q0 -155 104 -262q105 -105 258 -105z" />
    <glyph glyph-name="ae" unicode="&#xe6;" horiz-adv-x="2097" 
d="M2021 430h-854q25 -135 122 -212t239 -77q210 0 301 150l151 -86q-151 -232 -430 -232q-265 0 -395 201v-174h-172v176q-132 -203 -387 -203q-217 0 -367 156q-151 157 -151 383q0 224 151 381q152 158 367 158q255 0 387 -203v176h172v-174q133 201 383 201
q224 0 358 -158q132 -156 132 -383q0 -33 -7 -80zM1520 883q-145 0 -239 -79.5t-114 -215.5h680q-20 139 -109.5 217t-217.5 78zM618 145q156 0 261 105q104 107 104 262q0 156 -104 260q-104 107 -261 107q-154 0 -258 -107q-104 -104 -104 -260q0 -155 104 -262
q105 -105 258 -105z" />
    <glyph glyph-name="ccedilla" unicode="&#xe7;" horiz-adv-x="1120" 
d="M926 328l151 -88q-57 -105 -159 -174t-226 -86v-72q80 -18 127 -61t47 -103q0 -210 -430 -186v135q275 -21 275 63q0 65 -170 74v147q-202 27 -334 177q-129 150 -129 358q0 230 153 383q153 156 385 156q151 0 271.5 -72.5t181.5 -196.5l-149 -86q-39 82 -120.5 131.5
t-183.5 49.5q-153 0 -258 -105q-102 -105 -102 -260q0 -153 102 -258q104 -104 258 -104q102 0 184.5 48t125.5 130z" />
    <glyph glyph-name="egrave" unicode="&#xe8;" horiz-adv-x="1193" 
d="M592 1436l164 -271h-172l-207 271h215zM1118 430h-858q26 -136 125 -212.5t246 -76.5q203 0 295 150l151 -86q-151 -232 -450 -232q-243 0 -398 152q-151 154 -151 387t149 385q151 154 387 154q225 0 367 -160q143 -155 143 -381q0 -40 -6 -80zM614 883
q-141 0 -236 -80.5t-118 -216.5h684q-23 142 -113 219.5t-217 77.5z" />
    <glyph glyph-name="eacute" unicode="&#xe9;" horiz-adv-x="1193" 
d="M680 1436h215l-207 -271h-172zM1118 430h-858q26 -136 125 -212.5t246 -76.5q203 0 295 150l151 -86q-151 -232 -450 -232q-243 0 -398 152q-151 154 -151 387t149 385q151 154 387 154q225 0 367 -160q143 -155 143 -381q0 -40 -6 -80zM614 883q-141 0 -236 -80.5
t-118 -216.5h684q-23 142 -113 219.5t-217 77.5z" />
    <glyph glyph-name="ecircumflex" unicode="&#xea;" horiz-adv-x="1193" 
d="M745 1159l-124 166l-125 -166h-191l217 277h197l217 -277h-191zM1118 430h-858q26 -136 125 -212.5t246 -76.5q203 0 295 150l151 -86q-151 -232 -450 -232q-243 0 -398 152q-151 154 -151 387t149 385q151 154 387 154q225 0 367 -160q143 -155 143 -381q0 -40 -6 -80z
M614 883q-141 0 -236 -80.5t-118 -216.5h684q-23 142 -113 219.5t-217 77.5z" />
    <glyph glyph-name="edieresis" unicode="&#xeb;" horiz-adv-x="1193" 
d="M483 1192q-31 -31 -76 -31t-77 31q-31 32 -31 77.5t31 76.5q32 31 77 31t76 -31t31 -76.5t-31 -77.5zM872 1192q-31 -31 -76 -31t-77 31q-31 32 -31 77.5t31 76.5q32 31 77 31t76 -31t31 -76.5t-31 -77.5zM1118 430h-858q26 -136 125 -212.5t246 -76.5q203 0 295 150
l151 -86q-151 -232 -450 -232q-243 0 -398 152q-151 154 -151 387t149 385q151 154 387 154q225 0 367 -160q143 -155 143 -381q0 -40 -6 -80zM614 883q-141 0 -236 -80.5t-118 -216.5h684q-23 142 -113 219.5t-217 77.5z" />
    <glyph glyph-name="igrave" unicode="&#xec;" horiz-adv-x="450" 
d="M352 1157h-172l-135 277h209zM313 0v1024h-178v-1024h178z" />
    <glyph glyph-name="iacute" unicode="&#xed;" horiz-adv-x="450" 
d="M100 1157l97 277h211l-136 -277h-172zM135 0h178v1024h-178v-1024z" />
    <glyph glyph-name="icircumflex" unicode="&#xee;" horiz-adv-x="450" 
d="M127 1434h197l180 -277h-189l-90 143l-90 -143h-190zM313 0h-178v1024h178v-1024z" />
    <glyph glyph-name="idieresis" unicode="&#xef;" horiz-adv-x="450" 
d="M147 1194q-31 -31 -75.5 -31t-75.5 31q-32 31 -32 76t32 76q31 32 75.5 32t75.5 -32q31 -31 31 -76t-31 -76zM455 1194q-31 -31 -76.5 -31t-77.5 31q-31 31 -31 76t31 76q32 32 77.5 32t76.5 -32q31 -31 31 -76t-31 -76zM313 0h-178v1024h178v-1024z" />
    <glyph glyph-name="eth" unicode="&#xf0;" horiz-adv-x="1189" 
d="M670 1227l350 -469q94 -131 94 -287q0 -220 -153 -358q-150 -138 -365 -138q-214 0 -367 138q-151 139 -151 358q0 215 155 352q154 136 367 121q44 -3 78 -10l-154 209l-241 -137v143l166 94l-140 191h207l80 -107l233 133v-143zM596 145q142 0 240 88q100 87 100 238
q0 115 -55 188q-99 129 -283 129q-150 0 -246 -87.5t-96 -229.5q0 -150 98 -238t242 -88z" />
    <glyph glyph-name="ntilde" unicode="&#xf1;" horiz-adv-x="1155" 
d="M590 1229q-74 65 -111 56t-37 -105h-149q0 80 18 136.5t49 84.5t71.5 35.5t85.5 -7t91 -47.5q75 -65 111.5 -56t36.5 104h149q0 -79 -18 -135.5t-48 -84.5t-70.5 -35.5t-86 7t-92.5 47.5zM645 1051q181 0 289 -114t108 -308v-629h-178v618q0 124 -67.5 193.5t-186.5 69.5
q-138 0 -217.5 -85.5t-79.5 -252.5v-543h-178v1024h178v-147q107 174 332 174z" />
    <glyph glyph-name="ograve" unicode="&#xf2;" horiz-adv-x="1232" 
d="M762 1169h-172l-207 271h215zM999 129q158 158 158 383t-158 383q-156 156 -383 156t-383 -156q-155 -155 -155 -383t155 -383q156 -156 383 -156t383 156zM616 147q-151 0 -256 105q-104 104 -104 260t104 260q105 105 256 105q153 0 258 -105t105 -260t-105 -260
t-258 -105z" />
    <glyph glyph-name="oacute" unicode="&#xf3;" horiz-adv-x="1232" 
d="M520 1169l164 271h215l-207 -271h-172zM999 129q158 158 158 383t-158 383q-156 156 -383 156t-383 -156q-155 -155 -155 -383t155 -383q156 -156 383 -156t383 156zM616 147q-151 0 -256 105q-104 104 -104 260t104 260q105 105 256 105q153 0 258 -105t105 -260
t-105 -260t-258 -105z" />
    <glyph glyph-name="ocircumflex" unicode="&#xf4;" horiz-adv-x="1232" 
d="M739 1163l-125 166l-125 -166h-190l217 277h197l217 -277h-191zM233 895q156 156 383 156t383 -156q158 -158 158 -383t-158 -383q-156 -156 -383 -156t-383 156q-155 155 -155 383t155 383zM616 147q153 0 258 105t105 260t-105 260t-258 105q-151 0 -256 -105
q-104 -104 -104 -260t104 -260q105 -105 256 -105z" />
    <glyph glyph-name="otilde" unicode="&#xf5;" horiz-adv-x="1232" 
d="M492 1180h-150q0 80 18 136.5t49 84.5t71.5 35.5t85.5 -7t91 -47.5q75 -65 111.5 -56t36.5 104h149q0 -79 -18 -135.5t-48 -84.5t-70.5 -35.5t-86 7t-92.5 47.5q-73 65 -110 56t-37 -105zM999 129q-156 -156 -383 -156t-383 156q-155 155 -155 383t155 383
q156 156 383 156t383 -156q158 -158 158 -383t-158 -383zM616 147q153 0 258 105t105 260t-105 260t-258 105q-151 0 -256 -105q-104 -104 -104 -260t104 -260q105 -105 256 -105z" />
    <glyph glyph-name="odieresis" unicode="&#xf6;" horiz-adv-x="1232" 
d="M498 1196q-31 -31 -76.5 -31t-77.5 31q-31 32 -31 77.5t31 76.5q32 31 77.5 31t76.5 -31t31 -76.5t-31 -77.5zM887 1196q-31 -31 -76.5 -31t-77.5 31q-31 32 -31 77.5t31 76.5q32 31 77.5 31t76.5 -31t31 -76.5t-31 -77.5zM999 129q-156 -156 -383 -156t-383 156
q-155 155 -155 383t155 383q156 156 383 156t383 -156q158 -158 158 -383t-158 -383zM616 147q153 0 258 105t105 260t-105 260t-258 105q-151 0 -256 -105q-104 -104 -104 -260t104 -260q105 -105 256 -105z" />
    <glyph glyph-name="divide" unicode="&#xf7;" horiz-adv-x="1177" 
d="M682 1012q-37 -37 -92.5 -37t-93.5 37q-37 38 -37 93.5t37 92.5q38 37 93.5 37t92.5 -37t37 -92.5t-37 -93.5zM1065 633h-952v170h952v-170zM682 236q-37 -37 -92.5 -37t-93.5 37q-37 38 -37 93.5t37 92.5q38 37 93.5 37t92.5 -37t37 -92.5t-37 -93.5z" />
    <glyph glyph-name="oslash" unicode="&#xf8;" horiz-adv-x="1232" 
d="M1100 983l-88 -100q145 -157 145 -371q0 -225 -158 -383q-156 -156 -383 -156q-171 0 -315 99l-74 -84l-92 53l88 100q-145 157 -145 371q0 228 155 383q156 156 383 156q179 0 316 -101l76 86zM256 512q0 -134 84 -238l477 545q-88 58 -201 58q-151 0 -256 -105
q-104 -104 -104 -260zM616 147q153 0 258 105t105 260q0 134 -84 238l-477 -545q88 -58 198 -58z" />
    <glyph glyph-name="ugrave" unicode="&#xf9;" horiz-adv-x="1155" 
d="M537 1434l163 -271h-172l-206 271h215zM842 481v543h178v-1024h-178v147q-107 -174 -332 -174q-181 0 -289 114t-108 308v629h178v-618q0 -124 67.5 -193.5t186.5 -69.5q138 0 217.5 85.5t79.5 252.5z" />
    <glyph glyph-name="uacute" unicode="&#xfa;" horiz-adv-x="1155" 
d="M657 1434h215l-206 -271h-172zM842 481v543h178v-1024h-178v147q-107 -174 -332 -174q-181 0 -289 114t-108 308v629h178v-618q0 -124 67.5 -193.5t186.5 -69.5q138 0 217.5 85.5t79.5 252.5z" />
    <glyph glyph-name="ucircumflex" unicode="&#xfb;" horiz-adv-x="1155" 
d="M686 1157l-125 166l-125 -166h-190l217 277h196l218 -277h-191zM842 481v543h178v-1024h-178v147q-107 -174 -332 -174q-181 0 -289 114t-108 308v629h178v-618q0 -124 67.5 -193.5t186.5 -69.5q138 0 217.5 85.5t79.5 252.5z" />
    <glyph glyph-name="udieresis" unicode="&#xfc;" horiz-adv-x="1155" 
d="M444 1190q-31 -31 -76 -31t-77 31q-31 32 -31 77t31 76q32 31 77 31t76 -31t31 -76t-31 -77zM834 1190q-31 -31 -76.5 -31t-77.5 31q-31 32 -31 77t31 76q32 31 77.5 31t76.5 -31t31 -76t-31 -77zM842 481v543h178v-1024h-178v147q-107 -174 -332 -174q-181 0 -289 114
t-108 308v629h178v-618q0 -124 67.5 -193.5t186.5 -69.5q138 0 217.5 85.5t79.5 252.5z" />
    <glyph glyph-name="yacute" unicode="&#xfd;" horiz-adv-x="1054" 
d="M588 1434h215l-207 -271h-172zM555 221l295 803h190l-417 -1087q-67 -175 -185 -266t-270 -81v166q188 -15 276 209l19 39l-447 1020h191z" />
    <glyph glyph-name="thorn" unicode="&#xfe;" 
d="M700 1051q215 0 367 -158t152 -381q0 -225 -152 -383q-150 -156 -367 -156q-255 0 -387 203v-586h-178v1844h178v-586q132 203 387 203zM678 145q153 0 258 105q104 107 104 262q0 156 -104 260q-104 107 -258 107q-156 0 -260 -107q-105 -105 -105 -260q0 -154 105 -262
q105 -105 260 -105z" />
    <glyph glyph-name="ydieresis" unicode="&#xff;" horiz-adv-x="1054" 
d="M406 1190q-31 -31 -76.5 -31t-77.5 31q-31 32 -31 77t31 76q32 31 77.5 31t76.5 -31t31 -76t-31 -77zM795 1190q-31 -31 -76.5 -31t-77.5 31q-31 32 -31 77t31 76q32 31 77.5 31t76.5 -31t31 -76t-31 -77zM555 221l295 803h190l-417 -1087q-67 -175 -185 -266t-270 -81
v166q188 -15 276 209l19 39l-447 1020h191z" />
    <glyph glyph-name="Amacron" unicode="&#x100;" horiz-adv-x="1316" 
d="M381 1737h553v-150h-553v150zM1300 0h-202l-117 322h-645l-117 -322h-203l535 1434h215zM657 1206l-256 -706h514z" />
    <glyph glyph-name="amacron" unicode="&#x101;" 
d="M350 1327h553v-149h-553v149zM983 848v176h178v-1024h-178v176q-132 -203 -387 -203q-217 0 -367 156q-151 157 -151 383q0 224 151 381q152 158 367 158q255 0 387 -203zM618 145q156 0 261 105q104 107 104 262q0 156 -104 260q-104 107 -261 107q-154 0 -258 -107
q-104 -104 -104 -260q0 -155 104 -262q105 -105 258 -105z" />
    <glyph glyph-name="Abreve" unicode="&#x102;" horiz-adv-x="1316" 
d="M657 1550q-142 0 -223.5 73.5t-81.5 203.5h166q0 -133 139 -133q140 0 140 133h166q0 -130 -81.5 -203.5t-224.5 -73.5zM1300 0h-202l-117 322h-645l-117 -322h-203l535 1434h215zM657 1206l-256 -706h514z" />
    <glyph glyph-name="abreve" unicode="&#x103;" 
d="M721 1141q-142 0 -223.5 73t-81.5 203h166q0 -133 139 -133t139 133h166q0 -130 -81 -203t-224 -73zM983 848v176h178v-1024h-178v176q-132 -203 -387 -203q-217 0 -367 156q-151 157 -151 383q0 224 151 381q152 158 367 158q255 0 387 -203zM618 145q156 0 261 105
q104 107 104 262q0 156 -104 260q-104 107 -261 107q-154 0 -258 -107q-104 -104 -104 -260q0 -155 104 -262q105 -105 258 -105z" />
    <glyph glyph-name="Aogonek" unicode="&#x104;" horiz-adv-x="1316" 
d="M1161 -233q0 -62 64 -62q38 0 75 16v-131q-62 -26 -135 -26q-82 0 -130 44.5t-48 119.5q0 126 143 272h-32l-117 322h-645l-117 -322h-203l535 1434h215l534 -1434q-139 -133 -139 -233zM657 1206l-256 -706h514z" />
    <glyph glyph-name="aogonek" unicode="&#x105;" 
d="M1161 1024v-1024q-141 -135 -141 -233q0 -62 63 -62q41 0 78 16v-131q-65 -26 -137 -26q-81 0 -128.5 44.5t-47.5 119.5q0 122 135 278v170q-132 -203 -387 -203q-217 0 -367 156q-151 157 -151 383q0 224 151 381q152 158 367 158q255 0 387 -203v176h178zM618 145
q156 0 261 105q104 107 104 262q0 156 -104 260q-104 107 -261 107q-154 0 -258 -107q-104 -104 -104 -260q0 -155 104 -262q105 -105 258 -105z" />
    <glyph glyph-name="Cacute" unicode="&#x106;" horiz-adv-x="1513" 
d="M705 1579l163 270h215l-206 -270h-172zM827 -27q196 0 363 95q166 94 256 256l-166 94q-62 -118 -184 -188t-269 -70q-249 0 -405 159t-156 398q0 240 156 399q157 160 405 160q147 0 269 -70.5t184 -189.5l166 96q-93 161 -258.5 254.5t-360.5 93.5q-326 0 -538 -215
q-211 -214 -211 -528q0 -315 211 -529q212 -215 538 -215z" />
    <glyph glyph-name="cacute" unicode="&#x107;" horiz-adv-x="1120" 
d="M477 1163l164 271h215l-207 -271h-172zM616 -27q148 0 271 72t190 195l-151 88q-43 -82 -125.5 -130t-184.5 -48q-154 0 -258 104q-102 105 -102 258q0 155 102 260q105 105 258 105q102 0 183.5 -49.5t120.5 -131.5l149 86q-61 124 -181.5 196.5t-271.5 72.5
q-232 0 -385 -156q-153 -153 -153 -383q0 -229 153 -385q154 -154 385 -154z" />
    <glyph glyph-name="Cdotaccent" unicode="&#x10a;" horiz-adv-x="1513" 
d="M954 1698q0 -52 -37 -89.5t-90 -37.5q-54 0 -91.5 36.5t-37.5 90.5t37.5 91.5t91.5 37.5t90.5 -37.5t36.5 -91.5zM827 -27q-326 0 -538 215q-211 214 -211 529q0 314 211 528q212 215 538 215q195 0 360.5 -93.5t258.5 -254.5l-166 -96q-62 119 -184 189.5t-269 70.5
q-248 0 -405 -160q-156 -159 -156 -399q0 -239 156 -398t405 -159q147 0 269 70t184 188l166 -94q-90 -162 -256 -256q-167 -95 -363 -95z" />
    <glyph glyph-name="cdotaccent" unicode="&#x10b;" horiz-adv-x="1120" 
d="M600 1155q-54 0 -91.5 36.5t-37.5 90.5t37.5 91.5t91.5 37.5t90.5 -37.5t36.5 -91.5q0 -53 -37.5 -90t-89.5 -37zM616 -27q-231 0 -385 154q-153 156 -153 385q0 230 153 383q153 156 385 156q151 0 271.5 -72.5t181.5 -196.5l-149 -86q-39 82 -120.5 131.5t-183.5 49.5
q-153 0 -258 -105q-102 -105 -102 -260q0 -153 102 -258q104 -104 258 -104q102 0 184.5 48t125.5 130l151 -88q-67 -123 -190 -195t-271 -72z" />
    <glyph glyph-name="Ccaron" unicode="&#x10c;" horiz-adv-x="1513" 
d="M924 1573h-197l-217 276h190l125 -166l125 166h191zM827 160q147 0 269 70t184 188l166 -94q-90 -162 -256 -256q-167 -95 -363 -95q-326 0 -538 215q-211 214 -211 529q0 314 211 528q212 215 538 215q195 0 360.5 -93.5t258.5 -254.5l-166 -96q-62 119 -184 189.5
t-269 70.5q-248 0 -405 -160q-156 -159 -156 -399q0 -239 156 -398t405 -159z" />
    <glyph glyph-name="ccaron" unicode="&#x10d;" horiz-adv-x="1120" 
d="M696 1157h-196l-217 277h190l125 -166l125 166h190zM926 328l151 -88q-67 -123 -190 -195t-271 -72q-231 0 -385 154q-153 156 -153 385q0 230 153 383q153 156 385 156q151 0 271.5 -72.5t181.5 -196.5l-149 -86q-39 82 -120.5 131.5t-183.5 49.5q-153 0 -258 -105
q-102 -105 -102 -260q0 -153 102 -258q104 -104 258 -104q102 0 184.5 48t125.5 130z" />
    <glyph glyph-name="Dcaron" unicode="&#x10e;" horiz-adv-x="1470" 
d="M803 1567h-197l-217 276h191l125 -166l124 166h191zM154 1434h559q291 0 485 -209q195 -207 195 -508q0 -300 -195 -510q-195 -207 -485 -207h-559v1434zM344 180h369q219 0 358 154t139 383t-139 383q-138 153 -358 153h-369v-1073z" />
    <glyph glyph-name="dcaron" unicode="&#x10f;" horiz-adv-x="1460" 
d="M983 848v586h178v-1434h-178v176q-132 -203 -387 -203q-217 0 -367 156q-151 157 -151 383q0 224 151 381q152 158 367 158q255 0 387 -203zM1288 1065l21 369h172l-62 -369h-131zM618 145q156 0 261 105q104 107 104 262q0 156 -104 260q-104 107 -261 107
q-154 0 -258 -107q-104 -104 -104 -260q0 -155 104 -262q105 -105 258 -105z" />
    <glyph glyph-name="Dcroat" unicode="&#x110;" horiz-adv-x="1521" 
d="M205 1434h559q291 0 485 -209q195 -207 195 -508q0 -300 -195 -510q-195 -207 -485 -207h-559v616h-129v164h129v654zM395 180h369q219 0 358 154q140 155 140 383t-140 383q-138 153 -358 153h-369v-473h361v-164h-361v-436z" />
    <glyph glyph-name="dslash" unicode="&#x111;" horiz-adv-x="1314" 
d="M1161 1296h137v-131h-137v-1165h-178v176q-132 -203 -387 -203q-217 0 -367 156q-151 157 -151 383q0 224 151 381q152 158 367 158q255 0 387 -203v317h-354v131h354v138h178v-138zM618 145q156 0 261 105q104 107 104 262q0 156 -104 260q-104 107 -261 107
q-154 0 -258 -107q-104 -104 -104 -260q0 -155 104 -262q105 -105 258 -105z" />
    <glyph glyph-name="Emacron" unicode="&#x112;" horiz-adv-x="1085" 
d="M301 1737h553v-150h-553v150zM344 635v-455h666v-180h-856v1434h845v-181h-655v-440h604v-178h-604z" />
    <glyph glyph-name="emacron" unicode="&#x113;" horiz-adv-x="1193" 
d="M326 1329h553v-149h-553v149zM1118 430h-858q26 -136 125 -212.5t246 -76.5q203 0 295 150l151 -86q-151 -232 -450 -232q-243 0 -398 152q-151 154 -151 387t149 385q151 154 387 154q225 0 367 -160q143 -155 143 -381q0 -40 -6 -80zM614 883q-141 0 -236 -80.5
t-118 -216.5h684q-23 142 -113 219.5t-217 77.5z" />
    <glyph glyph-name="Edotaccent" unicode="&#x116;" horiz-adv-x="1085" 
d="M668 1602q-37 -37 -91 -37t-92 37q-37 37 -37 90t37 90q38 38 92 38t91 -38q37 -37 37 -90t-37 -90zM344 635v-455h666v-180h-856v1434h845v-181h-655v-440h604v-178h-604z" />
    <glyph glyph-name="edotaccent" unicode="&#x117;" horiz-adv-x="1193" 
d="M729 1284q0 -52 -37 -89.5t-90 -37.5q-54 0 -91.5 36.5t-37.5 90.5t37.5 91.5t91.5 37.5t90.5 -37.5t36.5 -91.5zM1118 430h-858q26 -136 125 -212.5t246 -76.5q203 0 295 150l151 -86q-151 -232 -450 -232q-243 0 -398 152q-151 154 -151 387t149 385q151 154 387 154
q225 0 367 -160q143 -155 143 -381q0 -40 -6 -80zM614 883q-141 0 -236 -80.5t-118 -216.5h684q-23 142 -113 219.5t-217 77.5z" />
    <glyph glyph-name="Eogonek" unicode="&#x118;" horiz-adv-x="1085" 
d="M1010 180v-180q-140 -134 -140 -233q-3 -62 64 -62q39 0 76 16v-131q-62 -26 -136 -26q-84 0 -131 44t-47 120q0 128 144 272h-686v1434h845v-181h-655v-440h604v-178h-604v-455h666z" />
    <glyph glyph-name="eogonek" unicode="&#x119;" horiz-adv-x="1193" 
d="M1118 430h-858q26 -136 125 -212.5t246 -76.5q203 0 295 150l151 -86q-32 -46 -80 -94q-215 -238 -215 -344q0 -62 64 -62q39 0 76 16v-131q-62 -26 -136 -26q-81 0 -128.5 44.5t-47.5 119.5q0 128 131 256q-75 -11 -114 -11q-243 0 -398 152q-151 154 -151 387t149 385
q151 154 387 154q225 0 367 -160q143 -155 143 -381q0 -40 -6 -80zM614 883q-141 0 -236 -80.5t-118 -216.5h684q-23 142 -113 219.5t-217 77.5z" />
    <glyph glyph-name="Ecaron" unicode="&#x11a;" horiz-adv-x="1085" 
d="M674 1567h-197l-217 276h191l124 -166l125 166h191zM344 635v-455h666v-180h-856v1434h845v-181h-655v-440h604v-178h-604z" />
    <glyph glyph-name="ecaron" unicode="&#x11b;" horiz-adv-x="1193" 
d="M698 1159h-196l-217 277h190l125 -166l125 166h190zM1118 430h-858q26 -136 125 -212.5t246 -76.5q203 0 295 150l151 -86q-151 -232 -450 -232q-243 0 -398 152q-151 154 -151 387t149 385q151 154 387 154q225 0 367 -160q143 -155 143 -381q0 -40 -6 -80zM614 883
q-141 0 -236 -80.5t-118 -216.5h684q-23 142 -113 219.5t-217 77.5z" />
    <glyph glyph-name="Gbreve" unicode="&#x11e;" horiz-adv-x="1613" 
d="M807 1556q-142 0 -223.5 73.5t-81.5 203.5h166q0 -133 139 -133t139 133h166q0 -130 -81 -203.5t-224 -73.5zM819 711h717v-86q0 -280 -193 -467q-194 -185 -509 -185q-328 0 -543 215q-213 219 -213 529t213 526q214 217 538 217q196 0 365 -96q168 -96 256 -250
l-164 -96q-62 117 -186 187.5t-273 70.5q-248 0 -403 -162q-158 -161 -158 -397q0 -237 158 -398q159 -159 412 -159q211 0 345.5 104t164.5 275h-527v172z" />
    <glyph glyph-name="gbreve" unicode="&#x11f;" 
d="M623 1147q-142 0 -224 73t-82 203h166q0 -133 140 -133q139 0 139 133h166q0 -130 -81 -203t-224 -73zM985 848v176h176v-981q0 -226 -153 -352q-154 -127 -369 -127q-172 0 -297 64.5t-188 185.5l155 88q82 -172 334 -172q160 0 251 83.5t91 229.5v145
q-134 -204 -385 -204q-222 0 -371 155q-151 157 -151 379q0 223 151 377q150 156 371 156q253 0 385 -203zM985 518q0 154 -104 258q-105 105 -260 105q-156 0 -261 -105q-104 -104 -104 -258q0 -156 104 -260t261 -104q156 0 260 104t104 260z" />
    <glyph glyph-name="Gdotaccent" unicode="&#x120;" horiz-adv-x="1613" 
d="M934 1698q0 -52 -37 -89.5t-90 -37.5q-54 0 -91.5 36.5t-37.5 90.5t37.5 91.5t91.5 37.5t90.5 -37.5t36.5 -91.5zM819 711h717v-86q0 -280 -193 -467q-194 -185 -509 -185q-328 0 -543 215q-213 219 -213 529t213 526q214 217 538 217q196 0 365 -96q168 -96 256 -250
l-164 -96q-62 117 -186 187.5t-273 70.5q-248 0 -403 -162q-158 -161 -158 -397q0 -237 158 -398q159 -159 412 -159q211 0 345.5 104t164.5 275h-527v172z" />
    <glyph glyph-name="gdotaccent" unicode="&#x121;" 
d="M750 1288q0 -52 -37 -89.5t-90 -37.5q-54 0 -91.5 36.5t-37.5 90.5t37.5 91.5t91.5 37.5t90.5 -37.5t36.5 -91.5zM985 848v176h176v-981q0 -226 -153 -352q-154 -127 -369 -127q-172 0 -297 64.5t-188 185.5l155 88q82 -172 334 -172q160 0 251 83.5t91 229.5v145
q-134 -204 -385 -204q-222 0 -371 155q-151 157 -151 379q0 223 151 377q150 156 371 156q253 0 385 -203zM985 518q0 154 -104 258q-105 105 -260 105q-156 0 -261 -105q-104 -104 -104 -258q0 -156 104 -260t261 -104q156 0 260 104t104 260z" />
    <glyph glyph-name="Gcommaaccent" unicode="&#x122;" horiz-adv-x="1613" 
d="M819 711h717v-86q0 -280 -193 -467q-194 -185 -509 -185q-328 0 -543 215q-213 219 -213 529t213 526q214 217 538 217q196 0 365 -96q168 -96 256 -250l-164 -96q-62 117 -186 187.5t-273 70.5q-248 0 -403 -162q-158 -161 -158 -397q0 -237 158 -398q159 -159 412 -159
q211 0 345.5 104t164.5 275h-527v172zM891 -508h-133l20 369h174z" />
    <glyph glyph-name="gcommaaccent" unicode="&#x123;" 
d="M584 1573h133l-21 -369h-174zM985 848v176h176v-981q0 -226 -153 -352q-154 -127 -369 -127q-172 0 -297 64.5t-188 185.5l155 88q82 -172 334 -172q160 0 251 83.5t91 229.5v145q-134 -204 -385 -204q-222 0 -371 155q-151 157 -151 379q0 223 151 377q150 156 371 156
q253 0 385 -203zM985 518q0 154 -104 258q-105 105 -260 105q-156 0 -261 -105q-104 -104 -104 -258q0 -156 104 -260t261 -104q156 0 260 104t104 260z" />
    <glyph glyph-name="Hbar" unicode="&#x126;" horiz-adv-x="1480" 
d="M1278 1186h131v-146h-131v-1040h-191v633h-696v-633h-188v1040h-131v146h131v248h188v-248h696v248h191v-248zM391 813h696v227h-696v-227z" />
    <glyph glyph-name="hbar" unicode="&#x127;" horiz-adv-x="1173" 
d="M664 1051q181 0 289 -114t108 -308v-629h-178v618q0 124 -67.5 193.5t-186.5 69.5q-138 0 -217.5 -85.5t-79.5 -252.5v-543h-178v1165h-138v131h138v138h178v-138h293v-131h-293v-288q107 174 332 174z" />
    <glyph glyph-name="Itilde" unicode="&#x128;" horiz-adv-x="497" 
d="M154 0v1434h190v-1434h-190zM92 1583h-149q0 80 18 136.5t49 85t71.5 36t85.5 -7t91 -47.5q75 -65 111.5 -56.5t36.5 103.5h149q0 -79 -18 -135.5t-48 -84.5t-70.5 -35.5t-86 7t-92.5 47.5q-74 65 -111 56t-37 -105z" />
    <glyph glyph-name="itilde" unicode="&#x129;" horiz-adv-x="450" 
d="M313 0h-178v1024h178v-1024zM88 1171h-127q0 80 15.5 137.5t42 85.5t60.5 36t72.5 -6.5t77.5 -47.5q65 -66 96 -58t31 105h129q0 -99 -23.5 -162t-62 -83t-86 -9.5t-98.5 52.5q-63 66 -95 57t-32 -107z" />
    <glyph glyph-name="Imacron" unicode="&#x12a;" horiz-adv-x="497" 
d="M524 1587h-553v150h553v-150zM154 0v1434h190v-1434h-190z" />
    <glyph glyph-name="imacron" unicode="&#x12b;" horiz-adv-x="450" 
d="M440 1178h-430v155h430v-155zM313 0h-178v1024h178v-1024z" />
    <glyph glyph-name="Iogonek" unicode="&#x12e;" horiz-adv-x="497" 
d="M322 -295q40 0 77 16v-131q-65 -26 -137 -26q-81 0 -128.5 44.5t-47.5 119.5q0 117 82 272h-14v1434h190v-1434q-86 -154 -86 -233q0 -62 64 -62z" />
    <glyph glyph-name="iogonek" unicode="&#x12f;" horiz-adv-x="450" 
d="M225 1210q-51 0 -86 34.5t-35 84.5t35 85.5t86 35.5q49 0 84 -35.5t35 -85.5q0 -49 -35 -84t-84 -35zM299 -295q39 0 76 16v-131q-65 -26 -135 -26q-81 0 -130 50.5t-49 129.5q0 105 80 256h-6v1024h178v-1024q-77 -127 -77 -219q-2 -32 15.5 -54t47.5 -22z" />
    <glyph glyph-name="Idot" unicode="&#x130;" horiz-adv-x="497" 
d="M248 1565q-54 0 -91.5 36.5t-37.5 90.5t37.5 91.5t91.5 37.5t90.5 -37.5t36.5 -91.5q0 -53 -37.5 -90t-89.5 -37zM154 0v1434h190v-1434h-190z" />
    <glyph glyph-name="dotlessi" unicode="&#x131;" horiz-adv-x="450" 
d="M313 0h-178v1024h178v-1024z" />
    <glyph glyph-name="Kcommaaccent" unicode="&#x136;" horiz-adv-x="1212" 
d="M1176 1434l-633 -697l653 -737h-233l-619 688v-688h-190v1434h190v-648l598 648h234zM659 -508h-133l21 369h174z" />
    <glyph glyph-name="kcommaaccent" unicode="&#x137;" horiz-adv-x="1032" 
d="M985 1024l-489 -496l505 -528h-221l-467 485v-485h-178v1434h178v-863l443 453h229zM584 -508h-133l20 369h174z" />
    <glyph glyph-name="Lacute" unicode="&#x139;" horiz-adv-x="999" 
d="M322 1843h215l-207 -270h-172zM344 1434v-1254h619v-180h-809v1434h190z" />
    <glyph glyph-name="lacute" unicode="&#x13a;" horiz-adv-x="450" 
d="M135 1573l164 270h215l-207 -270h-172zM135 0h178v1495h-178v-1495z" />
    <glyph glyph-name="Lcommaaccent" unicode="&#x13b;" horiz-adv-x="999" 
d="M344 1434v-1254h619v-180h-809v1434h190zM606 -508h-133l21 369h174z" />
    <glyph glyph-name="lcommaaccent" unicode="&#x13c;" horiz-adv-x="450" 
d="M313 0h-178v1495h178v-1495zM254 -508h-133l20 369h174z" />
    <glyph glyph-name="Lcaron" unicode="&#x13d;" horiz-adv-x="999" 
d="M344 1434v-1254h619v-180h-809v1434h190zM553 1434h178l-61 -359h-138z" />
    <glyph glyph-name="lcaron" unicode="&#x13e;" horiz-adv-x="612" 
d="M313 0h-178v1495h178v-1495zM571 1126h-131l21 369h172z" />
    <glyph glyph-name="Lslash" unicode="&#x141;" horiz-adv-x="1040" 
d="M385 590v-410h619v-180h-809v477l-123 -71v180l123 71v777h190v-664l322 191v-181z" />
    <glyph glyph-name="lslash" unicode="&#x142;" horiz-adv-x="507" 
d="M342 874l129 89v-170l-129 -88v-705h-178v582l-127 -86v170l127 86v743h178v-621z" />
    <glyph glyph-name="Nacute" unicode="&#x143;" horiz-adv-x="1388" 
d="M565 1573l164 270h215l-207 -270h-172zM1044 1434v-1069l-737 1069h-153v-1434h190v1071l737 -1071h154v1434h-191z" />
    <glyph glyph-name="nacute" unicode="&#x144;" horiz-adv-x="1155" 
d="M641 1440h215l-207 -271h-172zM645 1051q181 0 289 -114t108 -308v-629h-178v618q0 124 -67.5 193.5t-186.5 69.5q-138 0 -217.5 -85.5t-79.5 -252.5v-543h-178v1024h178v-147q107 174 332 174z" />
    <glyph glyph-name="Ncommaaccent" unicode="&#x145;" horiz-adv-x="1388" 
d="M1044 365v1069h191v-1434h-154l-737 1071v-1071h-190v1434h153zM725 -508h-133l20 369h174z" />
    <glyph glyph-name="ncommaaccent" unicode="&#x146;" horiz-adv-x="1155" 
d="M645 1051q181 0 289 -114t108 -308v-629h-178v618q0 124 -67.5 193.5t-186.5 69.5q-138 0 -217.5 -85.5t-79.5 -252.5v-543h-178v1024h178v-147q107 174 332 174zM631 -508h-133l20 369h174z" />
    <glyph glyph-name="Ncaron" unicode="&#x147;" horiz-adv-x="1388" 
d="M784 1567h-196l-217 276h190l125 -166l125 166h190zM1044 365v1069h191v-1434h-154l-737 1071v-1071h-190v1434h153z" />
    <glyph glyph-name="ncaron" unicode="&#x148;" horiz-adv-x="1155" 
d="M696 1163h-196l-217 277h190l125 -166l125 166h190zM645 1051q181 0 289 -114t108 -308v-629h-178v618q0 124 -67.5 193.5t-186.5 69.5q-138 0 -217.5 -85.5t-79.5 -252.5v-543h-178v1024h178v-147q107 174 332 174z" />
    <glyph glyph-name="Eng" unicode="&#x14a;" horiz-adv-x="1388" 
d="M1044 365v1069h191v-1434q0 -211 -118 -313t-329 -97v179q134 0 195 51.5t61 185.5v47l-700 1018v-1071h-190v1434h153z" />
    <glyph glyph-name="eng" unicode="&#x14b;" horiz-adv-x="1155" 
d="M645 1051q181 0 289 -114t108 -308v-690q0 -195 -100 -291.5t-289 -83.5v172q107 -11 159 37.5t52 165.5v679q0 124 -67.5 193.5t-186.5 69.5q-138 0 -217.5 -85.5t-79.5 -252.5v-543h-178v1024h178v-147q107 174 332 174z" />
    <glyph glyph-name="Omacron" unicode="&#x14c;" horiz-adv-x="1638" 
d="M1096 1593h-553v150h553v-150zM78 717q0 311 215 526q214 217 526 217q313 0 527 -217q217 -214 217 -526q0 -310 -217 -527q-214 -217 -527 -217q-312 0 -526 217q-215 218 -215 527zM1372 717q0 237 -160 397q-155 162 -393 162q-237 0 -395 -162q-158 -161 -158 -397
q0 -232 158 -398q159 -159 395 -159q237 0 393 159q160 165 160 398z" />
    <glyph glyph-name="omacron" unicode="&#x14d;" horiz-adv-x="1232" 
d="M893 1184h-553v149h553v-149zM999 129q-156 -156 -383 -156t-383 156q-155 155 -155 383t155 383q156 156 383 156t383 -156q158 -158 158 -383t-158 -383zM616 147q153 0 258 105t105 260t-105 260t-258 105q-151 0 -256 -105q-104 -104 -104 -260t104 -260
q105 -105 256 -105z" />
    <glyph glyph-name="Ohungarumlaut" unicode="&#x150;" horiz-adv-x="1638" 
d="M522 1573l150 272h192l-162 -272h-180zM836 1573l170 272h192l-182 -272h-180zM78 717q0 -309 215 -527q214 -217 526 -217q313 0 527 217q217 217 217 527q0 312 -217 526q-214 217 -527 217q-312 0 -526 -217q-215 -215 -215 -526zM1372 717q0 -233 -160 -398
q-156 -159 -393 -159q-236 0 -395 159q-158 166 -158 398q0 236 158 397q158 162 395 162q238 0 393 -162q160 -160 160 -397z" />
    <glyph glyph-name="ohungarumlaut" unicode="&#x151;" horiz-adv-x="1232" 
d="M319 1163l150 273h193l-162 -273h-181zM633 1163l170 273h192l-182 -273h-180zM999 129q158 158 158 383t-158 383q-156 156 -383 156t-383 -156q-155 -155 -155 -383t155 -383q156 -156 383 -156t383 156zM616 147q-151 0 -256 105q-104 104 -104 260t104 260
q105 105 256 105q153 0 258 -105t105 -260t-105 -260t-258 -105z" />
    <glyph glyph-name="OE" unicode="&#x152;" horiz-adv-x="1873" 
d="M1184 635v-455h614v-180h-805q-94 -27 -194 -27q-310 0 -516 215q-205 217 -205 529q0 314 205 528q206 215 516 215q103 0 194 -26h795v-181h-604v-440h567v-178h-567zM993 190v1055q-91 31 -194 31q-232 0 -383 -160q-150 -159 -150 -399q0 -239 150 -398t383 -159
q112 0 194 30z" />
    <glyph glyph-name="oe" unicode="&#x153;" horiz-adv-x="2095" 
d="M2019 430h-858q24 -135 124 -212t243 -77q208 0 299 150l151 -86q-70 -110 -185 -171t-261 -61q-160 0 -281.5 73.5t-183.5 203.5q-64 -129 -183 -203t-270 -74q-231 0 -385 154q-151 157 -151 385q0 229 151 383q153 156 385 156q151 0 270 -74t183 -203
q63 130 181 203.5t274 73.5q223 0 362 -160q141 -156 141 -381q0 -40 -6 -80zM1516 883q-141 0 -236.5 -80t-118.5 -215h684q-23 139 -113 217t-216 78zM616 147q153 0 258 105t105 260t-105 260t-258 105q-158 0 -260 -105q-100 -103 -100 -260t100 -260q102 -105 260 -105
z" />
    <glyph glyph-name="Racute" unicode="&#x154;" horiz-adv-x="1251" 
d="M666 1843h215l-207 -270h-172zM1214 0h-210l-322 549h-338v-549h-190v1434h573q184 0 315 -131q132 -129 132 -314q0 -138 -84 -254q-84 -117 -213 -162zM727 1255h-383v-534h383q105 0 180 78q76 79 76 190q0 113 -76 189q-74 77 -180 77z" />
    <glyph glyph-name="racute" unicode="&#x155;" horiz-adv-x="671" 
d="M422 1434h215l-207 -271h-172zM313 1024v-172q88 190 320 190v-186q-131 6 -225 -70q-95 -77 -95 -243v-543h-178v1024h178z" />
    <glyph glyph-name="Rcommaaccent" unicode="&#x156;" horiz-adv-x="1251" 
d="M877 573l337 -573h-210l-322 549h-338v-549h-190v1434h573q184 0 315 -131q132 -129 132 -314q0 -138 -84 -254q-84 -117 -213 -162zM727 1255h-383v-534h383q105 0 180 78q76 79 76 190q0 113 -76 189q-74 77 -180 77zM702 -508h-133l21 369h174z" />
    <glyph glyph-name="rcommaaccent" unicode="&#x157;" horiz-adv-x="671" 
d="M313 1024v-172q88 190 320 190v-186q-131 6 -225 -70q-95 -77 -95 -243v-543h-178v1024h178zM254 -508h-133l20 369h174z" />
    <glyph glyph-name="Rcaron" unicode="&#x158;" horiz-adv-x="1251" 
d="M721 1567h-197l-217 276h191l125 -166l125 166h190zM1214 0h-210l-322 549h-338v-549h-190v1434h573q184 0 315 -131q132 -129 132 -314q0 -138 -84 -254q-84 -117 -213 -162zM727 1255h-383v-534h383q105 0 180 78q76 79 76 190q0 113 -76 189q-74 77 -180 77z" />
    <glyph glyph-name="rcaron" unicode="&#x159;" horiz-adv-x="671" 
d="M477 1157h-196l-218 277h191l125 -166l125 166h190zM313 1024v-172q88 190 320 190v-186q-131 6 -225 -70q-95 -77 -95 -243v-543h-178v1024h178z" />
    <glyph glyph-name="Sacute" unicode="&#x15a;" horiz-adv-x="1183" 
d="M463 1579l164 270h215l-207 -270h-172zM616 -27q221 0 359 111q137 113 137 301q0 143 -72 215q-22 26 -32.5 37t-30.5 26.5t-47 30.5q-74 42 -144 68q-35 14 -75 29l-84 26q-164 52 -234 103q-67 49 -67 143q0 98 71 155.5t189 57.5q233 0 325 -221l160 92
q-64 144 -191 228.5t-294 84.5q-189 0 -320 -110q-131 -107 -131 -295q0 -142 90 -240q33 -36 105 -74q68 -33 119 -53l137 -45q194 -62 260 -108q78 -54 78 -154q0 -102 -79 -161.5t-224 -59.5q-301 0 -383 260l-164 -94q57 -165 199.5 -259t342.5 -94z" />
    <glyph glyph-name="sacute" unicode="&#x15b;" horiz-adv-x="937" 
d="M512 1440h215l-207 -271h-172zM289 748q0 -56 53.5 -92t149.5 -62q41 -9 71.5 -17t71.5 -22t71 -30t61 -40t51 -52.5t32 -67t12 -84.5q0 -141 -108 -224q-110 -84 -275 -84q-147 0 -254.5 65t-152.5 175l153 88q25 -74 93 -117t161 -43q92 0 147.5 35.5t55.5 104.5
q0 102 -203 151q-35 9 -50.5 13.5t-50 14.5t-51.5 17.5t-47.5 20.5t-47 25.5t-39.5 30t-35.5 37t-25 43t-18 51.5t-5.5 60q0 134 102 220q106 86 260 86q124 0 221.5 -56.5t147.5 -156.5l-150 -84q-55 131 -219 131q-78 0 -130 -36.5t-52 -100.5z" />
    <glyph glyph-name="Scedilla" unicode="&#x15e;" horiz-adv-x="1183" 
d="M1112 385q0 -172 -118 -282.5t-316 -127.5v-67q80 -18 127 -61t47 -103q0 -210 -430 -186v135q274 -21 274 63q0 65 -170 74v150q-167 20 -284 110t-168 236l164 94q82 -260 383 -260q145 0 224 59.5t79 161.5q0 100 -78 154q-66 46 -260 108l-137 45q-51 20 -119 53
q-72 38 -105 74q-90 98 -90 240q0 188 131 295q131 110 320 110q167 0 294 -84.5t191 -228.5l-160 -92q-92 221 -325 221q-118 0 -189 -57.5t-71 -155.5q0 -94 67 -143q70 -51 234 -103l84 -26q40 -15 75 -29q70 -26 144 -68q27 -15 47 -30.5t30.5 -26.5t32.5 -37
q72 -72 72 -215z" />
    <glyph glyph-name="scedilla" unicode="&#x15f;" horiz-adv-x="937" 
d="M862 281q0 -122 -83 -203.5t-224 -100.5v-69q80 -18 127 -61t47 -103q0 -210 -430 -186v135q274 -21 274 63q0 65 -170 74v147q-248 34 -331 236l153 88q25 -74 93 -117t161 -43q92 0 147.5 35.5t55.5 104.5q0 102 -203 151q-35 9 -50.5 13.5t-50 14.5t-51.5 17.5
t-47.5 20.5t-47 25.5t-39.5 30t-35.5 37t-25 43t-18 51.5t-5.5 60q0 134 102 220q106 86 260 86q124 0 221.5 -56.5t147.5 -156.5l-150 -84q-55 131 -219 131q-78 0 -130 -36.5t-52 -100.5q0 -56 53.5 -92t149.5 -62q41 -9 71.5 -17t71.5 -22t71 -30t61 -40t51 -52.5t32 -67
t12 -84.5z" />
    <glyph glyph-name="Scaron" unicode="&#x160;" horiz-adv-x="1183" 
d="M682 1573h-197l-217 276h191l125 -166l125 166h190zM627 817l84 -26q40 -15 75 -29q70 -26 144 -68q27 -15 47 -30.5t30.5 -26.5t32.5 -37q72 -72 72 -215q0 -188 -137 -301q-138 -111 -359 -111q-200 0 -342.5 94t-199.5 259l164 94q82 -260 383 -260q145 0 224 59.5
t79 161.5q0 100 -78 154q-66 46 -260 108l-137 45q-51 20 -119 53q-72 38 -105 74q-90 98 -90 240q0 188 131 295q131 110 320 110q167 0 294 -84.5t191 -228.5l-160 -92q-92 221 -325 221q-118 0 -189 -57.5t-71 -155.5q0 -94 67 -143q70 -51 234 -103z" />
    <glyph glyph-name="scaron" unicode="&#x161;" horiz-adv-x="937" 
d="M567 1163h-196l-217 277h190l125 -166l125 166h190zM289 748q0 -56 53.5 -92t149.5 -62q41 -9 71.5 -17t71.5 -22t71 -30t61 -40t51 -52.5t32 -67t12 -84.5q0 -141 -108 -224q-110 -84 -275 -84q-147 0 -254.5 65t-152.5 175l153 88q25 -74 93 -117t161 -43
q92 0 147.5 35.5t55.5 104.5q0 102 -203 151q-35 9 -50.5 13.5t-50 14.5t-51.5 17.5t-47.5 20.5t-47 25.5t-39.5 30t-35.5 37t-25 43t-18 51.5t-5.5 60q0 134 102 220q106 86 260 86q124 0 221.5 -56.5t147.5 -156.5l-150 -84q-55 131 -219 131q-78 0 -130 -36.5t-52 -100.5
z" />
    <glyph glyph-name="uni0162" unicode="&#x162;" horiz-adv-x="1105" 
d="M37 1434h1034v-181h-424v-1253h-188v1253h-422v181zM584 -508h-133l20 369h174z" />
    <glyph glyph-name="uni0163" unicode="&#x163;" horiz-adv-x="774" 
d="M692 1024v-172h-272v-555q0 -76 30 -107.5t90.5 -32.5t151.5 3v-160q-235 -31 -342.5 38.5t-107.5 258.5v555h-203v172h203v233l178 54v-287h272zM508 -508h-133l20 369h174z" />
    <glyph glyph-name="Tcaron" unicode="&#x164;" horiz-adv-x="1105" 
d="M649 1567h-196l-217 276h190l125 -166l125 166h190zM37 1434h1034v-181h-424v-1253h-188v1253h-422v181z" />
    <glyph glyph-name="tcaron" unicode="&#x165;" horiz-adv-x="788" 
d="M545 1473h174l-62 -345h-133zM242 1257l178 54v-287h272v-172h-272v-555q0 -76 30 -107.5t90.5 -32.5t151.5 3v-160q-235 -31 -342.5 38.5t-107.5 258.5v555h-203v172h203v233z" />
    <glyph glyph-name="Tbar" unicode="&#x166;" horiz-adv-x="1105" 
d="M1071 1434v-181h-424v-454h281v-172h-281v-627h-188v627h-279v172h279v454h-422v181h1034z" />
    <glyph glyph-name="tbar" unicode="&#x167;" horiz-adv-x="774" 
d="M692 1024v-172h-272v-254h186v-143h-186v-158q0 -76 30 -107.5t90.5 -32.5t151.5 3v-160q-235 -31 -342.5 38.5t-107.5 258.5v158h-131v143h131v254h-203v172h203v233l178 54v-287h272z" />
    <glyph glyph-name="Utilde" unicode="&#x168;" horiz-adv-x="1347" 
d="M135 481v953h191v-945q0 -154 91 -241.5t257 -87.5t257 87.5t91 241.5v945h188v-953q0 -233 -149 -370q-150 -138 -387 -138q-239 0 -389 138t-150 370zM516 1583h-149q0 80 18 136.5t49 85t71.5 36t85.5 -7t91 -47.5q75 -65 111 -56.5t36 103.5h150q0 -79 -18 -135.5
t-48 -84.5t-70.5 -35.5t-86 7t-92.5 47.5q-74 65 -111 56t-37 -105z" />
    <glyph glyph-name="utilde" unicode="&#x169;" horiz-adv-x="1155" 
d="M842 481v543h178v-1024h-178v147q-107 -174 -332 -174q-181 0 -289 114t-108 308v629h178v-618q0 -124 67.5 -193.5t186.5 -69.5q138 0 217.5 85.5t79.5 252.5zM406 1174h-150q0 80 18 136.5t49 84.5t71.5 35.5t85.5 -7t91 -47.5q75 -65 111.5 -56.5t36.5 103.5h149
q0 -98 -27 -160.5t-72 -82.5t-101 -9t-115 52q-73 65 -110 56t-37 -105z" />
    <glyph glyph-name="Umacron" unicode="&#x16a;" horiz-adv-x="1347" 
d="M950 1587h-553v150h553v-150zM135 481v953h191v-945q0 -154 91 -241.5t257 -87.5t257 87.5t91 241.5v945h188v-953q0 -233 -149 -370q-150 -138 -387 -138q-239 0 -389 138t-150 370z" />
    <glyph glyph-name="umacron" unicode="&#x16b;" horiz-adv-x="1155" 
d="M287 1327h553v-149h-553v149zM842 481v543h178v-1024h-178v147q-107 -174 -332 -174q-181 0 -289 114t-108 308v629h178v-618q0 -124 67.5 -193.5t186.5 -69.5q138 0 217.5 85.5t79.5 252.5z" />
    <glyph glyph-name="Uring" unicode="&#x16e;" horiz-adv-x="1347" 
d="M840 1528q-65 -62 -166 -62q-103 0 -168 62q-64 64 -64 158t64 155q65 62 168 62q101 0 166 -62t65 -155t-65 -158zM674 1591q62 -5 87.5 44.5t0 99t-87.5 43.5q-43 0 -69.5 -26.5t-26.5 -65.5q0 -42 26 -68.5t70 -26.5zM135 481v953h191v-945q0 -154 91 -241.5
t257 -87.5t257 87.5t91 241.5v945h188v-953q0 -233 -149 -370q-150 -138 -387 -138q-239 0 -389 138t-150 370z" />
    <glyph glyph-name="uring" unicode="&#x16f;" horiz-adv-x="1155" 
d="M729 1180q-65 -62 -166 -62q-103 0 -168 62q-63 63 -63 157q0 96 63 156q64 61 168 61q102 0 166 -61q66 -63 66 -156q0 -91 -66 -157zM563 1430q-43 0 -69.5 -27t-26.5 -66q0 -42 26 -68t70 -26q62 -5 87.5 44.5t0 99t-87.5 43.5zM842 481v543h178v-1024h-178v147
q-107 -174 -332 -174q-181 0 -289 114t-108 308v629h178v-618q0 -124 67.5 -193.5t186.5 -69.5q138 0 217.5 85.5t79.5 252.5z" />
    <glyph glyph-name="Uhungarumlaut" unicode="&#x170;" horiz-adv-x="1347" 
d="M377 1567l149 272h193l-162 -272h-180zM690 1567l170 272h193l-183 -272h-180zM135 481q0 -232 150 -370t389 -138q237 0 387 138q149 137 149 370v953h-188v-945q0 -154 -91 -241.5t-257 -87.5t-257 87.5t-91 241.5v945h-191v-953z" />
    <glyph glyph-name="uhungarumlaut" unicode="&#x171;" horiz-adv-x="1155" 
d="M416 1430h192l-162 -273h-180zM942 1430l-182 -273h-180l170 273h192zM842 481v543h178v-1024h-178v147q-107 -174 -332 -174q-181 0 -289 114t-108 308v629h178v-618q0 -124 67.5 -193.5t186.5 -69.5q138 0 217.5 85.5t79.5 252.5z" />
    <glyph glyph-name="Uogonek" unicode="&#x172;" horiz-adv-x="1347" 
d="M1022 489v945h188v-953q0 -259 -186 -399q-127 -119 -175 -186t-48 -129q-3 -62 63 -62q39 0 76 16v-131q-62 -26 -135 -26q-84 0 -131 44t-47 120q0 116 121 249q-62 -4 -74 -4q-239 0 -389 138t-150 370v953h191v-945q0 -154 91 -241.5t257 -87.5t257 87.5t91 241.5z
" />
    <glyph glyph-name="uogonek" unicode="&#x173;" horiz-adv-x="1155" 
d="M1020 1024v-1024q-139 -133 -139 -233q0 -62 63 -62q39 0 76 16v-131q-62 -26 -135 -26q-82 0 -130 44.5t-48 119.5q0 108 135 274v145q-107 -174 -332 -174q-181 0 -289 114t-108 308v629h178v-618q0 -124 67.5 -193.5t186.5 -69.5q138 0 217.5 85.5t79.5 252.5v543h178
z" />
    <glyph glyph-name="Wcircumflex" unicode="&#x174;" horiz-adv-x="2048" 
d="M1167 1567l-125 166l-124 -166h-191l217 276h197l217 -276h-191zM1468 254l328 1180h201l-412 -1434h-221l-340 1145l-340 -1145h-221l-412 1434h201l328 -1180l348 1180h192z" />
    <glyph glyph-name="wcircumflex" unicode="&#x175;" horiz-adv-x="1576" 
d="M911 1157l-125 166l-124 -166h-191l217 277h197l217 -277h-191zM1116 244l225 780h187l-318 -1024h-182l-240 758l-239 -758h-182l-318 1024h187l225 -778l241 778h172z" />
    <glyph glyph-name="Ycircumflex" unicode="&#x176;" horiz-adv-x="1236" 
d="M735 1567l-125 166l-125 -166h-190l217 276h197l217 -276h-191zM1008 1434h213l-508 -854v-580h-191v582l-506 852h213l389 -672z" />
    <glyph glyph-name="ycircumflex" unicode="&#x177;" horiz-adv-x="1054" 
d="M647 1157l-125 166l-125 -166h-190l217 277h197l217 -277h-191zM555 221l295 803h190l-417 -1087q-67 -175 -185 -266t-270 -81v166q188 -15 276 209l19 39l-447 1020h191z" />
    <glyph glyph-name="Ydieresis" unicode="&#x178;" horiz-adv-x="1236" 
d="M494 1599q-31 -31 -76.5 -31t-77.5 31q-31 32 -31 77.5t31 76.5q32 31 77.5 31t76.5 -31t31 -76.5t-31 -77.5zM883 1599q-31 -31 -76.5 -31t-77.5 31q-31 32 -31 77.5t31 76.5q32 31 77.5 31t76.5 -31t31 -76.5t-31 -77.5zM1008 1434h213l-508 -854v-580h-191v582
l-506 852h213l389 -672z" />
    <glyph glyph-name="Zacute" unicode="&#x179;" horiz-adv-x="1075" 
d="M590 1843h215l-207 -270h-172zM999 1270l-694 -1090h711v-180h-936v166l692 1087h-674v181h901v-164z" />
    <glyph glyph-name="zacute" unicode="&#x17a;" horiz-adv-x="964" 
d="M537 1434h215l-207 -271h-172zM866 905l-524 -735h545v-170h-789v119l523 735h-502v170h747v-119z" />
    <glyph glyph-name="Zdotaccent" unicode="&#x17b;" horiz-adv-x="1075" 
d="M639 1602q-37 -37 -90.5 -37t-91.5 37q-37 37 -37 90t37 90q38 38 91.5 38t90.5 -38q37 -37 37 -90t-37 -90zM999 1270l-694 -1090h711v-180h-936v166l692 1087h-674v181h901v-164z" />
    <glyph glyph-name="zdotaccent" unicode="&#x17c;" horiz-adv-x="964" 
d="M586 1192q-37 -37 -91 -37t-92 37q-37 37 -37 90t37 90q38 38 92 38t91 -38q37 -37 37 -90t-37 -90zM866 905l-524 -735h545v-170h-789v119l523 735h-502v170h747v-119z" />
    <glyph glyph-name="Zcaron" unicode="&#x17d;" horiz-adv-x="1075" 
d="M645 1567h-196l-218 276h191l125 -166l125 166h190zM999 1270l-694 -1090h711v-180h-936v166l692 1087h-674v181h901v-164z" />
    <glyph glyph-name="zcaron" unicode="&#x17e;" horiz-adv-x="964" 
d="M592 1157h-197l-217 277h191l125 -166l124 166h191zM866 905l-524 -735h545v-170h-789v119l523 735h-502v170h747v-119z" />
    <glyph glyph-name="florin" unicode="&#x192;" horiz-adv-x="901" 
d="M901 1442v-176q-97 41 -167 5t-87 -136l-57 -330h219v-172h-248l-129 -756q-30 -188 -146.5 -262.5t-285.5 -26.5v174q97 -38 167 -2t87 134l127 739h-207v172h236l59 346q30 189 146.5 264t285.5 27z" />
    <glyph glyph-name="Ohorn" unicode="&#x1a0;" horiz-adv-x="1638" 
d="M78 717q0 311 215 526q214 217 526 217q103 0 205 -26h131q64 0 84.5 27.5t20.5 99.5v24h157v-24q0 -108 -33 -168.5t-112 -83.5q40 -32 74 -66q217 -214 217 -526q0 -310 -217 -527q-214 -217 -527 -217q-312 0 -526 217q-215 218 -215 527zM1372 717q0 237 -160 397
q-155 162 -393 162q-237 0 -395 -162q-158 -161 -158 -397q0 -232 158 -398q159 -159 395 -159q237 0 393 159q160 165 160 398z" />
    <glyph glyph-name="ohorn" unicode="&#x1a1;" horiz-adv-x="1232" 
d="M999 129q-156 -156 -383 -156t-383 156q-155 155 -155 383t155 383q156 156 383 156q94 0 177 -27h69q64 0 84.5 27.5t20.5 99.5v25h157v-25q0 -103 -31 -163.5t-102 -84.5q3 -5 8 -8q158 -158 158 -383t-158 -383zM616 147q153 0 258 105t105 260t-105 260t-258 105
q-151 0 -256 -105q-104 -104 -104 -260t104 -260q105 -105 256 -105z" />
    <glyph glyph-name="Uhorn" unicode="&#x1af;" horiz-adv-x="1347" 
d="M135 481v953h191v-945q0 -154 91 -241.5t257 -87.5t257 87.5t91 241.5v945h86q64 0 84 27.5t20 99.5v24h158v-24q0 -113 -36 -174.5t-124 -81.5v-824q0 -233 -149 -370q-150 -138 -387 -138q-239 0 -389 138t-150 370z" />
    <glyph glyph-name="uhorn" unicode="&#x1b0;" horiz-adv-x="1155" 
d="M1028 1151v25h158v-25q0 -114 -37.5 -176t-128.5 -80v-895h-178v147q-107 -174 -332 -174q-181 0 -289 114t-108 308v629h178v-618q0 -124 67.5 -193.5t186.5 -69.5q138 0 217.5 85.5t79.5 252.5v543h82q64 0 84 27.5t20 99.5z" />
    <glyph glyph-name="Scommaaccent" unicode="&#x218;" horiz-adv-x="1183" 
d="M616 -27q-200 0 -342.5 94t-199.5 259l164 94q82 -260 383 -260q145 0 224 59.5t79 161.5q0 100 -78 154q-66 46 -260 108l-137 45q-51 20 -119 53q-72 38 -105 74q-90 98 -90 240q0 188 131 295q131 110 320 110q167 0 294 -84.5t191 -228.5l-160 -92q-92 221 -325 221
q-118 0 -189 -57.5t-71 -155.5q0 -94 67 -143q70 -51 234 -103l84 -26q40 -15 75 -29q70 -26 144 -68q27 -15 47 -30.5t30.5 -26.5t32.5 -37q72 -72 72 -215q0 -188 -137 -301q-138 -111 -359 -111zM655 -508h-133l21 369h174z" />
    <glyph glyph-name="scommaaccent" unicode="&#x219;" horiz-adv-x="937" 
d="M289 748q0 -56 53.5 -92t149.5 -62q41 -9 71.5 -17t71.5 -22t71 -30t61 -40t51 -52.5t32 -67t12 -84.5q0 -141 -108 -224q-110 -84 -275 -84q-147 0 -254.5 65t-152.5 175l153 88q25 -74 93 -117t161 -43q92 0 147.5 35.5t55.5 104.5q0 102 -203 151q-35 9 -50.5 13.5
t-50 14.5t-51.5 17.5t-47.5 20.5t-47 25.5t-39.5 30t-35.5 37t-25 43t-18 51.5t-5.5 60q0 134 102 220q106 86 260 86q124 0 221.5 -56.5t147.5 -156.5l-150 -84q-55 131 -219 131q-78 0 -130 -36.5t-52 -100.5zM532 -508h-133l21 369h174z" />
    <glyph glyph-name="uni021A" unicode="&#x21a;" horiz-adv-x="1105" 
d="M37 1434h1034v-181h-424v-1253h-188v1253h-422v181zM584 -508h-133l20 369h174z" />
    <glyph glyph-name="uni021B" unicode="&#x21b;" horiz-adv-x="774" 
d="M692 1024v-172h-272v-555q0 -76 30 -107.5t90.5 -32.5t151.5 3v-160q-235 -31 -342.5 38.5t-107.5 258.5v555h-203v172h203v233l178 54v-287h272zM508 -508h-133l20 369h174z" />
    <glyph glyph-name="circumflex" unicode="&#x2c6;" horiz-adv-x="712" 
d="M455 1434l217 -277h-191l-125 166l-125 -166h-190l217 277h197z" />
    <glyph glyph-name="caron" unicode="&#x2c7;" horiz-adv-x="712" 
d="M356 1268l125 166h191l-217 -277h-197l-217 277h190z" />
    <glyph glyph-name="breve" unicode="&#x2d8;" horiz-adv-x="692" 
d="M346 1141q-142 0 -223.5 73t-81.5 203h166q0 -133 139 -133t139 133h166q0 -130 -81 -203t-224 -73z" />
    <glyph glyph-name="dotaccent" unicode="&#x2d9;" horiz-adv-x="344" 
d="M170 1155q-54 0 -91.5 36.5t-37.5 90.5t37.5 91.5t91.5 37.5t90.5 -37.5t36.5 -91.5q0 -53 -37.5 -90t-89.5 -37z" />
    <glyph glyph-name="ring" unicode="&#x2da;" horiz-adv-x="544" 
d="M438 1180q-65 -62 -166 -62q-103 0 -168 62q-63 63 -63 157q0 96 63 156q64 61 168 61q102 0 166 -61q66 -63 66 -156q0 -91 -66 -157zM272 1243q62 -5 87.5 44.5t0 99t-87.5 43.5q-43 0 -69.5 -27t-26.5 -66q0 -42 26 -68t70 -26z" />
    <glyph glyph-name="ogonek" unicode="&#x2db;" horiz-adv-x="395" 
d="M219 -436q-84 0 -131 44t-47 120q0 129 143 272h170q-139 -133 -139 -233q-3 -62 64 -62q38 0 75 16v-131q-65 -26 -135 -26z" />
    <glyph glyph-name="tilde" unicode="&#x2dc;" horiz-adv-x="696" 
d="M193 1174h-150q0 80 18 136.5t49 84.5t71.5 35.5t85.5 -7t91 -47.5q75 -65 111.5 -56.5t36.5 103.5h149q0 -98 -27 -160.5t-72 -82.5t-101 -9t-115 52q-74 65 -110.5 56t-36.5 -105z" />
    <glyph glyph-name="hungarumlaut" unicode="&#x2dd;" horiz-adv-x="757" 
d="M41 1157l149 273h193l-162 -273h-180zM354 1157l170 273h193l-182 -273h-181z" />
    <glyph glyph-name="gravecomb" unicode="&#x300;" horiz-adv-x="0" 
d="M-41 1163h-172l-207 271h215z" />
    <glyph glyph-name="acutecomb" unicode="&#x301;" horiz-adv-x="0" 
d="M-420 1163l164 271h215l-207 -271h-172z" />
    <glyph glyph-name="uni0302" unicode="&#x302;" horiz-adv-x="0" 
d="M-258 1434l217 -277h-190l-125 166l-125 -166h-191l217 277h197z" />
    <glyph glyph-name="tildecomb" unicode="&#x303;" horiz-adv-x="0" 
d="M-500 1174h-149q0 80 18 136.5t49 84.5t71.5 35.5t85.5 -7t91 -47.5q75 -65 111.5 -56.5t36.5 103.5h149q0 -98 -27 -160.5t-72 -82.5t-101 -9t-115 52q-74 65 -111 56t-37 -105z" />
    <glyph glyph-name="uni0304" unicode="&#x304;" horiz-adv-x="0" 
d="M-41 1178h-553v149h553v-149z" />
    <glyph glyph-name="uni0306" unicode="&#x306;" horiz-adv-x="0" 
d="M-346 1141q-142 0 -223.5 73t-81.5 203h166q0 -133 139 -133t139 133h166q0 -130 -81 -203t-224 -73z" />
    <glyph glyph-name="uni0307" unicode="&#x307;" horiz-adv-x="0" 
d="M-78 1192q-37 -37 -90 -37t-90 37q-38 37 -38 90t38 90q37 38 90 38t90 -38q37 -37 37 -90t-37 -90z" />
    <glyph glyph-name="uni0308" unicode="&#x308;" horiz-adv-x="0" 
d="M-461 1190q-31 -31 -75.5 -31t-75.5 31q-32 32 -32 77t32 76q31 31 75.5 31t75.5 -31t31 -76t-31 -77zM-72 1190q-31 -31 -75.5 -31t-75.5 31q-32 32 -32 77t32 76q31 31 75.5 31t75.5 -31t31 -76t-31 -77z" />
    <glyph glyph-name="uni030A" unicode="&#x30a;" horiz-adv-x="0" 
d="M-106 1180q-65 -62 -168 -62q-101 0 -166 62q-66 66 -66 157q0 93 66 156q64 61 166 61q104 0 168 -61q63 -60 63 -156q0 -94 -63 -157zM-274 1243q62 -5 87.5 44.5t0 99t-87.5 43.5q-43 0 -70 -27t-27 -66q0 -42 26.5 -68t70.5 -26z" />
    <glyph glyph-name="uni030B" unicode="&#x30b;" horiz-adv-x="0" 
d="M-717 1157l150 273h192l-162 -273h-180zM-403 1157l170 273h192l-182 -273h-180z" />
    <glyph glyph-name="uni030C" unicode="&#x30c;" horiz-adv-x="0" 
d="M-356 1268l125 166h190l-217 -277h-197l-217 277h191z" />
    <glyph glyph-name="uni0312" unicode="&#x312;" horiz-adv-x="0" 
d="M-174 1976h133l-20 -368h-175z" />
    <glyph glyph-name="uni0326" unicode="&#x326;" horiz-adv-x="0" 
d="M-102 -508h-134l21 369h174z" />
    <glyph glyph-name="uni0327" unicode="&#x327;" horiz-adv-x="0" 
d="M-215 0v-92q80 -18 127 -61t47 -103q0 -210 -430 -186v135q274 -21 274 63q0 65 -170 74v170h152z" />
    <glyph glyph-name="uni0328" unicode="&#x328;" horiz-adv-x="0" 
d="M-180 -436q-84 0 -131 44t-47 120q0 129 143 272h170q-139 -133 -139 -233q-3 -62 63 -62q39 0 76 16v-131q-65 -26 -135 -26z" />
    <glyph glyph-name="uni0394" unicode="&#x394;" horiz-adv-x="1306" 
d="M545 1434h215l530 -1434h-1274zM653 1210l-370 -1032h741z" />
    <glyph glyph-name="uni03A9" unicode="&#x3a9;" horiz-adv-x="1628" 
d="M1556 727q0 -169 -73 -311.5t-203 -235.5h252v-180h-563v180q174 49 286 197q113 146 113 340q0 237 -160 397q-155 162 -393 162q-237 0 -395 -162q-158 -161 -158 -397q0 -194 109 -342q113 -146 288 -195v-180h-561v180h250q-130 93 -203 235.5t-73 311.5
q0 308 215 520q216 213 528 213q310 0 526 -213q215 -212 215 -520z" />
    <glyph glyph-name="pi" unicode="&#x3c0;" horiz-adv-x="1341" 
d="M57 1024h1229v-170h-168v-854h-178v854h-530v-854h-179v854h-174v170z" />
    <glyph glyph-name="uni0401" unicode="&#x401;" horiz-adv-x="1085" 
d="M459 1599q-31 -31 -76.5 -31t-77.5 31q-31 32 -31 77.5t31 76.5q32 31 77.5 31t76.5 -31t31 -76.5t-31 -77.5zM848 1599q-31 -31 -76.5 -31t-77.5 31q-31 32 -31 77.5t31 76.5q32 31 77.5 31t76.5 -31t31 -76.5t-31 -77.5zM344 635v-455h666v-180h-856v1434h845v-181
h-655v-440h604v-178h-604z" />
    <glyph glyph-name="uni0402" unicode="&#x402;" horiz-adv-x="1433" 
d="M924 963q177 0 282 -103t105 -291v-213q0 -198 -100.5 -293t-295.5 -81v176q110 -11 157.5 35t47.5 163v205q0 230 -215 230q-147 0 -293 -58v-733h-190v1253h-385v181h1018v-181h-443v-352q148 62 312 62z" />
    <glyph glyph-name="uni0403" unicode="&#x403;" horiz-adv-x="993" 
d="M602 1841h215l-207 -270h-172zM154 1434h804v-181h-614v-1253h-190v1434z" />
    <glyph glyph-name="uni0404" unicode="&#x404;" horiz-adv-x="1505" 
d="M819 160q147 0 270 70.5t183 187.5l166 -94q-88 -161 -255 -256t-364 -95q-323 0 -532 215t-209 529q0 316 209 528q209 215 532 215q197 0 363 -94q168 -95 256 -254l-166 -96q-62 119 -184 189.5t-269 70.5q-224 0 -370 -131q-150 -135 -177 -338h738v-178h-738
q27 -203 177 -338q146 -131 370 -131z" />
    <glyph glyph-name="uni0405" unicode="&#x405;" horiz-adv-x="1183" 
d="M616 -27q-200 0 -342.5 94t-199.5 259l164 94q82 -260 383 -260q145 0 224 59.5t79 161.5q0 100 -78 154q-66 46 -260 108l-137 45q-51 20 -119 53q-72 38 -105 74q-90 98 -90 240q0 188 131 295q131 110 320 110q167 0 294 -84.5t191 -228.5l-160 -92q-92 221 -325 221
q-118 0 -189 -57.5t-71 -155.5q0 -94 67 -143q70 -51 234 -103l84 -26q40 -15 75 -29q70 -26 144 -68q27 -15 47 -30.5t30.5 -26.5t32.5 -37q72 -72 72 -215q0 -188 -137 -301q-138 -111 -359 -111z" />
    <glyph glyph-name="uni0406" unicode="&#x406;" horiz-adv-x="497" 
d="M154 0v1434h190v-1434h-190z" />
    <glyph glyph-name="uni0407" unicode="&#x407;" horiz-adv-x="497" 
d="M129 1599q-31 -31 -76 -31t-76 31q-32 32 -32 77.5t32 76.5q31 31 76 31t76 -31t31 -76.5t-31 -77.5zM518 1599q-31 -31 -76 -31t-77 31q-31 32 -31 77.5t31 76.5q32 31 77 31t76 -31t31 -76.5t-31 -77.5zM154 0v1434h190v-1434h-190z" />
    <glyph glyph-name="uni0408" unicode="&#x408;" horiz-adv-x="1142" 
d="M526 -27q-157 0 -275 66.5t-173 189.5l162 95q65 -164 286 -164q139 0 216 66.5t77 193.5v1014h189v-1014q0 -215 -138 -332q-136 -115 -344 -115z" />
    <glyph glyph-name="uni0409" unicode="&#x409;" horiz-adv-x="2015" 
d="M1206 846h289q187 0 317 -121q132 -120 132 -303t-132 -303q-128 -119 -317 -119h-479v1253h-514v-632q0 -154 -24 -269t-65.5 -185.5t-102.5 -111.5t-129 -53t-152 -4v172q145 -19 213.5 84t68.5 367v813h895v-588zM1206 178h289q111 0 184.5 68t73.5 176t-73.5 177
t-184.5 69h-289v-490z" />
    <glyph glyph-name="uni040A" unicode="&#x40a;" horiz-adv-x="1992" 
d="M1184 846h289q187 0 317 -121q131 -119 131 -303t-131 -303q-128 -119 -317 -119h-480v668h-649v-668h-190v1434h190v-588h649v588h191v-588zM1184 178h289q111 0 184.5 68t73.5 176t-74 177t-184 69h-289v-490z" />
    <glyph glyph-name="uni040B" unicode="&#x40b;" horiz-adv-x="1443" 
d="M924 963q177 0 282 -103t105 -291v-569h-191v561q0 230 -215 230q-147 0 -293 -58v-733h-190v1253h-385v181h1018v-181h-443v-352q148 62 312 62z" />
    <glyph glyph-name="uni040C" unicode="&#x40c;" horiz-adv-x="1212" 
d="M643 1841h215l-207 -270h-172zM543 737l653 -737h-233l-619 688v-688h-190v1434h190v-648l598 648h234z" />
    <glyph glyph-name="uni040E" unicode="&#x40e;" horiz-adv-x="1187" 
d="M328 1741h553v-156h-553v156zM631 614l344 820h192l-460 -1094q-78 -184 -199 -267.5t-295 -72.5v176q118 -12 191.5 34.5t123.5 162.5l15 33l-486 1028h193z" />
    <glyph glyph-name="uni040F" unicode="&#x40f;" horiz-adv-x="1347" 
d="M1004 180v1254h190v-1434h-426v-274h-188v274h-426v1434h190v-1254h660z" />
    <glyph glyph-name="uni0410" unicode="&#x410;" horiz-adv-x="1316" 
d="M1300 0h-202l-117 322h-645l-117 -322h-203l535 1434h215zM657 1206l-256 -706h514z" />
    <glyph glyph-name="uni0411" unicode="&#x411;" horiz-adv-x="1198" 
d="M344 870h348q186 0 316 -127q129 -126 129 -307q0 -185 -129 -311q-125 -125 -316 -125h-538v1434h860v-181h-670v-383zM344 178h348q106 0 180 74q76 73 76 184q0 109 -76 182q-74 74 -180 74h-348v-514z" />
    <glyph glyph-name="uni0412" unicode="&#x412;" horiz-adv-x="1259" 
d="M973 743q100 -48 157.5 -136t57.5 -201q0 -171 -121 -289q-120 -117 -295 -117h-618v1434h573q169 0 285 -113t116 -279q0 -192 -155 -299zM727 1255h-383v-438h383q91 0 152 63.5t61 155.5q0 91 -63 154q-62 65 -150 65zM344 178h428q96 0 161.5 67.5t65.5 166.5
q0 96 -67 163q-65 68 -160 68h-428v-465z" />
    <glyph glyph-name="uni0413" unicode="&#x413;" horiz-adv-x="993" 
d="M154 1434h804v-181h-614v-1253h-190v1434z" />
    <glyph glyph-name="uni0414" unicode="&#x414;" horiz-adv-x="1423" 
d="M1204 1434v-1254h154v-454h-191v274h-946v-274h-190v454h125q133 168 133 504v750h915zM371 180h643v1075h-535v-575q0 -324 -108 -500z" />
    <glyph glyph-name="uni0415" unicode="&#x415;" horiz-adv-x="1085" 
d="M344 635v-455h666v-180h-856v1434h845v-181h-655v-440h604v-178h-604z" />
    <glyph glyph-name="uni0416" unicode="&#x416;" horiz-adv-x="1777" 
d="M1167 733l576 -733h-217l-543 688v-688h-188v688l-543 -688h-215l573 733l-553 701h215l523 -658v658h188v-658l522 658h217z" />
    <glyph glyph-name="uni0417" unicode="&#x417;" horiz-adv-x="1155" 
d="M850 741q111 -48 172 -138t61 -212q0 -183 -139 -301q-138 -117 -364 -117q-199 0 -328 88.5t-182 241.5l161 92q64 -241 349 -241q148 0 230.5 65.5t82.5 177.5q0 111 -78 178.5t-213 67.5h-168v174h121q130 0 208.5 64.5t78.5 169.5q0 104 -74 167.5t-201 63.5
q-238 0 -317 -211l-160 92q128 297 477 297q208 0 334 -114q129 -114 129 -291q0 -207 -180 -314z" />
    <glyph glyph-name="uni0418" unicode="&#x418;" horiz-adv-x="1388" 
d="M1235 0h-191v1069l-737 -1069h-153v1434h190v-1072l737 1072h154v-1434z" />
    <glyph glyph-name="uni0419" unicode="&#x419;" horiz-adv-x="1388" 
d="M971 1587h-553v156h553v-156zM1235 0h-191v1069l-737 -1069h-153v1434h190v-1072l737 1072h154v-1434z" />
    <glyph glyph-name="uni041A" unicode="&#x41a;" horiz-adv-x="1212" 
d="M543 737l653 -737h-233l-619 688v-688h-190v1434h190v-648l598 648h234z" />
    <glyph glyph-name="uni041B" unicode="&#x41b;" horiz-adv-x="1411" 
d="M29 0v172q145 -21 213.5 82t68.5 367v813h946v-1434h-190v1253h-565v-632q0 -154 -24 -268.5t-65.5 -185t-102.5 -111t-129 -52.5t-152 -4z" />
    <glyph glyph-name="uni041C" unicode="&#x41c;" horiz-adv-x="1648" 
d="M1280 1434h215v-1434h-188v1120l-469 -780h-25l-469 778v-1118h-190v1434h215l456 -758z" />
    <glyph glyph-name="uni041D" unicode="&#x41d;" horiz-adv-x="1382" 
d="M1040 825v609h189v-1434h-189v645h-696v-645h-190v1434h190v-609h696z" />
    <glyph glyph-name="uni041E" unicode="&#x41e;" horiz-adv-x="1638" 
d="M78 717q0 311 215 526q214 217 526 217q313 0 527 -217q217 -214 217 -526q0 -310 -217 -527q-214 -217 -527 -217q-312 0 -526 217q-215 218 -215 527zM1372 717q0 237 -160 397q-155 162 -393 162q-237 0 -395 -162q-158 -161 -158 -397q0 -232 158 -398
q159 -159 395 -159q237 0 393 159q160 165 160 398z" />
    <glyph glyph-name="uni041F" unicode="&#x41f;" horiz-adv-x="1347" 
d="M154 1434h1040v-1434h-190v1253h-660v-1253h-190v1434z" />
    <glyph glyph-name="uni0420" unicode="&#x420;" horiz-adv-x="1208" 
d="M154 1434h520q196 0 330 -134q133 -133 133 -327q0 -195 -133 -328t-330 -133h-330v-512h-190v1434zM344 690h330q119 0 196 80q78 84 78 203q0 123 -77.5 202.5t-196.5 79.5h-330v-565z" />
    <glyph glyph-name="uni0421" unicode="&#x421;" horiz-adv-x="1513" 
d="M827 -27q-326 0 -538 215q-211 214 -211 529q0 314 211 528q212 215 538 215q195 0 360.5 -93.5t258.5 -254.5l-166 -96q-62 119 -184 189.5t-269 70.5q-248 0 -405 -160q-156 -159 -156 -399q0 -239 156 -398t405 -159q147 0 269 70t184 188l166 -94q-90 -162 -256 -256
q-167 -95 -363 -95z" />
    <glyph glyph-name="uni0422" unicode="&#x422;" horiz-adv-x="1105" 
d="M37 1434h1034v-181h-424v-1253h-188v1253h-422v181z" />
    <glyph glyph-name="uni0423" unicode="&#x423;" horiz-adv-x="1187" 
d="M631 614l344 820h192l-460 -1094q-78 -184 -199 -267.5t-295 -72.5v176q118 -12 191.5 34.5t123.5 162.5l15 33l-486 1028h193z" />
    <glyph glyph-name="uni0424" unicode="&#x424;" horiz-adv-x="1656" 
d="M922 152v-162h-187v162q-307 21 -493 167q-185 147 -185 398q0 250 185 397q188 147 493 168v162h187v-162q308 -21 493 -168q187 -147 187 -397q0 -251 -187 -398q-183 -146 -493 -167zM922 1108v-782q236 18 362.5 116t126.5 275t-126.5 275t-362.5 116zM246 717
q0 -176 126.5 -273.5t362.5 -115.5v780q-236 -18 -362.5 -116t-126.5 -275z" />
    <glyph glyph-name="uni0425" unicode="&#x425;" horiz-adv-x="1208" 
d="M713 739l461 -739h-218l-352 565l-352 -565h-215l461 737l-435 697h216l325 -523l326 523h215z" />
    <glyph glyph-name="uni0426" unicode="&#x426;" horiz-adv-x="1413" 
d="M1194 1434v-1254h154v-454h-191v274h-1003v1434h190v-1254h660v1254h190z" />
    <glyph glyph-name="uni0427" unicode="&#x427;" horiz-adv-x="1286" 
d="M942 758v676h191v-1434h-191v578q-171 -80 -352 -80q-210 0 -338 116q-129 120 -129 308v512h190v-500q0 -118 74.5 -187t204.5 -69q182 0 350 80z" />
    <glyph glyph-name="uni0428" unicode="&#x428;" horiz-adv-x="1941" 
d="M1597 180v1254h191v-1434h-1634v1434h190v-1254h533v1254h188v-1254h532z" />
    <glyph glyph-name="uni0429" unicode="&#x429;" horiz-adv-x="2007" 
d="M1788 1434v-1254h154v-454h-191v274h-1597v1434h190v-1254h533v1254h188v-1254h532v1254h191z" />
    <glyph glyph-name="uni042A" unicode="&#x42a;" horiz-adv-x="1429" 
d="M893 0h-518v1253h-375v181h563v-512h330q198 0 332 -134q133 -133 133 -327q0 -197 -133 -330q-131 -131 -332 -131zM563 743v-565h330q119 0 196.5 80t77.5 203t-77.5 202.5t-196.5 79.5h-330z" />
    <glyph glyph-name="uni042B" unicode="&#x42b;" horiz-adv-x="1626" 
d="M674 0h-520v1434h190v-512h330q196 0 330 -134q133 -133 133 -327q0 -197 -133 -330q-131 -131 -330 -131zM1473 0h-191v1434h191v-1434zM344 743v-565h330q119 0 196.5 80t77.5 203t-77.5 202.5t-196.5 79.5h-330z" />
    <glyph glyph-name="uni042C" unicode="&#x42c;" horiz-adv-x="1208" 
d="M344 922h330q196 0 330 -134q133 -133 133 -327q0 -197 -133 -330q-131 -131 -330 -131h-520v1434h190v-512zM344 178h330q119 0 196.5 80t77.5 203q0 120 -78 201q-75 81 -196 81h-330v-565z" />
    <glyph glyph-name="uni042D" unicode="&#x42d;" horiz-adv-x="1505" 
d="M686 1460q324 0 533 -215q208 -211 208 -528q0 -315 -208 -529q-209 -215 -533 -215q-197 0 -363.5 95t-254.5 256l165 94q60 -117 183 -187.5t270 -70.5q225 0 371 131q149 134 176 338h-737v178h737q-27 204 -176 338q-146 131 -371 131q-147 0 -269 -70.5t-184 -189.5
l-165 96q88 159 256 254q166 94 362 94z" />
    <glyph glyph-name="uni042E" unicode="&#x42e;" horiz-adv-x="2140" 
d="M1321 1460q312 0 526 -217q217 -214 217 -526q0 -310 -217 -527q-214 -217 -526 -217q-293 0 -498 193q-206 194 -233 481h-246v-647h-190v1434h190v-607h252q40 272 242 453q201 180 483 180zM1874 717q0 237 -160 397q-155 162 -393 162q-237 0 -395 -162
q-158 -161 -158 -397q0 -232 158 -398q159 -159 395 -159q237 0 393 159q160 165 160 398z" />
    <glyph glyph-name="uni042F" unicode="&#x42f;" horiz-adv-x="1271" 
d="M545 1434h573v-1434h-188v549h-285l-371 -549h-215l381 561q-147 35 -243 156q-97 123 -97 272q0 185 129 314q131 131 316 131zM545 721h385v534h-385q-103 0 -180 -77q-76 -76 -76 -189q0 -111 76 -190q78 -78 180 -78z" />
    <glyph glyph-name="uni0430" unicode="&#x430;" 
d="M983 848v176h178v-1024h-178v176q-132 -203 -387 -203q-217 0 -367 156q-151 157 -151 383q0 224 151 381q152 158 367 158q255 0 387 -203zM618 145q156 0 261 105q104 107 104 262q0 156 -104 260q-104 107 -261 107q-154 0 -258 -107q-104 -104 -104 -260
q0 -155 104 -262q105 -105 258 -105z" />
    <glyph glyph-name="uni0431" unicode="&#x431;" horiz-adv-x="1161" 
d="M600 -27q-228 0 -375 150t-147 385q0 263 76 403q77 141 315 256q15 7 54 25t63 29l110 49q164 82 174 196l144 -82q-13 -70 -47 -114q-3 -4 -13 -17.5t-14 -18t-12.5 -14t-18.5 -17.5t-24 -17q-71 -45 -109 -62q-11 -5 -25 -11.5t-22 -10t-12 -6.5l-68 -29l-65 -27
q-138 -59 -202.5 -120t-94.5 -156q63 79 160 119.5t200 40.5q195 0 326 -131q135 -132 135 -338q0 -209 -143 -346q-145 -136 -365 -136zM930 455q0 137 -89.5 224t-234.5 87q-127 0 -237 -84q-105 -82 -105 -217q0 -139 96 -229q97 -91 240 -91q145 0 236 88q94 88 94 222z
" />
    <glyph glyph-name="uni0432" unicode="&#x432;" horiz-adv-x="1032" 
d="M817 526q158 -65 158 -237q0 -130 -86.5 -209.5t-241.5 -79.5h-512v1024h471q151 0 236.5 -76t85.5 -203q0 -149 -111 -219zM598 864h-289v-268h289q156 0 156 137q0 131 -156 131zM309 162h328q78 0 120 36.5t42 104.5q0 63 -42.5 99t-119.5 36h-328v-276z" />
    <glyph glyph-name="uni0433" unicode="&#x433;" horiz-adv-x="827" 
d="M135 1024h672v-172h-494v-852h-178v1024z" />
    <glyph glyph-name="uni0434" unicode="&#x434;" horiz-adv-x="1214" 
d="M1016 1024v-854h141v-444h-176v274h-768v-274h-176v444h125q98 134 98 379v475h756zM365 170h475v688h-404v-309q0 -228 -71 -379z" />
    <glyph glyph-name="uni0435" unicode="&#x435;" horiz-adv-x="1193" 
d="M1118 430h-858q26 -136 125 -212.5t246 -76.5q203 0 295 150l151 -86q-151 -232 -450 -232q-243 0 -398 152q-151 154 -151 387t149 385q151 154 387 154q225 0 367 -160q143 -155 143 -381q0 -40 -6 -80zM614 883q-141 0 -236 -80.5t-118 -216.5h684q-23 142 -113 219.5
t-217 77.5z" />
    <glyph glyph-name="uni0436" unicode="&#x436;" horiz-adv-x="1429" 
d="M965 528l430 -528h-209l-383 485v-485h-176v485l-383 -485h-207l428 528l-408 496h207l363 -453v453h176v-453l362 453h209z" />
    <glyph glyph-name="uni0437" unicode="&#x437;" horiz-adv-x="915" 
d="M688 524q170 -71 170 -243q0 -134 -105 -221t-288 -87q-307 0 -412 246l150 88q58 -168 264 -168q101 0 158 43.5t57 114.5q0 62 -46.5 100.5t-123.5 38.5h-150v162h111q78 0 121 37.5t43 103.5q0 67 -50.5 107.5t-137.5 40.5q-172 0 -234 -146l-145 84q108 226 379 226
q164 0 263 -84.5t99 -212.5q0 -156 -123 -230z" />
    <glyph glyph-name="uni0438" unicode="&#x438;" horiz-adv-x="1157" 
d="M311 305l568 719h143v-1024h-176v719l-567 -719h-144v1024h176v-719z" />
    <glyph glyph-name="uni0439" unicode="&#x439;" horiz-adv-x="1157" 
d="M856 1178h-553v155h553v-155zM311 305l568 719h143v-1024h-176v719l-567 -719h-144v1024h176v-719z" />
    <glyph glyph-name="uni043A" unicode="&#x43a;" horiz-adv-x="1032" 
d="M496 528l505 -528h-221l-467 485v-485h-178v1024h178v-453l443 453h229z" />
    <glyph glyph-name="uni043B" unicode="&#x43b;" horiz-adv-x="1124" 
d="M229 1024h760v-1024h-178v852h-403v-418q0 -245 -98.5 -348.5t-289.5 -85.5v168q107 -14 158 48t51 222v586z" />
    <glyph glyph-name="uni043C" unicode="&#x43c;" 
d="M969 1024h190v-1024h-174v743l-326 -524h-22l-326 524v-743h-176v1024h191l321 -518z" />
    <glyph glyph-name="uni043D" unicode="&#x43d;" horiz-adv-x="1157" 
d="M844 598v426h178v-1024h-178v428h-531v-428h-178v1024h178v-426h531z" />
    <glyph glyph-name="uni043E" unicode="&#x43e;" horiz-adv-x="1232" 
d="M999 129q-156 -156 -383 -156t-383 156q-155 155 -155 383t155 383q156 156 383 156t383 -156q158 -158 158 -383t-158 -383zM616 147q153 0 258 105t105 260t-105 260t-258 105q-151 0 -256 -105q-104 -104 -104 -260t104 -260q105 -105 256 -105z" />
    <glyph glyph-name="uni043F" unicode="&#x43f;" horiz-adv-x="1157" 
d="M135 1024h887v-1024h-178v854h-531v-854h-178v1024z" />
    <glyph glyph-name="uni0440" unicode="&#x440;" 
d="M700 1051q215 0 367 -158t152 -381q0 -225 -152 -383q-150 -156 -367 -156q-255 0 -387 203v-586h-178v1434h178v-176q132 203 387 203zM678 145q153 0 258 105q104 107 104 262q0 156 -104 260q-104 107 -258 107q-156 0 -260 -107q-105 -105 -105 -260q0 -154 105 -262
q105 -105 260 -105z" />
    <glyph glyph-name="uni0441" unicode="&#x441;" horiz-adv-x="1120" 
d="M616 -27q-231 0 -385 154q-153 156 -153 385q0 230 153 383q153 156 385 156q151 0 271.5 -72.5t181.5 -196.5l-149 -86q-39 82 -120.5 131.5t-183.5 49.5q-153 0 -258 -105q-102 -105 -102 -260q0 -153 102 -258q104 -104 258 -104q102 0 184.5 48t125.5 130l151 -88
q-67 -123 -190 -195t-271 -72z" />
    <glyph glyph-name="uni0442" unicode="&#x442;" horiz-adv-x="917" 
d="M20 1024h877v-172h-348v-852h-178v852h-351v172z" />
    <glyph glyph-name="uni0443" unicode="&#x443;" horiz-adv-x="1054" 
d="M555 221l295 803h190l-417 -1087q-66 -175 -185 -266t-270 -81v166q187 -15 276 205l17 37l-445 1026h189z" />
    <glyph glyph-name="uni0444" unicode="&#x444;" horiz-adv-x="1382" 
d="M780 -20v-390h-176v390q-239 27 -383 174q-143 146 -143 358t143 358q144 147 383 174v390h176v-390q239 -27 383 -174t144 -358t-144 -358t-383 -174zM254 512q0 -142 93.5 -239.5t256.5 -120.5v720q-163 -20 -256.5 -118t-93.5 -242zM780 872v-720q163 23 255.5 120.5
t92.5 239.5t-92.5 239.5t-255.5 120.5z" />
    <glyph glyph-name="uni0445" unicode="&#x445;" horiz-adv-x="1054" 
d="M633 528l391 -528h-209l-287 387l-288 -387h-209l393 526l-371 498h211l264 -356l265 356h208z" />
    <glyph glyph-name="uni0446" unicode="&#x446;" horiz-adv-x="1218" 
d="M995 1024v-854h168v-444h-176v274h-852v1024h178v-854h504v854h178z" />
    <glyph glyph-name="uni0447" unicode="&#x447;" horiz-adv-x="1093" 
d="M780 535v489h178v-1024h-178v369q-127 -54 -276 -54q-198 0 -305 94t-107 275v340h178v-330q0 -113 60.5 -163t185.5 -50q141 0 264 54z" />
    <glyph glyph-name="uni0448" unicode="&#x448;" horiz-adv-x="1675" 
d="M1360 170v854h178v-1024h-1403v1024h178v-854h435v854h178v-854h434z" />
    <glyph glyph-name="uni0449" unicode="&#x449;" horiz-adv-x="1726" 
d="M1528 1024v-854h141v-444h-176v274h-1358v1024h178v-854h430v854h179v-854h428v854h178z" />
    <glyph glyph-name="uni044A" unicode="&#x44a;" horiz-adv-x="1128" 
d="M463 655h254q151 0 254 -92q102 -91 102 -235t-102 -236q-103 -92 -254 -92h-432v852h-285v172h463v-369zM463 166h254q77 0 128.5 45t51.5 117t-52 118t-128 46h-254v-326z" />
    <glyph glyph-name="uni044B" unicode="&#x44b;" horiz-adv-x="1372" 
d="M313 655h254q151 0 254 -92q103 -89 103 -235t-103 -238q-104 -90 -254 -90h-432v1024h178v-369zM1057 0v1024h178v-1024h-178zM313 166h254q77 0 129 45t52 117t-52.5 118t-128.5 46h-254v-326z" />
    <glyph glyph-name="uni044C" unicode="&#x44c;" horiz-adv-x="980" 
d="M313 655h254q151 0 254 -92q103 -89 103 -235t-103 -238q-104 -90 -254 -90h-432v1024h178v-369zM313 166h254q77 0 129 45t52 117t-52.5 118t-128.5 46h-254v-326z" />
    <glyph glyph-name="uni044D" unicode="&#x44d;" horiz-adv-x="1101" 
d="M504 1051q231 0 377 -152q145 -151 145 -387q0 -233 -145 -387q-146 -152 -379 -152q-163 0 -286 72.5t-179 198.5l151 88q33 -86 115.5 -136.5t198.5 -50.5q132 0 222.5 77t115.5 206h-457v168h457q-25 129 -113.5 206t-220.5 77q-107 0 -188.5 -49.5t-120.5 -135.5
l-154 88q62 125 185 197t276 72z" />
    <glyph glyph-name="uni044E" unicode="&#x44e;" horiz-adv-x="1646" 
d="M1030 1051q225 0 381 -156q158 -158 158 -383t-158 -383q-156 -156 -381 -156q-203 0 -350 129q-149 131 -176 326h-191v-428h-178v1024h178v-426h191q27 196 176 324q150 129 350 129zM1030 147q151 0 256 105t105 260t-105 260t-256 105q-153 0 -258 -105
q-104 -104 -104 -260t104 -260q105 -105 258 -105z" />
    <glyph glyph-name="uni044F" unicode="&#x44f;" horiz-adv-x="1036" 
d="M465 1024h436v-1024h-176v369h-150l-286 -369h-217l299 379q-116 29 -187 114.5t-71 200.5q0 143 100 236q101 94 252 94zM471 528h254v330h-254q-77 0 -129.5 -46.5t-52.5 -119.5q0 -72 52.5 -118t129.5 -46z" />
    <glyph glyph-name="uni0451" unicode="&#x451;" horiz-adv-x="1193" 
d="M483 1192q-31 -31 -76 -31t-77 31q-31 32 -31 77.5t31 76.5q32 31 77 31t76 -31t31 -76.5t-31 -77.5zM872 1192q-31 -31 -76 -31t-77 31q-31 32 -31 77.5t31 76.5q32 31 77 31t76 -31t31 -76.5t-31 -77.5zM1118 430h-858q26 -136 125 -212.5t246 -76.5q203 0 295 150
l151 -86q-151 -232 -450 -232q-243 0 -398 152q-151 154 -151 387t149 385q151 154 387 154q225 0 367 -160q143 -155 143 -381q0 -40 -6 -80zM614 883q-141 0 -236 -80.5t-118 -216.5h684q-23 142 -113 219.5t-217 77.5z" />
    <glyph glyph-name="uni0452" unicode="&#x452;" horiz-adv-x="1173" 
d="M664 1051q181 0 289 -114t108 -308v-690q0 -198 -100 -293t-295 -82v172q113 -11 165 37t52 166v679q0 124 -67.5 193.5t-186.5 69.5q-138 0 -217.5 -85.5t-79.5 -252.5v-543h-178v1165h-138v131h138v138h178v-138h293v-131h-293v-288q107 174 332 174z" />
    <glyph glyph-name="uni0453" unicode="&#x453;" horiz-adv-x="827" 
d="M469 1434h215l-207 -271h-172zM135 1024h672v-172h-494v-852h-178v1024z" />
    <glyph glyph-name="uni0454" unicode="&#x454;" horiz-adv-x="1101" 
d="M913 332l152 -88q-56 -126 -179 -198.5t-286 -72.5q-233 0 -379 152q-145 154 -145 387q0 238 143 387q146 152 379 152q153 0 276 -72t185 -197l-154 -88q-39 86 -120.5 135.5t-188.5 49.5q-132 0 -220.5 -77t-113.5 -206h457v-168h-457q25 -129 115.5 -206t222.5 -77
q116 0 198 50.5t115 136.5z" />
    <glyph glyph-name="uni0455" unicode="&#x455;" horiz-adv-x="937" 
d="M289 748q0 -56 53.5 -92t149.5 -62q41 -9 71.5 -17t71.5 -22t71 -30t61 -40t51 -52.5t32 -67t12 -84.5q0 -141 -108 -224q-110 -84 -275 -84q-147 0 -254.5 65t-152.5 175l153 88q25 -74 93 -117t161 -43q92 0 147.5 35.5t55.5 104.5q0 102 -203 151q-35 9 -50.5 13.5
t-50 14.5t-51.5 17.5t-47.5 20.5t-47 25.5t-39.5 30t-35.5 37t-25 43t-18 51.5t-5.5 60q0 134 102 220q106 86 260 86q124 0 221.5 -56.5t147.5 -156.5l-150 -84q-55 131 -219 131q-78 0 -130 -36.5t-52 -100.5z" />
    <glyph glyph-name="uni0456" unicode="&#x456;" horiz-adv-x="450" 
d="M225 1210q-51 0 -86 34.5t-35 84.5t35 85.5t86 35.5q49 0 84 -35.5t35 -85.5q0 -49 -35 -84t-84 -35zM313 0h-178v1024h178v-1024z" />
    <glyph glyph-name="uni0457" unicode="&#x457;" horiz-adv-x="450" 
d="M106 1190q-31 -31 -75.5 -31t-75.5 31q-32 32 -32 77t32 76q31 31 75.5 31t75.5 -31t31 -76t-31 -77zM496 1190q-31 -31 -76.5 -31t-77.5 31q-31 32 -31 77t31 76q32 31 77.5 31t76.5 -31t31 -76t-31 -77zM313 0h-178v1024h178v-1024z" />
    <glyph glyph-name="uni0458" unicode="&#x458;" horiz-adv-x="493" 
d="M270 1210q-51 0 -85.5 34.5t-34.5 84.5t34.5 85.5t85.5 35.5q49 0 84 -35.5t35 -85.5q0 -49 -34.5 -84t-84.5 -35zM180 -61v1085h178v-1085q0 -198 -100 -293t-295 -82v172q113 -11 165 37t52 166z" />
    <glyph glyph-name="uni0459" unicode="&#x459;" horiz-adv-x="1599" 
d="M969 621h241q148 0 240 -85.5t92 -226.5t-92 -225t-240 -84h-419v852h-383v-418q0 -243 -98.5 -346.5t-289.5 -91.5v168q107 -12 158 51t51 223v586h740v-403zM969 166h243q71 0 115.5 37t44.5 106q0 70 -45 108t-115 38h-243v-289z" />
    <glyph glyph-name="uni045A" unicode="&#x45a;" horiz-adv-x="1615" 
d="M981 621h244q143 0 239 -84q97 -85 97 -228q0 -140 -97 -225q-96 -84 -239 -84h-422v451h-494v-451h-178v1024h178v-403h494v403h178v-403zM981 166h244q72 0 115.5 36.5t43.5 106.5t-44 108t-115 38h-244v-289z" />
    <glyph glyph-name="uni045B" unicode="&#x45b;" horiz-adv-x="1173" 
d="M664 1051q181 0 289 -114t108 -308v-629h-178v618q0 124 -67.5 193.5t-186.5 69.5q-138 0 -217.5 -85.5t-79.5 -252.5v-543h-178v1165h-138v131h138v138h178v-138h293v-131h-293v-288q107 174 332 174z" />
    <glyph glyph-name="uni045C" unicode="&#x45c;" horiz-adv-x="1032" 
d="M561 1434h215l-207 -271h-172zM496 528l505 -528h-221l-467 485v-485h-178v1024h178v-453l443 453h229z" />
    <glyph glyph-name="uni045E" unicode="&#x45e;" horiz-adv-x="1054" 
d="M248 1333h553v-155h-553v155zM555 221l295 803h190l-417 -1087q-66 -175 -185 -266t-270 -81v166q187 -15 276 205l17 37l-445 1026h189z" />
    <glyph glyph-name="uni045F" unicode="&#x45f;" horiz-adv-x="1157" 
d="M844 170v854h178v-1024h-354v-274h-176v274h-357v1024h178v-854h531z" />
    <glyph glyph-name="uni0490" unicode="&#x490;" horiz-adv-x="993" 
d="M768 1434v245h190v-426h-614v-1253h-190v1434h614z" />
    <glyph glyph-name="uni0491" unicode="&#x491;" horiz-adv-x="827" 
d="M631 1024v211h176v-383h-494v-852h-178v1024h496z" />
    <glyph glyph-name="Wgrave" unicode="&#x1e80;" horiz-adv-x="2048" 
d="M1182 1573h-172l-207 270h215zM463 0h221l340 1145l340 -1145h221l412 1434h-201l-328 -1180l-348 1180h-192l-348 -1180l-328 1180h-201z" />
    <glyph glyph-name="wgrave" unicode="&#x1e81;" horiz-adv-x="1576" 
d="M762 1434l164 -271h-172l-207 271h215zM1116 244l225 780h187l-318 -1024h-182l-240 758l-239 -758h-182l-318 1024h187l225 -778l241 778h172z" />
    <glyph glyph-name="Wacute" unicode="&#x1e82;" horiz-adv-x="2048" 
d="M922 1573l163 270h215l-206 -270h-172zM463 0h221l340 1145l340 -1145h221l412 1434h-201l-328 -1180l-348 1180h-192l-348 -1180l-328 1180h-201z" />
    <glyph glyph-name="wacute" unicode="&#x1e83;" horiz-adv-x="1576" 
d="M829 1434h215l-206 -271h-172zM1116 244l225 780h187l-318 -1024h-182l-240 758l-239 -758h-182l-318 1024h187l225 -778l241 778h172z" />
    <glyph glyph-name="Wdieresis" unicode="&#x1e84;" horiz-adv-x="2048" 
d="M926 1599q-31 -31 -76.5 -31t-77.5 31q-31 32 -31 77.5t31 76.5q32 31 77.5 31t76.5 -31t31 -76.5t-31 -77.5zM1315 1599q-31 -31 -76.5 -31t-77.5 31q-31 32 -31 77.5t31 76.5q32 31 77.5 31t76.5 -31t31 -76.5t-31 -77.5zM684 0h-221l-412 1434h201l328 -1180l348 1180
h192l348 -1180l328 1180h201l-412 -1434h-221l-340 1145z" />
    <glyph glyph-name="wdieresis" unicode="&#x1e85;" horiz-adv-x="1576" 
d="M670 1190q-31 -31 -76.5 -31t-77.5 31q-31 32 -31 77t31 76q32 31 77.5 31t76.5 -31t31 -76t-31 -77zM1059 1190q-31 -31 -76.5 -31t-77.5 31q-31 32 -31 77t31 76q32 31 77.5 31t76.5 -31t31 -76t-31 -77zM1116 244l225 780h187l-318 -1024h-182l-240 758l-239 -758
h-182l-318 1024h187l225 -778l241 778h172z" />
    <glyph glyph-name="uni1EA0" unicode="&#x1ea0;" horiz-adv-x="1316" 
d="M655 -414q-51 0 -85.5 34.5t-34.5 84.5t34.5 85.5t85.5 35.5q49 0 84 -35.5t35 -85.5q0 -49 -35 -84t-84 -35zM1300 0h-202l-117 322h-645l-117 -322h-203l535 1434h215zM657 1206l-256 -706h514z" />
    <glyph glyph-name="uni1EA1" unicode="&#x1ea1;" 
d="M631 -414q-51 0 -86 34.5t-35 84.5t35 85.5t86 35.5q49 0 84 -35.5t35 -85.5q0 -49 -35 -84t-84 -35zM983 848v176h178v-1024h-178v176q-132 -203 -387 -203q-217 0 -367 156q-151 157 -151 383q0 224 151 381q152 158 367 158q255 0 387 -203zM618 145q156 0 261 105
q104 107 104 262q0 156 -104 260q-104 107 -261 107q-154 0 -258 -107q-104 -104 -104 -260q0 -155 104 -262q105 -105 258 -105z" />
    <glyph glyph-name="uni1EA2" unicode="&#x1ea2;" horiz-adv-x="1316" 
d="M723 1567h-125q0 71 6.5 95t34.5 46q31 19 33 21q39 19 39 51q0 35 -52 35q-73 0 -94 -64l-114 49q55 135 208 135q77 0 127 -39.5t50 -113.5q0 -105 -76 -144q-23 -10 -32 -24t-5 -47zM1300 0h-202l-117 322h-645l-117 -322h-203l535 1434h215zM657 1206l-256 -706h514z
" />
    <glyph glyph-name="uni1EA3" unicode="&#x1ea3;" 
d="M803 1157h-125q0 71 6.5 95t34.5 46q31 19 33 21q39 19 39 51q0 35 -52 35q-73 0 -94 -64l-115 50q55 135 209 135q76 0 126 -39.5t50 -114.5q0 -105 -75 -143q-23 -10 -32 -24.5t-5 -47.5zM983 848v176h178v-1024h-178v176q-132 -203 -387 -203q-217 0 -367 156
q-151 157 -151 383q0 224 151 381q152 158 367 158q255 0 387 -203zM618 145q156 0 261 105q104 107 104 262q0 156 -104 260q-104 107 -261 107q-154 0 -258 -107q-104 -104 -104 -260q0 -155 104 -262q105 -105 258 -105z" />
    <glyph glyph-name="uni1EA4" unicode="&#x1ea4;" horiz-adv-x="1316" 
d="M1300 0h-202l-117 322h-645l-117 -322h-203l535 1434h215zM657 1206l-256 -706h514zM770 1567l-115 155l-116 -155h-179l203 258h182l203 -258h-178zM860 1755l152 252h202l-194 -252h-160z" />
    <glyph glyph-name="uni1EA5" unicode="&#x1ea5;" 
d="M823 1157l-114 156l-117 -156h-178l202 258h183l202 -258h-178zM983 848v176h178v-1024h-178v176q-132 -203 -387 -203q-217 0 -367 156q-151 157 -151 383q0 224 151 381q152 158 367 158q255 0 387 -203zM618 145q156 0 261 105q104 107 104 262q0 156 -104 260
q-104 107 -261 107q-154 0 -258 -107q-104 -104 -104 -260q0 -155 104 -262q105 -105 258 -105zM913 1346l152 251h203l-195 -251h-160z" />
    <glyph glyph-name="uni1EA6" unicode="&#x1ea6;" horiz-adv-x="1316" 
d="M1300 0h-202l-117 322h-645l-117 -322h-203l535 1434h215zM657 1206l-256 -706h514zM770 1567l-115 155l-116 -155h-179l203 258h182l203 -258h-178zM1057 1755h-162l-190 252h198z" />
    <glyph glyph-name="uni1EA7" unicode="&#x1ea7;" 
d="M823 1157l-114 156l-117 -156h-178l202 258h183l202 -258h-178zM983 848v176h178v-1024h-178v176q-132 -203 -387 -203q-217 0 -367 156q-151 157 -151 383q0 224 151 381q152 158 367 158q255 0 387 -203zM618 145q156 0 261 105q104 107 104 262q0 156 -104 260
q-104 107 -261 107q-154 0 -258 -107q-104 -104 -104 -260q0 -155 104 -262q105 -105 258 -105zM1110 1346h-162l-190 251h198z" />
    <glyph glyph-name="uni1EA8" unicode="&#x1ea8;" horiz-adv-x="1316" 
d="M1300 0h-202l-117 322h-645l-117 -322h-203l535 1434h215zM657 1206l-256 -706h514zM770 1567l-115 155l-116 -155h-179l203 258h182l203 -258h-178zM983 1755h-117q0 66 6 89t33 44q29 17 29 19q29 14 35 31q2 8 2 16q0 33 -47 33q-67 0 -88 -60l-107 45q52 127 195 127
q72 0 117.5 -36.5t45.5 -106.5q0 -98 -71 -133q-21 -10 -29 -23.5t-4 -44.5z" />
    <glyph glyph-name="uni1EA9" unicode="&#x1ea9;" 
d="M823 1157l-114 156l-117 -156h-178l202 258h183l202 -258h-178zM983 848v176h178v-1024h-178v176q-132 -203 -387 -203q-217 0 -367 156q-151 157 -151 383q0 224 151 381q152 158 367 158q255 0 387 -203zM618 145q156 0 261 105q104 107 104 262q0 156 -104 260
q-104 107 -261 107q-154 0 -258 -107q-104 -104 -104 -260q0 -155 104 -262q105 -105 258 -105zM1036 1346h-116q0 67 6 89.5t32 43.5q29 16 29 18q29 14 35 31q2 8 2 16q0 33 -47 33q-67 0 -88 -59l-107 45q52 127 195 127q72 0 118 -37t46 -107q0 -50 -20.5 -84t-51.5 -49
q-22 -10 -29.5 -23t-3.5 -44z" />
    <glyph glyph-name="uni1EAA" unicode="&#x1eaa;" horiz-adv-x="1316" 
d="M1300 0h-202l-117 322h-645l-117 -322h-203l535 1434h215zM657 1206l-256 -706h514zM770 1567l-115 155l-116 -155h-179l203 258h182l203 -258h-178zM510 1880h-139q0 92 26 151t68 77t93.5 8t105.5 -48q70 -60 103.5 -52.5t33.5 95.5h139q0 -73 -16.5 -125.5t-45.5 -78
t-66.5 -32.5t-79.5 6.5t-85 43.5q-69 60 -103 52t-34 -97z" />
    <glyph glyph-name="uni1EAB" unicode="&#x1eab;" 
d="M823 1157l-114 156l-117 -156h-178l202 258h183l202 -258h-178zM983 848v176h178v-1024h-178v176q-132 -203 -387 -203q-217 0 -367 156q-151 157 -151 383q0 224 151 381q152 158 367 158q255 0 387 -203zM618 145q156 0 261 105q104 107 104 262q0 156 -104 260
q-104 107 -261 107q-154 0 -258 -107q-104 -104 -104 -260q0 -155 104 -262q105 -105 258 -105zM563 1470h-139q0 92 26 151t68 77.5t93.5 8.5t105.5 -48q71 -60 104 -52.5t33 95.5h139q0 -73 -16.5 -125.5t-45.5 -78t-66.5 -32.5t-79.5 6.5t-85 43.5q-69 60 -103 51.5
t-34 -97.5z" />
    <glyph glyph-name="uni1EAC" unicode="&#x1eac;" horiz-adv-x="1316" 
d="M1300 0h-202l-117 322h-645l-117 -322h-203l535 1434h215zM657 1206l-256 -706h514zM770 1567l-115 155l-116 -155h-179l203 258h182l203 -258h-178zM655 -414q-51 0 -85.5 34.5t-34.5 84.5t34.5 85.5t85.5 35.5q49 0 84 -35.5t35 -85.5q0 -49 -35 -84t-84 -35z" />
    <glyph glyph-name="uni1EAD" unicode="&#x1ead;" 
d="M823 1157l-114 156l-117 -156h-178l202 258h183l202 -258h-178zM983 848v176h178v-1024h-178v176q-132 -203 -387 -203q-217 0 -367 156q-151 157 -151 383q0 224 151 381q152 158 367 158q255 0 387 -203zM618 145q156 0 261 105q104 107 104 262q0 156 -104 260
q-104 107 -261 107q-154 0 -258 -107q-104 -104 -104 -260q0 -155 104 -262q105 -105 258 -105zM631 -414q-51 0 -86 34.5t-35 84.5t35 85.5t86 35.5q49 0 84 -35.5t35 -85.5q0 -49 -35 -84t-84 -35z" />
    <glyph glyph-name="uni1EAE" unicode="&#x1eae;" horiz-adv-x="1316" 
d="M1300 0h-202l-117 322h-645l-117 -322h-203l535 1434h215zM657 1206l-256 -706h514zM657 1550q-132 0 -208 68.5t-76 189.5h153q0 -125 131 -125q129 0 129 125h154q0 -121 -75.5 -189.5t-207.5 -68.5zM573 1843l152 252h203l-195 -252h-160z" />
    <glyph glyph-name="uni1EAF" unicode="&#x1eaf;" 
d="M717 1141q-133 0 -209 68.5t-76 189.5h154q0 -125 131 -125q129 0 129 125h153q0 -121 -75 -189.5t-207 -68.5zM983 848v176h178v-1024h-178v176q-132 -203 -387 -203q-217 0 -367 156q-151 157 -151 383q0 224 151 381q152 158 367 158q255 0 387 -203zM618 145
q156 0 261 105q104 107 104 262q0 156 -104 260q-104 107 -261 107q-154 0 -258 -107q-104 -104 -104 -260q0 -155 104 -262q105 -105 258 -105zM633 1434l151 252h203l-194 -252h-160z" />
    <glyph glyph-name="uni1EB0" unicode="&#x1eb0;" horiz-adv-x="1316" 
d="M1300 0h-202l-117 322h-645l-117 -322h-203l535 1434h215zM657 1206l-256 -706h514zM657 1550q-132 0 -208 68.5t-76 189.5h153q0 -125 131 -125q129 0 129 125h154q0 -121 -75.5 -189.5t-207.5 -68.5zM754 1843h-162l-191 252h199z" />
    <glyph glyph-name="uni1EB1" unicode="&#x1eb1;" 
d="M717 1141q-133 0 -209 68.5t-76 189.5h154q0 -125 131 -125q129 0 129 125h153q0 -121 -75 -189.5t-207 -68.5zM983 848v176h178v-1024h-178v176q-132 -203 -387 -203q-217 0 -367 156q-151 157 -151 383q0 224 151 381q152 158 367 158q255 0 387 -203zM618 145
q156 0 261 105q104 107 104 262q0 156 -104 260q-104 107 -261 107q-154 0 -258 -107q-104 -104 -104 -260q0 -155 104 -262q105 -105 258 -105zM813 1434h-162l-190 252h198z" />
    <glyph glyph-name="uni1EB2" unicode="&#x1eb2;" horiz-adv-x="1316" 
d="M1300 0h-202l-117 322h-645l-117 -322h-203l535 1434h215zM657 1206l-256 -706h514zM657 1550q-132 0 -208 68.5t-76 189.5h153q0 -125 131 -125q129 0 129 125h154q0 -121 -75.5 -189.5t-207.5 -68.5zM719 1843h-117q0 66 6 89t33 44q29 17 29 19q29 14 35 31q2 8 2 16
q0 33 -48 33q-67 0 -88 -60l-106 45q52 127 194 127q72 0 118 -36.5t46 -106.5q0 -98 -71 -133q-21 -10 -29 -23.5t-4 -44.5z" />
    <glyph glyph-name="uni1EB3" unicode="&#x1eb3;" 
d="M717 1141q-133 0 -209 68.5t-76 189.5h154q0 -125 131 -125q129 0 129 125h153q0 -121 -75 -189.5t-207 -68.5zM983 848v176h178v-1024h-178v176q-132 -203 -387 -203q-217 0 -367 156q-151 157 -151 383q0 224 151 381q152 158 367 158q255 0 387 -203zM618 145
q156 0 261 105q104 107 104 262q0 156 -104 260q-104 107 -261 107q-154 0 -258 -107q-104 -104 -104 -260q0 -155 104 -262q105 -105 258 -105zM778 1434h-116q0 67 6 89.5t32 43.5q29 16 29 18q29 14 35 31q2 8 2 16q0 33 -47 33q-67 0 -88 -59l-107 45q52 127 195 127
q72 0 118 -37t46 -107q0 -50 -20.5 -84t-51.5 -49q-22 -10 -29.5 -23t-3.5 -44z" />
    <glyph glyph-name="uni1EB4" unicode="&#x1eb4;" horiz-adv-x="1316" 
d="M1300 0h-202l-117 322h-645l-117 -322h-203l535 1434h215zM657 1206l-256 -706h514zM657 1550q-132 0 -208 68.5t-76 189.5h153q0 -125 131 -125q129 0 129 125h154q0 -121 -75.5 -189.5t-207.5 -68.5zM516 1866h-139q0 92 26 151t68 77t93.5 8t105.5 -48
q70 -60 103.5 -52.5t33.5 95.5h139q0 -73 -16.5 -125.5t-45.5 -78t-66.5 -32.5t-79.5 6.5t-85 43.5q-69 60 -103 52t-34 -97z" />
    <glyph glyph-name="uni1EB5" unicode="&#x1eb5;" 
d="M717 1141q-133 0 -209 68.5t-76 189.5h154q0 -125 131 -125q129 0 129 125h153q0 -121 -75 -189.5t-207 -68.5zM983 848v176h178v-1024h-178v176q-132 -203 -387 -203q-217 0 -367 156q-151 157 -151 383q0 224 151 381q152 158 367 158q255 0 387 -203zM618 145
q156 0 261 105q104 107 104 262q0 156 -104 260q-104 107 -261 107q-154 0 -258 -107q-104 -104 -104 -260q0 -155 104 -262q105 -105 258 -105zM575 1456h-139q0 92 26 151t68 77.5t93.5 8.5t105.5 -48q71 -60 104 -52.5t33 95.5h140q0 -91 -25.5 -149t-67.5 -77t-94 -9
t-106 48q-69 60 -103.5 52t-34.5 -97z" />
    <glyph glyph-name="uni1EB6" unicode="&#x1eb6;" horiz-adv-x="1316" 
d="M1300 0h-202l-117 322h-645l-117 -322h-203l535 1434h215zM657 1206l-256 -706h514zM657 1550q-132 0 -208 68.5t-76 189.5h153q0 -125 131 -125q129 0 129 125h154q0 -121 -75.5 -189.5t-207.5 -68.5zM655 -414q-51 0 -85.5 34.5t-34.5 84.5t34.5 85.5t85.5 35.5
q49 0 84 -35.5t35 -85.5q0 -49 -35 -84t-84 -35z" />
    <glyph glyph-name="uni1EB7" unicode="&#x1eb7;" 
d="M983 848v176h178v-1024h-178v176q-132 -203 -387 -203q-217 0 -367 156q-151 157 -151 383q0 224 151 381q152 158 367 158q255 0 387 -203zM618 145q156 0 261 105q104 107 104 262q0 156 -104 260q-104 107 -261 107q-154 0 -258 -107q-104 -104 -104 -260
q0 -155 104 -262q105 -105 258 -105zM631 -414q-51 0 -86 34.5t-35 84.5t35 85.5t86 35.5q49 0 84 -35.5t35 -85.5q0 -49 -35 -84t-84 -35zM717 1141q-133 0 -209 68.5t-76 189.5h154q0 -125 131 -125q129 0 129 125h153q0 -121 -75 -189.5t-207 -68.5z" />
    <glyph glyph-name="uni1EB8" unicode="&#x1eb8;" horiz-adv-x="1085" 
d="M571 -414q-51 0 -85.5 34.5t-34.5 84.5t34.5 85.5t85.5 35.5q49 0 84 -35.5t35 -85.5q0 -49 -35 -84t-84 -35zM344 635v-455h666v-180h-856v1434h845v-181h-655v-440h604v-178h-604z" />
    <glyph glyph-name="uni1EB9" unicode="&#x1eb9;" horiz-adv-x="1193" 
d="M627 -414q-51 0 -86 34.5t-35 84.5t35 85.5t86 35.5q49 0 83.5 -35.5t34.5 -85.5t-34.5 -84.5t-83.5 -34.5zM1118 430h-858q26 -136 125 -212.5t246 -76.5q203 0 295 150l151 -86q-151 -232 -450 -232q-243 0 -398 152q-151 154 -151 387t149 385q151 154 387 154
q225 0 367 -160q143 -155 143 -381q0 -40 -6 -80zM614 883q-141 0 -236 -80.5t-118 -216.5h684q-23 142 -113 219.5t-217 77.5z" />
    <glyph glyph-name="uni1EBA" unicode="&#x1eba;" horiz-adv-x="1085" 
d="M668 1567h-125q0 71 6.5 95t34.5 46q30 19 32 21q39 19 39 51q0 35 -51 35q-73 0 -94 -64l-115 49q55 135 209 135q76 0 126 -39.5t50 -113.5q0 -55 -21 -91t-54 -53q-23 -10 -32 -24t-5 -47zM344 635v-455h666v-180h-856v1434h845v-181h-655v-440h604v-178h-604z" />
    <glyph glyph-name="uni1EBB" unicode="&#x1ebb;" horiz-adv-x="1193" 
d="M717 1157h-125q0 71 6.5 95t34.5 46q31 19 33 21q39 19 39 51q0 35 -52 35q-73 0 -94 -64l-115 50q55 135 209 135q76 0 126 -39.5t50 -114.5q0 -105 -75 -143q-23 -10 -32 -24.5t-5 -47.5zM1118 430h-858q26 -136 125 -212.5t246 -76.5q203 0 295 150l151 -86
q-151 -232 -450 -232q-243 0 -398 152q-151 154 -151 387t149 385q151 154 387 154q225 0 367 -160q143 -155 143 -381q0 -40 -6 -80zM614 883q-141 0 -236 -80.5t-118 -216.5h684q-23 142 -113 219.5t-217 77.5z" />
    <glyph glyph-name="uni1EBC" unicode="&#x1ebc;" horiz-adv-x="1085" 
d="M344 635v-455h666v-180h-856v1434h845v-181h-655v-440h604v-178h-604zM420 1583h-150q0 99 28 162t73.5 83.5t101 9.5t113.5 -52q75 -65 111 -56.5t36 103.5h150q0 -130 -47 -195.5t-118 -63.5t-151 58q-73 65 -110 56t-37 -105z" />
    <glyph glyph-name="uni1EBD" unicode="&#x1ebd;" horiz-adv-x="1193" 
d="M1118 430h-858q26 -136 125 -212.5t246 -76.5q203 0 295 150l151 -86q-151 -232 -450 -232q-243 0 -398 152q-151 154 -151 387t149 385q151 154 387 154q225 0 367 -160q143 -155 143 -381q0 -40 -6 -80zM614 883q-141 0 -236 -80.5t-118 -216.5h684q-23 142 -113 219.5
t-217 77.5zM444 1176h-149q0 80 18 136.5t49 84.5t71.5 35.5t85.5 -7t91 -47.5q75 -65 111.5 -56.5t36.5 103.5h149q0 -98 -27 -160.5t-72 -82.5t-101 -9t-115 52q-74 65 -111 56t-37 -105z" />
    <glyph glyph-name="uni1EBE" unicode="&#x1ebe;" horiz-adv-x="1085" 
d="M690 1567l-115 155l-116 -155h-178l202 258h183l202 -258h-178zM344 635v-455h666v-180h-856v1434h845v-181h-655v-440h604v-178h-604zM780 1755l152 252h203l-195 -252h-160z" />
    <glyph glyph-name="uni1EBF" unicode="&#x1ebf;" horiz-adv-x="1193" 
d="M735 1159l-114 156l-117 -156h-178l202 258h183l202 -258h-178zM1118 430h-858q26 -136 125 -212.5t246 -76.5q203 0 295 150l151 -86q-151 -232 -450 -232q-243 0 -398 152q-151 154 -151 387t149 385q151 154 387 154q225 0 367 -160q143 -155 143 -381q0 -40 -6 -80z
M614 883q-141 0 -236 -80.5t-118 -216.5h684q-23 142 -113 219.5t-217 77.5zM825 1348l152 251h203l-195 -251h-160z" />
    <glyph glyph-name="uni1EC0" unicode="&#x1ec0;" horiz-adv-x="1085" 
d="M690 1567l-115 155l-116 -155h-178l202 258h183l202 -258h-178zM344 635v-455h666v-180h-856v1434h845v-181h-655v-440h604v-178h-604zM977 1755h-162l-190 252h198z" />
    <glyph glyph-name="uni1EC1" unicode="&#x1ec1;" horiz-adv-x="1193" 
d="M735 1159l-114 156l-117 -156h-178l202 258h183l202 -258h-178zM1118 430h-858q26 -136 125 -212.5t246 -76.5q203 0 295 150l151 -86q-151 -232 -450 -232q-243 0 -398 152q-151 154 -151 387t149 385q151 154 387 154q225 0 367 -160q143 -155 143 -381q0 -40 -6 -80z
M614 883q-141 0 -236 -80.5t-118 -216.5h684q-23 142 -113 219.5t-217 77.5zM1022 1348h-162l-190 251h198z" />
    <glyph glyph-name="uni1EC2" unicode="&#x1ec2;" horiz-adv-x="1085" 
d="M690 1567l-115 155l-116 -155h-178l202 258h183l202 -258h-178zM344 635v-455h666v-180h-856v1434h845v-181h-655v-440h604v-178h-604zM903 1755h-117q0 66 6 89t33 44q29 17 29 19q29 14 35 31q2 8 2 16q0 33 -47 33q-67 0 -88 -60l-107 45q52 127 195 127
q72 0 118 -36.5t46 -106.5q0 -50 -20.5 -84t-51.5 -49q-21 -10 -29 -23.5t-4 -44.5z" />
    <glyph glyph-name="uni1EC3" unicode="&#x1ec3;" horiz-adv-x="1193" 
d="M735 1159l-114 156l-117 -156h-178l202 258h183l202 -258h-178zM1118 430h-858q26 -136 125 -212.5t246 -76.5q203 0 295 150l151 -86q-151 -232 -450 -232q-243 0 -398 152q-151 154 -151 387t149 385q151 154 387 154q225 0 367 -160q143 -155 143 -381q0 -40 -6 -80z
M614 883q-141 0 -236 -80.5t-118 -216.5h684q-23 142 -113 219.5t-217 77.5zM948 1348h-117q0 66 6 89t33 44q29 16 29 18q29 14 35 31q2 8 2 16q0 33 -47 33q-67 0 -88 -59l-107 45q52 127 195 127q72 0 118 -37t46 -107q0 -50 -20.5 -84t-51.5 -49q-22 -10 -29.5 -23
t-3.5 -44z" />
    <glyph glyph-name="uni1EC4" unicode="&#x1ec4;" horiz-adv-x="1085" 
d="M690 1567l-115 155l-116 -155h-178l202 258h183l202 -258h-178zM344 635v-455h666v-180h-856v1434h845v-181h-655v-440h604v-178h-604zM430 1880h-139q0 92 26 151t68 77t93.5 8t105.5 -48q70 -60 103.5 -52.5t33.5 95.5h139q0 -73 -16.5 -125.5t-45.5 -78t-66.5 -32.5
t-79.5 6.5t-85 43.5q-69 60 -103 52t-34 -97z" />
    <glyph glyph-name="uni1EC5" unicode="&#x1ec5;" horiz-adv-x="1193" 
d="M735 1159l-114 156l-117 -156h-178l202 258h183l202 -258h-178zM1118 430h-858q26 -136 125 -212.5t246 -76.5q203 0 295 150l151 -86q-151 -232 -450 -232q-243 0 -398 152q-151 154 -151 387t149 385q151 154 387 154q225 0 367 -160q143 -155 143 -381q0 -40 -6 -80z
M614 883q-141 0 -236 -80.5t-118 -216.5h684q-23 142 -113 219.5t-217 77.5zM475 1473h-139q0 92 26 151t68 77t93.5 8t105.5 -48q71 -60 104 -52.5t33 95.5h139q0 -73 -16.5 -125.5t-45.5 -78t-66.5 -32.5t-79.5 6.5t-85 43.5q-69 60 -103 52t-34 -97z" />
    <glyph glyph-name="uni1EC6" unicode="&#x1ec6;" horiz-adv-x="1085" 
d="M690 1567l-115 155l-116 -155h-178l202 258h183l202 -258h-178zM344 635v-455h666v-180h-856v1434h845v-181h-655v-440h604v-178h-604zM571 -414q-51 0 -85.5 34.5t-34.5 84.5t34.5 85.5t85.5 35.5q49 0 84 -35.5t35 -85.5q0 -49 -35 -84t-84 -35z" />
    <glyph glyph-name="uni1EC7" unicode="&#x1ec7;" horiz-adv-x="1193" 
d="M735 1159l-114 156l-117 -156h-178l202 258h183l202 -258h-178zM1118 430h-858q26 -136 125 -212.5t246 -76.5q203 0 295 150l151 -86q-151 -232 -450 -232q-243 0 -398 152q-151 154 -151 387t149 385q151 154 387 154q225 0 367 -160q143 -155 143 -381q0 -40 -6 -80z
M614 883q-141 0 -236 -80.5t-118 -216.5h684q-23 142 -113 219.5t-217 77.5zM627 -414q-51 0 -86 34.5t-35 84.5t35 85.5t86 35.5q49 0 83.5 -35.5t34.5 -85.5t-34.5 -84.5t-83.5 -34.5z" />
    <glyph glyph-name="uni1EC8" unicode="&#x1ec8;" horiz-adv-x="497" 
d="M315 1567h-125q0 71 6.5 95t34.5 46q31 19 33 21q39 19 39 51q0 35 -51 35q-73 0 -94 -64l-115 49q55 135 209 135q76 0 126 -39.5t50 -113.5q0 -105 -76 -144q-23 -10 -32 -24t-5 -47zM154 0v1434h190v-1434h-190z" />
    <glyph glyph-name="uni1EC9" unicode="&#x1ec9;" horiz-adv-x="450" 
d="M313 0h-178v1024h178v-1024zM289 1157h-125q0 71 6.5 95t34.5 46q31 19 33 21q38 19 38 51q0 35 -51 35q-73 0 -94 -64l-115 50q55 135 209 135q76 0 126 -39.5t50 -114.5q0 -105 -75 -143q-23 -10 -32 -24.5t-5 -47.5z" />
    <glyph glyph-name="uni1ECA" unicode="&#x1eca;" horiz-adv-x="497" 
d="M250 -414q-51 0 -86 34.5t-35 84.5t35 85.5t86 35.5q49 0 84 -35.5t35 -85.5q0 -49 -34.5 -84t-84.5 -35zM154 0v1434h190v-1434h-190z" />
    <glyph glyph-name="uni1ECB" unicode="&#x1ecb;" horiz-adv-x="450" 
d="M223 -414q-51 0 -86 34.5t-35 84.5t35 85.5t86 35.5q49 0 84 -35.5t35 -85.5q0 -49 -35 -84t-84 -35zM225 1151q-51 0 -86 34.5t-35 84.5t35 85.5t86 35.5q49 0 84 -35.5t35 -85.5t-35 -84.5t-84 -34.5zM313 0h-178v1024h178v-1024z" />
    <glyph glyph-name="uni1ECC" unicode="&#x1ecc;" horiz-adv-x="1638" 
d="M819 -414q-51 0 -86 34.5t-35 84.5t35 85.5t86 35.5q49 0 84 -35.5t35 -85.5q0 -49 -35 -84t-84 -35zM78 717q0 311 215 526q214 217 526 217q313 0 527 -217q217 -214 217 -526q0 -310 -217 -527q-214 -217 -527 -217q-312 0 -526 217q-215 218 -215 527zM1372 717
q0 237 -160 397q-155 162 -393 162q-237 0 -395 -162q-158 -161 -158 -397q0 -232 158 -398q159 -159 395 -159q237 0 393 159q160 165 160 398z" />
    <glyph glyph-name="uni1ECD" unicode="&#x1ecd;" horiz-adv-x="1232" 
d="M616 -414q-51 0 -85.5 34.5t-34.5 84.5t34.5 85.5t85.5 35.5q49 0 84 -35.5t35 -85.5q0 -49 -34.5 -84t-84.5 -35zM999 129q-156 -156 -383 -156t-383 156q-155 155 -155 383t155 383q156 156 383 156t383 -156q158 -158 158 -383t-158 -383zM616 147q153 0 258 105
t105 260t-105 260t-258 105q-151 0 -256 -105q-104 -104 -104 -260t104 -260q105 -105 256 -105z" />
    <glyph glyph-name="uni1ECE" unicode="&#x1ece;" horiz-adv-x="1638" 
d="M78 717q0 311 215 526q214 217 526 217q313 0 527 -217q217 -214 217 -526q0 -310 -217 -527q-214 -217 -527 -217q-312 0 -526 217q-215 218 -215 527zM1372 717q0 237 -160 397q-155 162 -393 162q-237 0 -395 -162q-158 -161 -158 -397q0 -232 158 -398
q159 -159 395 -159q237 0 393 159q160 165 160 398zM944 1567h-125q0 71 6.5 95t34.5 46q31 19 33 21q39 19 39 51q0 35 -51 35q-74 0 -95 -64l-114 49q55 135 209 135q76 0 126 -39.5t50 -113.5q0 -105 -76 -144q-23 -10 -32 -24t-5 -47z" />
    <glyph glyph-name="uni1ECF" unicode="&#x1ecf;" horiz-adv-x="1232" 
d="M999 129q-156 -156 -383 -156t-383 156q-155 155 -155 383t155 383q156 156 383 156t383 -156q158 -158 158 -383t-158 -383zM616 147q153 0 258 105t105 260t-105 260t-258 105q-151 0 -256 -105q-104 -104 -104 -260t104 -260q105 -105 256 -105zM729 1157h-125
q0 71 6.5 95t34.5 46q31 19 33 21q39 19 39 51q0 35 -51 35q-74 0 -95 -64l-114 50q55 135 209 135q76 0 126 -39.5t50 -114.5q0 -104 -76 -143q-23 -10 -32 -24.5t-5 -47.5z" />
    <glyph glyph-name="uni1ED0" unicode="&#x1ed0;" horiz-adv-x="1638" 
d="M932 1567l-115 155l-117 -155h-178l203 258h182l203 -258h-178zM1563 717q0 -310 -217 -527q-214 -217 -527 -217q-312 0 -526 217q-215 218 -215 527q0 311 215 526q214 217 526 217q313 0 527 -217q217 -214 217 -526zM1372 717q0 237 -160 397q-155 162 -393 162
q-237 0 -395 -162q-158 -161 -158 -397q0 -232 158 -398q159 -159 395 -159q237 0 393 159q160 165 160 398zM1022 1755l152 252h202l-194 -252h-160z" />
    <glyph glyph-name="uni1ED1" unicode="&#x1ed1;" horiz-adv-x="1232" 
d="M729 1163l-115 156l-116 -156h-179l203 258h183l202 -258h-178zM233 895q156 156 383 156t383 -156q158 -158 158 -383t-158 -383q-156 -156 -383 -156t-383 156q-155 155 -155 383t155 383zM616 147q153 0 258 105t105 260t-105 260t-258 105q-151 0 -256 -105
q-104 -104 -104 -260t104 -260q105 -105 256 -105zM819 1352l152 252h203l-195 -252h-160z" />
    <glyph glyph-name="uni1ED2" unicode="&#x1ed2;" horiz-adv-x="1638" 
d="M932 1567l-115 155l-117 -155h-178l203 258h182l203 -258h-178zM1563 717q0 -310 -217 -527q-214 -217 -527 -217q-312 0 -526 217q-215 218 -215 527q0 311 215 526q214 217 526 217q313 0 527 -217q217 -214 217 -526zM1372 717q0 237 -160 397q-155 162 -393 162
q-237 0 -395 -162q-158 -161 -158 -397q0 -232 158 -398q159 -159 395 -159q237 0 393 159q160 165 160 398zM1219 1755h-162l-191 252h199z" />
    <glyph glyph-name="uni1ED3" unicode="&#x1ed3;" horiz-adv-x="1232" 
d="M729 1163l-115 156l-116 -156h-179l203 258h183l202 -258h-178zM233 895q156 156 383 156t383 -156q158 -158 158 -383t-158 -383q-156 -156 -383 -156t-383 156q-155 155 -155 383t155 383zM616 147q153 0 258 105t105 260t-105 260t-258 105q-151 0 -256 -105
q-104 -104 -104 -260t104 -260q105 -105 256 -105zM1016 1352h-162l-190 252h198z" />
    <glyph glyph-name="uni1ED4" unicode="&#x1ed4;" horiz-adv-x="1638" 
d="M932 1567l-115 155l-117 -155h-178l203 258h182l203 -258h-178zM1563 717q0 -310 -217 -527q-214 -217 -527 -217q-312 0 -526 217q-215 218 -215 527q0 311 215 526q214 217 526 217q313 0 527 -217q217 -214 217 -526zM1372 717q0 237 -160 397q-155 162 -393 162
q-237 0 -395 -162q-158 -161 -158 -397q0 -232 158 -398q159 -159 395 -159q237 0 393 159q160 165 160 398zM1145 1755h-117q0 66 6 89t33 44q29 17 29 19q29 14 35 31q2 8 2 16q0 33 -48 33q-67 0 -88 -60l-106 45q52 127 194 127q72 0 118 -36.5t46 -106.5
q0 -98 -71 -133q-21 -10 -29 -23.5t-4 -44.5z" />
    <glyph glyph-name="uni1ED5" unicode="&#x1ed5;" horiz-adv-x="1232" 
d="M729 1163l-115 156l-116 -156h-179l203 258h183l202 -258h-178zM233 895q156 156 383 156t383 -156q158 -158 158 -383t-158 -383q-156 -156 -383 -156t-383 156q-155 155 -155 383t155 383zM616 147q153 0 258 105t105 260t-105 260t-258 105q-151 0 -256 -105
q-104 -104 -104 -260t104 -260q105 -105 256 -105zM942 1352h-117q0 66 6 89t33 44q29 16 29 18q29 14 35 31q2 8 2 16q0 33 -47 33q-67 0 -88 -59l-107 45q52 127 195 127q72 0 118 -37t46 -107q0 -50 -20.5 -84t-51.5 -49q-22 -10 -29.5 -23t-3.5 -44z" />
    <glyph glyph-name="uni1ED6" unicode="&#x1ed6;" horiz-adv-x="1638" 
d="M932 1567l-115 155l-117 -155h-178l203 258h182l203 -258h-178zM1563 717q0 -310 -217 -527q-214 -217 -527 -217q-312 0 -526 217q-215 218 -215 527q0 311 215 526q214 217 526 217q313 0 527 -217q217 -214 217 -526zM1372 717q0 237 -160 397q-155 162 -393 162
q-237 0 -395 -162q-158 -161 -158 -397q0 -232 158 -398q159 -159 395 -159q237 0 393 159q160 165 160 398zM672 1880h-140q0 92 26 151t68 77t93.5 8t105.5 -48q71 -60 104.5 -52.5t33.5 95.5h139q0 -73 -16.5 -125.5t-45.5 -78t-66.5 -32.5t-79.5 6.5t-85 43.5
q-69 60 -103 52t-34 -97z" />
    <glyph glyph-name="uni1ED7" unicode="&#x1ed7;" horiz-adv-x="1232" 
d="M729 1163l-115 156l-116 -156h-179l203 258h183l202 -258h-178zM233 895q156 156 383 156t383 -156q158 -158 158 -383t-158 -383q-156 -156 -383 -156t-383 156q-155 155 -155 383t155 383zM616 147q153 0 258 105t105 260t-105 260t-258 105q-151 0 -256 -105
q-104 -104 -104 -260t104 -260q105 -105 256 -105zM469 1477h-139q0 92 26 151t68 77t93.5 8t105.5 -48q71 -60 104 -52.5t33 95.5h139q0 -73 -16.5 -125.5t-45.5 -78t-66.5 -32.5t-79.5 6.5t-85 43.5q-69 60 -103 52t-34 -97z" />
    <glyph glyph-name="uni1ED8" unicode="&#x1ed8;" horiz-adv-x="1638" 
d="M932 1567l-115 155l-117 -155h-178l203 258h182l203 -258h-178zM1563 717q0 -310 -217 -527q-214 -217 -527 -217q-312 0 -526 217q-215 218 -215 527q0 311 215 526q214 217 526 217q313 0 527 -217q217 -214 217 -526zM1372 717q0 237 -160 397q-155 162 -393 162
q-237 0 -395 -162q-158 -161 -158 -397q0 -232 158 -398q159 -159 395 -159q237 0 393 159q160 165 160 398zM819 -414q-51 0 -86 34.5t-35 84.5t35 85.5t86 35.5q49 0 84 -35.5t35 -85.5q0 -49 -35 -84t-84 -35z" />
    <glyph glyph-name="uni1ED9" unicode="&#x1ed9;" horiz-adv-x="1232" 
d="M729 1163l-115 156l-116 -156h-179l203 258h183l202 -258h-178zM233 895q156 156 383 156t383 -156q158 -158 158 -383t-158 -383q-156 -156 -383 -156t-383 156q-155 155 -155 383t155 383zM616 147q153 0 258 105t105 260t-105 260t-258 105q-151 0 -256 -105
q-104 -104 -104 -260t104 -260q105 -105 256 -105zM616 -414q-51 0 -85.5 34.5t-34.5 84.5t34.5 85.5t85.5 35.5q49 0 84 -35.5t35 -85.5q0 -49 -34.5 -84t-84.5 -35z" />
    <glyph glyph-name="uni1EDA" unicode="&#x1eda;" horiz-adv-x="1638" 
d="M764 1579l164 270h215l-207 -270h-172zM78 717q0 311 215 526q214 217 526 217q103 0 205 -26h131q64 0 84.5 27.5t20.5 99.5v24h157v-24q0 -108 -33 -168.5t-112 -83.5q40 -32 74 -66q217 -214 217 -526q0 -310 -217 -527q-214 -217 -527 -217q-312 0 -526 217
q-215 218 -215 527zM1372 717q0 237 -160 397q-155 162 -393 162q-237 0 -395 -162q-158 -161 -158 -397q0 -232 158 -398q159 -159 395 -159q237 0 393 159q160 165 160 398z" />
    <glyph glyph-name="uni1EDB" unicode="&#x1edb;" horiz-adv-x="1232" 
d="M520 1169l164 271h215l-207 -271h-172zM999 129q-156 -156 -383 -156t-383 156q-155 155 -155 383t155 383q156 156 383 156q94 0 177 -27h69q64 0 84.5 27.5t20.5 99.5v25h157v-25q0 -103 -31 -163.5t-102 -84.5q3 -5 8 -8q158 -158 158 -383t-158 -383zM616 147
q153 0 258 105t105 260t-105 260t-258 105q-151 0 -256 -105q-104 -104 -104 -260t104 -260q105 -105 256 -105z" />
    <glyph glyph-name="uni1EDC" unicode="&#x1edc;" horiz-adv-x="1638" 
d="M1008 1579h-172l-207 270h215zM78 717q0 311 215 526q214 217 526 217q103 0 205 -26h131q64 0 84.5 27.5t20.5 99.5v24h157v-24q0 -108 -33 -168.5t-112 -83.5q40 -32 74 -66q217 -214 217 -526q0 -310 -217 -527q-214 -217 -527 -217q-312 0 -526 217
q-215 218 -215 527zM1372 717q0 237 -160 397q-155 162 -393 162q-237 0 -395 -162q-158 -161 -158 -397q0 -232 158 -398q159 -159 395 -159q237 0 393 159q160 165 160 398z" />
    <glyph glyph-name="uni1EDD" unicode="&#x1edd;" horiz-adv-x="1232" 
d="M762 1169h-172l-207 271h215zM999 129q-156 -156 -383 -156t-383 156q-155 155 -155 383t155 383q156 156 383 156q94 0 177 -27h69q64 0 84.5 27.5t20.5 99.5v25h157v-25q0 -103 -31 -163.5t-102 -84.5q3 -5 8 -8q158 -158 158 -383t-158 -383zM616 147q153 0 258 105
t105 260t-105 260t-258 105q-151 0 -256 -105q-104 -104 -104 -260t104 -260q105 -105 256 -105z" />
    <glyph glyph-name="uni1EDE" unicode="&#x1ede;" horiz-adv-x="1638" 
d="M944 1567h-125q0 71 6.5 95t34.5 46q31 19 33 21q39 19 39 51q0 35 -51 35q-74 0 -95 -64l-114 49q55 135 209 135q76 0 126 -39.5t50 -113.5q0 -105 -76 -144q-23 -10 -32 -24t-5 -47zM78 717q0 311 215 526q214 217 526 217q103 0 205 -26h131q64 0 84.5 27.5
t20.5 99.5v24h157v-24q0 -108 -33 -168.5t-112 -83.5q40 -32 74 -66q217 -214 217 -526q0 -310 -217 -527q-214 -217 -527 -217q-312 0 -526 217q-215 218 -215 527zM1372 717q0 237 -160 397q-155 162 -393 162q-237 0 -395 -162q-158 -161 -158 -397q0 -232 158 -398
q159 -159 395 -159q237 0 393 159q160 165 160 398z" />
    <glyph glyph-name="uni1EDF" unicode="&#x1edf;" horiz-adv-x="1232" 
d="M729 1157h-125q0 71 6.5 95t34.5 46q31 19 33 21q39 19 39 51q0 35 -51 35q-74 0 -95 -64l-114 50q55 135 209 135q76 0 126 -39.5t50 -114.5q0 -104 -76 -143q-23 -10 -32 -24.5t-5 -47.5zM999 129q-156 -156 -383 -156t-383 156q-155 155 -155 383t155 383
q156 156 383 156q94 0 177 -27h69q64 0 84.5 27.5t20.5 99.5v25h157v-25q0 -103 -31 -163.5t-102 -84.5q3 -5 8 -8q158 -158 158 -383t-158 -383zM616 147q153 0 258 105t105 260t-105 260t-258 105q-151 0 -256 -105q-104 -104 -104 -260t104 -260q105 -105 256 -105z" />
    <glyph glyph-name="uni1EE0" unicode="&#x1ee0;" horiz-adv-x="1638" 
d="M686 1589h-149q0 80 18 136.5t49 85t71.5 36t85.5 -7t91 -47.5q75 -65 111 -56.5t36 103.5h150q0 -79 -18 -135.5t-48 -84.5t-70.5 -35.5t-86 7t-92.5 47.5q-74 65 -111 56t-37 -105zM78 717q0 311 215 526q214 217 526 217q103 0 205 -26h131q64 0 84.5 27.5t20.5 99.5
v24h157v-24q0 -108 -33 -168.5t-112 -83.5q40 -32 74 -66q217 -214 217 -526q0 -310 -217 -527q-214 -217 -527 -217q-312 0 -526 217q-215 218 -215 527zM1372 717q0 237 -160 397q-155 162 -393 162q-237 0 -395 -162q-158 -161 -158 -397q0 -232 158 -398
q159 -159 395 -159q237 0 393 159q160 165 160 398z" />
    <glyph glyph-name="uni1EE1" unicode="&#x1ee1;" horiz-adv-x="1232" 
d="M492 1180h-150q0 80 18 136.5t49 84.5t71.5 35.5t85.5 -7t91 -47.5q75 -65 111.5 -56t36.5 104h149q0 -79 -18 -135.5t-48 -84.5t-70.5 -35.5t-86 7t-92.5 47.5q-73 65 -110 56t-37 -105zM999 129q-156 -156 -383 -156t-383 156q-155 155 -155 383t155 383
q156 156 383 156q94 0 177 -27h69q64 0 84.5 27.5t20.5 99.5v25h157v-25q0 -103 -31 -163.5t-102 -84.5q3 -5 8 -8q158 -158 158 -383t-158 -383zM616 147q153 0 258 105t105 260t-105 260t-258 105q-151 0 -256 -105q-104 -104 -104 -260t104 -260q105 -105 256 -105z" />
    <glyph glyph-name="uni1EE2" unicode="&#x1ee2;" horiz-adv-x="1638" 
d="M819 -414q-51 0 -86 34.5t-35 84.5t35 85.5t86 35.5q49 0 84 -35.5t35 -85.5q0 -49 -35 -84t-84 -35zM78 717q0 311 215 526q214 217 526 217q103 0 205 -26h131q64 0 84.5 27.5t20.5 99.5v24h157v-24q0 -108 -33 -168.5t-112 -83.5q40 -32 74 -66q217 -214 217 -526
q0 -310 -217 -527q-214 -217 -527 -217q-312 0 -526 217q-215 218 -215 527zM1372 717q0 237 -160 397q-155 162 -393 162q-237 0 -395 -162q-158 -161 -158 -397q0 -232 158 -398q159 -159 395 -159q237 0 393 159q160 165 160 398z" />
    <glyph glyph-name="uni1EE3" unicode="&#x1ee3;" horiz-adv-x="1232" 
d="M616 -414q-51 0 -85.5 34.5t-34.5 84.5t34.5 85.5t85.5 35.5q49 0 84 -35.5t35 -85.5q0 -49 -34.5 -84t-84.5 -35zM999 129q-156 -156 -383 -156t-383 156q-155 155 -155 383t155 383q156 156 383 156q94 0 177 -27h69q64 0 84.5 27.5t20.5 99.5v25h157v-25
q0 -103 -31 -163.5t-102 -84.5q3 -5 8 -8q158 -158 158 -383t-158 -383zM616 147q153 0 258 105t105 260t-105 260t-258 105q-151 0 -256 -105q-104 -104 -104 -260t104 -260q105 -105 256 -105z" />
    <glyph glyph-name="uni1EE4" unicode="&#x1ee4;" horiz-adv-x="1347" 
d="M135 481v953h191v-945q0 -154 91 -241.5t257 -87.5t257 87.5t91 241.5v945h188v-953q0 -233 -149 -370q-150 -138 -387 -138q-239 0 -389 138t-150 370zM676 -414q-51 0 -86 34.5t-35 84.5t35 85.5t86 35.5q49 0 84 -35.5t35 -85.5q0 -49 -34.5 -84t-84.5 -35z" />
    <glyph glyph-name="uni1EE5" unicode="&#x1ee5;" horiz-adv-x="1155" 
d="M520 -414q-51 0 -86 34.5t-35 84.5t35 85.5t86 35.5q49 0 84 -35.5t35 -85.5q0 -49 -34.5 -84t-84.5 -35zM842 481v543h178v-1024h-178v147q-107 -174 -332 -174q-181 0 -289 114t-108 308v629h178v-618q0 -124 67.5 -193.5t186.5 -69.5q138 0 217.5 85.5t79.5 252.5z
" />
    <glyph glyph-name="uni1EE6" unicode="&#x1ee6;" horiz-adv-x="1347" 
d="M760 1567h-125q0 71 6.5 95t34.5 46q31 19 33 21q39 19 39 51q0 35 -52 35q-73 0 -94 -64l-115 49q55 135 209 135q76 0 126 -39.5t50 -113.5q0 -55 -21 -91t-54 -53q-23 -10 -32 -24t-5 -47zM135 481v953h191v-945q0 -154 91 -241.5t257 -87.5t257 87.5t91 241.5v945
h188v-953q0 -233 -149 -370q-150 -138 -387 -138q-239 0 -389 138t-150 370z" />
    <glyph glyph-name="uni1EE7" unicode="&#x1ee7;" horiz-adv-x="1155" 
d="M639 1157h-125q0 71 6.5 95t34.5 46q31 19 33 21q39 19 39 51q0 35 -52 35q-73 0 -94 -64l-114 50q55 135 208 135q76 0 126.5 -40t50.5 -114q0 -104 -76 -143q-23 -10 -32 -24.5t-5 -47.5zM842 481v543h178v-1024h-178v147q-107 -174 -332 -174q-181 0 -289 114
t-108 308v629h178v-618q0 -124 67.5 -193.5t186.5 -69.5q138 0 217.5 85.5t79.5 252.5z" />
    <glyph glyph-name="uni1EE8" unicode="&#x1ee8;" horiz-adv-x="1347" 
d="M592 1573l164 270h215l-207 -270h-172zM135 481v953h191v-945q0 -154 91 -241.5t257 -87.5t257 87.5t91 241.5v945h86q64 0 84 27.5t20 99.5v24h158v-24q0 -113 -36 -174.5t-124 -81.5v-824q0 -233 -149 -370q-150 -138 -387 -138q-239 0 -389 138t-150 370z" />
    <glyph glyph-name="uni1EE9" unicode="&#x1ee9;" horiz-adv-x="1155" 
d="M657 1434h215l-206 -271h-172zM1028 1151v25h158v-25q0 -114 -37.5 -176t-128.5 -80v-895h-178v147q-107 -174 -332 -174q-181 0 -289 114t-108 308v629h178v-618q0 -124 67.5 -193.5t186.5 -69.5q138 0 217.5 85.5t79.5 252.5v543h82q64 0 84 27.5t20 99.5z" />
    <glyph glyph-name="uni1EEA" unicode="&#x1eea;" horiz-adv-x="1347" 
d="M811 1573h-172l-207 270h215zM135 481v953h191v-945q0 -154 91 -241.5t257 -87.5t257 87.5t91 241.5v945h86q64 0 84 27.5t20 99.5v24h158v-24q0 -113 -36 -174.5t-124 -81.5v-824q0 -233 -149 -370q-150 -138 -387 -138q-239 0 -389 138t-150 370z" />
    <glyph glyph-name="uni1EEB" unicode="&#x1eeb;" horiz-adv-x="1155" 
d="M537 1434l163 -271h-172l-206 271h215zM1028 1151v25h158v-25q0 -114 -37.5 -176t-128.5 -80v-895h-178v147q-107 -174 -332 -174q-181 0 -289 114t-108 308v629h178v-618q0 -124 67.5 -193.5t186.5 -69.5q138 0 217.5 85.5t79.5 252.5v543h82q64 0 84 27.5t20 99.5z" />
    <glyph glyph-name="uni1EEC" unicode="&#x1eec;" horiz-adv-x="1347" 
d="M760 1567h-125q0 71 6.5 95t34.5 46q31 19 33 21q39 19 39 51q0 35 -52 35q-73 0 -94 -64l-115 49q55 135 209 135q76 0 126 -39.5t50 -113.5q0 -55 -21 -91t-54 -53q-23 -10 -32 -24t-5 -47zM135 481v953h191v-945q0 -154 91 -241.5t257 -87.5t257 87.5t91 241.5v945h86
q64 0 84 27.5t20 99.5v24h158v-24q0 -113 -36 -174.5t-124 -81.5v-824q0 -233 -149 -370q-150 -138 -387 -138q-239 0 -389 138t-150 370z" />
    <glyph glyph-name="uni1EED" unicode="&#x1eed;" horiz-adv-x="1155" 
d="M639 1157h-125q0 71 6.5 95t34.5 46q31 19 33 21q39 19 39 51q0 35 -52 35q-73 0 -94 -64l-114 50q55 135 208 135q76 0 126.5 -40t50.5 -114q0 -104 -76 -143q-23 -10 -32 -24.5t-5 -47.5zM1028 1151v25h158v-25q0 -114 -37.5 -176t-128.5 -80v-895h-178v147
q-107 -174 -332 -174q-181 0 -289 114t-108 308v629h178v-618q0 -124 67.5 -193.5t186.5 -69.5q138 0 217.5 85.5t79.5 252.5v543h82q64 0 84 27.5t20 99.5z" />
    <glyph glyph-name="uni1EEE" unicode="&#x1eee;" horiz-adv-x="1347" 
d="M135 481v953h191v-945q0 -154 91 -241.5t257 -87.5t257 87.5t91 241.5v945h86q64 0 84 27.5t20 99.5v24h158v-24q0 -113 -36 -174.5t-124 -81.5v-824q0 -233 -149 -370q-150 -138 -387 -138q-239 0 -389 138t-150 370zM516 1583h-149q0 80 18 136.5t49 85t71.5 36
t85.5 -7t91 -47.5q75 -65 111 -56.5t36 103.5h150q0 -79 -18 -135.5t-48 -84.5t-70.5 -35.5t-86 7t-92.5 47.5q-74 65 -111 56t-37 -105z" />
    <glyph glyph-name="uni1EEF" unicode="&#x1eef;" horiz-adv-x="1155" 
d="M1028 1151v25h158v-25q0 -114 -37.5 -176t-128.5 -80v-895h-178v147q-107 -174 -332 -174q-181 0 -289 114t-108 308v629h178v-618q0 -124 67.5 -193.5t186.5 -69.5q138 0 217.5 85.5t79.5 252.5v543h82q64 0 84 27.5t20 99.5zM406 1174h-150q0 80 18 136.5t49 84.5
t71.5 35.5t85.5 -7t91 -47.5q75 -65 111.5 -56.5t36.5 103.5h149q0 -98 -27 -160.5t-72 -82.5t-101 -9t-115 52q-73 65 -110 56t-37 -105z" />
    <glyph glyph-name="uni1EF0" unicode="&#x1ef0;" horiz-adv-x="1347" 
d="M676 -414q-51 0 -86 34.5t-35 84.5t35 85.5t86 35.5q49 0 84 -35.5t35 -85.5q0 -49 -34.5 -84t-84.5 -35zM135 481v953h191v-945q0 -154 91 -241.5t257 -87.5t257 87.5t91 241.5v945h86q64 0 84 27.5t20 99.5v24h158v-24q0 -113 -36 -174.5t-124 -81.5v-824
q0 -233 -149 -370q-150 -138 -387 -138q-239 0 -389 138t-150 370z" />
    <glyph glyph-name="uni1EF1" unicode="&#x1ef1;" horiz-adv-x="1155" 
d="M520 -414q-51 0 -86 34.5t-35 84.5t35 85.5t86 35.5q49 0 84 -35.5t35 -85.5q0 -49 -34.5 -84t-84.5 -35zM1028 1151v25h158v-25q0 -114 -37.5 -176t-128.5 -80v-895h-178v147q-107 -174 -332 -174q-181 0 -289 114t-108 308v629h178v-618q0 -124 67.5 -193.5
t186.5 -69.5q138 0 217.5 85.5t79.5 252.5v543h82q64 0 84 27.5t20 99.5z" />
    <glyph glyph-name="Ygrave" unicode="&#x1ef2;" horiz-adv-x="1236" 
d="M586 1843l164 -270h-172l-207 270h215zM1008 1434h213l-508 -854v-580h-191v582l-506 852h213l389 -672z" />
    <glyph glyph-name="ygrave" unicode="&#x1ef3;" horiz-adv-x="1054" 
d="M498 1434l164 -271h-173l-206 271h215zM555 221l295 803h190l-417 -1087q-67 -175 -185 -266t-270 -81v166q188 -15 276 209l19 39l-447 1020h191z" />
    <glyph glyph-name="uni1EF4" unicode="&#x1ef4;" horiz-adv-x="1236" 
d="M621 -414q-51 0 -86 34.5t-35 84.5t35 85.5t86 35.5q49 0 83.5 -35.5t34.5 -85.5t-34.5 -84.5t-83.5 -34.5zM1008 1434h213l-508 -854v-580h-191v582l-506 852h213l389 -672z" />
    <glyph glyph-name="uni1EF5" unicode="&#x1ef5;" horiz-adv-x="1054" 
d="M819 -414q-51 0 -86 34.5t-35 84.5t35 85.5t86 35.5q49 0 84 -35.5t35 -85.5q0 -49 -35 -84t-84 -35zM555 221l295 803h190l-417 -1087q-67 -175 -185 -266t-270 -81v166q188 -15 276 209l19 39l-447 1020h191z" />
    <glyph glyph-name="uni1EF6" unicode="&#x1ef6;" horiz-adv-x="1236" 
d="M686 1567h-125q0 71 6.5 95t34.5 46q31 19 33 21q39 19 39 51q0 35 -51 35q-74 0 -95 -64l-114 49q55 135 209 135q76 0 126 -39.5t50 -113.5q0 -105 -76 -144q-23 -10 -32 -24t-5 -47zM1008 1434h213l-508 -854v-580h-191v582l-506 852h213l389 -672z" />
    <glyph glyph-name="uni1EF7" unicode="&#x1ef7;" horiz-adv-x="1054" 
d="M606 1157h-125q0 71 6.5 95t34.5 46q31 19 33 21q39 19 39 51q0 35 -51 35q-73 0 -94 -64l-115 50q55 135 209 135q76 0 126 -39.5t50 -114.5q0 -104 -76 -143q-23 -10 -32 -24.5t-5 -47.5zM555 221l295 803h190l-417 -1087q-67 -175 -185 -266t-270 -81v166
q188 -15 276 209l19 39l-447 1020h191z" />
    <glyph glyph-name="uni1EF8" unicode="&#x1ef8;" horiz-adv-x="1236" 
d="M1008 1434h213l-508 -854v-580h-191v582l-506 852h213l389 -672zM455 1583h-150q0 99 28 162t73.5 83.5t101 9.5t113.5 -52q75 -65 111 -56.5t36 103.5h150q0 -130 -47 -195.5t-118 -63.5t-151 58q-74 65 -110.5 56t-36.5 -105z" />
    <glyph glyph-name="uni1EF9" unicode="&#x1ef9;" horiz-adv-x="1054" 
d="M555 221l295 803h190l-417 -1087q-67 -175 -185 -266t-270 -81v166q188 -15 276 209l19 39l-447 1020h191zM367 1174h-150q0 80 18 136.5t49 84.5t71.5 35.5t85.5 -7t91 -47.5q75 -65 111.5 -56.5t36.5 103.5h149q0 -98 -27 -160.5t-72 -82.5t-101 -9t-115 52
q-74 65 -110.5 56t-36.5 -105z" />
    <glyph glyph-name="endash" unicode="&#x2013;" horiz-adv-x="1341" 
d="M1188 543h-1034v172h1034v-172z" />
    <glyph glyph-name="emdash" unicode="&#x2014;" horiz-adv-x="1546" 
d="M1393 543h-1239v172h1239v-172z" />
    <glyph glyph-name="quoteleft" unicode="&#x2018;" horiz-adv-x="518" 
d="M322 936h-205l133 498h153z" />
    <glyph glyph-name="quoteright" unicode="&#x2019;" horiz-adv-x="518" 
d="M197 1436h204l-133 -498h-153z" />
    <glyph glyph-name="quotesinglbase" unicode="&#x201a;" horiz-adv-x="518" 
d="M197 211h204l-133 -498h-153z" />
    <glyph glyph-name="quotedblleft" unicode="&#x201c;" horiz-adv-x="835" 
d="M322 936h-205l133 498h153zM639 936h-205l133 498h154z" />
    <glyph glyph-name="quotedblright" unicode="&#x201d;" horiz-adv-x="835" 
d="M197 1436h204l-133 -498h-153zM514 1436h205l-133 -498h-154z" />
    <glyph glyph-name="quotedblbase" unicode="&#x201e;" horiz-adv-x="835" 
d="M197 211h204l-133 -498h-153zM514 211h205l-133 -498h-154z" />
    <glyph glyph-name="dagger" unicode="&#x2020;" horiz-adv-x="983" 
d="M582 1116h288v-172h-288v-944h-179v944h-290v172h290v318h179v-318z" />
    <glyph glyph-name="daggerdbl" unicode="&#x2021;" horiz-adv-x="983" 
d="M870 1116v-172h-288v-455h288v-172h-288v-317h-179v317h-290v172h290v455h-290v172h290v318h179v-318h288z" />
    <glyph glyph-name="bullet" unicode="&#x2022;" horiz-adv-x="655" 
d="M492 555q-65 -68 -162 -68q-96 0 -164 68t-68 164q0 97 68 162q67 67 164 67q98 0 162 -67q67 -64 67 -162q0 -97 -67 -164z" />
    <glyph glyph-name="ellipsis" unicode="&#x2026;" horiz-adv-x="1327" 
d="M248 -23q-55 0 -94 39t-39 95q0 55 38.5 94t94.5 39q57 0 95 -38.5t38 -94.5t-38 -95t-95 -39zM664 -23q-56 0 -95 39.5t-39 94.5t39 94t95 39q57 0 95 -38.5t38 -94.5t-38 -95t-95 -39zM1077 -23q-55 0 -94 39t-39 95q0 55 39 94t94 39q57 0 95 -38.5t38 -94.5t-38 -95
t-95 -39z" />
    <glyph glyph-name="perthousand" unicode="&#x2030;" horiz-adv-x="2230" 
d="M436 825q-138 0 -231 93q-92 92 -92 225q0 131 92 223q94 94 231 94q140 0 232 -92t92 -225t-92 -225q-90 -93 -232 -93zM272 1143q0 -72 46 -120t118 -48q71 0 117.5 49t46.5 119t-46.5 118t-117.5 48t-117.5 -48t-46.5 -118zM307 145l-98 58l952 1065l101 -56zM1286 68
q-93 -93 -231 -93q-139 0 -232 93q-92 92 -92 225t92 225t232 92q139 0 231 -92t92 -225t-92 -225zM2025 68q-93 -93 -231 -93t-231 93t-93 225t93 225q92 92 231 92t231 -92q93 -93 93 -225t-93 -225zM936 174q47 -47 119 -47q69 0 116 47q47 50 47 119.5t-47 116.5
q-46 49 -116 49q-73 0 -119 -49q-44 -47 -44 -117t44 -119zM1675 174q47 -47 119 -47q70 0 117 47q47 49 47 119t-47 117q-46 49 -117 49q-73 0 -119 -49q-44 -47 -44 -117t44 -119z" />
    <glyph glyph-name="guilsinglleft" unicode="&#x2039;" horiz-adv-x="696" 
d="M365 1008h192l-225 -375l225 -373h-192l-226 373z" />
    <glyph glyph-name="guilsinglright" unicode="&#x203a;" horiz-adv-x="696" 
d="M139 1008h193l225 -375l-225 -373h-193l226 373z" />
    <glyph glyph-name="fraction" unicode="&#x2044;" horiz-adv-x="430" 
d="M696 1434l-819 -1434h-143l819 1434h143z" />
    <glyph glyph-name="Euro" unicode="&#x20ac;" horiz-adv-x="1228" 
d="M1022 354l158 -90q-60 -140 -174 -215.5t-269 -75.5q-224 0 -368 150.5t-181 415.5h-149v133h137v45q0 49 2 63h-139v131h151q42 256 185 402.5t362 146.5q315 0 441 -284l-158 -91q-86 191 -283 191q-139 0 -230.5 -94t-123.5 -271h485v-131h-499q-2 -14 -2 -63v-45h501
v-133h-487q29 -183 121 -281t235 -98q202 0 285 194z" />
    <glyph glyph-name="uni20BD" unicode="&#x20bd;" horiz-adv-x="1216" 
d="M729 549h-330v-166h508v-139h-508v-244h-188v244h-174v139h174v166h-174v172h174v713h518q187 0 318 -131q131 -128 131 -314q0 -185 -131 -313q-130 -127 -318 -127zM729 1255h-330v-534h330q104 0 182 78q78 81 78 190q0 113 -76 189q-77 77 -184 77z" />
    <glyph glyph-name="uni2116" unicode="&#x2116;" horiz-adv-x="2097" 
d="M1698 823q-137 0 -232 92q-92 92 -92 226q0 133 92 225t232 92q139 0 231 -92t92 -225q0 -134 -92 -226q-89 -92 -231 -92zM1044 365v1069h191v-1434h-154l-737 1071v-1071h-190v1434h153zM1581 1024q44 -47 117 -47t117 47t44 116.5t-44 116.5t-117 47t-117 -47
t-44 -116.5t44 -116.5zM1997 522h-598v170h598v-170z" />
    <glyph glyph-name="trademark" unicode="&#x2122;" horiz-adv-x="958" 
d="M78 1434h328v-88h-115v-322h-96v322h-117v88zM668 1245l118 189h95v-410h-95v254l-114 -180h-10l-115 180v-254h-94v410h94z" />
    <glyph glyph-name="estimated" unicode="&#x212e;" horiz-adv-x="1658" 
d="M1587 717q0 -31 -31 -31h-1146q-31 0 -31 -31v-393q0 -25 14 -39q173 -182 477 -182q298 0 473 199q15 18 37 18h76q20 0 26.5 -13t-7.5 -26q-224 -239 -605 -239q-363 0 -579 210q-219 213 -219 527q0 313 211 524q213 213 546 213q332 0 545 -213t213 -524zM1280 778
v393q0 25 -14 39q-174 183 -437 183q-262 0 -436 -183q-14 -14 -14 -39v-393q0 -30 31 -30h839q31 0 31 30z" />
    <glyph glyph-name="oneeighth" unicode="&#x215b;" horiz-adv-x="1646" 
d="M393 1434v-820h-157v654l-181 -54l-39 134l240 86h137zM254 0l819 1434h144l-820 -1434h-143zM1470 432q129 -70 129 -213q0 -112 -82 -179t-219 -67t-219 67t-82 179q0 143 129 213q-102 62 -102 176q0 107 77.5 172.5t196.5 65.5t197 -65.5t78 -172.5q0 -114 -103 -176
zM1298 705q-61 0 -94 -27.5t-33 -75.5q0 -50 33 -79t94 -29q60 0 93.5 29t33.5 79q0 48 -33.5 75.5t-93.5 27.5zM1298 360q-69 0 -108 -31.5t-39 -88.5q0 -55 39 -88t108 -33q70 0 109 33t39 88t-40 87.5t-108 32.5z" />
    <glyph glyph-name="threeeighths" unicode="&#x215c;" horiz-adv-x="1845" 
d="M647 856q0 -123 -82.5 -195.5t-222.5 -72.5q-218 0 -301 176l133 76q47 -105 168 -105q71 0 109 32.5t38 88.5t-41 89.5t-108 33.5h-18l-70 102l172 205h-352v148h538v-136l-172 -204q98 -20 153.5 -83t55.5 -155zM453 0l819 1434h143l-819 -1434h-143zM1669 432
q129 -70 129 -213q0 -112 -82 -179t-219 -67t-219 67t-82 179q0 143 129 213q-102 62 -102 176q0 107 77.5 172.5t196.5 65.5t197 -65.5t78 -172.5q0 -114 -103 -176zM1497 705q-61 0 -94 -27.5t-33 -75.5q0 -50 33 -79t94 -29q60 0 93.5 29t33.5 79q0 48 -33.5 75.5
t-93.5 27.5zM1497 360q-69 0 -108 -31.5t-39 -88.5q0 -55 39 -88t108 -33q70 0 109 33t39 88t-40 87.5t-108 32.5z" />
    <glyph glyph-name="fiveeighths" unicode="&#x215d;" horiz-adv-x="1820" 
d="M629 854q0 -123 -80 -194.5t-215 -71.5q-217 0 -299 178l133 74q46 -107 164 -107q69 0 107 33t38 90q0 58 -38.5 93.5t-106.5 35.5h-254l31 449h485v-146h-352l-11 -162h107q132 0 211.5 -73t79.5 -199zM428 0l819 1434h144l-820 -1434h-143zM1645 432q129 -70 129 -213
q0 -112 -82 -179t-219 -67t-219.5 67t-82.5 179q0 143 129 213q-102 62 -102 176q0 107 78 172.5t197 65.5t196.5 -65.5t77.5 -172.5q0 -114 -102 -176zM1473 705q-61 0 -94 -27.5t-33 -75.5q0 -50 33 -79t94 -29q59 0 92.5 29t33.5 79q0 48 -33.5 75.5t-92.5 27.5z
M1473 360q-69 0 -108.5 -31.5t-39.5 -88.5q0 -55 39 -88t109 -33q69 0 108 33t39 88t-39.5 87.5t-107.5 32.5z" />
    <glyph glyph-name="seveneighths" unicode="&#x215e;" horiz-adv-x="1732" 
d="M16 1434h551v-125l-288 -695h-166l282 672h-379v148zM340 0l819 1434h144l-820 -1434h-143zM1556 432q130 -71 130 -213q0 -112 -82.5 -179t-219.5 -67t-219 67t-82 179q0 143 129 213q-102 62 -102 176q0 107 77.5 172.5t196.5 65.5t197 -65.5t78 -172.5
q0 -114 -103 -176zM1384 705q-61 0 -94 -27.5t-33 -75.5q0 -50 33 -79t94 -29q60 0 93.5 29t33.5 79q0 48 -33.5 75.5t-93.5 27.5zM1384 360q-69 0 -108 -31.5t-39 -88.5q0 -55 39 -88t108 -33q70 0 109 33t39 88t-40 87.5t-108 32.5z" />
    <glyph glyph-name="arrowleft" unicode="&#x2190;" horiz-adv-x="1665" 
d="M438 803h1114v-172h-1114l529 -529h-240l-614 615l614 614h240z" />
    <glyph glyph-name="arrowup" unicode="&#x2191;" horiz-adv-x="1454" 
d="M727 1434l614 -615v-239l-524 524v-1104h-178v1106l-526 -526v239z" />
    <glyph glyph-name="arrowright" unicode="&#x2192;" horiz-adv-x="1665" 
d="M698 1331h240l614 -614l-614 -615h-240l529 529h-1114v172h1114z" />
    <glyph glyph-name="arrowdown" unicode="&#x2193;" horiz-adv-x="1454" 
d="M817 1434v-1104l524 524v-240l-614 -614l-614 614v240l526 -526v1106h178z" />
    <glyph glyph-name="arrowboth" unicode="&#x2194;" horiz-adv-x="2160" 
d="M1284 1245h238l526 -528l-526 -527h-238l438 441h-1286l441 -441h-238l-526 527l526 528h238l-441 -442h1288z" />
    <glyph glyph-name="arrowupdn" unicode="&#x2195;" horiz-adv-x="1280" 
d="M1167 1159v-237l-438 438v-1286l438 438v-238l-526 -526l-528 526v238l438 -436v1282l-438 -436v237l528 527z" />
    <glyph glyph-name="uni2196" unicode="&#x2196;" horiz-adv-x="1310" 
d="M406 1053l792 -793l-125 -125l-792 793v-744l-168 168v869h868l168 -168h-743z" />
    <glyph glyph-name="uni2197" unicode="&#x2197;" horiz-adv-x="1310" 
d="M162 1053l168 168h868v-869l-168 -168v744l-792 -793l-125 125l792 793h-743z" />
    <glyph glyph-name="uni2198" unicode="&#x2198;" horiz-adv-x="1310" 
d="M1030 463v745l168 -168v-868h-868l-168 168h743l-792 793l125 122z" />
    <glyph glyph-name="uni2199" unicode="&#x2199;" horiz-adv-x="1310" 
d="M1073 1255l125 -122l-792 -793h743l-168 -168h-868v868l168 168v-745z" />
    <glyph glyph-name="partialdiff" unicode="&#x2202;" horiz-adv-x="1185" 
d="M481 1460q246 0 420 -207q172 -205 172 -536q0 -351 -153 -547q-153 -197 -392 -197q-198 0 -315 123q-115 127 -115 314q0 210 123 342q125 131 344 131q175 0 328 -99q-15 219 -127 361q-110 140 -297 143q-141 0 -256 -69v167q115 74 268 74zM532 145q152 0 247 125.5
t112 345.5q-133 103 -313 103q-139 0 -220.5 -80.5t-81.5 -226.5q0 -120 67 -193.5t189 -73.5z" />
    <glyph glyph-name="emptyset" unicode="&#x2205;" horiz-adv-x="1646" 
d="M1530 1475l-187 -230q222 -219 222 -528q0 -307 -217 -524q-218 -218 -525 -218q-229 0 -417 129l-119 -145h-168l186 227q-223 216 -223 531q0 307 217 524t524 217q231 0 418 -129l119 146h170zM225 717q0 -246 170 -422l758 926q-143 98 -330 98q-248 0 -424 -176
q-174 -174 -174 -426zM823 115q248 0 424 176q174 174 174 426q0 249 -168 420l-757 -924q148 -98 327 -98z" />
    <glyph glyph-name="product" unicode="&#x220f;" horiz-adv-x="1310" 
d="M332 -410h-178v1844h1003v-1844h-178v1672h-647v-1672z" />
    <glyph glyph-name="summation" unicode="&#x2211;" horiz-adv-x="1122" 
d="M1055 -410h-963v164l473 778l-442 736v166h901v-172h-694l440 -730l-469 -770h754v-172z" />
    <glyph glyph-name="minus" unicode="&#x2212;" horiz-adv-x="1116" 
d="M999 633h-880v170h880v-170z" />
    <glyph glyph-name="radical" unicode="&#x221a;" horiz-adv-x="1341" 
d="M754 0h-181l-270 459h-190v172h293l241 -420l477 1427h187z" />
    <glyph glyph-name="infinity" unicode="&#x221e;" horiz-adv-x="1644" 
d="M1190 1055q144 0 246 -97q98 -94 98 -241q0 -150 -98 -244t-246 -94q-187 0 -367 207q-180 -207 -368 -207q-148 0 -246 94t-98 244q0 147 98 241q102 97 246 97q188 0 368 -207q180 207 367 207zM459 541q131 0 260 176q-129 176 -260 176q-75 0 -123.5 -49t-48.5 -127
t48.5 -127t123.5 -49zM1186 541q75 0 123.5 49t48.5 127t-48.5 127t-123.5 49q-129 0 -258 -176q129 -176 258 -176z" />
    <glyph glyph-name="integral" unicode="&#x222b;" horiz-adv-x="901" 
d="M0 -416v176q97 -38 163 -3.5t83 134.5l213 1258q32 192 146.5 264.5t295.5 24.5v-174q-110 36 -178.5 2t-85.5 -133l-213 -1258q-32 -192 -143.5 -265.5t-280.5 -25.5z" />
    <glyph glyph-name="approxequal" unicode="&#x2248;" horiz-adv-x="1200" 
d="M582 807q-100 58 -166.5 66.5t-102 -20.5t-61.5 -95l-139 57q54 185 182.5 228t320.5 -64q153 -80 220 -64.5t98 129.5l153 -71q-52 -182 -179 -226t-326 60zM266 389l-153 72q52 182 181 227t322 -61q77 -44 133 -60.5t93.5 -5.5t61.5 38.5t44 76.5l139 -58
q-55 -185 -180.5 -227.5t-324.5 64.5q-150 78 -217.5 62t-98.5 -128z" />
    <glyph glyph-name="notequal" unicode="&#x2260;" horiz-adv-x="1095" 
d="M983 1010v-170h-319l-109 -246h428v-170h-504l-131 -291h-123l131 291h-243v170h319l109 246h-428v170h503l132 290h122l-131 -290h244z" />
    <glyph glyph-name="lessequal" unicode="&#x2264;" horiz-adv-x="1071" 
d="M113 938l845 328v-193l-630 -219l630 -217v-193l-845 326v168zM958 174h-845v170h845v-170z" />
    <glyph glyph-name="greaterequal" unicode="&#x2265;" horiz-adv-x="1071" 
d="M113 1073v193l845 -328v-168l-845 -326v193l630 217zM958 174h-845v170h845v-170z" />
    <glyph glyph-name="lozenge" unicode="&#x25ca;" horiz-adv-x="1116" 
d="M639 0h-160l-381 717l381 717h160l381 -717zM289 717l270 -504l268 504l-268 504z" />
    <glyph glyph-name="NULL" horiz-adv-x="0" 
 />
    <glyph glyph-name="CR" horiz-adv-x="681" 
 />
    <glyph glyph-name="i.loclTRK" horiz-adv-x="450" 
d="M315 1192q-37 -37 -90.5 -37t-91.5 37q-37 37 -37 90t37 90q38 38 91.5 38t90.5 -38q37 -37 37 -90t-37 -90zM313 0h-178v1024h178v-1024z" />
    <glyph glyph-name="f_f_j" horiz-adv-x="1642" 
d="M950 1024h557v-1085q0 -198 -100 -293t-295 -82v172q113 -11 165 37t52 166v913h-379v-852h-178v852h-381v-852h-178v852h-164v172h164v31q0 207 116.5 312.5t332.5 92.5v-172q-271 21 -271 -233v-31h381v51q0 406 447 406q88 0 211 -27v-162q-136 17 -211 17
q-142 0 -205.5 -53.5t-63.5 -180.5v-51z" />
    <glyph glyph-name="f_j" horiz-adv-x="1085" 
d="M391 1024h557v-1085q0 -198 -100.5 -293.5t-292.5 -81.5v172q111 -11 163 37t52 166v913h-379v-852h-178v852h-164v172h164v31q0 405 449 405q89 0 210 -26v-162q-134 16 -210 16q-142 0 -206.5 -53t-64.5 -180v-31z" />
    <glyph glyph-name="uni0414.loclBGR" horiz-adv-x="1454" 
d="M836 1434l430 -1254h143v-454h-190v274h-983v-274h-189v454h141l433 1254h215zM727 1208l-340 -1028h680z" />
    <glyph glyph-name="uni041B.loclBGR" horiz-adv-x="1271" 
d="M16 0l512 1434h215l514 -1434h-206l-414 1196l-416 -1196h-205z" />
    <glyph glyph-name="uni0424.loclBGR" horiz-adv-x="1738" 
d="M963 -20v-185h-185v185q-316 27 -508 225t-192 512q0 312 192 510q194 200 508 227v184h185v-184q313 -27 507 -227q193 -199 193 -510q0 -313 -193 -512q-192 -198 -507 -225zM778 154v1128q-240 -26 -376 -176t-136 -389t136.5 -388.5t375.5 -174.5zM963 1282v-1128
q239 25 374.5 174.5t135.5 388.5t-135.5 389t-374.5 176z" />
    <glyph glyph-name="uni0414.ss01" horiz-adv-x="1423" 
d="M1204 1434v-1254h154v-180h-1327v180h125q133 168 133 504v750h915zM371 180h643v1075h-535v-575q0 -324 -108 -500z" />
    <glyph glyph-name="uni0426.ss01" horiz-adv-x="1413" 
d="M1194 1434v-1254h154v-180h-1194v1434h190v-1254h660v1254h190z" />
    <glyph glyph-name="uni0429.ss01" horiz-adv-x="2007" 
d="M1788 1434v-1254h154v-180h-1788v1434h190v-1254h533v1254h188v-1254h532v1254h191z" />
    <glyph glyph-name="uni0414.loclBGR.ss01" horiz-adv-x="1454" 
d="M836 1434l430 -1254h143v-180h-1362v180h141l433 1254h215zM727 1208l-340 -1028h680z" />
    <glyph glyph-name="uni0432.loclBGR" horiz-adv-x="1165" 
d="M831 825q122 -43 189 -147.5t67 -257.5q0 -210 -126 -328.5t-349 -118.5t-350 133t-127 365v483q0 230 121 369q122 137 332 137q173 0 278 -96t105 -252t-140 -287zM588 1290q-127 0 -201 -91t-74 -245v-149l174 35q94 16 156 16q152 116 152 246q0 83 -56 135.5
t-151 52.5zM909 420q0 155 -115.5 224t-306.5 28l-174 -35v-166q0 -152 79.5 -238t219.5 -86t218.5 72t78.5 201z" />
    <glyph glyph-name="uni0433.loclBGR" horiz-adv-x="937" 
d="M723 309l154 -90q-49 -112 -156.5 -179t-251.5 -67q-166 0 -276 84q-109 83 -109 224q0 99 56 167.5t143 96.5q32 11 82.5 25.5t85 24.5t75 26t65.5 32t41.5 40.5t16.5 54.5q0 63 -51.5 100t-124.5 37q-166 0 -225 -140l-150 86q52 101 151 160.5t224 59.5q151 0 254 -86
q102 -86 102 -220q0 -98 -55 -164.5t-145 -97.5q-30 -10 -81.5 -24t-85 -23.5t-75 -25.5t-65.5 -32t-41 -40.5t-17 -54.5q0 -70 55.5 -106t149.5 -36q91 0 159 46t95 122z" />
    <glyph glyph-name="uni0434.loclBGR" 
d="M985 848v176h176v-981q0 -226 -153 -352q-154 -127 -369 -127q-172 0 -297 64.5t-188 185.5l155 88q82 -172 334 -172q160 0 251 83.5t91 229.5v145q-134 -204 -385 -204q-222 0 -371 155q-151 157 -151 379q0 223 151 377q150 156 371 156q253 0 385 -203zM985 518
q0 154 -104 258q-105 105 -260 105q-156 0 -261 -105q-104 -104 -104 -258q0 -156 104 -260t261 -104q156 0 260 104t104 260z" />
    <glyph glyph-name="uni0436.loclBGR" horiz-adv-x="1429" 
d="M965 528l430 -528h-209l-383 481v-481h-176v481l-383 -481h-207l428 528l-408 496h207l363 -451v861h176v-861l362 451h209z" />
    <glyph glyph-name="uni0438.loclBGR" horiz-adv-x="1155" 
d="M842 481v543h178v-1024h-178v147q-107 -174 -332 -174q-181 0 -289 114t-108 308v629h178v-618q0 -124 67.5 -193.5t186.5 -69.5q138 0 217.5 85.5t79.5 252.5z" />
    <glyph glyph-name="uni0439.loclBGR" horiz-adv-x="1155" 
d="M287 1333h553v-155h-553v155zM842 481v543h178v-1024h-178v147q-107 -174 -332 -174q-181 0 -289 114t-108 308v629h178v-618q0 -124 67.5 -193.5t186.5 -69.5q138 0 217.5 85.5t79.5 252.5z" />
    <glyph glyph-name="uni043A.loclBGR" horiz-adv-x="1032" 
d="M496 528l505 -528h-221l-467 485v-485h-178v1434h178v-863l443 453h229z" />
    <glyph glyph-name="uni043B.loclBGR" horiz-adv-x="1060" 
d="M635 1024l409 -1024h-192l-322 834l-321 -834h-193l410 1024h209z" />
    <glyph glyph-name="uni043F.loclBGR" horiz-adv-x="1155" 
d="M645 1051q181 0 289 -114t108 -308v-629h-178v618q0 124 -67.5 193.5t-186.5 69.5q-138 0 -217.5 -85.5t-79.5 -252.5v-543h-178v1024h178v-147q107 174 332 174z" />
    <glyph glyph-name="uni0442.loclBGR" horiz-adv-x="1738" 
d="M1241 1051q173 0 279 -112.5t106 -301.5v-637h-178v631q0 117 -60.5 183.5t-164.5 66.5q-119 0 -185.5 -78.5t-66.5 -233.5v-569h-178v631q0 118 -58.5 184t-159.5 66q-117 0 -189.5 -81t-72.5 -231v-569h-178v1024h178v-137q105 164 305 164q208 0 302 -174
q107 174 321 174z" />
    <glyph glyph-name="uni0446.loclBGR" horiz-adv-x="1230" 
d="M1092 170h84v-444h-177v282q-111 26 -147 144q-114 -179 -342 -179q-181 0 -288 114t-107 308v629h178v-616q0 -127 66.5 -196t185.5 -69q138 0 217.5 85.5t79.5 252.5v543h178v-782q0 -32 20 -52t52 -20z" />
    <glyph glyph-name="uni0448.loclBGR" horiz-adv-x="1738" 
d="M1425 455v569h179v-1024h-179v137q-105 -164 -305 -164q-207 0 -301 174q-107 -174 -321 -174q-173 0 -279 112.5t-106 301.5v637h178v-631q0 -117 60.5 -183.5t164.5 -66.5q119 0 185.5 78.5t66.5 233.5v569h178v-631q0 -118 58 -184t159 -66q117 0 189.5 81t72.5 231z
" />
    <glyph glyph-name="uni0449.loclBGR" horiz-adv-x="1814" 
d="M1675 170h84v-444h-176v282q-107 27 -145 135q-108 -170 -312 -170q-211 0 -305 174q-107 -174 -323 -174q-173 0 -278 112.5t-105 301.5v637h178v-629q0 -120 59.5 -186t163.5 -66q119 0 186.5 79t67.5 233v569h178v-629q0 -121 57 -186.5t160 -65.5q115 0 187.5 81
t72.5 231v569h179v-782q0 -32 19.5 -52t51.5 -20z" />
    <glyph glyph-name="uni044C.loclBGR" horiz-adv-x="989" 
d="M291 709h237q192 0 299 -94.5t107 -262.5q0 -156 -115 -268q-114 -111 -295 -111q-189 0 -299 107t-110 276v668h176v-315zM524 145q102 0 166 64q68 65 68 143q0 91 -60.5 141t-169.5 50h-237v-187q0 -90 64.5 -150.5t168.5 -60.5z" />
    <glyph glyph-name="uni044A.loclBGR" horiz-adv-x="1163" 
d="M461 709h237q192 0 299 -94.5t107 -262.5q0 -156 -115 -268q-114 -111 -295 -111q-189 0 -299 107t-110 276v498h-285v170h461v-315zM694 145q102 0 166 64q68 65 68 143q0 91 -60.5 141t-169.5 50h-237v-187q0 -90 64.5 -150.5t168.5 -60.5z" />
    <glyph glyph-name="uni044E.loclBGR" horiz-adv-x="1646" 
d="M1030 1051q225 0 381 -156q158 -158 158 -383t-158 -383q-156 -156 -381 -156q-203 0 -350 129q-149 131 -176 326h-191v-428h-178v1434h178v-836h191q27 196 176 324q150 129 350 129zM1030 147q151 0 256 105t105 260t-105 260t-256 105q-153 0 -258 -105
q-104 -104 -104 -260t104 -260q105 -105 258 -105z" />
    <glyph glyph-name="zero.sinf" horiz-adv-x="839" 
d="M684 -236q-93 -118 -264 -118q-169 0 -266 118q-97 123 -97 318q0 194 97 317q98 119 266 119q170 0 264 -119q98 -119 98 -317q0 -199 -98 -318zM270 -127q54 -72 150 -72q95 0 149 72q54 73 54 209t-54 209q-53 71 -149 71q-97 0 -150 -71t-53 -209t53 -209z" />
    <glyph glyph-name="one.sinf" horiz-adv-x="507" 
d="M16 406l240 86h137v-820h-157v654l-181 -54z" />
    <glyph glyph-name="two.sinf" horiz-adv-x="704" 
d="M645 -328h-586v117l332 313q80 74 80 158q0 50 -34 79.5t-91 29.5q-113 0 -162 -119l-131 74q83 194 293 194q124 0 204.5 -72.5t80.5 -181.5q0 -139 -131 -258l-207 -186h352v-148z" />
    <glyph glyph-name="three.sinf" horiz-adv-x="710" 
d="M610 356l-172 -204q98 -20 153.5 -83t55.5 -155q0 -123 -82.5 -195.5t-222.5 -72.5q-218 0 -301 176l133 76q46 -105 168 -105q71 0 109 32.5t38 88.5t-41 89.5t-108 33.5h-18l-70 102l172 205h-352v148h538v-136z" />
    <glyph glyph-name="four.sinf" horiz-adv-x="727" 
d="M592 -37h96v-145h-96v-146h-156v146h-407v145l290 529h170l-286 -529h233v180h156v-180z" />
    <glyph glyph-name="five.sinf" horiz-adv-x="677" 
d="M240 184h106q132 0 211.5 -73t79.5 -199q0 -123 -80 -194.5t-215 -71.5q-217 0 -299 178l133 74q46 -107 164 -107q69 0 107 33t38 90q0 58 -38.5 93.5t-106.5 35.5h-254l31 449h485v-146h-352z" />
    <glyph glyph-name="six.sinf" horiz-adv-x="690" 
d="M334 221h10q136 0 221 -82q86 -83 86 -205t-88 -204q-87 -84 -219 -84t-219 84q-86 83 -86 204q0 98 51 166l248 392h178zM231 -170q43 -41 113 -41t113 41q43 38 43 104.5t-43 104.5t-113 38t-113 -38q-41 -38 -41 -104.5t41 -104.5z" />
    <glyph glyph-name="seven.sinf" horiz-adv-x="606" 
d="M16 344v148h551v-125l-288 -695h-166l282 672h-379z" />
    <glyph glyph-name="eight.sinf" horiz-adv-x="696" 
d="M520 104q129 -70 129 -213q0 -112 -82 -178.5t-219 -66.5t-219 66.5t-82 178.5q0 143 129 213q-102 62 -102 177q0 107 77.5 172t196.5 65t197 -65t78 -172q0 -115 -103 -177zM348 377q-61 0 -94 -27.5t-33 -75.5q0 -50 33 -79t94 -29q60 0 93.5 29t33.5 79
q0 48 -33.5 75.5t-93.5 27.5zM348 33q-69 0 -108 -32t-39 -89q0 -55 39 -88t108 -33q70 0 109 33t39 88t-40 88t-108 33z" />
    <glyph glyph-name="nine.sinf" horiz-adv-x="690" 
d="M651 229q0 -98 -51 -166l-248 -391h-178l182 271h-10q-136 0 -221 82q-86 83 -86 204q0 122 86 205q90 84 221 84q132 0 219 -84q86 -83 86 -205zM233 334q-43 -38 -43 -104.5t43 -104.5q42 -39 113 -39q72 0 111 39q43 38 43 104.5t-43 104.5q-41 41 -111 41
q-69 0 -113 -41z" />
    <glyph glyph-name="zero.tf" horiz-adv-x="1173" 
d="M993 176q-144 -203 -407 -203q-264 0 -408 203q-145 204 -145 541q0 336 145 540q144 203 408 203q263 0 407 -203q146 -205 146 -540q0 -336 -146 -541zM223 717q0 -266 95 -411.5t268 -145.5q174 0 269 144.5t95 412.5t-95 413.5t-269 145.5t-268.5 -145.5
t-94.5 -413.5z" />
    <glyph glyph-name="one.tf" horiz-adv-x="1173" 
d="M709 1434v-1254h409v-180h-1044v180h446v1049l-305 -90l-47 164l377 131h164z" />
    <glyph glyph-name="two.tf" horiz-adv-x="1173" 
d="M1092 0h-1008v156l520 456q142 123 205 210t63 179q0 125 -78.5 200t-213.5 75q-223 0 -324 -223l-160 92q68 151 197 233t289 82q210 0 344 -125q137 -125 137 -329q0 -134 -81 -256.5t-249 -262.5l-364 -303h723v-184z" />
    <glyph glyph-name="three.tf" horiz-adv-x="1173" 
d="M1036 1266l-338 -416q185 -30 292.5 -139.5t107.5 -282.5q0 -213 -148 -334t-377 -121q-187 0 -327 87.5t-195 240.5l160 94q32 -110 127.5 -172.5t230.5 -62.5q161 0 250.5 70t89.5 198q0 127 -90.5 197.5t-249.5 70.5h-45l-80 117l359 442h-705v179h938v-168z" />
    <glyph glyph-name="four.tf" horiz-adv-x="1173" 
d="M961 451h174v-179h-174v-272h-191v272h-737v179l514 983h205l-514 -983h532v374h191v-374z" />
    <glyph glyph-name="five.tf" horiz-adv-x="1173" 
d="M346 874h246q218 0 362 -120t144 -330q0 -211 -148 -332q-143 -119 -360 -119q-187 0 -328 87.5t-196 240.5l161 94q31 -109 127 -172t232 -63q149 0 236 70t87 194q0 126 -86 196t-237 70h-441l54 744h843v-179h-669z" />
    <glyph glyph-name="six.tf" horiz-adv-x="1173" 
d="M571 942q242 0 387 -133q146 -134 146 -350t-146 -353q-145 -133 -387 -133q-244 0 -389 133q-143 134 -143 353q0 181 100 305l479 670h224l-357 -496q78 4 86 4zM317 238q91 -82 254 -82q164 0 252 82q90 84 90 221t-90 221q-88 82 -252 82q-163 0 -254 -82
q-90 -84 -90 -221t90 -221z" />
    <glyph glyph-name="seven.tf" horiz-adv-x="1173" 
d="M72 1253v181h1024v-170l-570 -1264h-198l563 1253h-819z" />
    <glyph glyph-name="eight.tf" horiz-adv-x="1173" 
d="M883 741q109 -54 169 -145t60 -203q0 -196 -141.5 -308t-384.5 -112q-241 0 -383 112.5t-142 307.5q0 112 60.5 203t169.5 145q-180 113 -180 314q0 190 133 299q133 106 342 106q210 0 342 -106q135 -105 135 -299q0 -201 -180 -314zM586 1278q-136 0 -211.5 -58
t-75.5 -169q0 -108 77.5 -169t209.5 -61q134 0 211 61t77 169q0 111 -75.5 169t-212.5 58zM336 221q89 -65 250 -65t250 65q88 64 88 185q0 118 -88 182q-89 65 -250 65t-250 -65q-86 -65 -86 -182q0 -120 86 -185z" />
    <glyph glyph-name="nine.tf" horiz-adv-x="1173" 
d="M1135 975q0 -168 -97 -297l-485 -678h-221l354 496q-70 -4 -84 -4q-242 0 -387 133t-145 350t145 350q144 135 387 135t387 -135q146 -134 146 -350zM944 975q0 141 -90.5 222t-251.5 81t-252.5 -81.5t-91.5 -221.5t91.5 -220.5t252.5 -80.5t251.5 80.5t90.5 220.5z" />
    <glyph glyph-name="zero.dnom" horiz-adv-x="839" 
d="M684 92q-94 -119 -264 -119q-168 0 -266 119q-97 123 -97 318q0 194 97 317q98 119 266 119q170 0 264 -119q98 -119 98 -317q0 -199 -98 -318zM270 201q54 -72 150 -72q95 0 149 72q54 73 54 209q0 135 -54 208q-54 72 -149 72q-96 0 -150 -72q-53 -71 -53 -208
q0 -138 53 -209z" />
    <glyph glyph-name="one.dnom" horiz-adv-x="520" 
d="M16 733l240 86h137v-819h-157v653l-181 -53z" />
    <glyph glyph-name="two.dnom" horiz-adv-x="706" 
d="M645 0h-586v117l332 313q80 74 80 158q0 49 -34 78.5t-91 29.5q-113 0 -162 -118l-131 73q83 195 293 195q124 0 204.5 -72.5t80.5 -181.5q0 -139 -131 -258l-207 -187h352v-147z" />
    <glyph glyph-name="three.dnom" horiz-adv-x="718" 
d="M610 684l-172 -205q99 -20 154 -82.5t55 -154.5q0 -123 -83 -196t-222 -73q-218 0 -301 177l133 75q46 -104 168 -104q71 0 109 32.5t38 88.5t-41 89.5t-108 33.5h-18l-70 102l172 205h-352v147h538v-135z" />
    <glyph glyph-name="four.dnom" horiz-adv-x="727" 
d="M592 291h96v-146h-96v-145h-156v145h-407v146l290 528h170l-286 -528h233v180h156v-180z" />
    <glyph glyph-name="five.dnom" horiz-adv-x="694" 
d="M231 512h107q132 0 211.5 -73t79.5 -199q0 -123 -80 -195t-215 -72q-216 0 -299 179l133 73q46 -106 164 -106q69 0 107 33t38 90q0 58 -38.5 93.5t-106.5 35.5h-254l31 448h485v-145h-352z" />
    <glyph glyph-name="six.dnom" horiz-adv-x="690" 
d="M334 549h10q136 0 221 -82q86 -83 86 -205q0 -125 -88 -207q-85 -82 -219 -82t-219 82q-86 83 -86 207q0 98 51 166l248 391h178zM231 156q43 -38 113 -38t113 38q43 40 43 106q0 65 -43 105q-43 38 -113 38t-113 -38q-41 -41 -41 -105q0 -65 41 -106z" />
    <glyph glyph-name="seven.dnom" horiz-adv-x="606" 
d="M16 672v147h551v-125l-288 -694h-166l282 672h-379z" />
    <glyph glyph-name="eight.dnom" horiz-adv-x="696" 
d="M520 432q129 -70 129 -213q0 -112 -82 -179t-219 -67t-219 67t-82 179q0 143 129 213q-102 62 -102 176q0 107 77.5 172.5t196.5 65.5t197 -65.5t78 -172.5q0 -114 -103 -176zM348 705q-61 0 -94 -27.5t-33 -75.5q0 -50 33 -79t94 -29q60 0 93.5 29t33.5 79
q0 48 -33.5 75.5t-93.5 27.5zM348 360q-69 0 -108 -31.5t-39 -88.5q0 -55 39 -88t108 -33q70 0 109 33t39 88t-40 87.5t-108 32.5z" />
    <glyph glyph-name="nine.dnom" horiz-adv-x="690" 
d="M651 557q0 -98 -51 -166l-248 -391h-178l182 270h-10q-136 0 -221 82q-86 83 -86 205t86 205q90 84 221 84q132 0 219 -84q86 -83 86 -205zM500 557q0 66 -42.5 105.5t-111.5 39.5t-112.5 -39.5t-43.5 -105.5q0 -65 43 -104t113 -39q69 0 111.5 40t42.5 103z" />
    <glyph glyph-name="zero.numr" horiz-adv-x="839" 
d="M684 707q-94 -119 -264 -119q-168 0 -266 119q-97 123 -97 317t97 317q98 119 266 119q170 0 264 -119q98 -119 98 -317t-98 -317zM270 815q54 -72 150 -72q95 0 149 72q54 73 54 209t-54 209q-54 72 -149 72q-96 0 -150 -72q-53 -71 -53 -209t53 -209z" />
    <glyph glyph-name="one.numr" horiz-adv-x="520" 
d="M16 1348l240 86h137v-820h-157v654l-181 -54z" />
    <glyph glyph-name="two.numr" horiz-adv-x="706" 
d="M645 614h-586v117l332 313q80 74 80 158q0 50 -34 79.5t-91 29.5q-113 0 -162 -119l-131 74q83 194 293 194q124 0 204.5 -72.5t80.5 -181.5q0 -139 -131 -258l-207 -186h352v-148z" />
    <glyph glyph-name="three.numr" horiz-adv-x="718" 
d="M610 1298l-172 -204q98 -20 153.5 -83t55.5 -155q0 -123 -82.5 -195.5t-222.5 -72.5q-218 0 -301 176l133 76q47 -105 168 -105q71 0 109 32.5t38 88.5t-41 89.5t-108 33.5h-18l-70 102l172 205h-352v148h538v-136z" />
    <glyph glyph-name="four.numr" horiz-adv-x="727" 
d="M592 905h96v-145h-96v-146h-156v146h-407v145l290 529h170l-286 -529h233v180h156v-180z" />
    <glyph glyph-name="five.numr" horiz-adv-x="694" 
d="M231 1126h107q132 0 211.5 -73t79.5 -199q0 -123 -80 -194.5t-215 -71.5q-217 0 -299 178l133 74q46 -107 164 -107q69 0 107 33t38 90q0 58 -38.5 93.5t-106.5 35.5h-254l31 449h485v-146h-352z" />
    <glyph glyph-name="six.numr" horiz-adv-x="690" 
d="M334 1163h10q136 0 221 -82q86 -83 86 -204q0 -125 -88 -207q-85 -82 -219 -82t-219 82q-86 83 -86 207q0 97 51 165l248 392h178zM231 770q43 -38 113 -38t113 38q43 40 43 107q0 64 -43 104q-43 38 -113 38t-113 -38q-41 -41 -41 -104q0 -66 41 -107z" />
    <glyph glyph-name="seven.numr" horiz-adv-x="606" 
d="M16 1286v148h551v-125l-288 -695h-166l282 672h-379z" />
    <glyph glyph-name="eight.numr" horiz-adv-x="696" 
d="M520 1047q129 -71 129 -213q0 -112 -82 -179t-219 -67t-219 67t-82 179q0 142 129 213q-102 61 -102 176q0 107 77.5 172t196.5 65t197 -65t78 -172q0 -114 -103 -176zM348 1319q-61 0 -94 -27t-33 -75q0 -50 33 -79.5t94 -29.5q59 0 93 29.5t34 79.5q0 47 -33.5 74.5
t-93.5 27.5zM348 975q-69 0 -108 -32t-39 -89q0 -55 39 -88t108 -33q70 0 109 33t39 88t-40 88t-108 33z" />
    <glyph glyph-name="nine.numr" horiz-adv-x="690" 
d="M651 1171q0 -97 -51 -165l-248 -392h-178l182 271h-10q-136 0 -221 82q-86 83 -86 204q0 122 86 205q90 84 221 84q132 0 219 -84q86 -83 86 -205zM233 1276q-43 -38 -43 -104.5t43 -104.5q42 -39 113 -39q72 0 111 39q43 38 43 104.5t-43 104.5q-41 41 -111 41
q-69 0 -113 -41z" />
    <glyph glyph-name="zero.sups" horiz-adv-x="839" 
d="M684 1034q-94 -119 -264 -119q-168 0 -266 119q-97 123 -97 318q0 194 97 317q98 119 266 119q170 0 264 -119q98 -119 98 -317q0 -199 -98 -318zM270 1143q54 -72 150 -72q95 0 149 72q54 73 54 209t-54 209q-53 71 -149 71q-97 0 -150 -71t-53 -209t53 -209z" />
    <glyph glyph-name="one.sups" horiz-adv-x="520" 
d="M16 1675l240 86h137v-819h-157v653l-181 -53z" />
    <glyph glyph-name="two.sups" horiz-adv-x="706" 
d="M645 942h-586v117l332 313q80 74 80 158q0 49 -34 78.5t-91 29.5q-113 0 -162 -118l-131 73q83 195 293 195q124 0 204.5 -72.5t80.5 -181.5q0 -139 -131 -258l-207 -186h352v-148z" />
    <glyph glyph-name="three.sups" horiz-adv-x="718" 
d="M610 1626l-172 -205q99 -20 154 -82.5t55 -154.5q0 -123 -83 -196t-222 -73q-218 0 -301 177l133 75q46 -104 168 -104q71 0 109 32.5t38 88.5t-41 89.5t-108 33.5h-18l-70 102l172 205h-352v147h538v-135z" />
    <glyph glyph-name="four.sups" horiz-adv-x="727" 
d="M592 1233h96v-146h-96v-145h-156v145h-407v146l290 528h170l-286 -528h233v180h156v-180z" />
    <glyph glyph-name="five.sups" horiz-adv-x="694" 
d="M231 1454h107q132 0 211.5 -73t79.5 -199q0 -123 -80 -195t-215 -72q-216 0 -299 179l133 73q46 -106 164 -106q69 0 107 33t38 90q0 58 -38.5 93.5t-106.5 35.5h-254l31 448h485v-145h-352z" />
    <glyph glyph-name="six.sups" horiz-adv-x="690" 
d="M334 1491h10q136 0 221 -82q86 -83 86 -205q0 -125 -88 -207q-85 -82 -219 -82t-219 82q-86 83 -86 207q0 98 51 166l248 391h178zM231 1098q43 -38 113 -38t113 38q43 40 43 106q0 65 -43 105q-43 38 -113 38t-113 -38q-41 -41 -41 -105q0 -65 41 -106z" />
    <glyph glyph-name="seven.sups" horiz-adv-x="606" 
d="M16 1614v147h551v-125l-288 -694h-166l282 672h-379z" />
    <glyph glyph-name="eight.sups" horiz-adv-x="696" 
d="M520 1374q129 -70 129 -213q0 -112 -82 -179t-219 -67t-219 67t-82 179q0 143 129 213q-102 62 -102 176q0 107 77.5 172.5t196.5 65.5t197 -65.5t78 -172.5q0 -114 -103 -176zM348 1647q-61 0 -94 -27.5t-33 -75.5q0 -50 33 -79t94 -29q60 0 93.5 29t33.5 79
q0 48 -33.5 75.5t-93.5 27.5zM348 1303q-69 0 -108 -32t-39 -89q0 -55 39 -88t108 -33q70 0 109 33t39 88t-40 88t-108 33z" />
    <glyph glyph-name="nine.sups" horiz-adv-x="690" 
d="M651 1499q0 -98 -51 -166l-248 -391h-178l182 270h-10q-136 0 -221 82q-86 83 -86 205t86 205q90 84 221 84q132 0 219 -84q86 -83 86 -205zM233 1604q-43 -38 -43 -104.5t43 -104.5q42 -39 113 -39q72 0 111 39q43 38 43 104.5t-43 104.5q-41 41 -111 41q-69 0 -113 -41
z" />
    <glyph glyph-name="cent.tf" horiz-adv-x="1173" 
d="M950 532l152 -88q-67 -122 -190 -194t-271 -72q-60 0 -133 17l-64 -195h-108l74 227q-142 63 -225 194.5t-83 295.5q0 229 154 383q152 155 385 155q59 0 98 -8l60 187h108l-69 -215q176 -65 256 -232l-150 -86q-53 106 -160 152l-223 -691q31 -8 80 -8q102 0 184 48
t125 130zM281 717q0 -104 48.5 -188.5t135.5 -131.5l219 682q-10 2 -43 2q-154 0 -258 -104q-102 -105 -102 -260z" />
    <glyph glyph-name="dollar.tf" horiz-adv-x="1173" 
d="M1102 381q0 -167 -114.5 -276t-305.5 -128v-182h-127v180q-359 21 -483 328l164 94q74 -218 319 -239v495q-100 31 -163.5 61t-125.5 77q-125 94 -125 278q0 168 117 270q116 104 297 119v180h127v-182q285 -34 389 -291l-160 -92q-64 172 -229 199v-471
q99 -31 162.5 -60.5t128.5 -76.5q129 -92 129 -283zM330 1069q0 -80 52 -130.5t173 -94.5v432q-106 -10 -165.5 -65.5t-59.5 -141.5zM682 612v-452q109 13 169 71.5t60 145.5q0 86 -52.5 138t-176.5 97z" />
    <glyph glyph-name="Euro.tf" horiz-adv-x="1173" 
d="M967 377l155 -88q-51 -149 -163 -232.5t-261 -83.5q-209 0 -343.5 150.5t-170.5 415.5h-135v133h123v45q0 49 2 63h-125v131h137q37 259 170.5 404t341.5 145q147 0 256 -77.5t160 -219.5l-158 -90q-30 97 -98 150t-160 53q-127 0 -210.5 -94t-112.5 -271h452v-131h-465
q-2 -14 -2 -63v-45h467v-133h-454q26 -182 111 -280.5t214 -98.5q93 0 165 57t104 160z" />
    <glyph glyph-name="florin.tf" horiz-adv-x="1173" 
d="M1116 1442v-176q-228 79 -280 -131l-84 -330h288v-172h-333l-193 -756q-102 -383 -457 -289v174q226 -76 279 132l188 739h-284v172h329l88 346q99 386 459 291z" />
    <glyph glyph-name="uni20BD.tf" horiz-adv-x="1173" 
d="M668 549h-283v-166h461v-139h-461v-244h-190v244h-175v139h175v166h-175v172h175v713h473q186 0 317 -131q131 -128 131 -314q0 -185 -131 -313q-130 -127 -317 -127zM668 1255h-283v-534h283q104 0 182 78q78 81 78 190q0 113 -76 189q-77 77 -184 77z" />
    <glyph glyph-name="sterling.tf" horiz-adv-x="1173" 
d="M430 582v-398h723v-184h-1092v184h179v398h-142v168h142v274q0 209 127 324q127 112 303 112q145 0 249.5 -73.5t159.5 -208.5l-159 -91q-68 189 -248 189q-107 0 -174.5 -66.5t-67.5 -189.5v-270h459v-168h-459z" />
    <glyph glyph-name="yen.tf" horiz-adv-x="1173" 
d="M950 1434h211l-440 -713h317v-133h-356v-113h356v-135h-356v-340h-190v340h-355v135h355v113h-355v133h318l-443 713h211l365 -598z" />
    <glyph glyph-name="brevecy" horiz-adv-x="655" 
d="M604 1178h-553v155h553v-155z" />
    <glyph glyph-name="ohorn.001" horiz-adv-x="1232" 
d="M967 1151v25h157v-25q0 -139 -56.5 -201.5t-201.5 -62.5h-90v137h86q64 0 84.5 27.5t20.5 99.5zM999 129q-156 -156 -383 -156t-383 156q-155 155 -155 383t155 383q156 156 383 156t383 -156q158 -158 158 -383t-158 -383zM616 147q153 0 258 105t105 260t-105 260
t-258 105q-151 0 -256 -105q-104 -104 -104 -260t104 -260q105 -105 256 -105z" />
    <glyph glyph-name="uni1EB1.001" 
d="M664 1141q-133 0 -209 68.5t-76 189.5h153q0 -125 132 -125q129 0 129 125h153q0 -121 -75 -189.5t-207 -68.5zM983 848v176h178v-1024h-178v176q-132 -203 -387 -203q-217 0 -367 156q-151 157 -151 383q0 224 151 381q152 158 367 158q255 0 387 -203zM618 145
q156 0 261 105q104 107 104 262q0 156 -104 260q-104 107 -261 107q-154 0 -258 -107q-104 -104 -104 -260q0 -155 104 -262q105 -105 258 -105z" />
    <glyph glyph-name="uni1EB3.001" 
d="M664 1141q-133 0 -209 68.5t-76 189.5h153q0 -125 132 -125q129 0 129 125h153q0 -121 -75 -189.5t-207 -68.5zM983 848v176h178v-1024h-178v176q-132 -203 -387 -203q-217 0 -367 156q-151 157 -151 383q0 224 151 381q152 158 367 158q255 0 387 -203zM618 145
q156 0 261 105q104 107 104 262q0 156 -104 260q-104 107 -261 107q-154 0 -258 -107q-104 -104 -104 -260q0 -155 104 -262q105 -105 258 -105z" />
    <glyph glyph-name="uni1EB5.001" 
d="M664 1141q-133 0 -209 68.5t-76 189.5h153q0 -125 132 -125q129 0 129 125h153q0 -121 -75 -189.5t-207 -68.5zM983 848v176h178v-1024h-178v176q-132 -203 -387 -203q-217 0 -367 156q-151 157 -151 383q0 224 151 381q152 158 367 158q255 0 387 -203zM618 145
q156 0 261 105q104 107 104 262q0 156 -104 260q-104 107 -261 107q-154 0 -258 -107q-104 -104 -104 -260q0 -155 104 -262q105 -105 258 -105z" />
    </font>
</defs>
</svg>
