<?xml version="1.0" standalone="no"?>
<!DOCTYPE svg PUBLIC "-//W3C//DTD SVG 1.1//EN" "http://www.w3.org/Graphics/SVG/1.1/DTD/svg11.dtd" >
<svg xmlns="http://www.w3.org/2000/svg" xmlns:xlink="http://www.w3.org/1999/xlink" version="1.1">
<metadata>
Created by FontForge 20201107 at Sat Dec  7 11:28:33 2024
 By 
Copyright (c) 2016 by Radomir Tinkov. All rights reserved.
</metadata>
<defs>
<font id="SVN-GilroyBlack" horiz-adv-x="1351" >
  <font-face 
    font-family="SVN-Gilroy Black"
    font-weight="1000"
    font-stretch="normal"
    units-per-em="2048"
    panose-1="0 0 10 0 0 0 0 0 0 0"
    ascent="1638"
    descent="-410"
    x-height="1024"
    cap-height="1434"
    bbox="-997 -582 2566 2245"
    underline-thickness="102"
    underline-position="-204"
    unicode-range="U+0020-FB02"
  />
<missing-glyph horiz-adv-x="1024" 
d="M190 1638h650v-2048h-650v2048zM682 1434v67h-338v-67h133v-76h-135v-68h340v68h-135v76h135zM547 1094v143h-205v-213h340v70h-135zM410 1167h67v-73h-67v73zM682 901v68h-340v-68h135v-76h-135v-67h205v143h135zM682 641v205h-68v-135h-272v-70h340zM682 365v231h-205
v-115h70v47h67v-96h-204v164h-68v-231h340zM682 10v232h-340v-232h340zM410 174h204v-96h-204v96zM682 -104v67h-340v-67h143l-143 -97v-67h340v67h-209l143 97h66z" />
    <glyph glyph-name="fi" unicode="fi" horiz-adv-x="1177" 
d="M518 1024h578v-1024h-379v664h-199v-664h-379v664h-119v360h119q0 217 136 329.5t401 112.5q156 0 276 -32v-312q-138 21 -245 21q-189 0 -189 -119z" />
    <glyph glyph-name="fl" unicode="fl" horiz-adv-x="1177" 
d="M676 1466q232 0 420 -32v-1434h-379v1151q-10 2 -51 2q-68 0 -108 -33.5t-40 -95.5h117v-360h-117v-664h-379v664h-119v360h119q0 217 136 329.5t401 112.5z" />
    <glyph glyph-name="f_f" unicode="ff" horiz-adv-x="1259" 
d="M1260 1487v-340q-73 6 -115.5 -22.5t-42.5 -80.5v-20h158v-360h-158v-664h-379v664h-205v-664h-379v664h-119v360h119q0 223 138.5 339t398.5 103v-340q-73 6 -115.5 -22t-42.5 -80h205v20q0 223 138.5 339.5t398.5 103.5z" />
    <glyph glyph-name="f_f_i" unicode="ffi" horiz-adv-x="1761" 
d="M1102 1024h577v-1024h-379v664h-198v-664h-379v664h-205v-664h-379v664h-119v360h119q0 223 138.5 339t398.5 103v-340q-73 6 -115.5 -22t-42.5 -80h205v20q0 217 136 330t401 113q153 0 276 -33v-311q-131 20 -246 20q-188 0 -188 -119v-20z" />
    <glyph glyph-name="f_f_l" unicode="ffl" horiz-adv-x="1761" 
d="M1260 1487q225 0 419 -33v-1454h-379v1171q-15 3 -51 3q-67 0 -107 -34t-40 -96v-20h117v-360h-117v-664h-379v664h-205v-664h-379v664h-119v360h119q0 223 138.5 339t398.5 103v-340q-73 6 -115.5 -22t-42.5 -80h205v20q0 217 136 330t401 113z" />
    <glyph glyph-name=".notdef" horiz-adv-x="1024" 
d="M190 1638h650v-2048h-650v2048zM682 1434v67h-338v-67h133v-76h-135v-68h340v68h-135v76h135zM547 1094v143h-205v-213h340v70h-135zM410 1167h67v-73h-67v73zM682 901v68h-340v-68h135v-76h-135v-67h205v143h135zM682 641v205h-68v-135h-272v-70h340zM682 365v231h-205
v-115h70v47h67v-96h-204v164h-68v-231h340zM682 10v232h-340v-232h340zM410 174h204v-96h-204v96zM682 -104v67h-340v-67h143l-143 -97v-67h340v67h-209l143 97h66z" />
    <glyph glyph-name=".null" horiz-adv-x="0" 
 />
    <glyph glyph-name="nonmarkingreturn" horiz-adv-x="682" 
 />
    <glyph glyph-name="space" unicode=" " horiz-adv-x="409" 
 />
    <glyph glyph-name="exclam" unicode="!" horiz-adv-x="634" 
d="M481 532h-327l-72 492v410h471v-410zM483 37q-68 -68 -166 -68q-96 0 -167 68q-68 71 -68 168q0 98 68 166q69 69 167 69q100 0 166 -69q70 -67 70 -166q0 -98 -70 -168z" />
    <glyph glyph-name="quotedbl" unicode="&#x22;" horiz-adv-x="1003" 
d="M410 860h-267l-41 574h349zM860 860h-266l-41 574h348z" />
    <glyph glyph-name="numbersign" unicode="#" horiz-adv-x="1316" 
d="M1276 1044l-43 -266h-195l-20 -123h196l-43 -266h-198l-47 -287h-295l47 287h-148l-47 -287h-295l48 287h-195l43 266h197l20 123h-197l43 266h199l47 287h295l-47 -287h147l48 287h294l-47 -287h193zM575 655h148l20 123h-147z" />
    <glyph glyph-name="dollar" unicode="$" horiz-adv-x="1157" 
d="M1126 428q0 -196 -123.5 -317t-336.5 -140v-176h-144v174q-186 12 -315 101t-176 237l360 195q30 -127 131 -154v195l-8 2q-113 38 -184 73.5t-137 86.5q-127 104 -127 299t127 319q126 126 329 141v174h144v-176q307 -34 434 -309l-350 -188q-27 89 -84 114v-202
q1 0 6 -2.5t6 -2.5q210 -77 278 -122q170 -111 170 -322zM455 1006q0 -46 67 -76v157q-67 -21 -67 -81zM666 492v-146q71 15 71 74q0 45 -71 72z" />
    <glyph glyph-name="percent" unicode="%" horiz-adv-x="1777" 
d="M461 688q-172 0 -285 113q-115 115 -115 276q0 160 115 275q114 114 285 114q166 0 280 -114q115 -115 115 -275q0 -161 -115 -276q-113 -113 -280 -113zM469 143l-147 84l962 1020l150 -86zM559 1077q0 43 -29 73t-71 30t-70.5 -30t-28.5 -73t28.5 -72.5t70.5 -29.5
t71 30t29 72zM1321 -33q-172 0 -285 113q-114 114 -114 276q0 161 114 275t285 114q167 0 281 -114t114 -275q0 -162 -114 -276q-113 -113 -281 -113zM1419 356q0 43 -29 73t-71 30t-70 -30t-28 -73t28 -72.5t70 -29.5t71 30t29 72z" />
    <glyph glyph-name="ampersand" unicode="&#x26;" horiz-adv-x="1398" 
d="M1212 309l166 -188l-309 -178l-113 125q-168 -101 -374 -101q-242 0 -381 127q-140 131 -140 320q0 245 232 387q-74 112 -74 235q0 188 137 307q138 123 346 123q367 0 523 -331l-342 -199q-58 149 -156 149q-88 0 -88 -84q0 -8 1.5 -16t5 -17t7 -15.5t11 -17.5
t12 -17.5t16 -19.5t17.5 -20t21 -24t22 -25l215 -243q43 87 61 190l320 -186q-47 -151 -136 -281zM631 307q39 0 92 17l-201 219q-49 -46 -49 -109q0 -56 41.5 -91.5t116.5 -35.5z" />
    <glyph glyph-name="quotesingle" unicode="'" horiz-adv-x="552" 
d="M410 860h-267l-41 574h349z" />
    <glyph glyph-name="parenleft" unicode="(" horiz-adv-x="686" 
d="M686 -205h-379q-226 450 -226 921.5t226 921.5h379q-226 -450 -226 -921.5t226 -921.5z" />
    <glyph glyph-name="parenright" unicode=")" horiz-adv-x="686" 
d="M379 -205h-379q226 450 226 921.5t-226 921.5h379q226 -450 226 -921.5t-226 -921.5z" />
    <glyph glyph-name="asterisk" unicode="*" horiz-adv-x="839" 
d="M569 1210l189 21v-213l-189 20l119 -145l-180 -111l-88 162l-88 -162l-180 111l118 145l-188 -20v213l188 -21l-118 146l180 110l88 -161l88 161l180 -110z" />
    <glyph glyph-name="plus" unicode="+" horiz-adv-x="1146" 
d="M758 901h327v-369h-327v-327h-369v327h-328v369h328v328h369v-328z" />
    <glyph glyph-name="comma" unicode="," horiz-adv-x="645" 
d="M143 399h430l-184 -686h-307z" />
    <glyph glyph-name="hyphen" unicode="-" horiz-adv-x="1024" 
d="M922 444h-820v357h820v-357z" />
    <glyph glyph-name="period" unicode="." horiz-adv-x="614" 
d="M473 37q-68 -68 -166 -68q-97 0 -168 68q-67 70 -67 168q0 99 67 166q69 69 168 69q100 0 166 -69q70 -67 70 -166q0 -98 -70 -168z" />
    <glyph glyph-name="slash" unicode="/" horiz-adv-x="1064" 
d="M1024 1638l-819 -1843h-164l819 1843h164z" />
    <glyph glyph-name="zero" unicode="0" horiz-adv-x="1290" 
d="M1092 170q-156 -203 -447 -203q-290 0 -446 203q-158 208 -158 547q0 340 158 545q155 204 446 204q292 0 447 -204q157 -204 157 -545q0 -340 -157 -547zM451 717q0 -352 194 -352q195 0 195 352t-195 352q-194 0 -194 -352z" />
    <glyph glyph-name="one" unicode="1" horiz-adv-x="874" 
d="M0 1288l403 146h349v-1434h-410v1006l-248 -60z" />
    <glyph glyph-name="two" unicode="2" horiz-adv-x="1118" 
d="M1077 0h-1036v299l467 506l35 39q43 43 57 61q37 42 37 82q0 37 -25 59.5t-71 22.5q-114 0 -170 -145l-361 196q71 167 210.5 256.5t314.5 89.5q210 0 360 -120q152 -122 152 -330q0 -131 -58 -225q-59 -100 -176 -232l-145 -162h409v-397z" />
    <glyph glyph-name="three" unicode="3" horiz-adv-x="1116" 
d="M997 1118l-227 -270q143 -42 224 -144t81 -253q0 -237 -151 -361q-150 -123 -381 -123q-192 0 -332 87.5t-201 252.5l361 207q43 -149 172 -149q56 0 89.5 28.5t33.5 77.5q0 102 -123 102h-88l-160 238l192 225h-432v398h942v-316z" />
    <glyph glyph-name="four" unicode="4" horiz-adv-x="1177" 
d="M1024 578h143v-369h-143v-209h-401v209h-603v369l396 856h465l-402 -856h144v200h401v-200z" />
    <glyph glyph-name="five" unicode="5" horiz-adv-x="1126" 
d="M518 932h86q213 0 352 -121q140 -122 140 -344q0 -237 -152 -371q-150 -129 -381 -129q-204 0 -348 87t-205 253l361 207q43 -149 192 -149q57 0 90 27t33 77q0 100 -123 100h-471l60 865h862v-398h-488z" />
    <glyph glyph-name="six" unicode="6" horiz-adv-x="1146" 
d="M983 1434l-293 -463q201 -32 318.5 -166.5t117.5 -331.5q0 -225 -151 -367q-151 -139 -402 -139q-252 0 -403 139q-150 141 -150 367q0 157 78 279l426 682h459zM430 473q0 -139 143 -139q144 0 144 139t-144 139q-143 0 -143 -139z" />
    <glyph glyph-name="seven" unicode="7" horiz-adv-x="1003" 
d="M-20 1036v398h1003v-336l-426 -1098h-451l402 1036h-528z" />
    <glyph glyph-name="eight" unicode="8" horiz-adv-x="1155" 
d="M930 750q194 -117 194 -347q0 -203 -142 -317.5t-404 -114.5t-404.5 114.5t-142.5 317.5q0 230 194 347q-145 109 -145 286q0 197 139 312q138 114 359 114q220 0 358 -114q139 -115 139 -312q0 -177 -145 -286zM578 1102q-129 0 -129 -105q0 -104 129 -104q59 0 94 27
t35 77t-35.5 77.5t-93.5 27.5zM475 371q39 -31 103 -31t100 31q37 32 37 89.5t-37 88.5q-33 33 -100 33t-103 -33q-35 -31 -35 -88.5t35 -89.5z" />
    <glyph glyph-name="nine" unicode="9" horiz-adv-x="1146" 
d="M1126 961q0 -158 -77 -279l-426 -682h-459l293 463q-201 32 -319 166.5t-118 331.5q0 224 152 364q150 141 401 141q252 0 402 -141q151 -139 151 -364zM717 961q0 139 -144 139q-143 0 -143 -139q0 -140 143 -140q144 0 144 140z" />
    <glyph glyph-name="colon" unicode=":" horiz-adv-x="614" 
d="M473 651q-67 -67 -166 -67q-98 0 -168 67q-67 70 -67 168q0 99 67 166q70 70 168 70q99 0 166 -70q70 -67 70 -166q0 -98 -70 -168zM473 37q-68 -68 -166 -68q-97 0 -168 68q-67 70 -67 168q0 99 67 166q69 69 168 69q100 0 166 -69q70 -67 70 -166q0 -98 -70 -168z" />
    <glyph glyph-name="semicolon" unicode=";" horiz-adv-x="655" 
d="M514 651q-67 -67 -166 -67q-98 0 -168 67q-67 70 -67 168q0 99 67 166q70 70 168 70q99 0 166 -70q70 -67 70 -166q0 -98 -70 -168zM143 399h430l-184 -686h-307z" />
    <glyph glyph-name="less" unicode="&#x3c;" horiz-adv-x="1044" 
d="M61 891l922 399v-397l-532 -176l532 -176v-398l-922 400v348z" />
    <glyph glyph-name="equal" unicode="=" horiz-adv-x="1024" 
d="M963 768h-902v369h902v-369zM963 297h-902v369h902v-369z" />
    <glyph glyph-name="greater" unicode="&#x3e;" horiz-adv-x="1044" 
d="M61 893v397l922 -399v-348l-922 -400v398l533 176z" />
    <glyph glyph-name="question" unicode="?" horiz-adv-x="1089" 
d="M707 532h-369q0 82 41 158.5t98 124.5q141 112 141 184q0 33 -22.5 53.5t-60.5 20.5q-101 0 -168 -149l-347 196q72 169 212.5 257.5t318.5 88.5q208 0 342 -110q135 -108 135 -293q0 -82 -31.5 -156t-81.5 -127q-24 -24 -70 -65.5t-71 -65.5t-46 -56.5t-21 -60.5z
M688 37q-68 -68 -166 -68q-97 0 -168 68q-67 70 -67 168q0 99 67 166q69 69 168 69q100 0 166 -69q70 -67 70 -166q0 -98 -70 -168z" />
    <glyph glyph-name="at" unicode="@" horiz-adv-x="1564" 
d="M797 1253q219 0 385 -106q163 -101 247 -258t84 -336q0 -469 -344 -469q-110 0 -188 47.5t-109 128.5q-74 -86 -192 -86q-140 0 -225.5 94t-85.5 244t85.5 244t225.5 94q105 0 176 -68v43h311v-483q0 -123 90 -123q71 0 112.5 82t41.5 252q0 255 -178 430
q-176 176 -436 176q-273 0 -459 -186q-184 -187 -184 -461q0 -282 192 -465q194 -182 488 -182q164 0 292 41v-101q-124 -34 -292 -34q-336 0 -560 211q-223 207 -223 530q0 308 213 524q214 217 533 217zM705 442q25 -26 63 -26t61 26q25 26 25 70t-25 70q-23 26 -61 26
t-63 -26t-25 -70t25 -70z" />
    <glyph glyph-name="A" unicode="A" 
d="M1372 0h-440l-49 184h-414l-49 -184h-440l456 1434h479zM676 952l-119 -440h238z" />
    <glyph glyph-name="B" unicode="B" horiz-adv-x="1239" 
d="M1024 739q184 -105 184 -317q0 -199 -128.5 -310.5t-370.5 -111.5h-607v1434h570q241 0 368 -104t127 -300q0 -187 -143 -291zM647 1081h-135v-192l158 2q88 12 88 94q0 45 -32 70.5t-79 25.5zM512 352h172q49 0 82 29.5t33 73.5q0 85 -92 100l-195 2v-205z" />
    <glyph glyph-name="C" unicode="C" horiz-adv-x="1470" 
d="M801 -33q-325 0 -537 215q-213 216 -213 535q0 318 213 534q212 215 537 215q197 0 366 -94t263 -254l-357 -205q-35 69 -108.5 110.5t-163.5 41.5q-152 0 -246 -98t-94 -250t94 -250t246 -98q92 0 164.5 40.5t107.5 112.5l357 -205q-94 -162 -262.5 -256t-366.5 -94z
" />
    <glyph glyph-name="D" unicode="D" horiz-adv-x="1443" 
d="M102 1434h594q295 0 496 -207t201 -510q0 -305 -201 -512q-199 -205 -496 -205h-594v1434zM532 397h164q125 0 206 90t81 230t-81 229.5t-206 89.5h-164v-639z" />
    <glyph glyph-name="E" unicode="E" horiz-adv-x="1105" 
d="M512 537v-160h532v-377h-942v1434h932v-373h-522v-156h471v-368h-471z" />
    <glyph glyph-name="F" unicode="F" horiz-adv-x="1054" 
d="M993 1434v-398h-481v-186h471v-397h-471v-453h-410v1434h891z" />
    <glyph glyph-name="G" unicode="G" horiz-adv-x="1581" 
d="M801 846h729v-170q0 -309 -199 -508q-198 -201 -518 -201q-336 0 -549 213q-213 216 -213 535q0 318 213 534q211 217 533 217q199 0 365.5 -89t264.5 -244l-348 -199q-85 131 -274 131q-156 0 -250 -98t-94 -254q0 -148 88 -258q89 -109 272 -109q214 0 285 152h-305
v348z" />
    <glyph glyph-name="H" unicode="H" horiz-adv-x="1372" 
d="M860 926v508h410v-1434h-410v528h-348v-528h-410v1434h410v-508h348z" />
    <glyph glyph-name="I" unicode="I" horiz-adv-x="614" 
d="M102 0v1434h410v-1434h-410z" />
    <glyph glyph-name="J" unicode="J" horiz-adv-x="1161" 
d="M547 -33q-362 0 -506 295l344 203q49 -100 160 -100q125 0 125 116v953h409v-963q0 -236 -140 -370t-392 -134z" />
    <glyph glyph-name="K" unicode="K" horiz-adv-x="1302" 
d="M877 737l446 -737h-455l-356 614v-614h-410v1434h410v-574l336 574h455z" />
    <glyph glyph-name="L" unicode="L" horiz-adv-x="1003" 
d="M512 1434v-1037h471v-397h-881v1434h410z" />
    <glyph glyph-name="M" unicode="M" horiz-adv-x="1699" 
d="M1188 1434h409v-1434h-409v698l-320 -536h-37l-319 536v-698h-410v1434h410l338 -584z" />
    <glyph glyph-name="N" unicode="N" horiz-adv-x="1392" 
d="M881 778v656h409v-1434h-327l-451 655v-655h-410v1434h328z" />
    <glyph glyph-name="O" unicode="O" horiz-adv-x="1622" 
d="M1350 182q-218 -215 -539 -215q-320 0 -541 215q-219 219 -219 535t219 532q220 217 541 217q322 0 539 -217q221 -215 221 -532t-221 -535zM559 467q101 -98 252 -98q152 0 250 98q100 100 100 250q0 151 -100 248q-97 100 -250 100q-152 0 -252 -100q-98 -98 -98 -248
q0 -149 98 -250z" />
    <glyph glyph-name="P" unicode="P" horiz-adv-x="1218" 
d="M102 1434h574q222 0 373 -142q149 -137 149 -372t-149 -375q-151 -139 -373 -139h-164v-406h-410v1434zM512 803h164q48 0 80 32t32 85t-32 84.5t-80 31.5h-164v-233z" />
    <glyph glyph-name="Q" unicode="Q" horiz-adv-x="1632" 
d="M1571 717q0 -250 -146 -449l115 -125l-280 -245l-127 137q-151 -68 -322 -68q-320 0 -541 215q-219 219 -219 535t219 532q220 217 541 217q322 0 539 -217q221 -215 221 -532zM811 369h14l-176 192l283 244l205 -223q24 62 24 135q0 151 -100 248q-97 100 -250 100
q-152 0 -252 -100q-98 -98 -98 -248q0 -149 98 -250q101 -98 252 -98z" />
    <glyph glyph-name="R" unicode="R" horiz-adv-x="1280" 
d="M1280 2h-438l-228 451h-102v-451h-410v1434h574q234 0 389 -140q154 -139 154 -364q0 -126 -58.5 -228.5t-163.5 -166.5zM668 1059h-156v-266h156q66 -2 103.5 33t37.5 98t-37.5 99t-103.5 36z" />
    <glyph glyph-name="S" unicode="S" horiz-adv-x="1198" 
d="M618 -33q-230 0 -386.5 96.5t-211.5 264.5l351 202q71 -182 258 -182q139 0 139 74q0 45 -49 65q-28 12 -51 19q-6 3 -74 22l-80 23q-428 129 -428 461q0 196 141 325q144 129 375 129q186 0 329 -87t210 -246l-340 -199q-59 151 -197 151q-52 0 -80 -20.5t-28 -54.5
q0 -46 47 -70q44 -21 186 -63q108 -32 172 -60.5t133 -77.5q144 -99 144 -313q0 -218 -150 -338.5t-410 -120.5z" />
    <glyph glyph-name="T" unicode="T" horiz-adv-x="1126" 
d="M20 1434h1086v-398h-338v-1036h-410v1036h-338v398z" />
    <glyph glyph-name="U" unicode="U" horiz-adv-x="1331" 
d="M82 479v955h410v-910q0 -159 174 -159t174 159v910h409v-955q0 -230 -162 -370q-165 -142 -421 -142q-257 0 -422 142q-162 140 -162 370z" />
    <glyph glyph-name="V" unicode="V" horiz-adv-x="1372" 
d="M915 0h-458l-457 1434h451l235 -912l236 912h450z" />
    <glyph glyph-name="W" unicode="W" horiz-adv-x="2068" 
d="M809 0h-403l-406 1434h451l194 -789l232 789h315l231 -789l195 789h450l-405 -1434h-403l-226 766z" />
    <glyph glyph-name="X" unicode="X" horiz-adv-x="1320" 
d="M889 725l432 -725h-455l-204 344l-207 -344h-455l434 725l-424 709h455l197 -328l194 328h455z" />
    <glyph glyph-name="Y" unicode="Y" horiz-adv-x="1380" 
d="M926 1434h454l-485 -889v-545h-410v545l-485 889h455l235 -504z" />
    <glyph glyph-name="Z" unicode="Z" horiz-adv-x="1116" 
d="M1055 1118l-457 -721h477v-397h-1014v315l457 721h-446v398h983v-316z" />
    <glyph glyph-name="bracketleft" unicode="[" horiz-adv-x="696" 
d="M655 1638v-360h-194v-1122h194v-361h-573v1843h573z" />
    <glyph glyph-name="backslash" unicode="\" horiz-adv-x="1064" 
d="M1024 -205h-164l-819 1843h164z" />
    <glyph glyph-name="bracketright" unicode="]" horiz-adv-x="696" 
d="M41 1638h573v-1843h-573v361h195v1122h-195v360z" />
    <glyph glyph-name="asciicircum" unicode="^" horiz-adv-x="1187" 
d="M463 1434h262l422 -758h-410l-143 301l-143 -301h-410z" />
    <glyph glyph-name="underscore" unicode="_" horiz-adv-x="1044" 
d="M1004 -391h-963v356h963v-356z" />
    <glyph glyph-name="grave" unicode="`" horiz-adv-x="675" 
d="M635 1126h-356l-238 308h430z" />
    <glyph glyph-name="a" unicode="a" horiz-adv-x="1241" 
d="M780 932v92h379v-1024h-379v92q-100 -121 -274 -121q-205 0 -338 154q-131 152 -131 387t131 387q133 154 338 154q174 0 274 -121zM465 375q53 -56 133 -56q81 0 131 56q51 55 51 136.5t-51 137.5q-50 56 -131 56q-80 0 -133 -56q-49 -55 -49 -137t49 -137z" />
    <glyph glyph-name="b" unicode="b" horiz-adv-x="1241" 
d="M735 1053q205 0 338 -154q131 -152 131 -387t-131 -387q-133 -154 -338 -154q-174 0 -274 121v-92h-379v1434h379v-502q100 121 274 121zM510 375q53 -56 133 -56q81 0 131 56q51 55 51 136.5t-51 137.5q-50 56 -131 56q-80 0 -133 -56q-50 -55 -50 -137t50 -137z" />
    <glyph glyph-name="c" unicode="c" horiz-adv-x="1075" 
d="M584 -29q-234 0 -391 154q-156 156 -156 387q0 232 156 385q156 156 391 156q151 0 277 -72.5t194 -196.5l-320 -182q-53 86 -151 86q-72 0 -120 -50.5t-48 -125.5t48 -125.5t120 -50.5q105 0 151 88l320 -184q-68 -125 -193.5 -197t-277.5 -72z" />
    <glyph glyph-name="d" unicode="d" horiz-adv-x="1241" 
d="M780 932v502h379v-1434h-379v92q-100 -121 -274 -121q-205 0 -338 154q-131 152 -131 387t131 387q133 154 338 154q174 0 274 -121zM465 375q53 -56 133 -56q81 0 131 56q51 55 51 136.5t-51 137.5q-50 56 -131 56q-80 0 -133 -56q-49 -55 -49 -137t49 -137z" />
    <glyph glyph-name="e" unicode="e" horiz-adv-x="1146" 
d="M1100 383h-680q50 -102 209 -102q94 0 174 65l248 -209q-153 -166 -435 -166q-260 0 -421 152q-158 155 -158 385q0 233 153 389q156 156 392 156q232 0 383 -154q151 -151 151 -383q0 -64 -16 -133zM414 627h344q-34 123 -166 123t-178 -123z" />
    <glyph glyph-name="f" unicode="f" horiz-adv-x="675" 
d="M676 1466v-340q-73 6 -115.5 -22t-42.5 -80h158v-360h-158v-664h-379v664h-119v360h119q0 223 138.5 339t398.5 103z" />
    <glyph glyph-name="g" unicode="g" horiz-adv-x="1255" 
d="M795 932v92h379v-993q0 -99 -30.5 -180t-82 -134.5t-121.5 -90t-145.5 -52.5t-157.5 -16q-181 0 -320 65.5t-206 183.5l307 179q73 -101 198 -101q77 0 128 38t51 108v102q-100 -121 -275 -121q-206 0 -338 150q-131 149 -131 370q0 222 131 371q132 150 338 150
q175 0 275 -121zM479 401q53 -53 133 -53q81 0 131 53q51 54 51 131.5t-51 131.5q-50 53 -131 53q-80 0 -133 -53q-49 -54 -49 -131.5t49 -131.5z" />
    <glyph glyph-name="h" unicode="h" horiz-adv-x="1177" 
d="M735 1053q171 0 271 -118.5t100 -342.5v-592h-379v551q0 137 -127 137q-67 0 -103 -43t-36 -119v-526h-379v1434h379v-510q95 129 274 129z" />
    <glyph glyph-name="i" unicode="i" horiz-adv-x="542" 
d="M266 1102q-80 0 -145 59q-60 63 -60 144q0 78 60 141q64 61 145 61t142 -61t61 -141q0 -83 -61 -144q-62 -59 -142 -59zM461 0h-379v1024h379v-1024z" />
    <glyph glyph-name="j" unicode="j" horiz-adv-x="573" 
d="M113 0v1024h379v-1024q0 -241 -124 -348.5t-388 -93.5v340q133 -12 133 102zM303 1102q-80 0 -145 59q-60 63 -60 144q0 78 60 141q64 61 145 61q80 0 141 -61q62 -62 62 -141q0 -82 -62 -144q-62 -59 -141 -59z" />
    <glyph glyph-name="k" unicode="k" horiz-adv-x="1126" 
d="M795 512l331 -512h-419l-246 410v-410h-379v1434h379v-807l215 397h430z" />
    <glyph glyph-name="l" unicode="l" horiz-adv-x="542" 
d="M461 0h-379v1495h379v-1495z" />
    <glyph glyph-name="m" unicode="m" horiz-adv-x="1740" 
d="M1290 1053q179 0 279 -112t100 -318v-623h-379v571q0 117 -104 117q-121 0 -121 -151v-537h-379v571q0 117 -104 117q-121 0 -121 -151v-537h-379v1024h379v-96q101 125 278 125q176 0 256 -127q112 127 295 127z" />
    <glyph glyph-name="n" unicode="n" horiz-adv-x="1177" 
d="M735 1053q171 0 271 -118.5t100 -342.5v-592h-379v551q0 137 -127 137q-67 0 -103 -43t-36 -119v-526h-379v1024h379v-100q95 129 274 129z" />
    <glyph glyph-name="o" unicode="o" horiz-adv-x="1175" 
d="M588 -29q-228 0 -391 156q-160 157 -160 385t160 385q159 156 391 156t391 -156q160 -157 160 -385t-160 -385q-159 -156 -391 -156zM463 381q49 -49 125 -49q77 0 123 49q49 52 49 131q0 80 -49 129q-45 51 -123 51q-77 0 -125 -51q-47 -50 -47 -129q0 -78 47 -131z" />
    <glyph glyph-name="p" unicode="p" horiz-adv-x="1241" 
d="M735 1053q205 0 338 -154q131 -152 131 -387t-131 -387q-133 -154 -338 -154q-174 0 -274 121v-502h-379v1434h379v-92q100 121 274 121zM510 375q53 -56 133 -56q81 0 131 56q51 55 51 136.5t-51 137.5q-50 56 -131 56q-80 0 -133 -56q-50 -55 -50 -137t50 -137z" />
    <glyph glyph-name="q" unicode="q" horiz-adv-x="1241" 
d="M780 932v92h379v-1434h-379v502q-100 -121 -274 -121q-205 0 -338 154q-131 152 -131 387t131 387q133 154 338 154q174 0 274 -121zM465 375q53 -56 133 -56q81 0 131 56q51 55 51 136.5t-51 137.5q-50 56 -131 56q-80 0 -133 -56q-49 -55 -49 -137t49 -137z" />
    <glyph glyph-name="r" unicode="r" horiz-adv-x="798" 
d="M461 1024v-199q29 103 112 161t195 58v-409q-124 15 -215 -49q-92 -65 -92 -205v-381h-379v1024h379z" />
    <glyph glyph-name="s" unicode="s" horiz-adv-x="991" 
d="M449 723q0 -19 22 -31.5t58 -19t82 -16.5t94 -21t94 -35.5t82 -57.5t58 -88.5t22 -127.5q0 -96 -43 -170.5t-117 -112.5q-141 -72 -301 -72q-372 0 -480 244l330 147q40 -104 146 -104q69 0 69 45q0 23 -40.5 38.5t-128.5 36.5q-3 1 -5 1q-47 11 -86.5 24.5t-85 39
t-76.5 58.5t-51.5 84.5t-19.5 114.5q0 169 127 261q130 92 297 92q336 0 444 -260l-313 -113q-38 86 -115 86q-63 0 -63 -43z" />
    <glyph glyph-name="t" unicode="t" horiz-adv-x="819" 
d="M758 1024v-360h-215v-222q0 -51 25 -75.5t72.5 -27.5t117.5 1v-340q-319 -44 -456.5 55.5t-137.5 366.5v242h-144v360h144v174l379 113v-287h215z" />
    <glyph glyph-name="u" unicode="u" horiz-adv-x="1177" 
d="M717 498v526h379v-1024h-379v100q-95 -129 -275 -129q-171 0 -270.5 118.5t-99.5 342.5v592h379v-551q0 -137 127 -137q67 0 103 43t36 119z" />
    <glyph glyph-name="v" unicode="v" horiz-adv-x="1167" 
d="M584 512l164 512h419l-389 -1024h-389l-389 1024h420z" />
    <glyph glyph-name="w" unicode="w" horiz-adv-x="1699" 
d="M1141 457l119 567h399l-297 -1024h-385l-127 481l-127 -481h-385l-297 1024h399l119 -567l148 567h286z" />
    <glyph glyph-name="x" unicode="x" horiz-adv-x="1167" 
d="M795 524l372 -524h-419l-164 229l-164 -229h-420l375 524l-359 500h420l148 -207l147 207h420z" />
    <glyph glyph-name="y" unicode="y" horiz-adv-x="1167" 
d="M612 477l125 547h430l-348 -1022q-75 -223 -234.5 -323t-422.5 -89v359q106 0 161 15t87 56l-410 1004h430z" />
    <glyph glyph-name="z" unicode="z" horiz-adv-x="1013" 
d="M922 758l-336 -410h356v-348h-860v266l336 410h-316v348h820v-266z" />
    <glyph glyph-name="braceleft" unicode="{" horiz-adv-x="747" 
d="M707 121v-340q-243 -13 -367.5 90.5t-124.5 310.5v256q0 115 -154 103v358q154 -12 154 102v256q0 207 124.5 311t367.5 91v-340q-113 12 -113 -62v-256q0 -212 -170 -280q170 -71 170 -283v-256q0 -73 113 -61z" />
    <glyph glyph-name="bar" unicode="|" horiz-adv-x="583" 
d="M481 -410h-379v1885h379v-1885z" />
    <glyph glyph-name="braceright" unicode="}" horiz-adv-x="747" 
d="M41 -219v340q113 -12 113 61v256q0 212 170 283q-170 68 -170 280v256q0 74 -113 62v340q243 13 367 -91t124 -311v-256q0 -114 154 -102v-358q-154 12 -154 -103v-256q0 -207 -124 -310.5t-367 -90.5z" />
    <glyph glyph-name="asciitilde" unicode="~" horiz-adv-x="1253" 
d="M897 965l295 -134q-53 -244 -211 -335q-159 -90 -354 4q-143 66 -193 57q-51 -9 -78 -96l-295 133q53 246 209 334q161 92 357 -2q142 -66 190 -58q53 9 80 97z" />
    <glyph glyph-name="exclamdown" unicode="&#xa1;" horiz-adv-x="634" 
d="M150 985q70 70 167 70q99 0 166 -70q70 -67 70 -166q0 -98 -70 -168q-67 -67 -166 -67q-97 0 -167 67q-68 71 -68 168q0 98 68 166zM82 0l72 492h327l72 -492v-410h-471v410z" />
    <glyph glyph-name="cent" unicode="&#xa2;" horiz-adv-x="1075" 
d="M692 856l-102 -315q97 3 145 88l320 -185q-68 -125 -193.5 -196.5t-277.5 -71.5q-44 0 -109 10l-59 -186h-133l71 223q-146 62 -231.5 194.5t-85.5 299.5q0 232 156 385q155 155 391 155q45 0 102 -8l59 185h134l-72 -222q160 -69 248 -223l-320 -182q-15 27 -43 49z
M416 717q0 -84 55 -133l100 309q-68 -5 -111.5 -54t-43.5 -122z" />
    <glyph glyph-name="sterling" unicode="&#xa3;" horiz-adv-x="1167" 
d="M567 563v-166h600v-397h-1126v397h117v166h-97v287h97v137q0 229 143 354t338 125q365 0 510 -336l-354 -190q-43 141 -136 141q-44 0 -68 -32.5t-24 -87.5v-111h375v-287h-375z" />
    <glyph glyph-name="currency" unicode="&#xa4;" horiz-adv-x="1077" 
d="M893 455l143 -142l-94 -94l-145 146q-116 -78 -258 -78t-258 78l-146 -146l-94 94l141 142q-88 113 -88 262t88 262l-141 141l94 94l146 -145q116 78 258 78t258 -78l145 145l94 -94l-143 -141q90 -116 90 -262t-90 -262zM473 653q25 -23 65.5 -23t63.5 23q25 25 25 63.5
t-25 61.5q-23 25 -63.5 25t-65.5 -25q-23 -23 -23 -61.5t23 -63.5z" />
    <glyph glyph-name="yen" unicode="&#xa5;" horiz-adv-x="1339" 
d="M926 1434h454l-360 -662h162v-205h-275l-12 -22v-64h287v-205h-287v-276h-410v276h-327v205h327v64l-12 22h-315v205h202l-360 662h455l235 -504z" />
    <glyph glyph-name="brokenbar" unicode="&#xa6;" horiz-adv-x="583" 
d="M481 717h-379v758h379v-758zM481 -410h-379v758h379v-758z" />
    <glyph glyph-name="section" unicode="&#xa7;" horiz-adv-x="1099" 
d="M1059 594q0 -153 -107 -244q66 -87 66 -217q0 -173 -135 -268q-134 -94 -332 -94q-359 0 -473 260l313 159q52 -116 160 -116q90 0 90 59q0 39 -55 62q-21 12 -58 24q-20 8 -78.5 29t-72.5 26q-316 126 -316 381q0 159 113 250q-51 83 -51 199q0 171 127 266
q131 96 299 96q320 0 452 -270l-303 -143q-41 127 -129 127q-31 0 -50 -15.5t-19 -40.5q0 -41 61 -75q42 -21 62 -29l165 -64q135 -59 203 -143t68 -219zM430 666q0 -47 72 -82l63 -27q20 -9 94 -33q31 22 31 60q0 20 -7 31t-26 22q-27 17 -79 37q-33 14 -125 47
q-23 -23 -23 -55z" />
    <glyph glyph-name="dieresis" unicode="&#xa8;" horiz-adv-x="819" 
d="M338 1137q-51 -51 -123 -51t-123 51t-51 122.5t51 122.5t123 51t123 -51t51 -122.5t-51 -122.5zM748 1137q-51 -51 -123 -51t-123 51t-51 122.5t51 122.5t123 51t123 -51t51 -122.5t-51 -122.5z" />
    <glyph glyph-name="copyright" unicode="&#xa9;" horiz-adv-x="1585" 
d="M1317 193q-218 -218 -524 -218q-307 0 -525 218q-217 217 -217 524t217 524t525 217q307 0 524 -217t217 -524t-217 -524zM340 258q188 -188 453 -188q262 0 450 188q189 192 189 459q0 268 -189 457q-187 190 -450 190q-266 0 -453 -190q-186 -186 -186 -457
q0 -270 186 -459zM799 313q-170 0 -289 119t-119 285q0 163 119 282q121 121 289 121q107 0 197 -52t145 -148l-260 -150q-30 49 -90 49q-38 1 -64 -20t-32 -52t0 -61.5t32 -51.5t64 -20q60 0 90 50l262 -150q-55 -96 -146 -148.5t-198 -52.5z" />
    <glyph glyph-name="guillemotleft" unicode="&#xab;" horiz-adv-x="1181" 
d="M338 1042h311l-235 -409l235 -410h-311l-236 410zM768 1042h311l-235 -409l235 -410h-311l-236 410z" />
    <glyph glyph-name="logicalnot" unicode="&#xac;" horiz-adv-x="1187" 
d="M61 532v369h1065v-614h-389v245h-676z" />
    <glyph glyph-name="registered" unicode="&#xae;" horiz-adv-x="1585" 
d="M268 1241q217 217 525 217q307 0 524 -217t217 -524t-217 -524q-218 -218 -524 -218q-307 0 -525 218q-217 217 -217 524t217 524zM340 258q188 -188 453 -188q262 0 450 188q189 192 189 459q0 268 -189 457q-187 190 -450 190q-266 0 -453 -190q-186 -186 -186 -457
q0 -270 186 -459zM1159 831q0 -149 -104 -237l145 -256h-309l-98 188h-27v-188h-291v758h397q119 0 201 -76q86 -74 86 -189zM811 850h-45v-98h45q57 0 57 49t-57 49z" />
    <glyph glyph-name="overscore" unicode="&#xaf;" horiz-adv-x="737" 
d="M696 1124h-655v287h655v-287z" />
    <glyph glyph-name="degree" unicode="&#xb0;" horiz-adv-x="872" 
d="M436 922q-162 0 -268 106q-107 107 -107 262t107 262t268 107q162 0 269 -107q106 -106 106 -262t-106 -262q-103 -106 -269 -106zM436 1208q37 0 58.5 22.5t21.5 59.5q0 34 -24 58.5t-54.5 24.5t-58.5 -25q-22 -27 -23 -58t22 -56.5t58 -25.5z" />
    <glyph glyph-name="plusminus" unicode="&#xb1;" horiz-adv-x="1146" 
d="M758 1372v-266h327v-369h-327v-266h-369v266h-328v369h328v266h369zM1085 0h-1024v369h1024v-369z" />
    <glyph glyph-name="acute" unicode="&#xb4;" horiz-adv-x="675" 
d="M41 1126l164 308h430l-238 -308h-356z" />
    <glyph glyph-name="uni00B5" unicode="&#xb5;" horiz-adv-x="1218" 
d="M1167 328h31v-328h-164q-164 0 -246 102q-86 -135 -294 -135q-27 0 -33 2v-379h-379v1434h379v-555q0 -137 127 -137q67 0 103 43t36 119v530h379v-635q0 -61 61 -61z" />
    <glyph glyph-name="paragraph" unicode="&#xb6;" horiz-adv-x="1556" 
d="M512 1434h1004v-398h-148v-1446h-369v1446h-118v-1446h-369v902q-197 0 -334 137t-137 334q0 196 137 333q138 138 334 138z" />
    <glyph glyph-name="middot" unicode="&#xb7;" horiz-adv-x="614" 
d="M473 559q-67 -67 -166 -67q-98 0 -168 67q-67 70 -67 168q0 99 67 166q70 70 168 70q99 0 166 -70q70 -67 70 -166q0 -98 -70 -168z" />
    <glyph glyph-name="cedilla" unicode="&#xb8;" horiz-adv-x="583" 
d="M434 0v-94q109 -47 109 -158q0 -116 -126 -170t-376 -41v234q195 -15 195 28q0 32 -109 41v160h307z" />
    <glyph glyph-name="guillemotright" unicode="&#xbb;" horiz-adv-x="1181" 
d="M102 1042h312l235 -409l-235 -410h-312l236 410zM532 1042h312l235 -409l-235 -410h-312l236 410z" />
    <glyph glyph-name="onequarter" unicode="&#xbc;" horiz-adv-x="1689" 
d="M518 614h-291v514l-159 -38l-68 245l270 99h248v-820zM203 0l839 1434h267l-840 -1434h-266zM1602 350h67v-246h-67v-104h-263v104h-389v246l226 469h301l-213 -469h75v135h263v-135z" />
    <glyph glyph-name="onehalf" unicode="&#xbd;" horiz-adv-x="1658" 
d="M518 614h-291v514l-159 -38l-68 245l270 99h248v-820zM203 0l839 1434h267l-840 -1434h-266zM1468 322l-73 -66h219v-256h-627v209l287 268q55 52 55 84q0 37 -41 37q-45 0 -80 -86l-237 135q103 201 332 201q126 0 217 -76q92 -74 92 -194q0 -130 -144 -256z" />
    <glyph glyph-name="threequarters" unicode="&#xbe;" horiz-adv-x="1779" 
d="M672 879q0 -137 -92 -215t-244 -78q-244 0 -336 200l233 134q30 -82 103 -82q57 0 57 41q0 39 -47 39h-65l-103 153l98 111h-233v252h598v-183l-131 -147q162 -61 162 -225zM293 0l840 1434h266l-840 -1434h-266zM1692 350h67v-246h-67v-104h-262v104h-390v246l226 469
h301l-213 -469h76v135h262v-135z" />
    <glyph glyph-name="questiondown" unicode="&#xbf;" horiz-adv-x="1089" 
d="M399 985q70 70 168 70q99 0 166 -70q70 -67 70 -166q0 -98 -70 -168q-67 -67 -166 -67q-98 0 -168 67q-67 70 -67 168q0 99 67 166zM383 492h369q0 -83 -41.5 -159.5t-100.5 -123.5q-139 -117 -139 -184q0 -33 23 -53.5t61 -20.5q101 0 168 149l346 -196
q-72 -169 -212 -257.5t-318 -88.5q-208 0 -342 110q-136 109 -136 293q0 83 31.5 157t81.5 124q24 25 89 83t92.5 94.5t27.5 72.5z" />
    <glyph glyph-name="Agrave" unicode="&#xc0;" 
d="M717 1843l164 -307h-357l-237 307h430zM1372 0h-440l-49 184h-414l-49 -184h-440l456 1434h479zM676 952l-119 -440h238z" />
    <glyph glyph-name="Aacute" unicode="&#xc1;" 
d="M651 1843h430l-237 -307h-357zM1372 0h-440l-49 184h-414l-49 -184h-440l456 1434h479zM676 952l-119 -440h238z" />
    <glyph glyph-name="Acircumflex" unicode="&#xc2;" 
d="M758 1516l-92 118l-93 -118h-317l217 327h385l217 -327h-317zM1372 0h-440l-49 184h-414l-49 -184h-440l456 1434h479zM676 952l-119 -440h238z" />
    <glyph glyph-name="Atilde" unicode="&#xc3;" 
d="M668 1550q-11 5 -29 14t-28 13.5t-22 6.5t-18.5 -3t-11 -19.5t-4.5 -39.5h-246q0 99 23.5 170.5t61 108t87.5 51.5t100.5 9.5t102.5 -26.5q11 -5 30 -13.5t28.5 -13t22 -6.5t19 3.5t11 19.5t4.5 39h245q0 -122 -34 -204t-92 -112q-112 -52 -250 2zM1372 0h-440l-49 184
h-414l-49 -184h-440l456 1434h479zM676 952l-119 -440h238z" />
    <glyph glyph-name="Adieresis" unicode="&#xc4;" 
d="M594 1546q-51 -51 -123 -51t-123 51t-51 123t51 123t123 51t123 -51t51 -123t-51 -123zM1004 1546q-51 -51 -123 -51t-123 51t-51 123t51 123t123 51t123 -51t51 -123t-51 -123zM1372 0h-440l-49 184h-414l-49 -184h-440l456 1434h479zM676 952l-119 -440h238z" />
    <glyph glyph-name="Aring" unicode="&#xc5;" 
d="M1372 0h-440l-49 184h-414l-49 -184h-440l448 1405q-57 72 -57 172q0 122 86 205q85 82 219 82q136 0 220.5 -81t84.5 -206q0 -98 -55 -174zM676 1638q-40 0 -56 -30.5t0 -61t56 -30.5q65 0 65 61t-65 61zM676 952l-119 -440h238z" />
    <glyph glyph-name="AE" unicode="&#xc6;" horiz-adv-x="1822" 
d="M1300 537v-160h461v-377h-860v184h-373l-98 -184h-450l796 1434h975v-373h-451v-156h400v-368h-400zM901 874l-194 -362h194v362z" />
    <glyph glyph-name="Ccedilla" unicode="&#xc7;" horiz-adv-x="1470" 
d="M801 369q92 0 164.5 40.5t107.5 112.5l357 -205q-155 -265 -472 -333v-78q109 -47 109 -158q0 -116 -126 -170t-376 -41v234q195 -15 195 28q0 32 -109 41v142q-265 46 -434 251q-166 205 -166 484q0 318 213 534q212 215 537 215q197 0 366 -94t263 -254l-357 -205
q-35 69 -108.5 110.5t-163.5 41.5q-152 0 -246 -98t-94 -250t94 -250t246 -98z" />
    <glyph glyph-name="Egrave" unicode="&#xc8;" horiz-adv-x="1105" 
d="M610 1843l164 -307h-356l-238 307h430zM512 537v-160h532v-377h-942v1434h932v-373h-522v-156h471v-368h-471z" />
    <glyph glyph-name="Eacute" unicode="&#xc9;" horiz-adv-x="1105" 
d="M541 1843h430l-238 -307h-356zM512 537v-160h532v-377h-942v1434h932v-373h-522v-156h471v-368h-471z" />
    <glyph glyph-name="Ecircumflex" unicode="&#xca;" horiz-adv-x="1105" 
d="M651 1516l-92 118l-92 -118h-317l217 327h385l217 -327h-318zM512 537v-160h532v-377h-942v1434h932v-373h-522v-156h471v-368h-471z" />
    <glyph glyph-name="Edieresis" unicode="&#xcb;" horiz-adv-x="1105" 
d="M487 1546q-51 -51 -122.5 -51t-122.5 51t-51 123t51 123t122.5 51t122.5 -51t51 -123t-51 -123zM897 1546q-51 -51 -123 -51t-123 51t-51 123t51 123t123 51t123 -51t51 -123t-51 -123zM512 537v-160h532v-377h-942v1434h932v-373h-522v-156h471v-368h-471z" />
    <glyph glyph-name="Igrave" unicode="&#xcc;" horiz-adv-x="614" 
d="M512 1536h-356l-238 307h430zM102 1434v-1434h410v1434h-410z" />
    <glyph glyph-name="Iacute" unicode="&#xcd;" horiz-adv-x="614" 
d="M82 1536l164 307h430l-238 -307h-356zM102 1434v-1434h410v1434h-410z" />
    <glyph glyph-name="Icircumflex" unicode="&#xce;" horiz-adv-x="614" 
d="M389 1516l-92 118l-92 -118h-318l217 327h385l218 -327h-318zM512 0h-410v1434h410v-1434z" />
    <glyph glyph-name="Idieresis" unicode="&#xcf;" horiz-adv-x="614" 
d="M225 1546q-51 -51 -122.5 -51t-122.5 51t-51 123t51 123t122.5 51t122.5 -51t51 -123t-51 -123zM635 1546q-51 -51 -123 -51t-123 51t-51 123t51 123t123 51t123 -51t51 -123t-51 -123zM102 0v1434h410v-1434h-410z" />
    <glyph glyph-name="Eth" unicode="&#xd0;" horiz-adv-x="1484" 
d="M143 1434h594q295 0 496 -207t201 -510q0 -305 -201 -512q-199 -205 -496 -205h-594v528h-143v357h143v549zM573 397h164q125 0 206 90t81 230t-81 229.5t-206 89.5h-164v-151h246v-357h-246v-131z" />
    <glyph glyph-name="Ntilde" unicode="&#xd1;" horiz-adv-x="1392" 
d="M545 1522h-246q0 99 23.5 170.5t61 108t87.5 51.5t100.5 9.5t102.5 -26.5q12 -5 30 -13.5t28 -13t22.5 -6.5t18.5 3.5t10.5 19.5t4.5 39h246q0 -122 -34 -204t-93 -112q-112 -52 -250 2q-11 5 -29 14t-27.5 13.5t-22 6.5t-18.5 -3t-10.5 -19.5t-4.5 -39.5zM881 778v656
h409v-1434h-327l-451 655v-655h-410v1434h328z" />
    <glyph glyph-name="Ograve" unicode="&#xd2;" horiz-adv-x="1622" 
d="M1071 1556h-356l-238 308h430zM1350 182q221 218 221 535t-221 532q-217 217 -539 217q-321 0 -541 -217q-219 -216 -219 -532t219 -535q221 -215 541 -215q321 0 539 215zM559 467q-98 101 -98 250q0 150 98 248q100 100 252 100q153 0 250 -100q100 -97 100 -248
q0 -150 -100 -250q-98 -98 -250 -98q-151 0 -252 98z" />
    <glyph glyph-name="Oacute" unicode="&#xd3;" horiz-adv-x="1622" 
d="M662 1556l163 308h430l-237 -308h-356zM1350 182q221 218 221 535t-221 532q-217 217 -539 217q-321 0 -541 -217q-219 -216 -219 -532t219 -535q221 -215 541 -215q321 0 539 215zM559 467q-98 101 -98 250q0 150 98 248q100 100 252 100q153 0 250 -100
q100 -97 100 -248q0 -150 -100 -250q-98 -98 -250 -98q-151 0 -252 98z" />
    <glyph glyph-name="Ocircumflex" unicode="&#xd4;" horiz-adv-x="1622" 
d="M905 1536l-92 119l-92 -119h-318l218 328h385l217 -328h-318zM270 1249q220 217 541 217q322 0 539 -217q221 -215 221 -532t-221 -535q-218 -215 -539 -215q-320 0 -541 215q-219 219 -219 535t219 532zM559 467q101 -98 252 -98q152 0 250 98q100 100 100 250
q0 151 -100 248q-97 100 -250 100q-152 0 -252 -100q-98 -98 -98 -248q0 -149 98 -250z" />
    <glyph glyph-name="Otilde" unicode="&#xd5;" horiz-adv-x="1622" 
d="M711 1542h-246q0 99 23.5 170.5t61 108t87.5 51.5t100.5 9.5t102.5 -26.5q12 -5 30 -13.5t28 -13t22.5 -6.5t18.5 3.5t10.5 19.5t4.5 39h246q0 -122 -34 -203.5t-93 -111.5q-112 -52 -250 2q-11 5 -29 13.5t-27.5 13t-22 7t-18.5 -3t-10.5 -20t-4.5 -39.5zM1350 182
q-218 -215 -539 -215q-320 0 -541 215q-219 219 -219 535t219 532q220 217 541 217q322 0 539 -217q221 -215 221 -532t-221 -535zM559 467q101 -98 252 -98q152 0 250 98q100 100 100 250q0 151 -100 248q-97 100 -250 100q-152 0 -252 -100q-98 -98 -98 -248
q0 -149 98 -250z" />
    <glyph glyph-name="Odieresis" unicode="&#xd6;" horiz-adv-x="1622" 
d="M729 1567q-51 -51 -123 -51t-123 51t-51 122.5t51 122.5t123 51t123 -51t51 -122.5t-51 -122.5zM1139 1567q-51 -51 -123 -51t-123 51t-51 122.5t51 122.5t123 51t123 -51t51 -122.5t-51 -122.5zM1350 182q-218 -215 -539 -215q-320 0 -541 215q-219 219 -219 535
t219 532q220 217 541 217q322 0 539 -217q221 -215 221 -532t-221 -535zM559 467q101 -98 252 -98q152 0 250 98q100 100 100 250q0 151 -100 248q-97 100 -250 100q-152 0 -252 -100q-98 -98 -98 -248q0 -149 98 -250z" />
    <glyph glyph-name="multiply" unicode="&#xd7;" horiz-adv-x="1132" 
d="M811 1223l260 -262l-244 -244l244 -244l-260 -262l-244 246l-245 -246l-261 262l244 244l-244 244l261 262l245 -244z" />
    <glyph glyph-name="Oslash" unicode="&#xd8;" horiz-adv-x="1632" 
d="M1475 1376l-109 -131q215 -218 215 -528q0 -317 -221 -535q-218 -215 -539 -215q-223 0 -409 115l-90 -111l-154 86l108 131q-215 218 -215 529q0 315 220 532t540 217q225 0 410 -114l90 110zM471 717q0 -115 66 -209l434 526q-70 31 -150 31q-152 0 -252 -100
q-98 -98 -98 -248zM821 369q152 0 250 98q100 100 100 250q0 117 -65 209l-434 -527q68 -30 149 -30z" />
    <glyph glyph-name="Ugrave" unicode="&#xd9;" horiz-adv-x="1331" 
d="M870 1536h-356l-238 307h431zM82 479q0 -230 162 -370q165 -142 422 -142q256 0 421 142q162 140 162 370v955h-409v-910q0 -159 -174 -159t-174 159v910h-410v-955z" />
    <glyph glyph-name="Uacute" unicode="&#xda;" horiz-adv-x="1331" 
d="M475 1536l164 307h430l-238 -307h-356zM82 479q0 -230 162 -370q165 -142 422 -142q256 0 421 142q162 140 162 370v955h-409v-910q0 -159 -174 -159t-174 159v910h-410v-955z" />
    <glyph glyph-name="Ucircumflex" unicode="&#xdb;" horiz-adv-x="1331" 
d="M748 1516l-93 118l-92 -118h-317l217 327h385l217 -327h-317zM840 524v910h409v-955q0 -230 -162 -370q-165 -142 -421 -142q-257 0 -422 142q-162 140 -162 370v955h410v-910q0 -159 174 -159t174 159z" />
    <glyph glyph-name="Udieresis" unicode="&#xdc;" horiz-adv-x="1331" 
d="M584 1546q-51 -51 -123 -51t-123 51t-51 123t51 123t123 51t123 -51t51 -123t-51 -123zM993 1546q-51 -51 -122.5 -51t-122.5 51t-51 123t51 123t122.5 51t122.5 -51t51 -123t-51 -123zM82 479v955h410v-910q0 -159 174 -159t174 159v910h409v-955q0 -230 -162 -370
q-165 -142 -421 -142q-257 0 -422 142q-162 140 -162 370z" />
    <glyph glyph-name="Yacute" unicode="&#xdd;" horiz-adv-x="1380" 
d="M647 1843h430l-237 -307h-357zM926 1434h454l-485 -889v-545h-410v545l-485 889h455l235 -504z" />
    <glyph glyph-name="Thorn" unicode="&#xde;" horiz-adv-x="1218" 
d="M512 1233h164q223 0 373 -141q149 -137 149 -373q0 -235 -149 -375q-151 -139 -373 -139h-164v-203h-410v1434h410v-203zM512 602h164q48 0 80 32t32 85t-32 85t-80 32h-164v-234z" />
    <glyph glyph-name="germandbls" unicode="&#xdf;" horiz-adv-x="1144" 
d="M555 -6v340q201 -27 201 78q0 65 -88 202q-86 139 -86 189q0 39 34 108q35 72 35 125q0 103 -90 103q-48 0 -74 -33t-26 -88v-1018h-379v999q0 220 133.5 343.5t357.5 123.5q225 0 351 -114q127 -115 127 -260q0 -83 -47 -160q-46 -76 -46 -119q-2 -24 16 -64.5
t45.5 -88.5t54.5 -102t45 -121t16 -130q0 -181 -136 -270t-444 -43z" />
    <glyph glyph-name="agrave" unicode="&#xe0;" horiz-adv-x="1241" 
d="M721 1434l164 -308h-357l-237 308h430zM780 932v92h379v-1024h-379v92q-100 -121 -274 -121q-205 0 -338 154q-131 152 -131 387t131 387q133 154 338 154q174 0 274 -121zM465 375q53 -56 133 -56q81 0 131 56q51 55 51 136.5t-51 137.5q-50 56 -131 56q-80 0 -133 -56
q-49 -55 -49 -137t49 -137z" />
    <glyph glyph-name="aacute" unicode="&#xe1;" horiz-adv-x="1241" 
d="M643 1434h430l-237 -308h-357zM780 932v92h379v-1024h-379v92q-100 -121 -274 -121q-205 0 -338 154q-131 152 -131 387t131 387q133 154 338 154q174 0 274 -121zM465 375q53 -56 133 -56q81 0 131 56q51 55 51 136.5t-51 137.5q-50 56 -131 56q-80 0 -133 -56
q-49 -55 -49 -137t49 -137z" />
    <glyph glyph-name="acircumflex" unicode="&#xe2;" horiz-adv-x="1241" 
d="M782 1106l-92 119l-92 -119h-317l217 328h385l217 -328h-318zM780 932v92h379v-1024h-379v92q-100 -121 -274 -121q-205 0 -338 154q-131 152 -131 387t131 387q133 154 338 154q174 0 274 -121zM465 375q53 -56 133 -56q81 0 131 56q51 55 51 136.5t-51 137.5
q-50 56 -131 56q-80 0 -133 -56q-49 -55 -49 -137t49 -137z" />
    <glyph glyph-name="atilde" unicode="&#xe3;" horiz-adv-x="1241" 
d="M684 1141q-11 5 -29 13.5t-28 13t-22 7t-18.5 -3t-11 -20t-4.5 -39.5h-245q0 99 23.5 170.5t61 108t87.5 51.5t100 9.5t102 -26.5q11 -5 30 -13.5t28.5 -13t22 -6.5t19 3.5t11 19.5t4.5 39h246q0 -122 -34 -203.5t-93 -111.5q-112 -52 -250 2zM780 932v92h379v-1024h-379
v92q-100 -121 -274 -121q-205 0 -338 154q-131 152 -131 387t131 387q133 154 338 154q174 0 274 -121zM465 375q53 -56 133 -56q81 0 131 56q51 55 51 136.5t-51 137.5q-50 56 -131 56q-80 0 -133 -56q-49 -55 -49 -137t49 -137z" />
    <glyph glyph-name="adieresis" unicode="&#xe4;" horiz-adv-x="1241" 
d="M539 1137q-51 -51 -123 -51t-123 51t-51 122.5t51 122.5t123 51t123 -51t51 -122.5t-51 -122.5zM948 1137q-51 -51 -123 -51t-123 51t-51 122.5t51 122.5t123 51t123 -51t51 -122.5t-51 -122.5zM780 932v92h379v-1024h-379v92q-100 -121 -274 -121q-205 0 -338 154
q-131 152 -131 387t131 387q133 154 338 154q174 0 274 -121zM465 375q53 -56 133 -56q81 0 131 56q51 55 51 136.5t-51 137.5q-50 56 -131 56q-80 0 -133 -56q-49 -55 -49 -137t49 -137z" />
    <glyph glyph-name="aring" unicode="&#xe5;" horiz-adv-x="1241" 
d="M621 1085q-135 0 -220 82q-86 83 -86 205t86 205q85 82 220 82q136 0 220.5 -81t84.5 -206t-84.5 -206t-220.5 -81zM621 1434q-40 0 -56 -31t0 -61.5t56 -30.5q65 0 65 61q0 62 -65 62zM780 932v92h379v-1024h-379v92q-100 -121 -274 -121q-205 0 -338 154
q-131 152 -131 387t131 387q133 154 338 154q174 0 274 -121zM465 375q53 -56 133 -56q81 0 131 56q51 55 51 136.5t-51 137.5q-50 56 -131 56q-80 0 -133 -56q-49 -55 -49 -137t49 -137z" />
    <glyph glyph-name="ae" unicode="&#xe6;" horiz-adv-x="1888" 
d="M1841 383h-676q55 -123 215 -123q111 0 189 78l235 -191q-144 -176 -379 -176q-187 0 -307 117v-88h-338v70q-99 -99 -254 -99q-208 0 -350 154q-139 157 -139 387q0 231 139 385q141 156 350 156q155 0 254 -99v70h338v-76q108 105 275 105q197 0 329 -156
q136 -154 136 -381q0 -60 -17 -133zM1155 627h346q-35 123 -168 123q-131 0 -178 -123zM465 379q51 -51 133 -51q83 0 131 51q51 51 51 133t-51 133q-48 51 -131 51q-82 0 -133 -51q-49 -52 -49 -133t49 -133z" />
    <glyph glyph-name="ccedilla" unicode="&#xe7;" horiz-adv-x="1075" 
d="M584 336q105 0 151 88l320 -184q-102 -184 -310 -246v-88q109 -47 109 -158q0 -116 -126 -170t-376 -41v234q195 -15 195 28q0 32 -109 41v150q-181 46 -291 186q-110 143 -110 336q0 232 156 385q156 156 391 156q151 0 277 -72.5t194 -196.5l-320 -182q-53 86 -151 86
q-72 0 -120 -50.5t-48 -125.5t48 -125.5t120 -50.5z" />
    <glyph glyph-name="egrave" unicode="&#xe8;" horiz-adv-x="1146" 
d="M649 1454l164 -307h-356l-238 307h430zM1100 383h-680q50 -102 209 -102q94 0 174 65l248 -209q-153 -166 -435 -166q-260 0 -421 152q-158 155 -158 385q0 233 153 389q156 156 392 156q232 0 383 -154q151 -151 151 -383q0 -64 -16 -133zM414 627h344q-34 123 -166 123
t-178 -123z" />
    <glyph glyph-name="eacute" unicode="&#xe9;" horiz-adv-x="1146" 
d="M586 1454h430l-238 -307h-356zM1100 383h-680q50 -102 209 -102q94 0 174 65l248 -209q-153 -166 -435 -166q-260 0 -421 152q-158 155 -158 385q0 233 153 389q156 156 392 156q232 0 383 -154q151 -151 151 -383q0 -64 -16 -133zM414 627h344q-34 123 -166 123
t-178 -123z" />
    <glyph glyph-name="ecircumflex" unicode="&#xea;" horiz-adv-x="1146" 
d="M688 1126l-92 119l-92 -119h-318l217 328h385l218 -328h-318zM1100 383h-680q50 -102 209 -102q94 0 174 65l248 -209q-153 -166 -435 -166q-260 0 -421 152q-158 155 -158 385q0 233 153 389q156 156 392 156q232 0 383 -154q151 -151 151 -383q0 -64 -16 -133zM414 627
h344q-34 123 -166 123t-178 -123z" />
    <glyph glyph-name="edieresis" unicode="&#xeb;" horiz-adv-x="1146" 
d="M512 1157q-51 -51 -123 -51t-123 51t-51 123t51 123t123 51t123 -51t51 -123t-51 -123zM922 1157q-51 -51 -123 -51t-123 51t-51 123t51 123t123 51t123 -51t51 -123t-51 -123zM1100 383h-680q50 -102 209 -102q94 0 174 65l248 -209q-153 -166 -435 -166
q-260 0 -421 152q-158 155 -158 385q0 233 153 389q156 156 392 156q232 0 383 -154q151 -151 151 -383q0 -64 -16 -133zM414 627h344q-34 123 -166 123t-178 -123z" />
    <glyph glyph-name="igrave" unicode="&#xec;" horiz-adv-x="542" 
d="M451 1126h-357l-155 308h430zM461 0v1024h-379v-1024h379z" />
    <glyph glyph-name="iacute" unicode="&#xed;" horiz-adv-x="542" 
d="M82 1126l82 308h430l-156 -308h-356zM82 0h379v1024h-379v-1024z" />
    <glyph glyph-name="icircumflex" unicode="&#xee;" horiz-adv-x="542" 
d="M342 1106l-72 108l-71 -108h-297l176 328h385l176 -328h-297zM461 0h-379v1024h379v-1024z" />
    <glyph glyph-name="idieresis" unicode="&#xef;" horiz-adv-x="542" 
d="M201 1153q-47 -47 -115 -47t-115 47q-49 49 -49 116.5t49 114.5q47 50 115 50t115 -50q49 -47 49 -114.5t-49 -116.5zM569 1153q-47 -47 -114.5 -47t-116.5 47q-47 49 -47 116.5t47 114.5q50 50 117 50t114 -50q49 -47 49 -114.5t-49 -116.5zM461 0h-379v1024h379v-1024z
" />
    <glyph glyph-name="eth" unicode="&#xf0;" horiz-adv-x="1150" 
d="M743 1128l277 -370q94 -128 94 -287q0 -228 -162 -365q-160 -139 -377 -139q-230 0 -385 137q-153 138 -153 367q0 170 113 301q116 134 282 168l-51 74l-248 -78v287l80 24l-131 187h434l55 -74l293 92v-287zM735 463q0 48 -28 90q-50 59 -132 59q-72 0 -115.5 -40
t-43.5 -109q0 -74 43 -116t116 -42t116.5 42t43.5 116z" />
    <glyph glyph-name="ntilde" unicode="&#xf1;" horiz-adv-x="1177" 
d="M596 1161q-11 5 -29 14t-28 13.5t-22 6.5t-18.5 -3t-11 -19.5t-4.5 -39.5h-245q0 99 23.5 170.5t61 108t87.5 51.5t100 9.5t102 -26.5q11 -5 30 -13.5t28.5 -13t22 -6.5t19 3.5t11 19.5t4.5 39h246q0 -122 -34 -204t-93 -112q-112 -52 -250 2zM735 1053q171 0 271 -118.5
t100 -342.5v-592h-379v551q0 137 -127 137q-67 0 -103 -43t-36 -119v-526h-379v1024h379v-100q95 129 274 129z" />
    <glyph glyph-name="ograve" unicode="&#xf2;" horiz-adv-x="1175" 
d="M793 1147h-357l-237 307h430zM588 -29q232 0 391 156q160 157 160 385t-160 385q-159 156 -391 156t-391 -156q-160 -157 -160 -385t160 -385q163 -156 391 -156zM463 381q-47 53 -47 131q0 79 47 129q48 51 125 51q78 0 123 -51q49 -49 49 -129q0 -79 -49 -131
q-46 -49 -123 -49q-76 0 -125 49z" />
    <glyph glyph-name="oacute" unicode="&#xf3;" horiz-adv-x="1175" 
d="M418 1147l164 307h430l-238 -307h-356zM588 -29q232 0 391 156q160 157 160 385t-160 385q-159 156 -391 156t-391 -156q-160 -157 -160 -385t160 -385q163 -156 391 -156zM463 381q-47 53 -47 131q0 79 47 129q48 51 125 51q78 0 123 -51q49 -49 49 -129q0 -79 -49 -131
q-46 -49 -123 -49q-76 0 -125 49z" />
    <glyph glyph-name="ocircumflex" unicode="&#xf4;" horiz-adv-x="1175" 
d="M688 1126l-92 119l-92 -119h-318l217 328h385l218 -328h-318zM588 -29q-228 0 -391 156q-160 157 -160 385t160 385q159 156 391 156t391 -156q160 -157 160 -385t-160 -385q-159 -156 -391 -156zM463 381q49 -49 125 -49q77 0 123 49q49 52 49 131q0 80 -49 129
q-45 51 -123 51q-77 0 -125 -51q-47 -50 -47 -129q0 -78 47 -131z" />
    <glyph glyph-name="otilde" unicode="&#xf5;" horiz-adv-x="1175" 
d="M506 1133h-246q0 99 23.5 170.5t61 108t87.5 51.5t100.5 9.5t102.5 -26.5q11 -5 30 -13.5t28.5 -13t22 -6.5t19 3.5t11 19.5t4.5 39h245q0 -122 -34 -204t-93 -112q-112 -52 -250 2q-11 5 -29 14t-27.5 13.5t-22 6.5t-18.5 -3t-10.5 -19.5t-4.5 -39.5zM588 -29
q-228 0 -391 156q-160 157 -160 385t160 385q159 156 391 156t391 -156q160 -157 160 -385t-160 -385q-159 -156 -391 -156zM463 381q49 -49 125 -49q77 0 123 49q49 52 49 131q0 80 -49 129q-45 51 -123 51q-77 0 -125 -51q-47 -50 -47 -129q0 -78 47 -131z" />
    <glyph glyph-name="odieresis" unicode="&#xf6;" horiz-adv-x="1175" 
d="M506 1157q-51 -51 -123 -51t-123 51t-51 123t51 123t123 51t123 -51t51 -123t-51 -123zM915 1157q-51 -51 -122.5 -51t-122.5 51t-51 123t51 123t122.5 51t122.5 -51t51 -123t-51 -123zM588 -29q-228 0 -391 156q-160 157 -160 385t160 385q159 156 391 156t391 -156
q160 -157 160 -385t-160 -385q-159 -156 -391 -156zM463 381q49 -49 125 -49q77 0 123 49q49 52 49 131q0 80 -49 129q-45 51 -123 51q-77 0 -125 -51q-47 -50 -47 -129q0 -78 47 -131z" />
    <glyph glyph-name="divide" unicode="&#xf7;" horiz-adv-x="1105" 
d="M698 1004q-58 -58 -145 -58q-89 0 -147 58t-58 147q0 87 58 145q60 60 147 60q85 0 145 -60t60 -145q0 -87 -60 -147zM1044 532h-983v369h983v-369zM698 135q-57 -57 -145 -57q-90 0 -147 57q-58 58 -58 148q0 87 58 145q59 59 147 59q86 0 145 -59q60 -60 60 -145
q0 -88 -60 -148z" />
    <glyph glyph-name="oslash" unicode="&#xf8;" horiz-adv-x="1175" 
d="M1063 981l-76 -92q152 -158 152 -377q0 -228 -160 -385q-159 -156 -391 -156q-153 0 -287 76l-61 -76l-125 70l75 94q-153 156 -153 377q0 228 160 385q159 156 391 156q155 0 289 -76l61 76zM416 512q0 -39 16 -82l207 256q-24 6 -51 6q-75 0 -123.5 -50.5t-48.5 -129.5
zM588 332q75 0 123.5 50.5t48.5 129.5q0 38 -15 78l-206 -252q24 -6 49 -6z" />
    <glyph glyph-name="ugrave" unicode="&#xf9;" horiz-adv-x="1177" 
d="M625 1434l163 -308h-356l-237 308h430zM717 498v526h379v-1024h-379v100q-95 -129 -275 -129q-171 0 -270.5 118.5t-99.5 342.5v592h379v-551q0 -137 127 -137q67 0 103 43t36 119z" />
    <glyph glyph-name="uacute" unicode="&#xfa;" horiz-adv-x="1177" 
d="M553 1434h430l-238 -308h-356zM717 498v526h379v-1024h-379v100q-95 -129 -275 -129q-171 0 -270.5 118.5t-99.5 342.5v592h379v-551q0 -137 127 -137q67 0 103 43t36 119z" />
    <glyph glyph-name="ucircumflex" unicode="&#xfb;" horiz-adv-x="1177" 
d="M666 1106l-93 119l-92 -119h-317l217 328h385l217 -328h-317zM717 498v526h379v-1024h-379v100q-95 -129 -275 -129q-171 0 -270.5 118.5t-99.5 342.5v592h379v-551q0 -137 127 -137q67 0 103 43t36 119z" />
    <glyph glyph-name="udieresis" unicode="&#xfc;" horiz-adv-x="1177" 
d="M502 1137q-51 -51 -123 -51t-123 51t-51 122.5t51 122.5t123 51t123 -51t51 -122.5t-51 -122.5zM911 1137q-51 -51 -122.5 -51t-122.5 51t-51 122.5t51 122.5t122.5 51t122.5 -51t51 -122.5t-51 -122.5zM717 498v526h379v-1024h-379v100q-95 -129 -275 -129
q-171 0 -270.5 118.5t-99.5 342.5v592h379v-551q0 -137 127 -137q67 0 103 43t36 119z" />
    <glyph glyph-name="yacute" unicode="&#xfd;" horiz-adv-x="1167" 
d="M549 1434h430l-238 -308h-356zM612 477l125 547h430l-348 -1022q-75 -223 -234.5 -323t-422.5 -89v359q106 0 161 15t87 56l-410 1004h430z" />
    <glyph glyph-name="thorn" unicode="&#xfe;" horiz-adv-x="1241" 
d="M735 1053q205 0 338 -154q131 -152 131 -387t-131 -387q-133 -154 -338 -154q-174 0 -274 121v-502h-379v1844h379v-502q100 121 274 121zM510 375q53 -56 133 -56q81 0 131 56q51 55 51 136.5t-51 137.5q-50 56 -131 56q-80 0 -133 -56q-50 -55 -50 -137t50 -137z" />
    <glyph glyph-name="ydieresis" unicode="&#xff;" horiz-adv-x="1167" 
d="M514 1137q-51 -51 -123 -51t-123 51t-51 122.5t51 122.5t123 51t123 -51t51 -122.5t-51 -122.5zM924 1137q-51 -51 -123 -51t-123 51t-51 122.5t51 122.5t123 51t123 -51t51 -122.5t-51 -122.5zM612 477l125 547h430l-348 -1022q-75 -223 -234.5 -323t-422.5 -89v359
q106 0 161 15t87 56l-410 1004h430z" />
    <glyph glyph-name="Amacron" unicode="&#x100;" 
d="M348 1821h656v-287h-656v287zM1372 0h-440l-49 184h-414l-49 -184h-440l456 1434h479zM676 952l-119 -440h238z" />
    <glyph glyph-name="amacron" unicode="&#x101;" horiz-adv-x="1241" 
d="M293 1411h655v-287h-655v287zM780 932v92h379v-1024h-379v92q-100 -121 -274 -121q-205 0 -338 154q-131 152 -131 387t131 387q133 154 338 154q174 0 274 -121zM465 375q53 -56 133 -56q81 0 131 56q51 55 51 136.5t-51 137.5q-50 56 -131 56q-80 0 -133 -56
q-49 -55 -49 -137t49 -137z" />
    <glyph glyph-name="Abreve" unicode="&#x102;" 
d="M297 1847h307q0 -82 72 -82t72 82h307q0 -171 -97.5 -259.5t-281.5 -88.5t-281.5 88.5t-97.5 259.5zM1372 0h-440l-49 184h-414l-49 -184h-440l456 1434h479zM676 952l-119 -440h238z" />
    <glyph glyph-name="abreve" unicode="&#x103;" horiz-adv-x="1241" 
d="M334 1438h307q0 -82 72 -82q71 0 71 82h308q0 -171 -97.5 -259.5t-281.5 -88.5t-281.5 88.5t-97.5 259.5zM780 932v92h379v-1024h-379v92q-100 -121 -274 -121q-205 0 -338 154q-131 152 -131 387t131 387q133 154 338 154q174 0 274 -121zM465 375q53 -56 133 -56
q81 0 131 56q51 55 51 136.5t-51 137.5q-50 56 -131 56q-80 0 -133 -56q-49 -55 -49 -137t49 -137z" />
    <glyph glyph-name="Aogonek" unicode="&#x104;" 
d="M1290 -145q0 -39 43 -39q21 0 39 6v-225q-87 -35 -180 -35q-102 0 -163.5 48t-61.5 138q0 126 120 252h-155l-49 184h-414l-49 -184h-440l456 1434h479l457 -1434q-82 -82 -82 -145zM676 952l-119 -440h238z" />
    <glyph glyph-name="aogonek" unicode="&#x105;" horiz-adv-x="1241" 
d="M780 1024h379v-1024q-82 -82 -82 -145q0 -39 43 -39q21 0 39 6v-225q-87 -35 -180 -35q-102 0 -163.5 48t-61.5 138q0 126 120 252h-94v92q-100 -121 -274 -121q-205 0 -338 154q-131 152 -131 387t131 387q133 154 338 154q174 0 274 -121v92zM465 375q53 -56 133 -56
q81 0 131 56q51 55 51 136.5t-51 137.5q-50 56 -131 56q-80 0 -133 -56q-49 -55 -49 -137t49 -137z" />
    <glyph glyph-name="Cacute" unicode="&#x106;" horiz-adv-x="1470" 
d="M575 1556l164 308h430l-237 -308h-357zM801 -33q198 0 366.5 94t262.5 256l-357 205q-35 -72 -107.5 -112.5t-164.5 -40.5q-152 0 -246 98t-94 250t94 250t246 98q90 0 163.5 -41.5t108.5 -110.5l357 205q-94 160 -263 254t-366 94q-325 0 -537 -215q-213 -216 -213 -534
q0 -319 213 -535q212 -215 537 -215z" />
    <glyph glyph-name="cacute" unicode="&#x107;" horiz-adv-x="1075" 
d="M356 1147l164 307h430l-237 -307h-357zM584 -29q152 0 277.5 72t193.5 197l-320 184q-46 -88 -151 -88q-72 0 -120 50.5t-48 125.5t48 125.5t120 50.5q98 0 151 -86l320 182q-68 124 -194 196.5t-277 72.5q-235 0 -391 -156q-156 -153 -156 -385q0 -231 156 -387
q157 -154 391 -154z" />
    <glyph glyph-name="Cdotaccent" unicode="&#x10a;" horiz-adv-x="1470" 
d="M938 1593q-57 -57 -137 -57t-137 57t-57 137.5t57 137.5t137 57t137 -57t57 -137.5t-57 -137.5zM801 -33q-325 0 -537 215q-213 216 -213 535q0 318 213 534q212 215 537 215q197 0 366 -94t263 -254l-357 -205q-35 69 -108.5 110.5t-163.5 41.5q-152 0 -246 -98
t-94 -250t94 -250t246 -98q92 0 164.5 40.5t107.5 112.5l357 -205q-94 -162 -262.5 -256t-366.5 -94z" />
    <glyph glyph-name="cdotaccent" unicode="&#x10b;" horiz-adv-x="1075" 
d="M719 1184q-57 -57 -137.5 -57t-137.5 57t-57 137t57 137t137.5 57t137.5 -57t57 -137t-57 -137zM584 -29q-234 0 -391 154q-156 156 -156 387q0 232 156 385q156 156 391 156q151 0 277 -72.5t194 -196.5l-320 -182q-53 86 -151 86q-72 0 -120 -50.5t-48 -125.5
t48 -125.5t120 -50.5q105 0 151 88l320 -184q-68 -125 -193.5 -197t-277.5 -72z" />
    <glyph glyph-name="Ccaron" unicode="&#x10c;" horiz-adv-x="1470" 
d="M983 1536h-385l-217 328h317l93 -119l92 119h317zM801 369q92 0 164.5 40.5t107.5 112.5l357 -205q-94 -162 -262.5 -256t-366.5 -94q-325 0 -537 215q-213 216 -213 535q0 318 213 534q212 215 537 215q197 0 366 -94t263 -254l-357 -205q-35 69 -108.5 110.5
t-163.5 41.5q-152 0 -246 -98t-94 -250t94 -250t246 -98z" />
    <glyph glyph-name="ccaron" unicode="&#x10d;" horiz-adv-x="1075" 
d="M764 1126h-385l-217 328h317l92 -119l93 119h317zM584 336q105 0 151 88l320 -184q-68 -125 -193.5 -197t-277.5 -72q-234 0 -391 154q-156 156 -156 387q0 232 156 385q156 156 391 156q151 0 277 -72.5t194 -196.5l-320 -182q-53 86 -151 86q-72 0 -120 -50.5
t-48 -125.5t48 -125.5t120 -50.5z" />
    <glyph glyph-name="Dcaron" unicode="&#x10e;" horiz-adv-x="1443" 
d="M858 1516h-385l-217 327h317l93 -119l92 119h317zM102 1434h594q295 0 496 -207t201 -510q0 -305 -201 -512q-199 -205 -496 -205h-594v1434zM532 397h164q125 0 206 90t81 230t-81 229.5t-206 89.5h-164v-639z" />
    <glyph glyph-name="dcaron" unicode="&#x10f;" horiz-adv-x="1568" 
d="M780 932v502h379v-1434h-379v92q-100 -121 -274 -121q-205 0 -338 154q-131 152 -131 387t131 387q133 154 338 154q174 0 274 -121zM1241 963l21 471h348l-82 -471h-287zM465 375q53 -56 133 -56q81 0 131 56q51 55 51 136.5t-51 137.5q-50 56 -131 56q-80 0 -133 -56
q-49 -55 -49 -137t49 -137z" />
    <glyph glyph-name="Dcroat" unicode="&#x110;" horiz-adv-x="1484" 
d="M143 1434h594q295 0 496 -207t201 -510q0 -305 -201 -512q-199 -205 -496 -205h-594v553h-112v305h112v576zM573 397h164q125 0 206 90t81 230t-81 229.5t-206 89.5h-164v-178h218v-305h-218v-156z" />
    <glyph glyph-name="dslash" unicode="&#x111;" horiz-adv-x="1271" 
d="M1159 1321h113v-244h-113v-1077h-379v68q-105 -97 -254 -97q-205 0 -348 152q-141 150 -141 369q0 218 141 368q143 152 348 152q149 0 254 -97v162h-266v244h266v113h379v-113zM467 362q51 -54 131 -54t131 54t51 129.5t-51 129.5t-131 54t-131 -54t-51 -129.5
t51 -129.5z" />
    <glyph glyph-name="Emacron" unicode="&#x112;" horiz-adv-x="1105" 
d="M242 1821h655v-287h-655v287zM512 537v-160h532v-377h-942v1434h932v-373h-522v-156h471v-368h-471z" />
    <glyph glyph-name="emacron" unicode="&#x113;" horiz-adv-x="1146" 
d="M266 1432h656v-287h-656v287zM1100 383h-680q50 -102 209 -102q94 0 174 65l248 -209q-153 -166 -435 -166q-260 0 -421 152q-158 155 -158 385q0 233 153 389q156 156 392 156q232 0 383 -154q151 -151 151 -383q0 -64 -16 -133zM414 627h344q-34 123 -166 123
t-178 -123z" />
    <glyph glyph-name="Edotaccent" unicode="&#x116;" horiz-adv-x="1105" 
d="M707 1573q-57 -57 -137.5 -57t-137.5 57t-57 137t57 137t137.5 57t137.5 -57t57 -137t-57 -137zM512 537v-160h532v-377h-942v1434h932v-373h-522v-156h471v-368h-471z" />
    <glyph glyph-name="edotaccent" unicode="&#x117;" horiz-adv-x="1146" 
d="M731 1184q-57 -57 -137 -57t-137 57t-57 137t57 137t137 57t137 -57t57 -137t-57 -137zM1100 383h-680q50 -102 209 -102q94 0 174 65l248 -209q-153 -166 -435 -166q-260 0 -421 152q-158 155 -158 385q0 233 153 389q156 156 392 156q232 0 383 -154q151 -151 151 -383
q0 -64 -16 -133zM414 627h344q-34 123 -166 123t-178 -123z" />
    <glyph glyph-name="Eogonek" unicode="&#x118;" horiz-adv-x="1105" 
d="M512 377h532v-377q-81 -81 -81 -145q0 -39 43 -39q20 0 38 6v-225q-87 -35 -180 -35q-102 0 -163.5 48t-61.5 138q0 125 121 252h-658v1434h932v-373h-522v-156h471v-368h-471v-160z" />
    <glyph glyph-name="eogonek" unicode="&#x119;" horiz-adv-x="1146" 
d="M1100 383h-680q50 -102 209 -102q94 0 174 65l231 -196l17 8l-11 -13l11 -8q-22 -22 -52 -47q-139 -189 -139 -235q0 -39 43 -39q21 0 39 6v-225q-87 -35 -180 -35q-102 0 -163.5 48t-61.5 138q0 111 147 225q-14 -2 -68 -2q-260 0 -421 152q-158 155 -158 385
q0 233 153 389q156 156 392 156q232 0 383 -154q151 -151 151 -383q0 -64 -16 -133zM414 627h344q-34 123 -166 123t-178 -123z" />
    <glyph glyph-name="Ecaron" unicode="&#x11a;" horiz-adv-x="1105" 
d="M752 1516h-385l-217 327h317l92 -119l92 119h318zM512 537v-160h532v-377h-942v1434h932v-373h-522v-156h471v-368h-471z" />
    <glyph glyph-name="ecaron" unicode="&#x11b;" horiz-adv-x="1146" 
d="M776 1126h-385l-217 328h318l92 -119l92 119h317zM1100 383h-680q50 -102 209 -102q94 0 174 65l248 -209q-153 -166 -435 -166q-260 0 -421 152q-158 155 -158 385q0 233 153 389q156 156 392 156q232 0 383 -154q151 -151 151 -383q0 -64 -16 -133zM414 627h344
q-34 123 -166 123t-178 -123z" />
    <glyph glyph-name="Gbreve" unicode="&#x11e;" horiz-adv-x="1581" 
d="M422 1868h307q0 -82 72 -82q71 0 71 82h308q0 -171 -97.5 -259.5t-281.5 -88.5t-281.5 88.5t-97.5 259.5zM801 846h729v-170q0 -309 -199 -508q-198 -201 -518 -201q-336 0 -549 213q-213 216 -213 535q0 318 213 534q211 217 533 217q199 0 365.5 -89t264.5 -244
l-348 -199q-85 131 -274 131q-156 0 -250 -98t-94 -254q0 -148 88 -258q89 -109 272 -109q214 0 285 152h-305v348z" />
    <glyph glyph-name="gbreve" unicode="&#x11f;" horiz-adv-x="1255" 
d="M254 1458h307q0 -82 72 -82t72 82h307q0 -171 -97.5 -259.5t-281.5 -88.5t-281.5 88.5t-97.5 259.5zM795 932v92h379v-993q0 -99 -30.5 -180t-82 -134.5t-121.5 -90t-145.5 -52.5t-157.5 -16q-181 0 -320 65.5t-206 183.5l307 179q73 -101 198 -101q77 0 128 38t51 108
v102q-100 -121 -275 -121q-206 0 -338 150q-131 149 -131 370q0 222 131 371q132 150 338 150q175 0 275 -121zM479 401q53 -53 133 -53q81 0 131 53q51 54 51 131.5t-51 131.5q-50 53 -131 53q-80 0 -133 -53q-49 -54 -49 -131.5t49 -131.5z" />
    <glyph glyph-name="Gdotaccent" unicode="&#x120;" horiz-adv-x="1581" 
d="M938 1593q-57 -57 -137 -57t-137 57t-57 137.5t57 137.5t137 57t137 -57t57 -137.5t-57 -137.5zM801 846h729v-170q0 -309 -199 -508q-198 -201 -518 -201q-336 0 -549 213q-213 216 -213 535q0 318 213 534q211 217 533 217q199 0 365.5 -89t264.5 -244l-348 -199
q-85 131 -274 131q-156 0 -250 -98t-94 -254q0 -148 88 -258q89 -109 272 -109q214 0 285 152h-305v348z" />
    <glyph glyph-name="gdotaccent" unicode="&#x121;" horiz-adv-x="1255" 
d="M770 1184q-57 -57 -137 -57t-137 57t-57 137t57 137t137 57t137 -57t57 -137t-57 -137zM795 932v92h379v-993q0 -99 -30.5 -180t-82 -134.5t-121.5 -90t-145.5 -52.5t-157.5 -16q-181 0 -320 65.5t-206 183.5l307 179q73 -101 198 -101q77 0 128 38t51 108v102
q-100 -121 -275 -121q-206 0 -338 150q-131 149 -131 370q0 222 131 371q132 150 338 150q175 0 275 -121zM479 401q53 -53 133 -53q81 0 131 53q51 54 51 131.5t-51 131.5q-50 53 -131 53q-80 0 -133 -53q-49 -54 -49 -131.5t49 -131.5z" />
    <glyph glyph-name="Gcommaaccent" unicode="&#x122;" horiz-adv-x="1581" 
d="M801 846h729v-170q0 -309 -199 -508q-198 -201 -518 -201q-336 0 -549 213q-213 216 -213 535q0 318 213 534q211 217 533 217q199 0 365.5 -89t264.5 -244l-348 -199q-85 131 -274 131q-156 0 -250 -98t-94 -254q0 -148 88 -258q89 -109 272 -109q214 0 285 152h-305
v348zM922 -582h-287l20 471h349z" />
    <glyph glyph-name="gcommaaccent" unicode="&#x123;" horiz-adv-x="1255" 
d="M504 1638h287l-21 -471h-348zM795 932v92h379v-993q0 -99 -30.5 -180t-82 -134.5t-121.5 -90t-145.5 -52.5t-157.5 -16q-181 0 -320 65.5t-206 183.5l307 179q73 -101 198 -101q77 0 128 38t51 108v102q-100 -121 -275 -121q-206 0 -338 150q-131 149 -131 370
q0 222 131 371q132 150 338 150q175 0 275 -121zM479 401q53 -53 133 -53q81 0 131 53q51 54 51 131.5t-51 131.5q-50 53 -131 53q-80 0 -133 -53q-49 -54 -49 -131.5t49 -131.5z" />
    <glyph glyph-name="Hbar" unicode="&#x126;" horiz-adv-x="1454" 
d="M1311 1235h123v-299h-123v-936h-410v375h-348v-375h-410v936h-123v299h123v199h410v-199h348v199h410v-199zM553 772h348v164h-348v-164z" />
    <glyph glyph-name="hbar" unicode="&#x127;" horiz-adv-x="1208" 
d="M766 1001q172 0 271.5 -118t99.5 -342v-541h-379v500q0 137 -127 137q-67 0 -103 -43t-36 -119v-475h-379v1077h-113v244h113v113h379v-113h266v-244h-266v-205q94 129 274 129z" />
    <glyph glyph-name="Itilde" unicode="&#x128;" horiz-adv-x="614" 
d="M102 0v1434h410v-1434h-410zM186 1522h-245q0 99 23.5 170.5t61 108t87.5 51.5t100 9.5t102 -26.5q11 -5 30 -13.5t28.5 -13t22 -6.5t19 3.5t11 19.5t4.5 39h246q0 -122 -34 -204t-93 -112q-112 -52 -250 2q-11 5 -29 14t-28 13.5t-22 6.5t-18.5 -3t-11 -19.5t-4.5 -39.5
z" />
    <glyph glyph-name="itilde" unicode="&#x129;" horiz-adv-x="542" 
d="M461 0h-379v1024h379v-1024zM168 1112h-223q0 99 21 170.5t55 108t79.5 51.5t91.5 9.5t93 -26.5q11 -5 27 -13.5t25 -13t20 -6.5t16.5 3.5t9.5 19.5t4 39h223q0 -121 -31 -203t-83 -112q-103 -51 -228 2q-10 5 -26 13.5t-24.5 13t-19.5 7t-16.5 -3t-9.5 -20t-4 -39.5z
" />
    <glyph glyph-name="Imacron" unicode="&#x12a;" horiz-adv-x="614" 
d="M635 1534h-655v287h655v-287zM102 0v1434h410v-1434h-410z" />
    <glyph glyph-name="imacron" unicode="&#x12b;" horiz-adv-x="542" 
d="M559 1124h-573v287h573v-287zM461 0h-379v1024h379v-1024z" />
    <glyph glyph-name="Iogonek" unicode="&#x12e;" horiz-adv-x="614" 
d="M102 1434h410v-1434q-82 -82 -82 -145q0 -39 43 -39q21 0 39 6v-225q-87 -35 -180 -35q-102 0 -164 48t-62 138q0 125 121 252h-125v1434z" />
    <glyph glyph-name="iogonek" unicode="&#x12f;" horiz-adv-x="542" 
d="M272 1102q-85 0 -149 61q-62 65 -62 148t62 145q64 64 149 64t146 -64q63 -60 63 -145t-63 -148q-61 -61 -146 -61zM395 -145q0 -39 43 -39q21 0 39 6v-225q-87 -35 -180 -35q-102 0 -163.5 48t-61.5 138q0 130 84 252h-74v1024h379v-1024q-66 -84 -66 -145z" />
    <glyph glyph-name="Idot" unicode="&#x130;" horiz-adv-x="614" 
d="M444 1573q-57 -57 -137 -57t-137 57t-57 137t57 137t137 57t137 -57t57 -137t-57 -137zM102 0v1434h410v-1434h-410z" />
    <glyph glyph-name="dotlessi" unicode="&#x131;" horiz-adv-x="542" 
d="M461 0h-379v1024h379v-1024z" />
    <glyph glyph-name="Kcommaaccent" unicode="&#x136;" horiz-adv-x="1302" 
d="M1303 1434l-426 -697l446 -737h-455l-356 614v-614h-410v1434h410v-574l336 574h455zM750 -582h-287l20 471h348z" />
    <glyph glyph-name="kcommaaccent" unicode="&#x137;" horiz-adv-x="1126" 
d="M707 0l-246 410v-410h-379v1434h379v-807l215 397h430l-311 -512l331 -512h-419zM684 -582h-287l21 471h348z" />
    <glyph glyph-name="Lacute" unicode="&#x139;" horiz-adv-x="1003" 
d="M250 1843h430l-238 -307h-356zM512 1434v-1037h471v-397h-881v1434h410z" />
    <glyph glyph-name="lacute" unicode="&#x13a;" horiz-adv-x="542" 
d="M82 1556l164 308h430l-238 -308h-356zM82 0h379v1495h-379v-1495z" />
    <glyph glyph-name="Lcommaaccent" unicode="&#x13b;" horiz-adv-x="1003" 
d="M512 1434v-1037h471v-397h-881v1434h410zM643 -582h-287l21 471h348z" />
    <glyph glyph-name="lcommaaccent" unicode="&#x13c;" horiz-adv-x="542" 
d="M461 0h-379v1495h379v-1495zM358 -582h-286l20 471h348z" />
    <glyph glyph-name="Lcaron" unicode="&#x13d;" horiz-adv-x="1003" 
d="M102 1434h410v-1037h471v-397h-881v1434zM616 1434h367l-80 -430h-307z" />
    <glyph glyph-name="lcaron" unicode="&#x13e;" horiz-adv-x="862" 
d="M461 0h-379v1495h379v-1495zM821 1024h-286l20 471h348z" />
    <glyph glyph-name="Lslash" unicode="&#x141;" horiz-adv-x="1044" 
d="M553 633v-236h471v-397h-881v403l-123 -69v395l123 70v635h410v-406l246 137v-395z" />
    <glyph glyph-name="lslash" unicode="&#x142;" horiz-adv-x="593" 
d="M487 991l107 64v-355l-107 -63v-637h-378v414l-109 -64v355l109 63v727h378v-504z" />
    <glyph glyph-name="Nacute" unicode="&#x143;" horiz-adv-x="1392" 
d="M440 1536l164 307h430l-237 -307h-357zM881 1434v-656l-451 656h-328v-1434h410v655l451 -655h327v1434h-409z" />
    <glyph glyph-name="nacute" unicode="&#x144;" horiz-adv-x="1177" 
d="M543 1454h430l-238 -307h-356zM735 1053q171 0 271 -118.5t100 -342.5v-592h-379v551q0 137 -127 137q-67 0 -103 -43t-36 -119v-526h-379v1024h379v-100q95 129 274 129z" />
    <glyph glyph-name="Ncommaaccent" unicode="&#x145;" horiz-adv-x="1392" 
d="M881 778v656h409v-1434h-327l-451 655v-655h-410v1434h328zM827 -582h-286l20 471h348z" />
    <glyph glyph-name="ncommaaccent" unicode="&#x146;" horiz-adv-x="1177" 
d="M735 1053q171 0 271 -118.5t100 -342.5v-592h-379v551q0 137 -127 137q-67 0 -103 -43t-36 -119v-526h-379v1024h379v-100q95 129 274 129zM711 -582h-287l20 471h349z" />
    <glyph glyph-name="Ncaron" unicode="&#x147;" horiz-adv-x="1392" 
d="M848 1516h-385l-217 327h317l92 -119l93 119h317zM881 778v656h409v-1434h-327l-451 655v-655h-410v1434h328z" />
    <glyph glyph-name="ncaron" unicode="&#x148;" horiz-adv-x="1177" 
d="M786 1126h-385l-217 328h318l92 -119l92 119h318zM735 1053q171 0 271 -118.5t100 -342.5v-592h-379v551q0 137 -127 137q-67 0 -103 -43t-36 -119v-526h-379v1024h379v-100q95 129 274 129z" />
    <glyph glyph-name="Eng" unicode="&#x14a;" horiz-adv-x="1392" 
d="M881 778v656h409v-1434q0 -241 -124 -348.5t-388 -93.5v340q133 -12 133 102v74l-399 581v-655h-410v1434h328z" />
    <glyph glyph-name="eng" unicode="&#x14b;" horiz-adv-x="1177" 
d="M735 1053q171 0 271 -118.5t100 -342.5v-592q0 -234 -113.5 -334.5t-357.5 -81.5v322q46 -2 69 20t23 74v551q0 137 -127 137q-67 0 -103 -43t-36 -119v-526h-379v1024h379v-100q95 129 274 129z" />
    <glyph glyph-name="Omacron" unicode="&#x14c;" horiz-adv-x="1622" 
d="M1139 1554h-656v287h656v-287zM1350 182q-218 -215 -539 -215q-320 0 -541 215q-219 219 -219 535t219 532q220 217 541 217q322 0 539 -217q221 -215 221 -532t-221 -535zM559 467q101 -98 252 -98q152 0 250 98q100 100 100 250q0 151 -100 248q-97 100 -250 100
q-152 0 -252 -100q-98 -98 -98 -248q0 -149 98 -250z" />
    <glyph glyph-name="omacron" unicode="&#x14d;" horiz-adv-x="1175" 
d="M915 1145h-655v287h655v-287zM588 -29q-228 0 -391 156q-160 157 -160 385t160 385q159 156 391 156t391 -156q160 -157 160 -385t-160 -385q-159 -156 -391 -156zM463 381q49 -49 125 -49q77 0 123 49q49 52 49 131q0 80 -49 129q-45 51 -123 51q-77 0 -125 -51
q-47 -50 -47 -129q0 -78 47 -131z" />
    <glyph glyph-name="Ohungarumlaut" unicode="&#x150;" horiz-adv-x="1622" 
d="M381 1536l164 328h356l-176 -328h-344zM797 1536l184 328h356l-196 -328h-344zM1350 182q221 218 221 535t-221 532q-217 217 -539 217q-321 0 -541 -217q-219 -216 -219 -532t219 -535q221 -215 541 -215q321 0 539 215zM559 467q-98 101 -98 250q0 150 98 248
q100 100 252 100q153 0 250 -100q100 -97 100 -248q0 -150 -100 -250q-98 -98 -250 -98q-151 0 -252 98z" />
    <glyph glyph-name="ohungarumlaut" unicode="&#x151;" horiz-adv-x="1175" 
d="M158 1126l164 328h356l-176 -328h-344zM573 1126l185 328h356l-196 -328h-345zM588 -29q232 0 391 156q160 157 160 385t-160 385q-159 156 -391 156t-391 -156q-160 -157 -160 -385t160 -385q163 -156 391 -156zM463 381q-47 53 -47 131q0 79 47 129q48 51 125 51
q78 0 123 -51q49 -49 49 -129q0 -79 -49 -131q-46 -49 -123 -49q-76 0 -125 49z" />
    <glyph glyph-name="OE" unicode="&#x152;" horiz-adv-x="1955" 
d="M1444 537v-160h450v-377h-860q-100 -33 -223 -33q-320 0 -541 215q-219 219 -219 535t219 532q220 217 541 217q126 0 223 -32h850v-373h-440v-156h389v-368h-389zM1034 412v610q-93 43 -223 43q-152 0 -252 -100q-98 -98 -98 -248q0 -149 98 -250q101 -98 252 -98
q130 0 223 43z" />
    <glyph glyph-name="oe" unicode="&#x153;" horiz-adv-x="1863" 
d="M1817 383h-680q49 -102 209 -102q94 0 174 65l247 -209q-153 -166 -434 -166q-240 0 -383 162q-137 -162 -383 -162q-237 0 -383 162q-147 163 -147 375q0 216 145 381q147 164 385 164q246 0 383 -162q149 162 389 162q211 0 353 -154q141 -153 141 -383q0 -64 -16 -133
zM1130 627h345q-35 123 -166 123q-133 0 -179 -123zM463 381q49 -49 125 -49q77 0 123 49q49 52 49 131q0 80 -49 129q-45 51 -123 51q-77 0 -125 -51q-47 -50 -47 -129q0 -78 47 -131z" />
    <glyph glyph-name="Racute" unicode="&#x154;" horiz-adv-x="1280" 
d="M532 1843h431l-238 -307h-356zM1280 2h-438l-228 451h-102v-451h-410v1434h574q234 0 389 -140q154 -139 154 -364q0 -126 -58.5 -228.5t-163.5 -166.5zM668 1059h-156v-266h156q66 -2 103.5 33t37.5 98t-37.5 99t-103.5 36z" />
    <glyph glyph-name="racute" unicode="&#x155;" horiz-adv-x="798" 
d="M332 1434h430l-238 -308h-356zM461 1024v-199q29 103 112 161t195 58v-409q-124 15 -215 -49q-92 -65 -92 -205v-381h-379v1024h379z" />
    <glyph glyph-name="Rcommaaccent" unicode="&#x156;" horiz-adv-x="1280" 
d="M614 453h-102v-451h-410v1434h574q234 0 389 -140q154 -139 154 -364q0 -126 -58.5 -228.5t-163.5 -166.5l283 -535h-438zM668 1059h-156v-266h156q66 -2 103.5 33t37.5 98t-37.5 99t-103.5 36zM766 -582h-287l21 471h348z" />
    <glyph glyph-name="rcommaaccent" unicode="&#x157;" horiz-adv-x="798" 
d="M461 1024v-199q29 103 112 161t195 58v-409q-124 15 -215 -49q-92 -65 -92 -205v-381h-379v1024h379zM352 -582h-286l20 471h348z" />
    <glyph glyph-name="Rcaron" unicode="&#x158;" horiz-adv-x="1280" 
d="M776 1516h-385l-217 327h318l92 -119l92 119h317zM1280 2h-438l-228 451h-102v-451h-410v1434h574q234 0 389 -140q154 -139 154 -364q0 -126 -58.5 -228.5t-163.5 -166.5zM668 1059h-156v-266h156q66 -2 103.5 33t37.5 98t-37.5 99t-103.5 36z" />
    <glyph glyph-name="rcaron" unicode="&#x159;" horiz-adv-x="798" 
d="M575 1106h-385l-217 328h318l92 -119l92 119h318zM461 1024v-199q29 103 112 161t195 58v-409q-124 15 -215 -49q-92 -65 -92 -205v-381h-379v1024h379z" />
    <glyph glyph-name="Sacute" unicode="&#x15a;" horiz-adv-x="1198" 
d="M360 1556l164 308h430l-237 -308h-357zM618 -33q260 0 410 120.5t150 338.5q0 214 -144 313q-69 49 -133 77.5t-172 60.5q-142 42 -186 63q-47 24 -47 70q0 34 28 54.5t80 20.5q138 0 197 -151l340 199q-67 159 -210 246t-329 87q-231 0 -375 -129q-141 -129 -141 -325
q0 -332 428 -461l80 -23q68 -19 74 -22q23 -7 51 -19q49 -20 49 -65q0 -74 -139 -74q-187 0 -258 182l-351 -202q55 -168 211.5 -264.5t386.5 -96.5z" />
    <glyph glyph-name="sacute" unicode="&#x15b;" horiz-adv-x="991" 
d="M428 1454h430l-237 -307h-357zM449 723q0 -19 22 -31.5t58 -19t82 -16.5t94 -21t94 -35.5t82 -57.5t58 -88.5t22 -127.5q0 -96 -43 -170.5t-117 -112.5q-141 -72 -301 -72q-372 0 -480 244l330 147q40 -104 146 -104q69 0 69 45q0 23 -40.5 38.5t-128.5 36.5q-3 1 -5 1
q-47 11 -86.5 24.5t-85 39t-76.5 58.5t-51.5 84.5t-19.5 114.5q0 169 127 261q130 92 297 92q336 0 444 -260l-313 -113q-38 86 -115 86q-63 0 -63 -43z" />
    <glyph glyph-name="Scedilla" unicode="&#x15e;" horiz-adv-x="1198" 
d="M1178 426q0 -181 -103.5 -294.5t-294.5 -149.5v-76q109 -47 109 -158q0 -116 -126 -170t-376 -41v234q195 -15 195 28q0 32 -109 41v137q-172 29 -290 121.5t-163 229.5l351 202q71 -182 258 -182q139 0 139 74q0 45 -49 65q-28 12 -51 19q-6 3 -74 22l-80 23
q-428 129 -428 461q0 196 141 325q144 129 375 129q186 0 329 -87t210 -246l-340 -199q-59 151 -197 151q-52 0 -80 -20.5t-28 -54.5q0 -46 47 -70q44 -21 186 -63q108 -32 172 -60.5t133 -77.5q144 -99 144 -313z" />
    <glyph glyph-name="scedilla" unicode="&#x15f;" horiz-adv-x="991" 
d="M961 326q0 -258 -283 -332v-88q108 -46 108 -158q0 -117 -125.5 -170.5t-375.5 -40.5v234q194 -15 194 28q0 32 -108 41v140q-264 35 -351 235l330 147q40 -104 146 -104q69 0 69 45q0 23 -40.5 38.5t-128.5 36.5q-3 1 -5 1q-47 11 -86.5 24.5t-85 39t-76.5 58.5
t-51.5 84.5t-19.5 114.5q0 169 127 261q130 92 297 92q336 0 444 -260l-313 -113q-38 86 -115 86q-63 0 -63 -43q0 -19 22 -31.5t58 -19t82 -16.5t94 -21t94 -35.5t82 -57.5t58 -88.5t22 -127.5z" />
    <glyph glyph-name="Scaron" unicode="&#x160;" horiz-adv-x="1198" 
d="M768 1536h-385l-217 328h317l92 -119l93 119h317zM729 877q108 -32 172 -60.5t133 -77.5q144 -99 144 -313q0 -218 -150 -338.5t-410 -120.5q-230 0 -386.5 96.5t-211.5 264.5l351 202q71 -182 258 -182q139 0 139 74q0 45 -49 65q-28 12 -51 19q-6 3 -74 22l-80 23
q-428 129 -428 461q0 196 141 325q144 129 375 129q186 0 329 -87t210 -246l-340 -199q-59 151 -197 151q-52 0 -80 -20.5t-28 -54.5q0 -46 47 -70q44 -21 186 -63z" />
    <glyph glyph-name="scaron" unicode="&#x161;" horiz-adv-x="991" 
d="M672 1126h-385l-217 328h317l92 -119l92 119h318zM449 723q0 -19 22 -31.5t58 -19t82 -16.5t94 -21t94 -35.5t82 -57.5t58 -88.5t22 -127.5q0 -96 -43 -170.5t-117 -112.5q-141 -72 -301 -72q-372 0 -480 244l330 147q40 -104 146 -104q69 0 69 45q0 23 -40.5 38.5
t-128.5 36.5q-3 1 -5 1q-47 11 -86.5 24.5t-85 39t-76.5 58.5t-51.5 84.5t-19.5 114.5q0 169 127 261q130 92 297 92q336 0 444 -260l-313 -113q-38 86 -115 86q-63 0 -63 -43z" />
    <glyph glyph-name="uni0162" unicode="&#x162;" horiz-adv-x="1126" 
d="M20 1434h1086v-398h-338v-1036h-410v1036h-338v398zM649 -582h-287l21 471h348z" />
    <glyph glyph-name="uni0163" unicode="&#x163;" horiz-adv-x="819" 
d="M758 1024v-360h-215v-222q0 -51 25 -75.5t72.5 -27.5t117.5 1v-340q-319 -44 -456.5 55.5t-137.5 366.5v242h-144v360h144v174l379 113v-287h215zM571 -561h-286l20 471h348z" />
    <glyph glyph-name="Tcaron" unicode="&#x164;" horiz-adv-x="1126" 
d="M745 1516h-385l-217 327h318l92 -119l92 119h318zM20 1434h1086v-398h-338v-1036h-410v1036h-338v398z" />
    <glyph glyph-name="tcaron" unicode="&#x165;" horiz-adv-x="913" 
d="M606 1090l21 389h327l-82 -389h-266zM164 1198l379 113v-287h215v-360h-215v-222q0 -51 25 -75.5t72.5 -27.5t117.5 1v-340q-319 -44 -456.5 55.5t-137.5 366.5v242h-144v360h144v174z" />
    <glyph glyph-name="Tbar" unicode="&#x166;" horiz-adv-x="1126" 
d="M1106 1434v-398h-338v-192h205v-357h-205v-487h-410v487h-204v357h204v192h-338v398h1086z" />
    <glyph glyph-name="tbar" unicode="&#x167;" horiz-adv-x="819" 
d="M758 1024v-299h-215v-70h143v-245h-141q12 -49 58 -62.5t155 -7.5v-340q-213 -30 -342 4t-189 132.5t-63 273.5h-92v245h92v70h-144v299h144v174l379 113v-287h215z" />
    <glyph glyph-name="Utilde" unicode="&#x168;" horiz-adv-x="1331" 
d="M82 479v955h410v-910q0 -159 174 -159t174 159v910h409v-955q0 -230 -162 -370q-165 -142 -421 -142q-257 0 -422 142q-162 140 -162 370zM545 1522h-246q0 99 23.5 170.5t61 108t87.5 51.5t100.5 9.5t102.5 -26.5q12 -5 30 -13.5t28 -13t22.5 -6.5t18.5 3.5t10.5 19.5
t4.5 39h246q0 -122 -34 -204t-93 -112q-112 -52 -250 2q-11 5 -29 14t-27.5 13.5t-22 6.5t-18.5 -3t-10.5 -19.5t-4.5 -39.5z" />
    <glyph glyph-name="utilde" unicode="&#x169;" horiz-adv-x="1177" 
d="M717 498v526h379v-1024h-379v100q-95 -129 -275 -129q-171 0 -270.5 118.5t-99.5 342.5v592h379v-551q0 -137 127 -137q67 0 103 43t36 119zM463 1112h-246q0 99 23.5 170.5t61 108t87.5 51.5t100.5 9.5t102.5 -26.5q11 -5 30 -13.5t28.5 -13t22 -6.5t19 3.5t11 19.5
t4.5 39h245q0 -122 -34 -203.5t-93 -111.5q-112 -52 -250 2q-11 5 -29 13.5t-27.5 13t-22 7t-18.5 -3t-10.5 -20t-4.5 -39.5z" />
    <glyph glyph-name="Umacron" unicode="&#x16a;" horiz-adv-x="1331" 
d="M993 1534h-655v287h655v-287zM82 479v955h410v-910q0 -159 174 -159t174 159v910h409v-955q0 -230 -162 -370q-165 -142 -421 -142q-257 0 -422 142q-162 140 -162 370z" />
    <glyph glyph-name="umacron" unicode="&#x16b;" horiz-adv-x="1177" 
d="M256 1411h655v-287h-655v287zM717 498v526h379v-1024h-379v100q-95 -129 -275 -129q-171 0 -270.5 118.5t-99.5 342.5v592h379v-551q0 -137 127 -137q67 0 103 43t36 119z" />
    <glyph glyph-name="Uring" unicode="&#x16e;" horiz-adv-x="1331" 
d="M666 1454q-135 0 -220 82q-86 83 -86 205t86 205q85 82 220 82q136 0 220.5 -81t84.5 -206t-84.5 -206t-220.5 -81zM666 1679q65 0 65 62q0 61 -65 61q-40 0 -56 -31t0 -61.5t56 -30.5zM82 479v955h410v-910q0 -159 174 -159t174 159v910h409v-955q0 -230 -162 -370
q-165 -142 -421 -142q-257 0 -422 142q-162 140 -162 370z" />
    <glyph glyph-name="uring" unicode="&#x16f;" horiz-adv-x="1177" 
d="M584 1085q-134 0 -219 82q-86 83 -86 205t86 205q85 82 219 82q136 0 220.5 -81t84.5 -206t-84.5 -206t-220.5 -81zM584 1434q-40 0 -56 -31t0 -61.5t56 -30.5q65 0 65 61q0 62 -65 62zM717 498v526h379v-1024h-379v100q-95 -129 -275 -129q-171 0 -270.5 118.5
t-99.5 342.5v592h379v-551q0 -137 127 -137q67 0 103 43t36 119z" />
    <glyph glyph-name="Uhungarumlaut" unicode="&#x170;" horiz-adv-x="1331" 
d="M236 1516l163 327h357l-176 -327h-344zM651 1516l185 327h356l-197 -327h-344zM82 479q0 -230 162 -370q165 -142 422 -142q256 0 421 142q162 140 162 370v955h-409v-910q0 -159 -174 -159t-174 159v910h-410v-955z" />
    <glyph glyph-name="uhungarumlaut" unicode="&#x171;" horiz-adv-x="1177" 
d="M317 1434h357l-176 -328h-344zM1110 1434l-197 -328h-344l185 328h356zM717 498v526h379v-1024h-379v100q-95 -129 -275 -129q-171 0 -270.5 118.5t-99.5 342.5v592h379v-551q0 -137 127 -137q67 0 103 43t36 119z" />
    <glyph glyph-name="Uogonek" unicode="&#x172;" horiz-adv-x="1331" 
d="M840 524v910h409v-955q0 -243 -182 -387q-98 -86 -136 -137t-38 -100q0 -39 43 -39q21 0 39 6v-225q-87 -35 -180 -35q-102 0 -164 48t-62 138q0 103 93 219q-256 3 -420 144q-160 142 -160 368v955h410v-910q0 -159 174 -159t174 159z" />
    <glyph glyph-name="uogonek" unicode="&#x173;" horiz-adv-x="1177" 
d="M717 1024h379v-1024q-82 -82 -82 -145q0 -39 43 -39q21 0 39 6v-225q-87 -35 -181 -35q-102 0 -163.5 48t-61.5 138q0 125 121 252h-94v100q-95 -129 -275 -129q-171 0 -270.5 118.5t-99.5 342.5v592h379v-551q0 -137 127 -137q67 0 103 43t36 119v526z" />
    <glyph glyph-name="Wcircumflex" unicode="&#x174;" horiz-adv-x="2068" 
d="M1167 1516l-92 118l-92 -118h-317l217 327h385l217 -327h-318zM1423 645l195 789h450l-405 -1434h-403l-226 766l-225 -766h-403l-406 1434h451l194 -789l232 789h315z" />
    <glyph glyph-name="wcircumflex" unicode="&#x175;" horiz-adv-x="1699" 
d="M932 1106l-92 119l-92 -119h-318l217 328h385l217 -328h-317zM1141 457l119 567h399l-297 -1024h-385l-127 481l-127 -481h-385l-297 1024h399l119 -567l148 567h286z" />
    <glyph glyph-name="Ycircumflex" unicode="&#x176;" horiz-adv-x="1380" 
d="M772 1516l-92 118l-92 -118h-318l217 327h385l218 -327h-318zM926 1434h454l-485 -889v-545h-410v545l-485 889h455l235 -504z" />
    <glyph glyph-name="ycircumflex" unicode="&#x177;" horiz-adv-x="1167" 
d="M678 1106l-92 119l-92 -119h-318l217 328h385l217 -328h-317zM612 477l125 547h430l-348 -1022q-75 -223 -234.5 -323t-422.5 -89v359q106 0 161 15t87 56l-410 1004h430z" />
    <glyph glyph-name="Ydieresis" unicode="&#x178;" horiz-adv-x="1380" 
d="M608 1546q-51 -51 -123 -51t-123 51t-51 123t51 123t123 51t123 -51t51 -123t-51 -123zM1018 1546q-51 -51 -123 -51t-123 51t-51 123t51 123t123 51t123 -51t51 -123t-51 -123zM926 1434h454l-485 -889v-545h-410v545l-485 889h455l235 -504z" />
    <glyph glyph-name="Zacute" unicode="&#x179;" horiz-adv-x="1116" 
d="M514 1843h430l-237 -307h-357zM1055 1118l-457 -721h477v-397h-1014v315l457 721h-446v398h983v-316z" />
    <glyph glyph-name="zacute" unicode="&#x17a;" horiz-adv-x="1013" 
d="M451 1434h430l-238 -308h-356zM922 758l-336 -410h356v-348h-860v266l336 410h-316v348h820v-266z" />
    <glyph glyph-name="Zdotaccent" unicode="&#x17b;" horiz-adv-x="1116" 
d="M713 1573q-57 -57 -137.5 -57t-137.5 57t-57 137t57 137t137.5 57t137.5 -57t57 -137t-57 -137zM1055 1118l-457 -721h477v-397h-1014v315l457 721h-446v398h983v-316z" />
    <glyph glyph-name="zdotaccent" unicode="&#x17c;" horiz-adv-x="1013" 
d="M649 1163q-57 -57 -137 -57t-137 57t-57 137.5t57 137.5t137 57t137 -57t57 -137.5t-57 -137.5zM922 758l-336 -410h356v-348h-860v266l336 410h-316v348h820v-266z" />
    <glyph glyph-name="Zcaron" unicode="&#x17d;" horiz-adv-x="1116" 
d="M758 1516h-385l-217 327h317l92 -119l92 119h318zM1055 1118l-457 -721h477v-397h-1014v315l457 721h-446v398h983v-316z" />
    <glyph glyph-name="zcaron" unicode="&#x17e;" horiz-adv-x="1013" 
d="M694 1106h-385l-217 328h318l92 -119l92 119h317zM922 758l-336 -410h356v-348h-860v266l336 410h-316v348h820v-266z" />
    <glyph glyph-name="florin" unicode="&#x192;" horiz-adv-x="987" 
d="M346 897l35 205q16 93 56.5 164.5t98 113.5t130 65.5t153.5 21.5t168 -19v-369q-70 30 -131 -1t-74 -105l-12 -76h133v-360h-194l-103 -598q-16 -93 -56.5 -164.5t-98 -113.5t-130 -66t-153.5 -22t-168 19v369q70 -30 131 1.5t74 105.5l80 469h-119v360h180z" />
    <glyph glyph-name="Ohorn" unicode="&#x1a0;" horiz-adv-x="1622" 
d="M1350 182q-218 -215 -539 -215q-320 0 -541 215q-219 219 -219 535t219 532q220 217 541 217q116 0 231 -32h119q64 0 84.5 27.5t20.5 99.5v24h290v-24q0 -142 -37.5 -223t-142.5 -115q195 -210 195 -506q0 -317 -221 -535zM559 467q101 -98 252 -98q152 0 250 98
q100 100 100 250q0 151 -100 248q-97 100 -250 100q-152 0 -252 -100q-98 -98 -98 -248q0 -149 98 -250z" />
    <glyph glyph-name="ohorn" unicode="&#x1a1;" horiz-adv-x="1175" 
d="M588 -29q-228 0 -391 156q-160 157 -160 385t160 385q159 156 391 156q94 0 186 -29h35q64 0 84 27.5t20 99.5v25h291v-25q0 -135 -34 -215t-126 -117q95 -137 95 -307q0 -228 -160 -385q-159 -156 -391 -156zM463 381q49 -49 125 -49q77 0 123 49q49 52 49 131
q0 80 -49 129q-45 51 -123 51q-77 0 -125 -51q-47 -50 -47 -129q0 -78 47 -131z" />
    <glyph glyph-name="Uhorn" unicode="&#x1af;" horiz-adv-x="1374" 
d="M82 479v955h410v-910q0 -159 174 -159t174 159v910h247q57 1 75 29.5t18 97.5v24h290v-24q0 -76 -8.5 -129t-32 -100t-68 -77t-112.5 -45v-731q0 -230 -162 -370q-165 -142 -421 -142q-257 0 -422 142q-162 140 -162 370z" />
    <glyph glyph-name="uhorn" unicode="&#x1b0;" horiz-adv-x="1220" 
d="M717 498v526h190q64 0 84.5 27.5t20.5 99.5v25h291v-25q0 -73 -8.5 -125.5t-30.5 -98.5t-63.5 -76t-104.5 -46v-805h-379v100q-95 -129 -275 -129q-171 0 -270.5 118.5t-99.5 342.5v592h379v-551q0 -137 127 -137q67 0 103 43t36 119z" />
    <glyph glyph-name="Scommaaccent" unicode="&#x218;" horiz-adv-x="1198" 
d="M618 -33q-230 0 -386.5 96.5t-211.5 264.5l351 202q71 -182 258 -182q139 0 139 74q0 45 -49 65q-28 12 -51 19q-6 3 -74 22l-80 23q-428 129 -428 461q0 196 141 325q144 129 375 129q186 0 329 -87t210 -246l-340 -199q-59 151 -197 151q-52 0 -80 -20.5t-28 -54.5
q0 -46 47 -70q44 -21 186 -63q108 -32 172 -60.5t133 -77.5q144 -99 144 -313q0 -218 -150 -338.5t-410 -120.5zM743 -582h-286l20 471h348z" />
    <glyph glyph-name="scommaaccent" unicode="&#x219;" horiz-adv-x="991" 
d="M449 723q0 -19 22 -31.5t58 -19t82 -16.5t94 -21t94 -35.5t82 -57.5t58 -88.5t22 -127.5q0 -96 -43 -170.5t-117 -112.5q-141 -72 -301 -72q-372 0 -480 244l330 147q40 -104 146 -104q69 0 69 45q0 23 -40.5 38.5t-128.5 36.5q-3 1 -5 1q-47 11 -86.5 24.5t-85 39
t-76.5 58.5t-51.5 84.5t-19.5 114.5q0 169 127 261q130 92 297 92q336 0 444 -260l-313 -113q-38 86 -115 86q-63 0 -63 -43zM641 -582h-287l21 471h348z" />
    <glyph glyph-name="uni021A" unicode="&#x21a;" horiz-adv-x="1126" 
d="M20 1434h1086v-398h-338v-1036h-410v1036h-338v398zM649 -582h-287l21 471h348z" />
    <glyph glyph-name="uni021B" unicode="&#x21b;" horiz-adv-x="819" 
d="M758 1024v-360h-215v-222q0 -51 25 -75.5t72.5 -27.5t117.5 1v-340q-319 -44 -456.5 55.5t-137.5 366.5v242h-144v360h144v174l379 113v-287h215zM571 -561h-286l20 471h348z" />
    <glyph glyph-name="circumflex" unicode="&#x2c6;" horiz-adv-x="901" 
d="M643 1434l217 -328h-317l-92 119l-93 -119h-317l217 328h385z" />
    <glyph glyph-name="caron" unicode="&#x2c7;" horiz-adv-x="901" 
d="M451 1315l92 119h317l-217 -328h-385l-217 328h317z" />
    <glyph glyph-name="breve" unicode="&#x2d8;" horiz-adv-x="839" 
d="M41 1438h307q0 -82 72 -82t72 82h307q0 -171 -97.5 -259.5t-281.5 -88.5t-281.5 88.5t-97.5 259.5z" />
    <glyph glyph-name="dotaccent" unicode="&#x2d9;" horiz-adv-x="471" 
d="M373 1163q-57 -57 -137.5 -57t-137.5 57t-57 137.5t57 137.5t137.5 57t137.5 -57t57 -137.5t-57 -137.5z" />
    <glyph glyph-name="ring" unicode="&#x2da;" horiz-adv-x="692" 
d="M346 1085q-134 0 -219 82q-86 83 -86 205t86 205q85 82 219 82q136 0 220.5 -81t84.5 -206t-84.5 -206t-220.5 -81zM346 1311q66 0 66 61q0 62 -66 62q-40 0 -56 -31t0 -61.5t56 -30.5z" />
    <glyph glyph-name="ogonek" unicode="&#x2db;" horiz-adv-x="487" 
d="M266 -438q-102 0 -163.5 48t-61.5 138q0 125 121 252h284q-81 -81 -81 -145q0 -39 43 -39q20 0 38 6v-225q-87 -35 -180 -35z" />
    <glyph glyph-name="tilde" unicode="&#x2dc;" horiz-adv-x="817" 
d="M287 1112h-246q0 99 23.5 170.5t61 108t87.5 51.5t100.5 9.5t102.5 -26.5q12 -5 30 -13.5t28 -13t22.5 -6.5t18.5 3.5t10.5 19.5t4.5 39h246q0 -122 -34 -203.5t-93 -111.5q-112 -52 -250 2q-11 5 -29 13.5t-27.5 13t-22 7t-18.5 -3t-10.5 -20t-4.5 -39.5z" />
    <glyph glyph-name="hungarumlaut" unicode="&#x2dd;" horiz-adv-x="1038" 
d="M41 1106l164 328h356l-176 -328h-344zM457 1106l184 328h356l-196 -328h-344z" />
    <glyph glyph-name="gravecomb" unicode="&#x300;" horiz-adv-x="0" 
d="M-41 1126h-356l-238 308h430z" />
    <glyph glyph-name="acutecomb" unicode="&#x301;" horiz-adv-x="0" 
d="M-573 1126l163 308h430l-237 -308h-356z" />
    <glyph glyph-name="uni0302" unicode="&#x302;" horiz-adv-x="0" 
d="M-258 1434l217 -328h-317l-93 119l-92 -119h-317l217 328h385z" />
    <glyph glyph-name="tildecomb" unicode="&#x303;" horiz-adv-x="0" 
d="M-530 1112h-246q0 99 23.5 170.5t61 108t87.5 51.5t100.5 9.5t102.5 -26.5q12 -5 30 -13.5t28 -13t22.5 -6.5t18.5 3.5t10.5 19.5t4.5 39h246q0 -122 -34 -203.5t-93 -111.5q-112 -52 -250 2q-11 5 -29 13.5t-27.5 13t-22 7t-18.5 -3t-10.5 -20t-4.5 -39.5z" />
    <glyph glyph-name="uni0304" unicode="&#x304;" horiz-adv-x="0" 
d="M-41 1124h-655v287h655v-287z" />
    <glyph glyph-name="uni0306" unicode="&#x306;" horiz-adv-x="0" 
d="M-819 1438h307q0 -82 72 -82q71 0 71 82h308q0 -171 -97.5 -259.5t-281.5 -88.5t-281.5 88.5t-97.5 259.5z" />
    <glyph glyph-name="uni0307" unicode="&#x307;" horiz-adv-x="0" 
d="M-98 1163q-57 -57 -137.5 -57t-137.5 57t-57 137.5t57 137.5t137.5 57t137.5 -57t57 -137.5t-57 -137.5z" />
    <glyph glyph-name="uni0308" unicode="&#x308;" horiz-adv-x="0" 
d="M-502 1137q-51 -51 -123 -51t-123 51t-51 122.5t51 122.5t123 51t123 -51t51 -122.5t-51 -122.5zM-92 1137q-51 -51 -123 -51t-123 51t-51 122.5t51 122.5t123 51t123 -51t51 -122.5t-51 -122.5z" />
    <glyph glyph-name="uni030A" unicode="&#x30a;" horiz-adv-x="0" 
d="M-346 1085q-134 0 -219 82q-86 83 -86 205t86 205q85 82 219 82q136 0 220.5 -81t84.5 -206t-84.5 -206t-220.5 -81zM-346 1311q65 0 65 61q0 62 -65 62q-40 0 -56 -31t0 -61.5t56 -30.5z" />
    <glyph glyph-name="uni030B" unicode="&#x30b;" horiz-adv-x="0" 
d="M-997 1106l163 328h357l-176 -328h-344zM-582 1106l185 328h356l-197 -328h-344z" />
    <glyph glyph-name="uni030C" unicode="&#x30c;" horiz-adv-x="0" 
d="M-451 1315l93 119h317l-217 -328h-385l-217 328h317z" />
    <glyph glyph-name="uni0312" unicode="&#x312;" horiz-adv-x="0" 
d="M-328 2028h287l-20 -472h-349z" />
    <glyph glyph-name="uni0326" unicode="&#x326;" horiz-adv-x="0" 
d="M-123 -582h-287l21 471h348z" />
    <glyph glyph-name="uni0327" unicode="&#x327;" horiz-adv-x="0" 
d="M-150 0v-94q109 -47 109 -158q0 -116 -126 -170t-376 -41v234q195 -15 195 28q0 32 -109 41v160h307z" />
    <glyph glyph-name="uni0328" unicode="&#x328;" horiz-adv-x="0" 
d="M-221 -438q-102 0 -163.5 48t-61.5 138q0 126 120 252h285q-82 -82 -82 -145q0 -39 43 -39q21 0 39 6v-225q-87 -35 -180 -35z" />
    <glyph glyph-name="uni0394" unicode="&#x394;" 
d="M446 1434h459l467 -1434h-1392zM676 952l-168 -624h336z" />
    <glyph glyph-name="uni03A9" unicode="&#x3a9;" horiz-adv-x="1601" 
d="M1561 758q0 -222 -144 -381h111v-377h-582v397q95 42 150 127t55 193q0 151 -100 248q-97 100 -250 100q-152 0 -252 -100q-98 -98 -98 -248q0 -108 55 -193t149 -127v-397h-581v377h110q-143 158 -143 381q0 314 217 510q216 198 543 198q324 0 540 -198
q220 -199 220 -510z" />
    <glyph glyph-name="pi" unicode="&#x3c0;" horiz-adv-x="1331" 
d="M20 1024h1291v-360h-144v-664h-379v664h-245v-664h-379v664h-144v360z" />
    <glyph glyph-name="uni0401" unicode="&#x401;" horiz-adv-x="1105" 
d="M487 1546q-51 -51 -122.5 -51t-122.5 51t-51 123t51 123t122.5 51t122.5 -51t51 -123t-51 -123zM897 1546q-51 -51 -123 -51t-123 51t-51 123t51 123t123 51t123 -51t51 -123t-51 -123zM512 537v-160h532v-377h-942v1434h932v-373h-522v-156h471v-368h-471z" />
    <glyph glyph-name="uni0402" unicode="&#x402;" horiz-adv-x="1443" 
d="M1012 889q174 0 267 -101.5t93 -298.5v-79q0 -241 -120 -349t-371 -94v350q50 -6 71 16t21 77v28q0 86 -92 86q-62 0 -133 -24v-500h-410v1036h-318v398h1086v-398h-358v-182q152 35 264 35z" />
    <glyph glyph-name="uni0403" unicode="&#x403;" horiz-adv-x="983" 
d="M442 1841h430l-237 -307h-356zM102 1434h881v-398h-471v-1036h-410v1434z" />
    <glyph glyph-name="uni0404" unicode="&#x404;" horiz-adv-x="1470" 
d="M791 358q96 0 170.5 44t111.5 120l357 -205q-92 -161 -261.5 -255.5t-367.5 -94.5q-328 0 -541 213q-209 215 -209 537t209 534q212 215 541 215q192 0 364 -96q170 -95 265 -252l-357 -205q-37 73 -113 117.5t-169 44.5q-214 0 -299 -174h432v-369h-432
q85 -174 299 -174z" />
    <glyph glyph-name="uni0405" unicode="&#x405;" horiz-adv-x="1198" 
d="M618 -33q-230 0 -386.5 96.5t-211.5 264.5l351 202q71 -182 258 -182q139 0 139 74q0 45 -49 65q-28 12 -51 19q-6 3 -74 22l-80 23q-428 129 -428 461q0 196 141 325q144 129 375 129q186 0 329 -87t210 -246l-340 -199q-59 151 -197 151q-52 0 -80 -20.5t-28 -54.5
q0 -46 47 -70q44 -21 186 -63q108 -32 172 -60.5t133 -77.5q144 -99 144 -313q0 -218 -150 -338.5t-410 -120.5z" />
    <glyph glyph-name="uni0406" unicode="&#x406;" horiz-adv-x="614" 
d="M102 0v1434h410v-1434h-410z" />
    <glyph glyph-name="uni0407" unicode="&#x407;" horiz-adv-x="614" 
d="M225 1546q-51 -51 -122.5 -51t-122.5 51t-51 123t51 123t122.5 51t122.5 -51t51 -123t-51 -123zM635 1546q-51 -51 -123 -51t-123 51t-51 123t51 123t123 51t123 -51t51 -123t-51 -123zM102 0v1434h410v-1434h-410z" />
    <glyph glyph-name="uni0408" unicode="&#x408;" horiz-adv-x="1161" 
d="M547 -33q-362 0 -506 295l344 203q49 -100 160 -100q125 0 125 116v953h409v-963q0 -236 -140 -370t-392 -134z" />
    <glyph glyph-name="uni0409" unicode="&#x409;" horiz-adv-x="1894" 
d="M1229 985h123q214 0 368 -133t154 -360q0 -230 -154 -363q-152 -131 -368 -131h-410v2h-123v1036h-213v-504q0 -168 -49 -284t-141 -172q-170 -104 -416 -80v381q111 -6 154 36.5t43 168.5v852h1032v-449zM1229 395h123q112 0 112 97q0 96 -112 96h-123v-193z" />
    <glyph glyph-name="uni040A" unicode="&#x40a;" horiz-adv-x="1914" 
d="M1249 987h123q215 0 369 -133q153 -132 153 -360q0 -231 -153 -363q-152 -131 -369 -131h-532v590h-328v-590h-410v1434h410v-447h328v447h409v-447zM1249 397h123q113 0 113 97q0 96 -113 96h-123v-193z" />
    <glyph glyph-name="uni040B" unicode="&#x40b;" horiz-adv-x="1454" 
d="M1012 909q175 0 267.5 -101t92.5 -298v-510h-399v459q0 86 -92 86q-60 0 -133 -25v-520h-410v1036h-318v398h1086v-398h-358v-162q152 35 264 35z" />
    <glyph glyph-name="uni040C" unicode="&#x40c;" horiz-adv-x="1302" 
d="M586 1841h430l-238 -307h-356zM877 737l446 -737h-455l-356 614v-614h-410v1434h410v-574l336 574h455z" />
    <glyph glyph-name="uni040E" unicode="&#x40e;" horiz-adv-x="1331" 
d="M328 1839h716v-307h-716v307zM698 889l203 545h430l-413 -971q-105 -245 -273.5 -359t-431.5 -104v381q187 -15 283 72l-476 981h431z" />
    <glyph glyph-name="uni040F" unicode="&#x40f;" horiz-adv-x="1331" 
d="M819 397v1037h410v-1434h-359v-274h-409v274h-359v1434h410v-1037h307z" />
    <glyph glyph-name="uni0410" unicode="&#x410;" 
d="M1372 0h-440l-49 184h-414l-49 -184h-440l456 1434h479zM676 952l-119 -440h238z" />
    <glyph glyph-name="uni0411" unicode="&#x411;" horiz-adv-x="1228" 
d="M512 909h225q218 0 344.5 -121.5t126.5 -326.5q0 -207 -127 -334t-344 -127h-635v1434h983v-398h-573v-127zM512 369h195q57 -7 81 42.5t0 99t-81 42.5h-195v-184z" />
    <glyph glyph-name="uni0412" unicode="&#x412;" horiz-adv-x="1239" 
d="M1024 739q184 -105 184 -317q0 -199 -128.5 -310.5t-370.5 -111.5h-607v1434h570q241 0 368 -104t127 -300q0 -187 -143 -291zM647 1081h-135v-192l158 2q88 12 88 94q0 45 -32 70.5t-79 25.5zM512 352h172q49 0 82 29.5t33 73.5q0 85 -92 100l-195 2v-205z" />
    <glyph glyph-name="uni0413" unicode="&#x413;" horiz-adv-x="983" 
d="M102 1434h881v-398h-471v-1036h-410v1434z" />
    <glyph glyph-name="uni0414" unicode="&#x414;" horiz-adv-x="1464" 
d="M1290 1434v-1037h154v-671h-410v274h-614v-274h-410v671h152q86 157 86 434v603h1042zM586 397h295v660h-224v-230q0 -265 -71 -430z" />
    <glyph glyph-name="uni0415" unicode="&#x415;" horiz-adv-x="1105" 
d="M512 537v-160h532v-377h-942v1434h932v-373h-522v-156h471v-368h-471z" />
    <glyph glyph-name="uni0416" unicode="&#x416;" horiz-adv-x="1908" 
d="M1513 721l396 -721h-455l-295 610v-610h-409v610l-295 -610h-455l395 721l-375 713h455l275 -605v605h409v-605l275 605h454z" />
    <glyph glyph-name="uni0417" unicode="&#x417;" horiz-adv-x="1148" 
d="M926 735q192 -107 192 -334q0 -194 -145 -315q-143 -119 -400 -119q-218 0 -359.5 87.5t-203.5 242.5l346 203q64 -144 217 -144q136 0 136 99q0 83 -103 92l-217 2v348l170 2q107 6 107 92q0 94 -125 94q-134 0 -181 -127l-340 199q60 145 204.5 227t326.5 82
q235 0 379 -120q145 -121 145 -316q0 -194 -149 -295z" />
    <glyph glyph-name="uni0418" unicode="&#x418;" horiz-adv-x="1392" 
d="M1290 0h-409v655l-451 -655h-328v1434h410v-656l451 656h327v-1434z" />
    <glyph glyph-name="uni0419" unicode="&#x419;" horiz-adv-x="1392" 
d="M1055 1534h-717v307h717v-307zM1290 0h-409v655l-451 -655h-328v1434h410v-656l451 656h327v-1434z" />
    <glyph glyph-name="uni041A" unicode="&#x41a;" horiz-adv-x="1302" 
d="M877 737l446 -737h-455l-356 614v-614h-410v1434h410v-574l336 574h455z" />
    <glyph glyph-name="uni041B" unicode="&#x41b;" 
d="M0 0v381q111 -11 154 31.5t43 169.5v852h1052v-1434h-409v1036h-234v-504q0 -168 -49 -284t-141 -172q-164 -101 -416 -76z" />
    <glyph glyph-name="uni041C" unicode="&#x41c;" horiz-adv-x="1699" 
d="M1188 1434h409v-1434h-409v698l-320 -536h-37l-319 536v-698h-410v1434h410l338 -584z" />
    <glyph glyph-name="uni041D" unicode="&#x41d;" horiz-adv-x="1372" 
d="M860 926v508h410v-1434h-410v528h-348v-528h-410v1434h410v-508h348z" />
    <glyph glyph-name="uni041E" unicode="&#x41e;" horiz-adv-x="1622" 
d="M1350 182q-218 -215 -539 -215q-320 0 -541 215q-219 219 -219 535t219 532q220 217 541 217q322 0 539 -217q221 -215 221 -532t-221 -535zM559 467q101 -98 252 -98q152 0 250 98q100 100 100 250q0 151 -100 248q-97 100 -250 100q-152 0 -252 -100q-98 -98 -98 -248
q0 -149 98 -250z" />
    <glyph glyph-name="uni041F" unicode="&#x41f;" horiz-adv-x="1331" 
d="M102 1434h1127v-1434h-410v1036h-307v-1036h-410v1434z" />
    <glyph glyph-name="uni0420" unicode="&#x420;" horiz-adv-x="1218" 
d="M102 1434h574q222 0 373 -142q149 -137 149 -372t-149 -375q-151 -139 -373 -139h-164v-406h-410v1434zM512 803h164q48 0 80 32t32 85t-32 84.5t-80 31.5h-164v-233z" />
    <glyph glyph-name="uni0421" unicode="&#x421;" horiz-adv-x="1470" 
d="M801 -33q-325 0 -537 215q-213 216 -213 535q0 318 213 534q212 215 537 215q197 0 366 -94t263 -254l-357 -205q-35 69 -108.5 110.5t-163.5 41.5q-152 0 -246 -98t-94 -250t94 -250t246 -98q92 0 164.5 40.5t107.5 112.5l357 -205q-94 -162 -262.5 -256t-366.5 -94z
" />
    <glyph glyph-name="uni0422" unicode="&#x422;" horiz-adv-x="1126" 
d="M20 1434h1086v-398h-338v-1036h-410v1036h-338v398z" />
    <glyph glyph-name="uni0423" unicode="&#x423;" horiz-adv-x="1331" 
d="M698 889l203 545h430l-413 -971q-105 -245 -273.5 -359t-431.5 -104v381q187 -15 283 72l-476 981h431z" />
    <glyph glyph-name="uni0424" unicode="&#x424;" horiz-adv-x="1728" 
d="M1059 131v-172h-389v172q-300 38 -464.5 192t-164.5 394t164.5 394t464.5 192v172h389v-172q300 -38 464.5 -192t164.5 -394t-164.5 -394t-464.5 -192zM451 717q0 -91 51.5 -141t167.5 -70v434q-115 -20 -167 -74t-52 -149zM1059 940v-434q116 20 167.5 70t51.5 141
q0 95 -52 149t-167 74z" />
    <glyph glyph-name="uni0425" unicode="&#x425;" horiz-adv-x="1320" 
d="M889 725l432 -725h-455l-204 344l-207 -344h-455l434 725l-424 709h455l197 -328l194 328h455z" />
    <glyph glyph-name="uni0426" unicode="&#x426;" horiz-adv-x="1464" 
d="M1270 1434v-1037h174v-671h-410v274h-932v1434h430v-1037h308v1037h430z" />
    <glyph glyph-name="uni0427" unicode="&#x427;" 
d="M840 838v596h409v-1434h-409v446q-111 -32 -244 -32q-240 0 -377 134.5t-137 373.5v512h410v-484q0 -65 41.5 -102t111.5 -37q101 0 195 27z" />
    <glyph glyph-name="uni0428" unicode="&#x428;" horiz-adv-x="1966" 
d="M1454 397v1037h410v-1434h-1762v1434h410v-1037h266v1037h410v-1037h266z" />
    <glyph glyph-name="uni0429" unicode="&#x429;" horiz-adv-x="2058" 
d="M1864 1434v-1037h174v-671h-410v274h-1526v1434h410v-1037h266v1037h410v-1037h266v1037h410z" />
    <glyph glyph-name="uni042A" unicode="&#x42a;" horiz-adv-x="1443" 
d="M901 -2h-573v1038h-328v398l737 -2v-406h164q223 0 373 -141q149 -137 149 -373q0 -235 -149 -375q-151 -139 -373 -139zM737 629v-234h164q48 0 80.5 32t32.5 85t-32.5 85t-80.5 32h-164z" />
    <glyph glyph-name="uni042B" unicode="&#x42b;" horiz-adv-x="1822" 
d="M676 -2h-574v1434h410v-406h164q223 0 373 -141q149 -137 149 -373q0 -235 -149 -375q-151 -139 -373 -139zM1720 -2h-409v1434h409v-1434zM512 629v-234h164q48 0 80 32t32 85t-32 85t-80 32h-164z" />
    <glyph glyph-name="uni042C" unicode="&#x42c;" horiz-adv-x="1218" 
d="M512 1028h164q223 0 373 -141q149 -137 149 -373q0 -235 -149 -375q-151 -139 -373 -139h-574v1434h410v-406zM512 397h164q48 0 80 32t32 85t-32 85t-80 32h-164v-234z" />
    <glyph glyph-name="uni042D" unicode="&#x42d;" horiz-adv-x="1470" 
d="M670 1466q329 0 538 -215q211 -211 211 -534t-211 -537q-210 -213 -538 -213q-198 0 -367.5 94.5t-261.5 255.5l356 205q37 -76 112 -120t171 -44q214 0 299 174h-432v369h432q-85 174 -299 174q-93 0 -169.5 -44.5t-113.5 -117.5l-356 205q97 160 262 252q172 96 367 96
z" />
    <glyph glyph-name="uni042E" unicode="&#x42e;" horiz-adv-x="2205" 
d="M1395 1466q321 0 538 -217q221 -215 221 -532t-221 -535q-218 -215 -538 -215q-265 0 -467 158q-195 158 -254 414h-162v-539h-410v1434h410v-498h174q65 240 258 383q194 147 451 147zM1143 467q101 -98 252 -98q152 0 250 98q100 100 100 250q0 151 -100 248
q-97 100 -250 100q-152 0 -252 -100q-99 -99 -99 -248q0 -148 99 -250z" />
    <glyph glyph-name="uni042F" unicode="&#x42f;" horiz-adv-x="1300" 
d="M625 1436h573v-1434h-410v451h-51l-266 -451h-451l318 516q-120 61 -188 168.5t-68 245.5q0 225 154 364q155 140 389 140zM788 1059h-155q-66 0 -103.5 -36t-37.5 -99t37.5 -98t103.5 -33h155v266z" />
    <glyph glyph-name="uni0430" unicode="&#x430;" horiz-adv-x="1241" 
d="M780 932v92h379v-1024h-379v92q-100 -121 -274 -121q-205 0 -338 154q-131 152 -131 387t131 387q133 154 338 154q174 0 274 -121zM465 375q53 -56 133 -56q81 0 131 56q51 55 51 136.5t-51 137.5q-50 56 -131 56q-80 0 -133 -56q-49 -55 -49 -137t49 -137z" />
    <glyph glyph-name="uni0431" unicode="&#x431;" horiz-adv-x="1171" 
d="M614 -33q-261 0 -417 156t-156 422q0 254 88.5 412.5t276.5 250.5q220 109 280 152q73 52 107 127l305 -174q-34 -110 -113 -174q-74 -60 -242 -129q-148 -60 -204 -99q-63 -41 -88 -94q100 80 247 80q187 0 318 -125q135 -123 135 -326q0 -208 -145 -344
q-144 -135 -392 -135zM606 285q72 0 119 44t47 111q0 69 -49 114.5t-121 45.5q-69 0 -118.5 -43.5t-49.5 -110.5q0 -71 49 -116t123 -45z" />
    <glyph glyph-name="uni0432" unicode="&#x432;" horiz-adv-x="1075" 
d="M895 522q149 -67 149 -223q0 -142 -94 -220.5t-274 -78.5h-594v1024h563q181 0 275 -78t94 -219q0 -135 -119 -205zM575 760h-124v-127h124q70 0 70 61q0 66 -70 66zM451 264h143q70 0 70 66q0 61 -70 61h-143v-127z" />
    <glyph glyph-name="uni0433" unicode="&#x433;" horiz-adv-x="860" 
d="M82 1024h758v-360h-379v-664h-379v1024z" />
    <glyph glyph-name="uni0434" unicode="&#x434;" horiz-adv-x="1228" 
d="M1075 1024v-664h133v-634h-358v274h-492v-274h-358v634h115q73 119 73 342v322h887zM502 360h205v328h-150q-3 -197 -55 -328z" />
    <glyph glyph-name="uni0435" unicode="&#x435;" horiz-adv-x="1146" 
d="M1100 383h-680q50 -102 209 -102q94 0 174 65l248 -209q-153 -166 -435 -166q-260 0 -421 152q-158 155 -158 385q0 233 153 389q156 156 392 156q232 0 383 -154q151 -151 151 -383q0 -64 -16 -133zM414 627h344q-34 123 -166 123t-178 -123z" />
    <glyph glyph-name="uni0436" unicode="&#x436;" horiz-adv-x="1615" 
d="M1321 512l295 -512h-414l-205 393v-393h-379v393l-204 -393h-414l295 512l-275 512h414l184 -383v383h379v-383l185 383h413z" />
    <glyph glyph-name="uni0437" unicode="&#x437;" horiz-adv-x="942" 
d="M754 524q157 -77 157 -245q0 -137 -123 -226q-121 -86 -319 -86q-169 0 -281 58t-178 190l285 166q49 -111 158 -111q31 0 54 15.5t23 40.5q0 55 -69 55h-103v274h103q20 0 35.5 16.5t15.5 37.5q0 57 -80 57q-93 0 -127 -104l-285 151q77 128 184 184t269 56
q178 0 291 -88q117 -89 117 -217q0 -153 -127 -224z" />
    <glyph glyph-name="uni0438" unicode="&#x438;" horiz-adv-x="1187" 
d="M451 584l350 440h305v-1024h-369v440l-350 -440h-305v1024h369v-440z" />
    <glyph glyph-name="uni0439" unicode="&#x439;" horiz-adv-x="1187" 
d="M952 1124h-716v308h716v-308zM451 584l350 440h305v-1024h-369v440l-350 -440h-305v1024h369v-440z" />
    <glyph glyph-name="uni043A" unicode="&#x43a;" horiz-adv-x="1126" 
d="M795 512l331 -512h-419l-246 410v-410h-379v1024h379v-397l215 397h430z" />
    <glyph glyph-name="uni043B" unicode="&#x43b;" horiz-adv-x="1191" 
d="M168 1024h942v-1024h-379v664h-184v-240q0 -251 -125.5 -352t-401.5 -72v348q75 -20 111.5 18t36.5 140v518z" />
    <glyph glyph-name="uni043C" unicode="&#x43c;" horiz-adv-x="1347" 
d="M897 1024h369v-1024h-369v451l-205 -318h-37l-204 318v-451h-369v1024h369l223 -348z" />
    <glyph glyph-name="uni043D" unicode="&#x43d;" horiz-adv-x="1167" 
d="M707 692v332h378v-1024h-378v332h-246v-332h-379v1024h379v-332h246z" />
    <glyph glyph-name="uni043E" unicode="&#x43e;" horiz-adv-x="1175" 
d="M588 -29q-228 0 -391 156q-160 157 -160 385t160 385q159 156 391 156t391 -156q160 -157 160 -385t-160 -385q-159 -156 -391 -156zM463 381q49 -49 125 -49q77 0 123 49q49 52 49 131q0 80 -49 129q-45 51 -123 51q-77 0 -125 -51q-47 -50 -47 -129q0 -78 47 -131z" />
    <glyph glyph-name="uni043F" unicode="&#x43f;" horiz-adv-x="1167" 
d="M82 1024h1003v-1024h-378v664h-246v-664h-379v1024z" />
    <glyph glyph-name="uni0440" unicode="&#x440;" horiz-adv-x="1241" 
d="M735 1053q205 0 338 -154q131 -152 131 -387t-131 -387q-133 -154 -338 -154q-174 0 -274 121v-502h-379v1434h379v-92q100 121 274 121zM510 375q53 -56 133 -56q81 0 131 56q51 55 51 136.5t-51 137.5q-50 56 -131 56q-80 0 -133 -56q-50 -55 -50 -137t50 -137z" />
    <glyph glyph-name="uni0441" unicode="&#x441;" horiz-adv-x="1075" 
d="M584 -29q-234 0 -391 154q-156 156 -156 387q0 232 156 385q156 156 391 156q151 0 277 -72.5t194 -196.5l-320 -182q-53 86 -151 86q-72 0 -120 -50.5t-48 -125.5t48 -125.5t120 -50.5q105 0 151 88l320 -184q-68 -125 -193.5 -197t-277.5 -72z" />
    <glyph glyph-name="uni0442" unicode="&#x442;" horiz-adv-x="962" 
d="M10 1024h942v-360h-278v-664h-381v664h-283v360z" />
    <glyph glyph-name="uni0443" unicode="&#x443;" horiz-adv-x="1167" 
d="M612 477l125 547h430l-340 -993q-78 -231 -249.5 -341.5t-415.5 -99.5v359q106 0 161 15t87 56l-410 1004h430z" />
    <glyph glyph-name="uni0444" unicode="&#x444;" horiz-adv-x="1495" 
d="M1458 512q0 -212 -134.5 -353.5t-391.5 -178.5v-390h-369v390q-257 37 -391.5 178.5t-134.5 353.5q0 209 134.5 350t391.5 178v394h369v-394q257 -37 391.5 -178t134.5 -350zM563 336v352q-149 -40 -149 -176t149 -176zM932 688v-352q149 40 149 176t-149 176z" />
    <glyph glyph-name="uni0445" unicode="&#x445;" horiz-adv-x="1167" 
d="M795 524l372 -524h-419l-164 229l-164 -229h-420l375 524l-359 500h420l148 -207l147 207h420z" />
    <glyph glyph-name="uni0446" unicode="&#x446;" horiz-adv-x="1259" 
d="M1065 1024v-664h174v-634h-358v274h-799v1024h379v-664h225v664h379z" />
    <glyph glyph-name="uni0447" unicode="&#x447;" horiz-adv-x="1105" 
d="M645 604v420h379v-1024h-379v266q-99 -22 -184 -22q-189 0 -304.5 104.5t-115.5 286.5v389h379v-307q0 -125 133 -125q49 0 92 12z" />
    <glyph glyph-name="uni0448" unicode="&#x448;" horiz-adv-x="1699" 
d="M1239 360v664h379v-1024h-1536v1024h379v-664h205v664h368v-664h205z" />
    <glyph glyph-name="uni0449" unicode="&#x449;" horiz-adv-x="1792" 
d="M1597 1024v-664h175v-634h-359v274h-1331v1024h379v-664h194v664h369v-664h195v664h378z" />
    <glyph glyph-name="uni044A" unicode="&#x44a;" horiz-adv-x="1187" 
d="M604 758h162q186 0 293.5 -101t107.5 -278t-107.5 -278t-293.5 -101h-541v664h-225v360h604v-266zM604 307h115q80 0 80 72t-80 72h-115v-144z" />
    <glyph glyph-name="uni044B" unicode="&#x44b;" horiz-adv-x="1546" 
d="M461 758h162q186 0 293.5 -101t107.5 -278t-107.5 -278t-293.5 -101h-541v1024h379v-266zM1085 0v1024h379v-1024h-379zM461 307h114q80 0 80 72t-80 72h-114v-144z" />
    <glyph glyph-name="uni044C" unicode="&#x44c;" horiz-adv-x="1044" 
d="M461 758h162q186 0 293.5 -101t107.5 -278t-107.5 -278t-293.5 -101h-541v1024h379v-266zM461 307h114q80 0 80 72t-80 72h-114v-144z" />
    <glyph glyph-name="uni044D" unicode="&#x44d;" horiz-adv-x="1064" 
d="M481 1053q239 0 393 -154t154 -387t-154 -387t-393 -154q-152 0 -277.5 72t-193.5 197l299 172q24 -119 183 -119q110 0 165 76h-266v286h266q-55 76 -165 76q-71 0 -119 -32.5t-62 -84.5l-301 170q68 123 195 196t276 73z" />
    <glyph glyph-name="uni044E" unicode="&#x44e;" horiz-adv-x="1634" 
d="M1047 1053q232 0 391 -156t159 -385t-159 -385t-391 -156q-177 0 -312 99t-190 262h-84v-332h-379v1024h379v-332h82q55 163 190.5 262t313.5 99zM922 381q49 -49 125 -49t122 49q50 53 50 131q0 79 -50 129q-45 51 -122 51t-125 -51t-48 -129q0 -77 48 -131z" />
    <glyph glyph-name="uni044F" unicode="&#x44f;" horiz-adv-x="1107" 
d="M485 1024h541v-1024h-379v287h-26l-181 -287h-430l240 348q-166 105 -166 297q0 177 107.5 278t293.5 101zM647 717h-115q-79 0 -79 -72t79 -72h115v144z" />
    <glyph glyph-name="uni0451" unicode="&#x451;" horiz-adv-x="1146" 
d="M512 1157q-51 -51 -123 -51t-123 51t-51 123t51 123t123 51t123 -51t51 -123t-51 -123zM922 1157q-51 -51 -123 -51t-123 51t-51 123t51 123t123 51t123 -51t51 -123t-51 -123zM1100 383h-680q50 -102 209 -102q94 0 174 65l248 -209q-153 -166 -435 -166
q-260 0 -421 152q-158 155 -158 385q0 233 153 389q156 156 392 156q232 0 383 -154q151 -151 151 -383q0 -64 -16 -133zM414 627h344q-34 123 -166 123t-178 -123z" />
    <glyph glyph-name="uni0452" unicode="&#x452;" horiz-adv-x="1208" 
d="M766 1001q172 0 271.5 -118t99.5 -342v-541q0 -241 -124 -348.5t-388 -93.5v340q133 -12 133 102v500q0 137 -127 137q-67 0 -103 -43t-36 -119v-475h-379v1087h-113v244h113v103h379v-103h266v-244h-266v-215q94 129 274 129z" />
    <glyph glyph-name="uni0453" unicode="&#x453;" horiz-adv-x="860" 
d="M340 1434h430l-238 -308h-356zM82 1024h758v-360h-379v-664h-379v1024z" />
    <glyph glyph-name="uni0454" unicode="&#x454;" horiz-adv-x="1064" 
d="M573 293q159 0 183 119l299 -172q-68 -125 -193.5 -197t-277.5 -72q-240 0 -394 154q-153 153 -153 387t153 387q154 154 394 154q149 0 276 -73t195 -196l-301 -170q-14 52 -62 84.5t-119 32.5q-110 0 -165 -76h266v-286h-266q55 -76 165 -76z" />
    <glyph glyph-name="uni0455" unicode="&#x455;" horiz-adv-x="991" 
d="M449 723q0 -19 22 -31.5t58 -19t82 -16.5t94 -21t94 -35.5t82 -57.5t58 -88.5t22 -127.5q0 -96 -43 -170.5t-117 -112.5q-141 -72 -301 -72q-372 0 -480 244l330 147q40 -104 146 -104q69 0 69 45q0 23 -40.5 38.5t-128.5 36.5q-3 1 -5 1q-47 11 -86.5 24.5t-85 39
t-76.5 58.5t-51.5 84.5t-19.5 114.5q0 169 127 261q130 92 297 92q336 0 444 -260l-313 -113q-38 86 -115 86q-63 0 -63 -43z" />
    <glyph glyph-name="uni0456" unicode="&#x456;" horiz-adv-x="542" 
d="M272 1102q-85 0 -149 61q-62 65 -62 148t62 145q64 64 149 64t146 -64q63 -60 63 -145t-63 -148q-61 -61 -146 -61zM461 0h-379v1024h379v-1024z" />
    <glyph glyph-name="uni0457" unicode="&#x457;" horiz-adv-x="542" 
d="M186 1137q-51 -51 -122.5 -51t-122.5 51t-51 122.5t51 122.5t122.5 51t122.5 -51t51 -122.5t-51 -122.5zM596 1137q-51 -51 -123 -51t-123 51t-51 122.5t51 122.5t123 51t123 -51t51 -122.5t-51 -122.5zM461 0h-379v1024h379v-1024z" />
    <glyph glyph-name="uni0458" unicode="&#x458;" horiz-adv-x="573" 
d="M303 1102q-85 0 -149 61q-62 65 -62 148t62 145q64 64 149 64t146 -64q63 -60 63 -145t-63 -148q-61 -61 -146 -61zM113 0v1024h379v-1024q0 -241 -124 -348.5t-388 -93.5v340q133 -12 133 102z" />
    <glyph glyph-name="uni0459" unicode="&#x459;" horiz-adv-x="1642" 
d="M1100 737h141q164 0 270 -100q111 -99 111 -268t-111 -271q-107 -98 -270 -98h-520v664h-174v-240q0 -248 -125 -352.5t-402 -87.5v348q78 -10 113 32t35 142v518h932v-287zM1100 307h94q36 0 50.5 30.5t0 61.5t-50.5 31h-94v-123z" />
    <glyph glyph-name="uni045A" unicode="&#x45a;" horiz-adv-x="1587" 
d="M1044 737h142q164 0 270 -100q111 -99 111 -268t-111 -271q-107 -98 -270 -98h-520v397h-226v-397h-379v1024h379v-287h226v287h378v-287zM1044 307h95q36 0 50.5 30.5t0 61.5t-50.5 31h-95v-123z" />
    <glyph glyph-name="uni045B" unicode="&#x45b;" horiz-adv-x="1208" 
d="M766 1001q172 0 271.5 -118t99.5 -342v-541h-379v500q0 137 -127 137q-67 0 -103 -43t-36 -119v-475h-379v1077h-113v244h113v113h379v-113h266v-244h-266v-205q94 129 274 129z" />
    <glyph glyph-name="uni045C" unicode="&#x45c;" horiz-adv-x="1126" 
d="M463 1434h430l-238 -308h-356zM795 512l331 -512h-419l-246 410v-410h-379v1024h379v-397l215 397h430z" />
    <glyph glyph-name="uni045E" unicode="&#x45e;" horiz-adv-x="1167" 
d="M238 1432h716v-308h-716v308zM612 477l125 547h430l-340 -993q-78 -231 -249.5 -341.5t-415.5 -99.5v359q106 0 161 15t87 56l-410 1004h430z" />
    <glyph glyph-name="uni045F" unicode="&#x45f;" horiz-adv-x="1167" 
d="M707 360v664h378v-1024h-321v-274h-358v274h-324v1024h379v-664h246z" />
    <glyph glyph-name="uni0490" unicode="&#x490;" horiz-adv-x="983" 
d="M573 1434v245h410v-643h-471v-1036h-410v1434h471z" />
    <glyph glyph-name="uni0491" unicode="&#x491;" horiz-adv-x="860" 
d="M481 1024v213h359v-573h-379v-664h-379v1024h399z" />
    <glyph glyph-name="Wgrave" unicode="&#x1e80;" horiz-adv-x="2068" 
d="M1290 1536h-356l-238 307h430zM406 0h403l225 766l226 -766h403l405 1434h-450l-195 -789l-231 789h-315l-232 -789l-194 789h-451z" />
    <glyph glyph-name="wgrave" unicode="&#x1e81;" horiz-adv-x="1699" 
d="M891 1434l164 -308h-357l-237 308h430zM1141 457l119 567h399l-297 -1024h-385l-127 481l-127 -481h-385l-297 1024h399l119 -567l148 567h286z" />
    <glyph glyph-name="Wacute" unicode="&#x1e82;" horiz-adv-x="2068" 
d="M860 1536l164 307h430l-237 -307h-357zM406 0h403l225 766l226 -766h403l405 1434h-450l-195 -789l-231 789h-315l-232 -789l-194 789h-451z" />
    <glyph glyph-name="wacute" unicode="&#x1e83;" horiz-adv-x="1699" 
d="M788 1434h431l-238 -308h-356zM1141 457l119 567h399l-297 -1024h-385l-127 481l-127 -481h-385l-297 1024h399l119 -567l148 567h286z" />
    <glyph glyph-name="Wdieresis" unicode="&#x1e84;" horiz-adv-x="2068" 
d="M1004 1546q-51 -51 -123 -51t-123 51t-51 123t51 123t123 51t123 -51t51 -123t-51 -123zM1413 1546q-51 -51 -123 -51t-123 51t-51 123t51 123t123 51t123 -51t51 -123t-51 -123zM809 0h-403l-406 1434h451l194 -789l232 789h315l231 -789l195 789h450l-405 -1434h-403
l-226 766z" />
    <glyph glyph-name="wdieresis" unicode="&#x1e85;" horiz-adv-x="1699" 
d="M768 1137q-51 -51 -123 -51t-123 51t-51 122.5t51 122.5t123 51t123 -51t51 -122.5t-51 -122.5zM1178 1137q-51 -51 -123 -51t-123 51t-51 122.5t51 122.5t123 51t123 -51t51 -122.5t-51 -122.5zM1141 457l119 567h399l-297 -1024h-385l-127 481l-127 -481h-385
l-297 1024h399l119 -567l148 567h286z" />
    <glyph glyph-name="uni1EA0" unicode="&#x1ea0;" 
d="M676 -508q-78 0 -141 57q-58 61 -58 140q0 76 58 137q62 59 141 59q78 0 137 -59t59 -137q0 -81 -59 -140q-60 -57 -137 -57zM1372 0h-440l-49 184h-414l-49 -184h-440l456 1434h479zM676 952l-119 -440h238z" />
    <glyph glyph-name="uni1EA1" unicode="&#x1ea1;" horiz-adv-x="1241" 
d="M627 -508q-79 0 -142 57q-57 60 -57 140q0 77 57 137q62 59 142 59q78 0 137 -59t59 -137q0 -81 -59 -140q-60 -57 -137 -57zM780 932v92h379v-1024h-379v92q-100 -121 -274 -121q-205 0 -338 154q-131 152 -131 387t131 387q133 154 338 154q174 0 274 -121zM465 375
q53 -56 133 -56q81 0 131 56q51 55 51 136.5t-51 137.5q-50 56 -131 56q-80 0 -133 -56q-49 -55 -49 -137t49 -137z" />
    <glyph glyph-name="uni1EA2" unicode="&#x1ea2;" 
d="M819 1536h-274q0 47 7 78t24 50.5t33 29.5t46 22l11 6q14 14 14 25q0 16 -21 16q-30 0 -65 -43l-211 72q44 83 115 121.5t180 38.5q120 0 194 -49t74 -131q0 -119 -96 -158q-19 -9 -25.5 -25.5t-5.5 -52.5zM1372 0h-440l-49 184h-414l-49 -184h-440l456 1434h479z
M676 952l-119 -440h238z" />
    <glyph glyph-name="uni1EA3" unicode="&#x1ea3;" horiz-adv-x="1241" 
d="M819 1126h-270q0 47 7 78.5t24 51t33.5 29.5t45.5 22l9 6q14 14 14 24q0 17 -18 17q-31 0 -66 -43l-207 71q44 83 113 121.5t176 38.5q118 0 191 -49t73 -131q0 -119 -94 -158q-19 -9 -25.5 -25.5t-5.5 -52.5zM780 932v92h379v-1024h-379v92q-100 -121 -274 -121
q-205 0 -338 154q-131 152 -131 387t131 387q133 154 338 154q174 0 274 -121zM465 375q53 -56 133 -56q81 0 131 56q51 55 51 136.5t-51 137.5q-50 56 -131 56q-80 0 -133 -56q-49 -55 -49 -137t49 -137z" />
    <glyph glyph-name="uni1EA4" unicode="&#x1ea4;" 
d="M752 1516l-86 110l-86 -110h-295l202 305h359l201 -305h-295zM1372 0h-440l-49 184h-414l-49 -184h-440l456 1434h479zM676 952l-119 -440h238zM930 1743l153 285h400l-221 -285h-332z" />
    <glyph glyph-name="uni1EA5" unicode="&#x1ea5;" horiz-adv-x="1241" 
d="M776 1106l-86 111l-86 -111h-295l203 305h358l201 -305h-295zM780 932v92h379v-1024h-379v92q-100 -121 -274 -121q-205 0 -338 154q-131 152 -131 387t131 387q133 154 338 154q174 0 274 -121zM465 375q53 -56 133 -56q81 0 131 56q51 55 51 136.5t-51 137.5
q-50 56 -131 56q-80 0 -133 -56q-49 -55 -49 -137t49 -137zM954 1333l154 285h399l-221 -285h-332z" />
    <glyph glyph-name="uni1EA6" unicode="&#x1ea6;" 
d="M752 1516l-86 110l-86 -110h-295l202 305h359l201 -305h-295zM1372 0h-440l-49 184h-414l-49 -184h-440l456 1434h479zM676 952l-119 -440h238zM1296 1743h-331l-220 285h400z" />
    <glyph glyph-name="uni1EA7" unicode="&#x1ea7;" horiz-adv-x="1241" 
d="M776 1106l-86 111l-86 -111h-295l203 305h358l201 -305h-295zM780 932v92h379v-1024h-379v92q-100 -121 -274 -121q-205 0 -338 154q-131 152 -131 387t131 387q133 154 338 154q174 0 274 -121zM465 375q53 -56 133 -56q81 0 131 56q51 55 51 136.5t-51 137.5
q-50 56 -131 56q-80 0 -133 -56q-49 -55 -49 -137t49 -137zM1321 1333h-332l-219 285h399z" />
    <glyph glyph-name="uni1EA8" unicode="&#x1ea8;" 
d="M752 1516l-86 110l-86 -110h-295l202 305h359l201 -305h-295zM1372 0h-440l-49 184h-414l-49 -184h-440l456 1434h479zM676 952l-119 -440h238zM1182 1743h-252q0 44 7 73.5t23 47.5t30.5 26.5t41.5 20.5l8 6q2 2 5.5 5t5 4.5t3 5t1.5 7.5q0 15 -19 15q-27 0 -61 -39
l-193 65q41 78 105.5 114t165.5 36q108 0 176.5 -46t68.5 -122q0 -110 -88 -145q-18 -9 -23.5 -24t-4.5 -50z" />
    <glyph glyph-name="uni1EA9" unicode="&#x1ea9;" horiz-adv-x="1241" 
d="M776 1106l-86 111l-86 -111h-295l203 305h358l201 -305h-295zM780 932v92h379v-1024h-379v92q-100 -121 -274 -121q-205 0 -338 154q-131 152 -131 387t131 387q133 154 338 154q174 0 274 -121zM465 375q53 -56 133 -56q81 0 131 56q51 55 51 136.5t-51 137.5
q-50 56 -131 56q-80 0 -133 -56q-49 -55 -49 -137t49 -137zM1206 1333h-252q0 44 7 73.5t23.5 47.5t31 26.5t41.5 20.5l8 6q14 14 14 23q0 14 -18 14q-28 0 -62 -39l-192 66q41 78 105 113.5t165 35.5q108 0 177 -46t69 -122q0 -110 -88 -145q-18 -9 -24 -24.5t-5 -49.5z
" />
    <glyph glyph-name="uni1EAA" unicode="&#x1eaa;" 
d="M752 1516l-86 110l-86 -110h-295l202 305h359l201 -305h-295zM1372 0h-440l-49 184h-414l-49 -184h-440l456 1434h479zM676 952l-119 -440h238zM563 1849h-225q0 91 21.5 156t55.5 98.5t80 47t92 9t93 -23.5q10 -4 27 -12l25.5 -12t20 -6t17.5 3t10 18t4 36h226
q0 -111 -31.5 -186.5t-85.5 -102.5q-104 -47 -227 2q-10 4 -26.5 12.5t-25 12.5t-20 6t-17.5 -3t-10 -18.5t-4 -36.5z" />
    <glyph glyph-name="uni1EAB" unicode="&#x1eab;" horiz-adv-x="1241" 
d="M776 1106l-86 111l-86 -111h-295l203 305h358l201 -305h-295zM780 932v92h379v-1024h-379v92q-100 -121 -274 -121q-205 0 -338 154q-131 152 -131 387t131 387q133 154 338 154q174 0 274 -121zM465 375q53 -56 133 -56q81 0 131 56q51 55 51 136.5t-51 137.5
q-50 56 -131 56q-80 0 -133 -56q-49 -55 -49 -137t49 -137zM588 1440h-226q0 91 21.5 156t56 98t80 47t92 9t93.5 -24q10 -4 27 -12l25.5 -12t20 -6t17.5 3t10 18t4 36h225q0 -112 -31 -187t-85 -102q-105 -48 -228 2q-10 4 -26 12.5t-25 12.5t-20 6t-17 -2.5t-10 -18
t-4 -36.5z" />
    <glyph glyph-name="uni1EAC" unicode="&#x1eac;" 
d="M752 1516l-86 110l-86 -110h-295l202 305h359l201 -305h-295zM1372 0h-440l-49 184h-414l-49 -184h-440l456 1434h479zM676 952l-119 -440h238zM676 -508q-78 0 -141 57q-58 61 -58 140q0 76 58 137q62 59 141 59q78 0 137 -59t59 -137q0 -81 -59 -140q-60 -57 -137 -57z
" />
    <glyph glyph-name="uni1EAD" unicode="&#x1ead;" horiz-adv-x="1241" 
d="M776 1106l-86 111l-86 -111h-295l203 305h358l201 -305h-295zM780 932v92h379v-1024h-379v92q-100 -121 -274 -121q-205 0 -338 154q-131 152 -131 387t131 387q133 154 338 154q174 0 274 -121zM465 375q53 -56 133 -56q81 0 131 56q51 55 51 136.5t-51 137.5
q-50 56 -131 56q-80 0 -133 -56q-49 -55 -49 -137t49 -137zM627 -508q-79 0 -142 57q-57 60 -57 140q0 77 57 137q62 59 142 59q78 0 137 -59t59 -137q0 -81 -59 -140q-60 -57 -137 -57z" />
    <glyph glyph-name="uni1EAE" unicode="&#x1eae;" 
d="M324 1825h284q0 -76 68 -76q65 0 65 76h287q0 -159 -91 -241.5t-261 -82.5q-171 0 -261.5 82.5t-90.5 241.5zM1372 0h-440l-49 184h-414l-49 -184h-440l456 1434h479zM676 952l-119 -440h238zM494 1858l153 284h400l-222 -284h-331z" />
    <glyph glyph-name="uni1EAF" unicode="&#x1eaf;" horiz-adv-x="1241" 
d="M780 932v92h379v-1024h-379v92q-100 -121 -274 -121q-205 0 -338 154q-131 152 -131 387t131 387q133 154 338 154q174 0 274 -121zM465 375q53 -56 133 -56q81 0 131 56q51 55 51 136.5t-51 137.5q-50 56 -131 56q-80 0 -133 -56q-49 -55 -49 -137t49 -137zM360 1413
h285q0 -76 68 -76q65 0 65 76h287q0 -159 -91 -241t-261 -82q-171 0 -262 82t-91 241zM530 1446l154 285h399l-221 -285h-332z" />
    <glyph glyph-name="uni1EB0" unicode="&#x1eb0;" 
d="M324 1825h284q0 -76 68 -76q65 0 65 76h287q0 -159 -91 -241.5t-261 -82.5q-171 0 -261.5 82.5t-90.5 241.5zM1372 0h-440l-49 184h-414l-49 -184h-440l456 1434h479zM676 952l-119 -440h238zM868 1858h-331l-220 284h400z" />
    <glyph glyph-name="uni1EB1" unicode="&#x1eb1;" horiz-adv-x="1241" 
d="M780 932v92h379v-1024h-379v92q-100 -121 -274 -121q-205 0 -338 154q-131 152 -131 387t131 387q133 154 338 154q174 0 274 -121zM465 375q53 -56 133 -56q81 0 131 56q51 55 51 136.5t-51 137.5q-50 56 -131 56q-80 0 -133 -56q-49 -55 -49 -137t49 -137zM360 1413
h285q0 -76 68 -76q65 0 65 76h287q0 -159 -91 -241t-261 -82q-171 0 -262 82t-91 241zM905 1446h-332l-219 285h400z" />
    <glyph glyph-name="uni1EB2" unicode="&#x1eb2;" 
d="M324 1825h284q0 -76 68 -76q65 0 65 76h287q0 -159 -91 -241.5t-261 -82.5q-171 0 -261.5 82.5t-90.5 241.5zM1372 0h-440l-49 184h-414l-49 -184h-440l456 1434h479zM676 952l-119 -440h238zM803 1858h-252q0 44 6.5 73t23 47t30.5 26.5t42 20.5l9 7q12 12 12 22
q0 17 -17 17q-26 0 -61 -41l-193 67q42 77 106 112.5t165 35.5q109 0 177.5 -45.5t68.5 -122.5q0 -111 -89 -146q-18 -9 -23.5 -24t-4.5 -49z" />
    <glyph glyph-name="uni1EB3" unicode="&#x1eb3;" horiz-adv-x="1241" 
d="M780 932v92h379v-1024h-379v92q-100 -121 -274 -121q-205 0 -338 154q-131 152 -131 387t131 387q133 154 338 154q174 0 274 -121zM465 375q53 -56 133 -56q81 0 131 56q51 55 51 136.5t-51 137.5q-50 56 -131 56q-80 0 -133 -56q-49 -55 -49 -137t49 -137zM360 1413
h285q0 -76 68 -76q65 0 65 76h287q0 -159 -91 -241t-261 -82q-171 0 -262 82t-91 241zM840 1446h-252q0 44 7 73.5t23 47.5t30.5 26.5t41.5 20.5l8 6q13 13 13 22q0 17 -17 17q-26 0 -61 -41l-193 68q41 77 105.5 112t165.5 35q109 0 177 -45.5t68 -122.5q0 -110 -88 -145
q-18 -9 -23.5 -24t-4.5 -50z" />
    <glyph glyph-name="uni1EB4" unicode="&#x1eb4;" 
d="M324 1825h284q0 -76 68 -76q65 0 65 76h287q0 -159 -91 -241.5t-261 -82.5q-171 0 -261.5 82.5t-90.5 241.5zM1372 0h-440l-49 184h-414l-49 -184h-440l456 1434h479zM676 952l-119 -440h238zM567 1855h-231q0 91 22 156t57.5 98.5t82.5 47t94 9t96 -23.5
q10 -4 27.5 -12.5t26 -12t20.5 -5.5t18 3t10.5 18t4.5 36h231q0 -111 -33 -186.5t-88 -102.5q-105 -48 -233 2q-10 4 -26.5 12.5t-25.5 12.5t-21 6t-17.5 -3t-10 -18.5t-4.5 -36.5z" />
    <glyph glyph-name="uni1EB5" unicode="&#x1eb5;" horiz-adv-x="1241" 
d="M780 932v92h379v-1024h-379v92q-100 -121 -274 -121q-205 0 -338 154q-131 152 -131 387t131 387q133 154 338 154q174 0 274 -121zM465 375q53 -56 133 -56q81 0 131 56q51 55 51 136.5t-51 137.5q-50 56 -131 56q-80 0 -133 -56q-49 -55 -49 -137t49 -137zM360 1413
h285q0 -76 68 -76q65 0 65 76h287q0 -159 -91 -241t-261 -82q-171 0 -262 82t-91 241zM604 1444h-231q0 91 22 156t57.5 98.5t82.5 47t94 9t96 -23.5q10 -4 27 -12.5t26 -12.5t21 -6t17.5 3t10 18t4.5 36h232q0 -111 -33 -186.5t-88 -102.5q-105 -48 -233 2
q-10 4 -26.5 12.5t-25.5 12.5t-20.5 6.5t-17.5 -2.5t-10.5 -18.5t-4.5 -36.5z" />
    <glyph glyph-name="uni1EB6" unicode="&#x1eb6;" 
d="M324 1825h284q0 -76 68 -76q65 0 65 76h287q0 -159 -91 -241.5t-261 -82.5q-171 0 -261.5 82.5t-90.5 241.5zM1372 0h-440l-49 184h-414l-49 -184h-440l456 1434h479zM676 952l-119 -440h238zM676 -508q-78 0 -141 57q-58 61 -58 140q0 76 58 137q62 59 141 59
q78 0 137 -59t59 -137q0 -81 -59 -140q-60 -57 -137 -57z" />
    <glyph glyph-name="uni1EB7" unicode="&#x1eb7;" horiz-adv-x="1241" 
d="M780 932v92h379v-1024h-379v92q-100 -121 -274 -121q-205 0 -338 154q-131 152 -131 387t131 387q133 154 338 154q174 0 274 -121zM465 375q53 -56 133 -56q81 0 131 56q51 55 51 136.5t-51 137.5q-50 56 -131 56q-80 0 -133 -56q-49 -55 -49 -137t49 -137zM360 1413
h285q0 -76 68 -76q65 0 65 76h287q0 -159 -91 -241t-261 -82q-171 0 -262 82t-91 241zM627 -508q-79 0 -142 57q-57 60 -57 140q0 77 57 137q62 59 142 59q78 0 137 -59t59 -137q0 -81 -59 -140q-60 -57 -137 -57z" />
    <glyph glyph-name="uni1EB8" unicode="&#x1eb8;" horiz-adv-x="1105" 
d="M545 -508q-79 0 -142 57q-57 60 -57 140q0 77 57 137q62 59 142 59q78 0 137 -59t59 -137q0 -81 -59 -140q-60 -57 -137 -57zM512 537v-160h532v-377h-942v1434h932v-373h-522v-156h471v-368h-471z" />
    <glyph glyph-name="uni1EB9" unicode="&#x1eb9;" horiz-adv-x="1146" 
d="M580 -508q-79 0 -142 57q-57 60 -57 140q0 77 57 137q62 59 142 59q78 0 137 -59t59 -137q0 -81 -59 -140q-60 -57 -137 -57zM1100 383h-680q50 -102 209 -102q94 0 174 65l248 -209q-153 -166 -435 -166q-260 0 -421 152q-158 155 -158 385q0 233 153 389
q156 156 392 156q232 0 383 -154q151 -151 151 -383q0 -64 -16 -133zM414 627h344q-34 123 -166 123t-178 -123z" />
    <glyph glyph-name="uni1EBA" unicode="&#x1eba;" horiz-adv-x="1105" 
d="M735 1536h-270q0 47 7 78t24 50.5t33 29.5t46 22l9 6q14 14 14 25q0 16 -18 16q-31 0 -66 -43l-207 72q44 83 113 121.5t176 38.5q118 0 191 -49t73 -131q0 -119 -94 -158q-19 -9 -25.5 -25.5t-5.5 -52.5zM512 537v-160h532v-377h-942v1434h932v-373h-522v-156h471v-368
h-471z" />
    <glyph glyph-name="uni1EBB" unicode="&#x1ebb;" horiz-adv-x="1146" 
d="M754 1147h-271q0 47 7 78t24.5 50.5t33.5 29.5t46 22l8 6q14 14 14 25q0 16 -18 16q-31 0 -66 -43l-206 72q44 84 112.5 122t175.5 38q118 0 191.5 -49.5t73.5 -131.5q0 -117 -95 -157q-19 -9 -25 -25t-5 -53zM1100 383h-680q50 -102 209 -102q94 0 174 65l248 -209
q-153 -166 -435 -166q-260 0 -421 152q-158 155 -158 385q0 233 153 389q156 156 392 156q232 0 383 -154q151 -151 151 -383q0 -64 -16 -133zM414 627h344q-34 123 -166 123t-178 -123z" />
    <glyph glyph-name="uni1EBC" unicode="&#x1ebc;" horiz-adv-x="1105" 
d="M512 537v-160h532v-377h-942v1434h932v-373h-522v-156h471v-368h-471zM449 1522h-246q0 99 23.5 170.5t61 108t87.5 51.5t100.5 9.5t102.5 -26.5q12 -5 30 -13.5t28 -13t22.5 -6.5t18.5 3.5t10.5 19.5t4.5 39h246q0 -122 -34 -204t-93 -112q-112 -52 -250 2q-11 5 -29 14
t-27.5 13.5t-22 6.5t-18.5 -3t-10.5 -19.5t-4.5 -39.5z" />
    <glyph glyph-name="uni1EBD" unicode="&#x1ebd;" horiz-adv-x="1146" 
d="M1100 383h-680q50 -102 209 -102q94 0 174 65l248 -209q-153 -166 -435 -166q-260 0 -421 152q-158 155 -158 385q0 233 153 389q156 156 392 156q232 0 383 -154q151 -151 151 -383q0 -64 -16 -133zM414 627h344q-34 123 -166 123t-178 -123zM473 1133h-246
q0 99 23.5 170.5t61 108t87.5 51.5t100.5 9.5t102.5 -26.5q11 -5 30 -13.5t28.5 -13t22 -6.5t19 3.5t11 19.5t4.5 39h246q0 -122 -34 -204t-93 -112q-112 -52 -250 2q-11 5 -29 14t-28 13.5t-22 6.5t-18.5 -3t-11 -19.5t-4.5 -39.5z" />
    <glyph glyph-name="uni1EBE" unicode="&#x1ebe;" horiz-adv-x="1105" 
d="M645 1516l-86 110l-86 -110h-295l203 305h358l201 -305h-295zM512 537v-160h532v-377h-942v1434h932v-373h-522v-156h471v-368h-471zM823 1743l154 285h399l-221 -285h-332z" />
    <glyph glyph-name="uni1EBF" unicode="&#x1ebf;" horiz-adv-x="1146" 
d="M682 1126l-86 111l-86 -111h-295l203 306h358l201 -306h-295zM1100 383h-680q50 -102 209 -102q94 0 174 65l248 -209q-153 -166 -435 -166q-260 0 -421 152q-158 155 -158 385q0 233 153 389q156 156 392 156q232 0 383 -154q151 -151 151 -383q0 -64 -16 -133zM414 627
h344q-34 123 -166 123t-178 -123zM860 1354l154 284h399l-221 -284h-332z" />
    <glyph glyph-name="uni1EC0" unicode="&#x1ec0;" horiz-adv-x="1105" 
d="M645 1516l-86 110l-86 -110h-295l203 305h358l201 -305h-295zM512 537v-160h532v-377h-942v1434h932v-373h-522v-156h471v-368h-471zM1190 1743h-332l-219 285h399z" />
    <glyph glyph-name="uni1EC1" unicode="&#x1ec1;" horiz-adv-x="1146" 
d="M682 1126l-86 111l-86 -111h-295l203 306h358l201 -306h-295zM1100 383h-680q50 -102 209 -102q94 0 174 65l248 -209q-153 -166 -435 -166q-260 0 -421 152q-158 155 -158 385q0 233 153 389q156 156 392 156q232 0 383 -154q151 -151 151 -383q0 -64 -16 -133zM414 627
h344q-34 123 -166 123t-178 -123zM1227 1354h-332l-219 284h399z" />
    <glyph glyph-name="uni1EC2" unicode="&#x1ec2;" horiz-adv-x="1105" 
d="M645 1516l-86 110l-86 -110h-295l203 305h358l201 -305h-295zM512 537v-160h532v-377h-942v1434h932v-373h-522v-156h471v-368h-471zM1075 1743h-252q0 44 7 73.5t23.5 47.5t31 26.5t41.5 20.5l8 6q2 2 5.5 5t4.5 4.5t2.5 5t1.5 7.5q0 15 -18 15q-28 0 -62 -39l-192 65
q41 78 105 114t165 36q108 0 177 -46t69 -122q0 -110 -88 -145q-18 -9 -24 -24.5t-5 -49.5z" />
    <glyph glyph-name="uni1EC3" unicode="&#x1ec3;" horiz-adv-x="1146" 
d="M682 1126l-86 111l-86 -111h-295l203 306h358l201 -306h-295zM1100 383h-680q50 -102 209 -102q94 0 174 65l248 -209q-153 -166 -435 -166q-260 0 -421 152q-158 155 -158 385q0 233 153 389q156 156 392 156q232 0 383 -154q151 -151 151 -383q0 -64 -16 -133zM414 627
h344q-34 123 -166 123t-178 -123zM1112 1354h-252q0 44 7 73.5t23.5 47.5t31 26.5t41.5 20.5l8 6q2 2 5.5 5t4.5 4.5t2.5 5t1.5 7.5q0 15 -18 15q-28 0 -62 -39l-192 65q41 78 105 114t165 36q108 0 177 -46t69 -122q0 -111 -88 -146q-18 -9 -24 -24t-5 -49z" />
    <glyph glyph-name="uni1EC4" unicode="&#x1ec4;" horiz-adv-x="1105" 
d="M645 1516l-86 110l-86 -110h-295l203 305h358l201 -305h-295zM512 537v-160h532v-377h-942v1434h932v-373h-522v-156h471v-368h-471zM457 1849h-226q0 91 21.5 156t55.5 98.5t80 47t92 9t93 -23.5q10 -4 27 -12t26 -12t20.5 -6t17.5 3t10 18t4 36h225
q0 -111 -31.5 -186.5t-85.5 -102.5q-104 -47 -227 2q-10 4 -26.5 12.5t-25 12.5t-20 6t-17 -3t-9.5 -18.5t-4 -36.5z" />
    <glyph glyph-name="uni1EC5" unicode="&#x1ec5;" horiz-adv-x="1146" 
d="M682 1126l-86 111l-86 -111h-295l203 306h358l201 -306h-295zM1100 383h-680q50 -102 209 -102q94 0 174 65l248 -209q-153 -166 -435 -166q-260 0 -421 152q-158 155 -158 385q0 233 153 389q156 156 392 156q232 0 383 -154q151 -151 151 -383q0 -64 -16 -133zM414 627
h344q-34 123 -166 123t-178 -123zM494 1460h-226q0 91 21.5 156t55.5 98.5t80 47t92 9t93 -23.5q10 -4 27 -12t26 -12t20.5 -6t17.5 3t10 18t4 36h225q0 -111 -31.5 -186.5t-85.5 -102.5q-104 -47 -227 2q-10 4 -26.5 12.5t-25 12.5t-20 6t-17 -3t-9.5 -18.5t-4 -36.5z" />
    <glyph glyph-name="uni1EC6" unicode="&#x1ec6;" horiz-adv-x="1105" 
d="M645 1516l-86 110l-86 -110h-295l203 305h358l201 -305h-295zM512 537v-160h532v-377h-942v1434h932v-373h-522v-156h471v-368h-471zM545 -508q-79 0 -142 57q-57 60 -57 140q0 77 57 137q62 59 142 59q78 0 137 -59t59 -137q0 -81 -59 -140q-60 -57 -137 -57z" />
    <glyph glyph-name="uni1EC7" unicode="&#x1ec7;" horiz-adv-x="1146" 
d="M682 1126l-86 111l-86 -111h-295l203 306h358l201 -306h-295zM1100 383h-680q50 -102 209 -102q94 0 174 65l248 -209q-153 -166 -435 -166q-260 0 -421 152q-158 155 -158 385q0 233 153 389q156 156 392 156q232 0 383 -154q151 -151 151 -383q0 -64 -16 -133zM414 627
h344q-34 123 -166 123t-178 -123zM580 -508q-79 0 -142 57q-57 60 -57 140q0 77 57 137q62 59 142 59q78 0 137 -59t59 -137q0 -81 -59 -140q-60 -57 -137 -57z" />
    <glyph glyph-name="uni1EC8" unicode="&#x1ec8;" horiz-adv-x="614" 
d="M444 1536h-270q0 47 7 78t24.5 50.5t33.5 29.5t46 22l8 6q14 14 14 25q0 16 -18 16q-31 0 -66 -43l-207 72q44 83 113 121.5t176 38.5q118 0 191 -49t73 -131q0 -119 -94 -158q-19 -9 -25.5 -25.5t-5.5 -52.5zM102 0v1434h410v-1434h-410z" />
    <glyph glyph-name="uni1EC9" unicode="&#x1ec9;" horiz-adv-x="542" 
d="M461 0h-379v1024h379v-1024zM408 1106h-271q0 47 7 78t24.5 50.5t33.5 29.5t46 22l8 6q14 14 14 25q0 16 -18 16q-31 0 -66 -43l-206 72q44 84 112.5 122t175.5 38q118 0 191 -49t73 -132q0 -118 -94 -157q-19 -9 -25 -25t-5 -53z" />
    <glyph glyph-name="uni1ECA" unicode="&#x1eca;" horiz-adv-x="614" 
d="M309 -508q-78 0 -141 57q-57 60 -57 140q0 77 57 137q62 59 141 59q78 0 137 -59q60 -60 60 -137q0 -80 -60 -140q-60 -57 -137 -57zM102 0v1434h410v-1434h-410z" />
    <glyph glyph-name="uni1ECB" unicode="&#x1ecb;" horiz-adv-x="542" 
d="M274 -508q-78 0 -141 57q-57 60 -57 140q0 77 57 137q62 59 141 59t138 -59t59 -137q0 -81 -59 -140q-60 -57 -138 -57zM266 1102q-80 0 -145 59q-60 63 -60 144q0 78 60 141q64 61 145 61t142 -61t61 -141q0 -83 -61 -144q-62 -59 -142 -59zM461 0h-379v1024h379v-1024z
" />
    <glyph glyph-name="uni1ECC" unicode="&#x1ecc;" horiz-adv-x="1622" 
d="M809 -508q-78 0 -141 57q-58 61 -58 140q0 76 58 137q62 59 141 59q78 0 137 -59q60 -60 60 -137q0 -80 -60 -140q-60 -57 -137 -57zM1350 182q-218 -215 -539 -215q-320 0 -541 215q-219 219 -219 535t219 532q220 217 541 217q322 0 539 -217q221 -215 221 -532
t-221 -535zM559 467q101 -98 252 -98q152 0 250 98q100 100 100 250q0 151 -100 248q-97 100 -250 100q-152 0 -252 -100q-98 -98 -98 -248q0 -149 98 -250z" />
    <glyph glyph-name="uni1ECD" unicode="&#x1ecd;" horiz-adv-x="1175" 
d="M590 -508q-78 0 -141 57q-58 61 -58 140q0 76 58 137q62 59 141 59q78 0 137 -59t59 -137q0 -81 -59 -140q-60 -57 -137 -57zM588 -29q-228 0 -391 156q-160 157 -160 385t160 385q159 156 391 156t391 -156q160 -157 160 -385t-160 -385q-159 -156 -391 -156zM463 381
q49 -49 125 -49q77 0 123 49q49 52 49 131q0 80 -49 129q-45 51 -123 51q-77 0 -125 -51q-47 -50 -47 -129q0 -78 47 -131z" />
    <glyph glyph-name="uni1ECE" unicode="&#x1ece;" horiz-adv-x="1622" 
d="M1350 182q-218 -215 -539 -215q-320 0 -541 215q-219 219 -219 535t219 532q220 217 541 217q322 0 539 -217q221 -215 221 -532t-221 -535zM559 467q101 -98 252 -98q152 0 250 98q100 100 100 250q0 151 -100 248q-97 100 -250 100q-152 0 -252 -100q-98 -98 -98 -248
q0 -149 98 -250zM991 1536h-270q0 47 7 78t24 50.5t33 29.5t46 22l9 6q14 14 14 25q0 16 -18 16q-31 0 -66 -43l-207 72q44 83 113 121.5t176 38.5q118 0 191 -49t73 -131q0 -119 -94 -158q-19 -9 -25.5 -25.5t-5.5 -52.5z" />
    <glyph glyph-name="uni1ECF" unicode="&#x1ecf;" horiz-adv-x="1175" 
d="M588 -29q-228 0 -391 156q-160 157 -160 385t160 385q159 156 391 156t391 -156q160 -157 160 -385t-160 -385q-159 -156 -391 -156zM463 381q49 -49 125 -49q77 0 123 49q49 52 49 131q0 80 -49 129q-45 51 -123 51q-77 0 -125 -51q-47 -50 -47 -129q0 -78 47 -131z
M766 1147h-270q0 47 7 78t24 50.5t33 29.5t46 22l8 6q15 15 15 25q0 16 -19 16q-30 0 -65 -43l-207 72q44 83 113 121.5t176 38.5q118 0 191 -49t73 -132q0 -118 -94 -157q-19 -9 -25.5 -25.5t-5.5 -52.5z" />
    <glyph glyph-name="uni1ED0" unicode="&#x1ed0;" horiz-adv-x="1622" 
d="M899 1536l-86 111l-86 -111h-295l203 305h358l201 -305h-295zM270 1249q220 217 541 217q322 0 539 -217q221 -215 221 -532t-221 -535q-218 -215 -539 -215q-320 0 -541 215q-219 219 -219 535t219 532zM559 467q101 -98 252 -98q152 0 250 98q100 100 100 250
q0 151 -100 248q-97 100 -250 100q-152 0 -252 -100q-98 -98 -98 -248q0 -149 98 -250zM1077 1763l154 285h399l-221 -285h-332z" />
    <glyph glyph-name="uni1ED1" unicode="&#x1ed1;" horiz-adv-x="1175" 
d="M682 1126l-86 111l-86 -111h-295l203 306h358l201 -306h-295zM588 -29q-228 0 -391 156q-160 157 -160 385t160 385q159 156 391 156t391 -156q160 -157 160 -385t-160 -385q-159 -156 -391 -156zM463 381q49 -49 125 -49q77 0 123 49q49 52 49 131q0 80 -49 129
q-45 51 -123 51q-77 0 -125 -51q-47 -50 -47 -129q0 -78 47 -131zM860 1354l154 284h399l-221 -284h-332z" />
    <glyph glyph-name="uni1ED2" unicode="&#x1ed2;" horiz-adv-x="1622" 
d="M899 1536l-86 111l-86 -111h-295l203 305h358l201 -305h-295zM270 1249q220 217 541 217q322 0 539 -217q221 -215 221 -532t-221 -535q-218 -215 -539 -215q-320 0 -541 215q-219 219 -219 535t219 532zM559 467q101 -98 252 -98q152 0 250 98q100 100 100 250
q0 151 -100 248q-97 100 -250 100q-152 0 -252 -100q-98 -98 -98 -248q0 -149 98 -250zM1444 1763h-332l-219 285h399z" />
    <glyph glyph-name="uni1ED3" unicode="&#x1ed3;" horiz-adv-x="1175" 
d="M682 1126l-86 111l-86 -111h-295l203 306h358l201 -306h-295zM588 -29q-228 0 -391 156q-160 157 -160 385t160 385q159 156 391 156t391 -156q160 -157 160 -385t-160 -385q-159 -156 -391 -156zM463 381q49 -49 125 -49q77 0 123 49q49 52 49 131q0 80 -49 129
q-45 51 -123 51q-77 0 -125 -51q-47 -50 -47 -129q0 -78 47 -131zM1227 1354h-332l-219 284h399z" />
    <glyph glyph-name="uni1ED4" unicode="&#x1ed4;" horiz-adv-x="1622" 
d="M899 1536l-86 111l-86 -111h-295l203 305h358l201 -305h-295zM270 1249q220 217 541 217q322 0 539 -217q221 -215 221 -532t-221 -535q-218 -215 -539 -215q-320 0 -541 215q-219 219 -219 535t219 532zM559 467q101 -98 252 -98q152 0 250 98q100 100 100 250
q0 151 -100 248q-97 100 -250 100q-152 0 -252 -100q-98 -98 -98 -248q0 -149 98 -250zM1329 1763h-252q0 44 7 73.5t23.5 47.5t31 26.5t41.5 20.5l8 6q14 14 14 23q0 14 -18 14q-28 0 -62 -39l-192 66q41 78 105 113.5t165 35.5q108 0 177 -46t69 -122q0 -110 -88 -145
q-18 -9 -24 -24.5t-5 -49.5z" />
    <glyph glyph-name="uni1ED5" unicode="&#x1ed5;" horiz-adv-x="1175" 
d="M682 1126l-86 111l-86 -111h-295l203 306h358l201 -306h-295zM588 -29q-228 0 -391 156q-160 157 -160 385t160 385q159 156 391 156t391 -156q160 -157 160 -385t-160 -385q-159 -156 -391 -156zM463 381q49 -49 125 -49q77 0 123 49q49 52 49 131q0 80 -49 129
q-45 51 -123 51q-77 0 -125 -51q-47 -50 -47 -129q0 -78 47 -131zM1112 1354h-252q0 44 7 73.5t23.5 47.5t31 26.5t41.5 20.5l8 6q2 2 5.5 5t4.5 4.5t2.5 5t1.5 7.5q0 15 -18 15q-28 0 -62 -39l-192 65q41 78 105 114t165 36q108 0 177 -46t69 -122q0 -111 -88 -146
q-18 -9 -24 -24t-5 -49z" />
    <glyph glyph-name="uni1ED6" unicode="&#x1ed6;" horiz-adv-x="1622" 
d="M899 1536l-86 111l-86 -111h-295l203 305h358l201 -305h-295zM270 1249q220 217 541 217q322 0 539 -217q221 -215 221 -532t-221 -535q-218 -215 -539 -215q-320 0 -541 215q-219 219 -219 535t219 532zM559 467q101 -98 252 -98q152 0 250 98q100 100 100 250
q0 151 -100 248q-97 100 -250 100q-152 0 -252 -100q-98 -98 -98 -248q0 -149 98 -250zM711 1870h-226q0 91 21.5 156t55.5 98.5t80 47t92 9t93 -23.5q10 -4 27 -12.5t26 -12.5t20.5 -6t17.5 3t10 18t4 36h225q0 -111 -31.5 -186.5t-85.5 -102.5q-104 -47 -227 2
q-10 4 -26 12.5t-25 12.5t-20 6t-17 -2.5t-10 -18t-4 -36.5z" />
    <glyph glyph-name="uni1ED7" unicode="&#x1ed7;" horiz-adv-x="1175" 
d="M682 1126l-86 111l-86 -111h-295l203 306h358l201 -306h-295zM588 -29q-228 0 -391 156q-160 157 -160 385t160 385q159 156 391 156t391 -156q160 -157 160 -385t-160 -385q-159 -156 -391 -156zM463 381q49 -49 125 -49q77 0 123 49q49 52 49 131q0 80 -49 129
q-45 51 -123 51q-77 0 -125 -51q-47 -50 -47 -129q0 -78 47 -131zM494 1460h-226q0 91 21.5 156t55.5 98.5t80 47t92 9t93 -23.5q10 -4 27 -12t26 -12t20.5 -6t17.5 3t10 18t4 36h225q0 -111 -31.5 -186.5t-85.5 -102.5q-104 -47 -227 2q-10 4 -26.5 12.5t-25 12.5t-20 6
t-17 -3t-9.5 -18.5t-4 -36.5z" />
    <glyph glyph-name="uni1ED8" unicode="&#x1ed8;" horiz-adv-x="1622" 
d="M899 1536l-86 111l-86 -111h-295l203 305h358l201 -305h-295zM270 1249q220 217 541 217q322 0 539 -217q221 -215 221 -532t-221 -535q-218 -215 -539 -215q-320 0 -541 215q-219 219 -219 535t219 532zM559 467q101 -98 252 -98q152 0 250 98q100 100 100 250
q0 151 -100 248q-97 100 -250 100q-152 0 -252 -100q-98 -98 -98 -248q0 -149 98 -250zM809 -508q-78 0 -141 57q-58 61 -58 140q0 76 58 137q62 59 141 59q78 0 137 -59q60 -60 60 -137q0 -80 -60 -140q-60 -57 -137 -57z" />
    <glyph glyph-name="uni1ED9" unicode="&#x1ed9;" horiz-adv-x="1175" 
d="M682 1126l-86 111l-86 -111h-295l203 306h358l201 -306h-295zM588 -29q-228 0 -391 156q-160 157 -160 385t160 385q159 156 391 156t391 -156q160 -157 160 -385t-160 -385q-159 -156 -391 -156zM463 381q49 -49 125 -49q77 0 123 49q49 52 49 131q0 80 -49 129
q-45 51 -123 51q-77 0 -125 -51q-47 -50 -47 -129q0 -78 47 -131zM590 -508q-78 0 -141 57q-58 61 -58 140q0 76 58 137q62 59 141 59q78 0 137 -59t59 -137q0 -81 -59 -140q-60 -57 -137 -57z" />
    <glyph glyph-name="uni1EDA" unicode="&#x1eda;" horiz-adv-x="1622" 
d="M662 1556l163 308h430l-237 -308h-356zM1350 182q-218 -215 -539 -215q-320 0 -541 215q-219 219 -219 535t219 532q220 217 541 217q116 0 231 -32h119q64 0 84.5 27.5t20.5 99.5v24h290v-24q0 -142 -37.5 -223t-142.5 -115q195 -210 195 -506q0 -317 -221 -535z
M559 467q101 -98 252 -98q152 0 250 98q100 100 100 250q0 151 -100 248q-97 100 -250 100q-152 0 -252 -100q-98 -98 -98 -248q0 -149 98 -250z" />
    <glyph glyph-name="uni1EDB" unicode="&#x1edb;" horiz-adv-x="1175" 
d="M418 1147l164 307h430l-238 -307h-356zM588 -29q-228 0 -391 156q-160 157 -160 385t160 385q159 156 391 156q94 0 186 -29h35q64 0 84 27.5t20 99.5v25h291v-25q0 -135 -34 -215t-126 -117q95 -137 95 -307q0 -228 -160 -385q-159 -156 -391 -156zM463 381
q49 -49 125 -49q77 0 123 49q49 52 49 131q0 80 -49 129q-45 51 -123 51q-77 0 -125 -51q-47 -50 -47 -129q0 -78 47 -131z" />
    <glyph glyph-name="uni1EDC" unicode="&#x1edc;" horiz-adv-x="1622" 
d="M1071 1556h-356l-238 308h430zM1350 182q-218 -215 -539 -215q-320 0 -541 215q-219 219 -219 535t219 532q220 217 541 217q116 0 231 -32h119q64 0 84.5 27.5t20.5 99.5v24h290v-24q0 -142 -37.5 -223t-142.5 -115q195 -210 195 -506q0 -317 -221 -535zM559 467
q101 -98 252 -98q152 0 250 98q100 100 100 250q0 151 -100 248q-97 100 -250 100q-152 0 -252 -100q-98 -98 -98 -248q0 -149 98 -250z" />
    <glyph glyph-name="uni1EDD" unicode="&#x1edd;" horiz-adv-x="1175" 
d="M793 1147h-357l-237 307h430zM588 -29q-228 0 -391 156q-160 157 -160 385t160 385q159 156 391 156q94 0 186 -29h35q64 0 84 27.5t20 99.5v25h291v-25q0 -135 -34 -215t-126 -117q95 -137 95 -307q0 -228 -160 -385q-159 -156 -391 -156zM463 381q49 -49 125 -49
q77 0 123 49q49 52 49 131q0 80 -49 129q-45 51 -123 51q-77 0 -125 -51q-47 -50 -47 -129q0 -78 47 -131z" />
    <glyph glyph-name="uni1EDE" unicode="&#x1ede;" horiz-adv-x="1622" 
d="M991 1536h-270q0 47 7 78t24 50.5t33 29.5t46 22l9 6q14 14 14 25q0 16 -18 16q-31 0 -66 -43l-207 72q44 83 113 121.5t176 38.5q118 0 191 -49t73 -131q0 -119 -94 -158q-19 -9 -25.5 -25.5t-5.5 -52.5zM1350 182q-218 -215 -539 -215q-320 0 -541 215
q-219 219 -219 535t219 532q220 217 541 217q116 0 231 -32h119q64 0 84.5 27.5t20.5 99.5v24h290v-24q0 -142 -37.5 -223t-142.5 -115q195 -210 195 -506q0 -317 -221 -535zM559 467q101 -98 252 -98q152 0 250 98q100 100 100 250q0 151 -100 248q-97 100 -250 100
q-152 0 -252 -100q-98 -98 -98 -248q0 -149 98 -250z" />
    <glyph glyph-name="uni1EDF" unicode="&#x1edf;" horiz-adv-x="1175" 
d="M766 1147h-270q0 47 7 78t24 50.5t33 29.5t46 22l8 6q15 15 15 25q0 16 -19 16q-30 0 -65 -43l-207 72q44 83 113 121.5t176 38.5q118 0 191 -49t73 -132q0 -118 -94 -157q-19 -9 -25.5 -25.5t-5.5 -52.5zM588 -29q-228 0 -391 156q-160 157 -160 385t160 385
q159 156 391 156q94 0 186 -29h35q64 0 84 27.5t20 99.5v25h291v-25q0 -135 -34 -215t-126 -117q95 -137 95 -307q0 -228 -160 -385q-159 -156 -391 -156zM463 381q49 -49 125 -49q77 0 123 49q49 52 49 131q0 80 -49 129q-45 51 -123 51q-77 0 -125 -51q-47 -50 -47 -129
q0 -78 47 -131z" />
    <glyph glyph-name="uni1EE0" unicode="&#x1ee0;" horiz-adv-x="1622" 
d="M711 1542h-246q0 99 23.5 170.5t61 108t87.5 51.5t100.5 9.5t102.5 -26.5q12 -5 30 -13.5t28 -13t22.5 -6.5t18.5 3.5t10.5 19.5t4.5 39h246q0 -122 -34 -203.5t-93 -111.5q-112 -52 -250 2q-11 5 -29 13.5t-27.5 13t-22 7t-18.5 -3t-10.5 -20t-4.5 -39.5zM1350 182
q-218 -215 -539 -215q-320 0 -541 215q-219 219 -219 535t219 532q220 217 541 217q116 0 231 -32h119q64 0 84.5 27.5t20.5 99.5v24h290v-24q0 -142 -37.5 -223t-142.5 -115q195 -210 195 -506q0 -317 -221 -535zM559 467q101 -98 252 -98q152 0 250 98q100 100 100 250
q0 151 -100 248q-97 100 -250 100q-152 0 -252 -100q-98 -98 -98 -248q0 -149 98 -250z" />
    <glyph glyph-name="uni1EE1" unicode="&#x1ee1;" horiz-adv-x="1175" 
d="M494 1133h-236q0 99 22 170.5t58 108t84 51.5t96 9.5t98 -26.5q11 -4 28.5 -13t26.5 -13.5t21 -6.5t18 3.5t10.5 19.5t4.5 39h236q0 -121 -32.5 -203.5t-88.5 -112.5q-109 -51 -240 2q-11 5 -27.5 14t-25.5 13.5t-21 6.5t-17.5 -3t-10 -19.5t-4.5 -39.5zM588 -29
q-228 0 -391 156q-160 157 -160 385t160 385q159 156 391 156q94 0 186 -29h35q64 0 84 27.5t20 99.5v25h291v-25q0 -135 -34 -215t-126 -117q95 -137 95 -307q0 -228 -160 -385q-159 -156 -391 -156zM463 381q49 -49 125 -49q77 0 123 49q49 52 49 131q0 80 -49 129
q-45 51 -123 51q-77 0 -125 -51q-47 -50 -47 -129q0 -78 47 -131z" />
    <glyph glyph-name="uni1EE2" unicode="&#x1ee2;" horiz-adv-x="1622" 
d="M809 -508q-78 0 -141 57q-58 61 -58 140q0 76 58 137q62 59 141 59q78 0 137 -59q60 -60 60 -137q0 -80 -60 -140q-60 -57 -137 -57zM1350 182q-218 -215 -539 -215q-320 0 -541 215q-219 219 -219 535t219 532q220 217 541 217q116 0 231 -32h119q64 0 84.5 27.5
t20.5 99.5v24h290v-24q0 -142 -37.5 -223t-142.5 -115q195 -210 195 -506q0 -317 -221 -535zM559 467q101 -98 252 -98q152 0 250 98q100 100 100 250q0 151 -100 248q-97 100 -250 100q-152 0 -252 -100q-98 -98 -98 -248q0 -149 98 -250z" />
    <glyph glyph-name="uni1EE3" unicode="&#x1ee3;" horiz-adv-x="1175" 
d="M588 -29q-228 0 -391 156q-160 157 -160 385t160 385q159 156 391 156q94 0 186 -29h35q64 0 84 27.5t20 99.5v25h291v-25q0 -135 -34 -215t-126 -117q95 -137 95 -307q0 -228 -160 -385q-159 -156 -391 -156zM463 381q49 -49 125 -49q77 0 123 49q49 52 49 131
q0 80 -49 129q-45 51 -123 51q-77 0 -125 -51q-47 -50 -47 -129q0 -78 47 -131zM590 -508q-78 0 -141 57q-58 61 -58 140q0 76 58 137q62 59 141 59q78 0 137 -59t59 -137q0 -81 -59 -140q-60 -57 -137 -57z" />
    <glyph glyph-name="uni1EE4" unicode="&#x1ee4;" horiz-adv-x="1331" 
d="M82 479v955h410v-910q0 -159 174 -159t174 159v910h409v-955q0 -230 -162 -370q-165 -142 -421 -142q-257 0 -422 142q-162 140 -162 370zM664 -508q-79 0 -142 57q-57 60 -57 140q0 77 57 137q62 59 142 59q78 0 137 -59t59 -137q0 -81 -59 -140q-60 -57 -137 -57z" />
    <glyph glyph-name="uni1EE5" unicode="&#x1ee5;" horiz-adv-x="1177" 
d="M555 -508q-78 0 -141 57q-58 61 -58 140q0 76 58 137q62 59 141 59q78 0 137 -59q60 -60 60 -137q0 -80 -60 -140q-60 -57 -137 -57zM717 498v526h379v-1024h-379v100q-95 -129 -275 -129q-171 0 -270.5 118.5t-99.5 342.5v592h379v-551q0 -137 127 -137q67 0 103 43
t36 119z" />
    <glyph glyph-name="uni1EE6" unicode="&#x1ee6;" horiz-adv-x="1331" 
d="M817 1536h-270q0 47 7 78t24 50.5t33 29.5t46 22l9 6q14 14 14 25q0 16 -18 16q-31 0 -66 -43l-207 72q44 83 113 121.5t176 38.5q118 0 191 -49t73 -131q0 -119 -94 -158q-19 -9 -25.5 -25.5t-5.5 -52.5zM82 479v955h410v-910q0 -159 174 -159t174 159v910h409v-955
q0 -230 -162 -370q-165 -142 -421 -142q-257 0 -422 142q-162 140 -162 370z" />
    <glyph glyph-name="uni1EE7" unicode="&#x1ee7;" horiz-adv-x="1177" 
d="M727 1106h-270q0 47 7 78t24 50.5t33 29.5t46 22l8 6q15 15 15 25q0 16 -19 16q-30 0 -65 -43l-207 72q44 83 113 121.5t176 38.5q118 0 191 -49t73 -132q0 -118 -94 -157q-19 -9 -25.5 -25.5t-5.5 -52.5zM717 498v526h379v-1024h-379v100q-95 -129 -275 -129
q-171 0 -270.5 118.5t-99.5 342.5v592h379v-551q0 -137 127 -137q67 0 103 43t36 119z" />
    <glyph glyph-name="uni1EE8" unicode="&#x1ee8;" horiz-adv-x="1372" 
d="M475 1536l164 307h430l-238 -307h-356zM82 479v955h410v-910q0 -159 174 -159t174 159v910h247q57 1 75 29.5t18 97.5v24h290v-24q0 -76 -8.5 -129t-32 -100t-68 -77t-112.5 -45v-731q0 -230 -162 -370q-165 -142 -421 -142q-257 0 -422 142q-162 140 -162 370z" />
    <glyph glyph-name="uni1EE9" unicode="&#x1ee9;" horiz-adv-x="1220" 
d="M553 1434h430l-238 -308h-356zM717 498v526h190q64 0 84.5 27.5t20.5 99.5v25h291v-25q0 -73 -8.5 -125.5t-30.5 -98.5t-63.5 -76t-104.5 -46v-805h-379v100q-95 -129 -275 -129q-171 0 -270.5 118.5t-99.5 342.5v592h379v-551q0 -137 127 -137q67 0 103 43t36 119z" />
    <glyph glyph-name="uni1EEA" unicode="&#x1eea;" horiz-adv-x="1372" 
d="M870 1536h-356l-238 307h431zM82 479v955h410v-910q0 -159 174 -159t174 159v910h247q57 1 75 29.5t18 97.5v24h290v-24q0 -76 -8.5 -129t-32 -100t-68 -77t-112.5 -45v-731q0 -230 -162 -370q-165 -142 -421 -142q-257 0 -422 142q-162 140 -162 370z" />
    <glyph glyph-name="uni1EEB" unicode="&#x1eeb;" horiz-adv-x="1220" 
d="M625 1434l163 -308h-356l-237 308h430zM717 498v526h190q64 0 84.5 27.5t20.5 99.5v25h291v-25q0 -73 -8.5 -125.5t-30.5 -98.5t-63.5 -76t-104.5 -46v-805h-379v100q-95 -129 -275 -129q-171 0 -270.5 118.5t-99.5 342.5v592h379v-551q0 -137 127 -137q67 0 103 43
t36 119z" />
    <glyph glyph-name="uni1EEC" unicode="&#x1eec;" horiz-adv-x="1372" 
d="M817 1536h-270q0 47 7 78t24 50.5t33 29.5t46 22l9 6q14 14 14 25q0 16 -18 16q-31 0 -66 -43l-207 72q44 83 113 121.5t176 38.5q118 0 191 -49t73 -131q0 -119 -94 -158q-19 -9 -25.5 -25.5t-5.5 -52.5zM82 479v955h410v-910q0 -159 174 -159t174 159v910h247
q57 1 75 29.5t18 97.5v24h290v-24q0 -76 -8.5 -129t-32 -100t-68 -77t-112.5 -45v-731q0 -230 -162 -370q-165 -142 -421 -142q-257 0 -422 142q-162 140 -162 370z" />
    <glyph glyph-name="uni1EED" unicode="&#x1eed;" horiz-adv-x="1220" 
d="M727 1106h-270q0 47 7 78t24 50.5t33 29.5t46 22l8 6q15 15 15 25q0 16 -19 16q-30 0 -65 -43l-207 72q44 83 113 121.5t176 38.5q118 0 191 -49t73 -132q0 -118 -94 -157q-19 -9 -25.5 -25.5t-5.5 -52.5zM717 498v526h190q64 0 84.5 27.5t20.5 99.5v25h291v-25
q0 -73 -8.5 -125.5t-30.5 -98.5t-63.5 -76t-104.5 -46v-805h-379v100q-95 -129 -275 -129q-171 0 -270.5 118.5t-99.5 342.5v592h379v-551q0 -137 127 -137q67 0 103 43t36 119z" />
    <glyph glyph-name="uni1EEE" unicode="&#x1eee;" horiz-adv-x="1372" 
d="M82 479v955h410v-910q0 -159 174 -159t174 159v910h247q57 1 75 29.5t18 97.5v24h290v-24q0 -76 -8.5 -129t-32 -100t-68 -77t-112.5 -45v-731q0 -230 -162 -370q-165 -142 -421 -142q-257 0 -422 142q-162 140 -162 370zM545 1522h-246q0 99 23.5 170.5t61 108
t87.5 51.5t100.5 9.5t102.5 -26.5q12 -5 30 -13.5t28 -13t22.5 -6.5t18.5 3.5t10.5 19.5t4.5 39h246q0 -122 -34 -204t-93 -112q-112 -52 -250 2q-11 5 -29 14t-27.5 13.5t-22 6.5t-18.5 -3t-10.5 -19.5t-4.5 -39.5z" />
    <glyph glyph-name="uni1EEF" unicode="&#x1eef;" horiz-adv-x="1220" 
d="M717 498v526h190q64 0 84.5 27.5t20.5 99.5v25h291v-25q0 -73 -8.5 -125.5t-30.5 -98.5t-63.5 -76t-104.5 -46v-805h-379v100q-95 -129 -275 -129q-171 0 -270.5 118.5t-99.5 342.5v592h379v-551q0 -137 127 -137q67 0 103 43t36 119zM463 1112h-246q0 99 23.5 170.5
t61 108t87.5 51.5t100.5 9.5t102.5 -26.5q11 -5 30 -13.5t28.5 -13t22 -6.5t19 3.5t11 19.5t4.5 39h245q0 -122 -34 -203.5t-93 -111.5q-112 -52 -250 2q-11 5 -29 13.5t-27.5 13t-22 7t-18.5 -3t-10.5 -20t-4.5 -39.5z" />
    <glyph glyph-name="uni1EF0" unicode="&#x1ef0;" horiz-adv-x="1372" 
d="M664 -508q-79 0 -142 57q-57 60 -57 140q0 77 57 137q62 59 142 59q78 0 137 -59t59 -137q0 -81 -59 -140q-60 -57 -137 -57zM82 479v955h410v-910q0 -159 174 -159t174 159v910h247q57 1 75 29.5t18 97.5v24h290v-24q0 -76 -8.5 -129t-32 -100t-68 -77t-112.5 -45v-731
q0 -230 -162 -370q-165 -142 -421 -142q-257 0 -422 142q-162 140 -162 370z" />
    <glyph glyph-name="uni1EF1" unicode="&#x1ef1;" horiz-adv-x="1220" 
d="M555 -508q-78 0 -141 57q-58 61 -58 140q0 76 58 137q62 59 141 59q78 0 137 -59q60 -60 60 -137q0 -80 -60 -140q-60 -57 -137 -57zM717 498v526h190q64 0 84.5 27.5t20.5 99.5v25h291v-25q0 -73 -8.5 -125.5t-30.5 -98.5t-63.5 -76t-104.5 -46v-805h-379v100
q-95 -129 -275 -129q-171 0 -270.5 118.5t-99.5 342.5v592h379v-551q0 -137 127 -137q67 0 103 43t36 119z" />
    <glyph glyph-name="Ygrave" unicode="&#x1ef2;" horiz-adv-x="1380" 
d="M731 1843l164 -307h-356l-238 307h430zM926 1434h454l-485 -889v-545h-410v545l-485 889h455l235 -504z" />
    <glyph glyph-name="ygrave" unicode="&#x1ef3;" horiz-adv-x="1167" 
d="M637 1434l164 -308h-357l-237 308h430zM612 477l125 547h430l-348 -1022q-75 -223 -234.5 -323t-422.5 -89v359q106 0 161 15t87 56l-410 1004h430z" />
    <glyph glyph-name="uni1EF4" unicode="&#x1ef4;" horiz-adv-x="1380" 
d="M694 -508q-78 0 -141 57q-57 60 -57 140q0 77 57 137q62 59 141 59q78 0 137 -59q60 -60 60 -137q0 -80 -60 -140q-60 -57 -137 -57zM926 1434h454l-485 -889v-545h-410v545l-485 889h455l235 -504z" />
    <glyph glyph-name="uni1EF5" unicode="&#x1ef5;" horiz-adv-x="1167" 
d="M983 -508q-78 0 -141 57q-58 61 -58 140q0 76 58 137q62 59 141 59q78 0 137 -59q60 -60 60 -137q0 -80 -60 -140q-60 -57 -137 -57zM612 477l125 547h430l-348 -1022q-75 -223 -234.5 -323t-422.5 -89v359q106 0 161 15t87 56l-410 1004h430z" />
    <glyph glyph-name="uni1EF6" unicode="&#x1ef6;" horiz-adv-x="1380" 
d="M831 1536h-270q0 47 7 78t24.5 50.5t33.5 29.5t46 22l8 6q14 14 14 25q0 16 -18 16q-31 0 -66 -43l-207 72q44 83 113 121.5t176 38.5q118 0 191 -49t73 -131q0 -119 -94 -158q-19 -9 -25.5 -25.5t-5.5 -52.5zM926 1434h454l-485 -889v-545h-410v545l-485 889h455
l235 -504z" />
    <glyph glyph-name="uni1EF7" unicode="&#x1ef7;" horiz-adv-x="1167" 
d="M727 1106h-270q0 47 7 78t24 50.5t33 29.5t46 22l8 6q15 15 15 25q0 16 -19 16q-30 0 -65 -43l-207 72q44 83 113 121.5t176 38.5q118 0 191 -49t73 -132q0 -118 -94 -157q-19 -9 -25.5 -25.5t-5.5 -52.5zM612 477l125 547h430l-348 -1022q-75 -223 -234.5 -323
t-422.5 -89v359q106 0 161 15t87 56l-410 1004h430z" />
    <glyph glyph-name="uni1EF8" unicode="&#x1ef8;" horiz-adv-x="1380" 
d="M926 1434h454l-485 -889v-545h-410v545l-485 889h455l235 -504zM569 1522h-245q0 99 23.5 170.5t61 108t87.5 51.5t100 9.5t102 -26.5q11 -5 30 -13.5t28.5 -13t22 -6.5t19 3.5t11 19.5t4.5 39h246q0 -122 -34 -204t-93 -112q-112 -52 -250 2q-11 5 -29 14t-28 13.5
t-22 6.5t-18.5 -3t-11 -19.5t-4.5 -39.5z" />
    <glyph glyph-name="uni1EF9" unicode="&#x1ef9;" horiz-adv-x="1167" 
d="M612 477l125 547h430l-348 -1022q-75 -223 -234.5 -323t-422.5 -89v359q106 0 161 15t87 56l-410 1004h430zM475 1112h-246q0 99 23.5 170.5t61 108t87.5 51.5t100.5 9.5t102.5 -26.5q11 -5 30 -13.5t28.5 -13t22 -6.5t19 3.5t11 19.5t4.5 39h246q0 -122 -34 -203.5
t-93 -111.5q-112 -52 -250 2q-11 5 -29 13.5t-28 13t-22 7t-18.5 -3t-11 -20t-4.5 -39.5z" />
    <glyph glyph-name="endash" unicode="&#x2013;" horiz-adv-x="1310" 
d="M1208 444h-1106v357h1106v-357z" />
    <glyph glyph-name="emdash" unicode="&#x2014;" horiz-adv-x="1515" 
d="M1413 444h-1311v357h1311v-357z" />
    <glyph glyph-name="quoteleft" unicode="&#x2018;" horiz-adv-x="645" 
d="M502 748h-430l184 686h307z" />
    <glyph glyph-name="quoteright" unicode="&#x2019;" horiz-adv-x="645" 
d="M143 1434h430l-184 -686h-307z" />
    <glyph glyph-name="quotesinglbase" unicode="&#x201a;" horiz-adv-x="645" 
d="M143 399h430l-184 -686h-307z" />
    <glyph glyph-name="quotedblleft" unicode="&#x201c;" horiz-adv-x="1157" 
d="M502 748h-430l184 686h307zM1014 748h-430l184 686h307z" />
    <glyph glyph-name="quotedblright" unicode="&#x201d;" horiz-adv-x="1157" 
d="M143 1434h430l-184 -686h-307zM655 1434h430l-184 -686h-307z" />
    <glyph glyph-name="quotedblbase" unicode="&#x201e;" horiz-adv-x="1157" 
d="M143 399h430l-184 -686h-307zM655 399h430l-184 -686h-307z" />
    <glyph glyph-name="dagger" unicode="&#x2020;" horiz-adv-x="942" 
d="M662 1208h219v-356h-219v-852h-379v852h-222v356h222v226h379v-226z" />
    <glyph glyph-name="daggerdbl" unicode="&#x2021;" horiz-adv-x="942" 
d="M881 1208v-356h-219v-270h219v-357h-219v-225h-379v225h-222v357h222v270h-222v356h222v226h379v-226h219z" />
    <glyph glyph-name="bullet" unicode="&#x2022;" horiz-adv-x="860" 
d="M432 348q-153 0 -262 109t-109 262q0 149 109 258q108 108 262 108q150 0 258 -108q109 -109 109 -258q0 -153 -109 -262t-258 -109z" />
    <glyph glyph-name="ellipsis" unicode="&#x2026;" horiz-adv-x="1679" 
d="M473 37q-68 -68 -166 -68q-97 0 -168 68q-67 70 -67 168q0 99 67 166q69 69 168 69q100 0 166 -69q70 -67 70 -166q0 -98 -70 -168zM1006 37q-68 -68 -166 -68q-97 0 -168 68q-68 71 -68 168q0 98 68 166q69 69 168 69q100 0 166 -69q69 -66 69 -166q0 -99 -69 -168z
M1538 37q-68 -68 -166 -68q-97 0 -168 68q-67 70 -67 168q0 99 67 166q69 69 168 69q100 0 166 -69q70 -67 70 -166q0 -98 -70 -168z" />
    <glyph glyph-name="perthousand" unicode="&#x2030;" horiz-adv-x="2627" 
d="M461 688q-172 0 -285 113q-115 115 -115 276q0 160 115 275q114 114 285 114q166 0 280 -114q115 -115 115 -275q0 -161 -115 -276q-113 -113 -280 -113zM469 143l-147 84l962 1020l150 -86zM559 1077q0 43 -29 73t-71 30t-70.5 -30t-28.5 -73t28.5 -72.5t70.5 -29.5
t71 30t29 72zM1321 -33q-172 0 -285 113q-114 114 -114 276q0 161 114 275t285 114q167 0 281 -114t114 -275q0 -162 -114 -276q-113 -113 -281 -113zM2171 -33q-172 0 -285 113q-114 114 -114 276q0 161 114 275t285 114q166 0 280 -114q115 -115 115 -275
q0 -161 -115 -276q-113 -113 -280 -113zM1419 356q0 43 -29 73t-71 30t-70 -30t-28 -73t28 -72.5t70 -29.5t71 30t29 72zM2269 356q0 43 -29 73t-71 30t-70 -30t-28 -73t28 -72.5t70 -29.5t71 30t29 72z" />
    <glyph glyph-name="guilsinglleft" unicode="&#x2039;" horiz-adv-x="751" 
d="M338 1042h311l-235 -409l235 -410h-311l-236 410z" />
    <glyph glyph-name="guilsinglright" unicode="&#x203a;" horiz-adv-x="751" 
d="M102 1042h312l235 -409l-235 -410h-312l236 410z" />
    <glyph glyph-name="fraction" unicode="&#x2044;" horiz-adv-x="368" 
d="M737 1434l-839 -1434h-267l840 1434h266z" />
    <glyph glyph-name="Euro" unicode="&#x20ac;" horiz-adv-x="1316" 
d="M946 504l350 -199q-164 -338 -528 -338q-238 0 -396 142.5t-208 394.5h-144v172h123v41v37h-123v172h142q50 254 208 397t398 143q363 0 518 -321l-342 -197q-65 121 -176 121q-132 0 -184 -143h286v-172h-317v-37v-41h317v-172h-284q53 -139 182 -139q113 0 178 139z
" />
    <glyph glyph-name="uni20BD" unicode="&#x20bd;" horiz-adv-x="1259" 
d="M717 477h-164v-80h410v-204h-410v-191h-410v191h-123v204h123v80h-123v369h123v590h574q223 0 373 -129q149 -125 149 -344q0 -241 -145 -365q-145 -121 -377 -121zM717 1038h-164v-192h164q112 0 112 96t-112 96z" />
    <glyph glyph-name="uni2116" unicode="&#x2116;" horiz-adv-x="2183" 
d="M1767 729q-161 0 -268 107q-106 106 -106 262t106 262t268 106q163 0 269 -106t106 -262t-106 -262q-104 -107 -269 -107zM881 778v656h409v-1434h-327l-451 655v-655h-410v1434h328zM1767 1016q37 0 58.5 22.5t21.5 59.5q0 53 -49.5 75t-87.5 -18q-22 -27 -23 -58
t22 -56t58 -25zM2109 299h-684v369h684v-369z" />
    <glyph glyph-name="trademark" unicode="&#x2122;" horiz-adv-x="995" 
d="M61 1434h355v-158h-94v-252h-164v252h-97v158zM692 1303l84 131h158v-410h-158v178l-76 -119h-16l-76 119v-178h-157v410h157z" />
    <glyph glyph-name="estimated" unicode="&#x212e;" horiz-adv-x="1597" 
d="M1556 717q0 -31 -30 -31h-1147q-31 0 -31 -31v-393q0 -25 14 -39q173 -182 478 -182q298 0 473 199q15 18 37 18h75q20 0 26.5 -13t-7.5 -26q-224 -239 -604 -239q-364 0 -580 210q-219 213 -219 527q0 313 211 524q213 213 547 213q331 0 544 -213t213 -524zM1249 778
v393q0 25 -14 39q-174 183 -436 183q-263 0 -437 -183q-14 -14 -14 -39v-393q0 -30 31 -30h840q30 0 30 30z" />
    <glyph glyph-name="oneeighth" unicode="&#x215b;" horiz-adv-x="1644" 
d="M518 614h-291v514l-159 -38l-68 245l270 99h248v-820zM203 0l839 1434h267l-840 -1434h-266zM1503 428q121 -71 121 -203q0 -117 -89 -185.5t-243 -68.5q-153 0 -242 68.5t-89 185.5q0 133 120 203q-92 65 -92 170q0 114 85 182t218 68t218 -68t85 -182q0 -105 -92 -170z
M1241 573q0 -43 51 -43t51 43q0 48 -51 48t-51 -48zM1358 260q0 57 -66 57q-65 0 -65 -57q0 -59 65 -59q66 0 66 59z" />
    <glyph glyph-name="threeeighths" unicode="&#x215c;" horiz-adv-x="1734" 
d="M672 879q0 -137 -92 -215t-244 -78q-244 0 -336 200l233 134q30 -82 103 -82q57 0 57 41q0 39 -47 39h-65l-103 153l98 111h-233v252h598v-183l-131 -147q162 -61 162 -225zM293 0l840 1434h266l-840 -1434h-266zM1593 428q121 -71 121 -203q0 -117 -89 -185.5
t-243 -68.5q-153 0 -242 68.5t-89 185.5q0 133 120 203q-92 65 -92 170q0 114 85 182t218 68t218.5 -68t85.5 -182q0 -104 -93 -170zM1331 573q0 -43 51 -43q52 0 52 43q0 48 -52 48q-51 0 -51 -48zM1448 260q0 57 -66 57q-65 0 -65 -57q0 -59 65 -59q66 0 66 59z" />
    <glyph glyph-name="fiveeighths" unicode="&#x215d;" horiz-adv-x="1748" 
d="M655 866q0 -136 -88 -208t-235 -72q-243 0 -332 200l236 113q28 -72 92 -72q59 0 59 43t-53 43h-279l35 521h535v-252h-295l-2 -49h16q146 0 228.5 -68t82.5 -199zM307 0l840 1434h266l-840 -1434h-266zM1608 428q121 -71 121 -203q0 -117 -89 -185.5t-243 -68.5
t-243 68.5t-89 185.5q0 132 121 203q-92 65 -92 170q0 114 85 182t218 68t218 -68t85 -182q0 -105 -92 -170zM1346 573q0 -43 51 -43t51 43q0 48 -51 48t-51 -48zM1462 260q0 57 -65 57q-66 0 -66 -57q0 -59 66 -59q65 0 65 59z" />
    <glyph glyph-name="seveneighths" unicode="&#x215e;" horiz-adv-x="1708" 
d="M614 1217l-219 -603h-297l207 568h-305v252h614v-217zM266 0l840 1434h266l-840 -1434h-266zM1567 428q121 -71 121 -203q0 -117 -89 -185.5t-243 -68.5t-243 68.5t-89 185.5q0 132 121 203q-92 65 -92 170q0 114 85 182t218 68t218 -68t85 -182q0 -105 -92 -170z
M1305 573q0 -43 51 -43t51 43q0 48 -51 48t-51 -48zM1421 260q0 57 -65 57q-66 0 -66 -57q0 -59 66 -59q65 0 65 59z" />
    <glyph glyph-name="arrowleft" unicode="&#x2190;" horiz-adv-x="1597" 
d="M727 895h809v-358h-807l434 -435h-487l-615 615l615 614h487z" />
    <glyph glyph-name="arrowup" unicode="&#x2191;" 
d="M676 1434l614 -615v-487l-424 424v-756h-379v758l-426 -426v487z" />
    <glyph glyph-name="arrowright" unicode="&#x2192;" horiz-adv-x="1597" 
d="M434 1331h488l614 -614l-614 -615h-488l434 435h-807v358h809z" />
    <glyph glyph-name="arrowdown" unicode="&#x2193;" 
d="M866 1434v-756l424 424v-488l-614 -614l-615 614v488l426 -426v758h379z" />
    <glyph glyph-name="arrowboth" unicode="&#x2194;" horiz-adv-x="2416" 
d="M1274 1311h487l594 -594l-594 -594h-487l414 414h-959l414 -414h-488l-594 594l594 594h488l-416 -416h963z" />
    <glyph glyph-name="arrowupdn" unicode="&#x2195;" horiz-adv-x="1310" 
d="M1249 1249v-487l-403 403v-897l403 404v-488l-594 -594l-594 594v488l406 -406v901l-406 -405v487l594 594z" />
    <glyph glyph-name="uni2196" unicode="&#x2196;" 
d="M672 950l618 -616l-268 -268l-616 616v-600l-345 344v868h869l344 -344h-602z" />
    <glyph glyph-name="uni2197" unicode="&#x2197;" 
d="M78 950l344 344h868v-868l-344 -344v600l-616 -616l-269 268l619 616h-602z" />
    <glyph glyph-name="uni2198" unicode="&#x2198;" 
d="M946 739v600l344 -344v-868h-868l-344 344h602l-619 616l269 269z" />
    <glyph glyph-name="uni2199" unicode="&#x2199;" 
d="M1022 1356l268 -269l-618 -616h602l-344 -344h-869v868l345 344v-600z" />
    <glyph glyph-name="partialdiff" unicode="&#x2202;" horiz-adv-x="1189" 
d="M485 1466q264 0 443 -206q180 -204 180 -543q0 -359 -161 -554.5t-443 -195.5q-211 0 -338 127q-125 125 -125 316q0 211 129 346q132 135 344 135q100 0 193 -37q-47 250 -265 256q-125 3 -245 -63v346q113 73 288 73zM532 315q135 0 173 213q-72 35 -150 35
q-60 0 -97.5 -36.5t-37.5 -96.5q0 -49 32.5 -82t79.5 -33z" />
    <glyph glyph-name="emptyset" unicode="&#x2205;" horiz-adv-x="1646" 
d="M1524 1475l-174 -236q215 -218 215 -522q0 -307 -217 -524q-218 -218 -525 -218q-182 0 -340 82l-73 -98h-287l174 236q-215 218 -215 522q0 307 217 524t524 217q182 0 340 -82l74 99h287zM348 717q0 -172 109 -305l549 747q-81 37 -183 37q-199 0 -338 -139
q-137 -137 -137 -340zM823 238q197 0 336 139t139 340q0 173 -108 305l-549 -748q79 -36 182 -36z" />
    <glyph glyph-name="product" unicode="&#x220f;" horiz-adv-x="1269" 
d="M481 -410h-379v1844h1065v-1844h-379v1483h-307v-1483z" />
    <glyph glyph-name="summation" unicode="&#x2211;" horiz-adv-x="1126" 
d="M1065 -410h-1024v318l381 624l-350 582v320h962v-377h-487l315 -525l-344 -565h547v-377z" />
    <glyph glyph-name="minus" unicode="&#x2212;" horiz-adv-x="1146" 
d="M1085 532h-1024v369h1024v-369z" />
    <glyph glyph-name="radical" unicode="&#x221a;" horiz-adv-x="1433" 
d="M860 0h-366l-222 352h-231v353h446l158 -273l399 1206h390z" />
    <glyph glyph-name="infinity" unicode="&#x221e;" horiz-adv-x="1699" 
d="M1223 1137q181 0 297 -119q118 -115 118 -301q0 -185 -118 -303q-117 -117 -297 -117q-205 0 -373 186q-168 -186 -373 -186q-179 0 -299 117q-117 120 -117 303q0 184 117 301q119 119 299 119q204 0 373 -187q169 187 373 187zM528 645q68 0 140 72q-71 71 -140 71
q-33 0 -55 -18.5t-22 -52.5t22.5 -53t54.5 -19zM1171 645q33 0 55.5 19t22.5 53t-22.5 52.5t-55.5 18.5q-68 0 -139 -71q72 -72 139 -72z" />
    <glyph glyph-name="integral" unicode="&#x222b;" horiz-adv-x="987" 
d="M0 -418v369q70 -30 131 1t74 105l176 1035q16 93 56.5 164.5t98 113.5t130 65.5t153.5 21.5t168 -19v-369q-70 30 -131 -1t-74 -105l-176 -1035q-16 -93 -56.5 -164.5t-98 -113.5t-130 -65.5t-153.5 -21.5t-168 19z" />
    <glyph glyph-name="approxequal" unicode="&#x2248;" horiz-adv-x="1183" 
d="M592 762q-92 37 -161.5 45t-121 -8t-110.5 -56l-138 103q44 232 189.5 313t341.5 -12q42 -18 67 -28.5t52 -19.5t41 -11.5t30 -1t24 7.5t18 19t16.5 28.5t15.5 40.5l266 -121q-29 -154 -105.5 -243.5t-184 -102t-240.5 46.5zM328 244l-267 121q29 154 105.5 243.5
t184.5 102t241 -46.5q92 -38 161.5 -46t121 7.5t110.5 56.5l137 -102q-44 -232 -189 -313t-341 12q-42 18 -67 28.5t-52 19.5t-41.5 11.5t-30.5 1t-24 -7.5t-18 -19t-16.5 -28.5t-14.5 -40.5z" />
    <glyph glyph-name="notequal" unicode="&#x2260;" horiz-adv-x="1024" 
d="M963 1137v-369h-347l-45 -102h392v-369h-551l-84 -195h-164l84 195h-187v369h347l45 102h-392v369h551l84 194h164l-84 -194h187z" />
    <glyph glyph-name="lessequal" unicode="&#x2264;" horiz-adv-x="1044" 
d="M61 1137l922 297v-398l-573 -114l573 -115v-397l-922 297v430zM983 0h-922v369h922v-369z" />
    <glyph glyph-name="greaterequal" unicode="&#x2265;" horiz-adv-x="1044" 
d="M61 1036v398l922 -297v-430l-922 -297v397l574 115zM983 0h-922v369h922v-369z" />
    <glyph glyph-name="lozenge" unicode="&#x25ca;" horiz-adv-x="1269" 
d="M827 0h-385l-381 717l381 717h385l381 -717zM485 717l150 -283l149 283l-149 282z" />
    <glyph glyph-name="NULL" horiz-adv-x="0" 
 />
    <glyph glyph-name="CR" horiz-adv-x="681" 
 />
    <glyph glyph-name="i.loclTRK" horiz-adv-x="542" 
d="M406 1163q-57 -57 -137.5 -57t-137.5 57t-57 137.5t57 137.5t137.5 57t137.5 -57t57 -137.5t-57 -137.5zM461 0h-379v1024h379v-1024z" />
    <glyph glyph-name="f_f_j" horiz-adv-x="1761" 
d="M1102 1024h577v-1024q0 -241 -124 -348.5t-388 -93.5v340q133 -12 133 102v664h-198v-664h-379v664h-205v-664h-379v664h-119v360h119q0 223 138.5 339t398.5 103v-340q-73 6 -115.5 -22t-42.5 -80h205v20q0 217 136 330t401 113q153 0 276 -33v-311q-131 20 -246 20
q-188 0 -188 -119v-20z" />
    <glyph glyph-name="f_j" horiz-adv-x="1177" 
d="M518 1024h578v-1024q0 -241 -124 -348.5t-388 -93.5v340q133 -12 133 102v664h-199v-664h-379v664h-119v360h119q0 217 136 329.5t401 112.5q156 0 276 -32v-312q-138 21 -245 21q-189 0 -189 -119z" />
    <glyph glyph-name="uni0414.loclBGR" horiz-adv-x="1515" 
d="M987 1434l352 -1037h166v-671h-409v274h-676v-274h-410v671h166l352 1037h459zM758 973l-164 -576h328z" />
    <glyph glyph-name="uni041B.loclBGR" horiz-adv-x="1372" 
d="M0 0l457 1434h458l457 -1434h-450l-236 911l-235 -911h-451z" />
    <glyph glyph-name="uni0424.loclBGR" horiz-adv-x="1789" 
d="M1090 -8v-197h-390v197q-299 50 -473 241q-176 194 -176 484q0 287 176 481q177 195 473 244v196h390v-196q296 -49 473 -244q176 -194 176 -481q0 -290 -176 -484q-174 -191 -473 -241zM700 381v672q-239 -70 -239 -336t239 -336zM1090 1053v-672q239 70 239 336
t-239 336z" />
    <glyph glyph-name="uni0414.ss01" horiz-adv-x="1464" 
d="M1290 1434v-1037h154v-397h-1434v397h152q86 157 86 434v603h1042zM586 397h295v660h-224v-230q0 -265 -71 -430z" />
    <glyph glyph-name="uni0426.ss01" horiz-adv-x="1464" 
d="M1270 1434v-1037h174v-397h-1342v1434h430v-1037h308v1037h430z" />
    <glyph glyph-name="uni0429.ss01" horiz-adv-x="2058" 
d="M1864 1434v-1037h174v-397h-1936v1434h410v-1037h266v1037h410v-1037h266v1037h410z" />
    <glyph glyph-name="uni0414.loclBGR.ss01" horiz-adv-x="1515" 
d="M987 1434l352 -1037h166v-397h-1495v397h166l352 1037h459zM758 973l-164 -576h328z" />
    <glyph glyph-name="uni0432.loclBGR" horiz-adv-x="1142" 
d="M901 829q205 -108 205 -383q0 -219 -141 -348q-139 -127 -381 -127q-226 0 -365 133q-137 134 -137 363v489q0 233 133 369q134 137 360 137q197 0 313 -104t116 -277q0 -143 -103 -252zM553 1114q-92 0 -92 -127v-125l18 4q48 11 80 13q74 68 74 139q0 96 -80 96z
M727 446q0 72 -50.5 104t-137.5 13l-78 -16v-80q0 -63 36 -101t97 -38q62 0 97.5 31.5t35.5 86.5z" />
    <glyph glyph-name="uni0433.loclBGR" horiz-adv-x="980" 
d="M651 362l310 -147q-108 -244 -480 -244q-62 0 -120.5 10t-117.5 35.5t-102.5 64.5t-71 102t-28.5 143q0 64 17 115.5t46 84.5t67 57.5t79.5 38.5t83 24t79.5 16.5t67 13.5t46 18.5t17 28.5q0 43 -64 43q-76 0 -114 -86l-314 113q108 260 453 260q167 0 291 -92
q125 -91 125 -261q0 -100 -48 -170.5t-124 -103.5q-50 -20 -135.5 -42.5t-131 -40t-45.5 -40.5q0 -45 70 -45q105 0 145 104z" />
    <glyph glyph-name="uni0434.loclBGR" horiz-adv-x="1255" 
d="M795 932v92h379v-993q0 -99 -30.5 -180t-82 -134.5t-121.5 -90t-145.5 -52.5t-157.5 -16q-181 0 -320 65.5t-206 183.5l307 179q73 -101 198 -101q77 0 128 38t51 108v102q-100 -121 -275 -121q-206 0 -338 150q-131 149 -131 370q0 222 131 371q132 150 338 150
q175 0 275 -121zM479 401q53 -53 133 -53q81 0 131 53q51 54 51 131.5t-51 131.5q-50 53 -131 53q-80 0 -133 -53q-49 -54 -49 -131.5t49 -131.5z" />
    <glyph glyph-name="uni0436.loclBGR" horiz-adv-x="1615" 
d="M1321 512l295 -512h-414l-205 393v-393h-379v393l-204 -393h-414l295 512l-275 512h414l184 -383v793h379v-793l185 383h413z" />
    <glyph glyph-name="uni0438.loclBGR" horiz-adv-x="1177" 
d="M717 498v526h379v-1024h-379v100q-95 -129 -275 -129q-171 0 -270.5 118.5t-99.5 342.5v592h379v-551q0 -137 127 -137q67 0 103 43t36 119z" />
    <glyph glyph-name="uni0439.loclBGR" horiz-adv-x="1177" 
d="M225 1432h717v-308h-717v308zM717 498v526h379v-1024h-379v100q-95 -129 -275 -129q-171 0 -270.5 118.5t-99.5 342.5v592h379v-551q0 -137 127 -137q67 0 103 43t36 119z" />
    <glyph glyph-name="uni043A.loclBGR" horiz-adv-x="1126" 
d="M795 512l331 -512h-419l-246 410v-410h-379v1434h379v-807l215 397h430z" />
    <glyph glyph-name="uni043B.loclBGR" horiz-adv-x="1167" 
d="M778 1024l389 -1024h-419l-164 512l-164 -512h-420l389 1024h389z" />
    <glyph glyph-name="uni043F.loclBGR" horiz-adv-x="1177" 
d="M735 1053q171 0 271 -118.5t100 -342.5v-592h-379v551q0 137 -127 137q-67 0 -103 -43t-36 -119v-526h-379v1024h379v-100q95 129 274 129z" />
    <glyph glyph-name="uni0442.loclBGR" horiz-adv-x="1740" 
d="M1290 1053q179 0 279 -112t100 -318v-623h-379v571q0 117 -104 117q-121 0 -121 -151v-537h-379v571q0 117 -104 117q-121 0 -121 -151v-537h-379v1024h379v-96q101 125 278 125q176 0 256 -127q112 127 295 127z" />
    <glyph glyph-name="uni0446.loclBGR" horiz-adv-x="1269" 
d="M1157 340h92v-614h-348v303q-77 30 -123 94q-109 -152 -336 -152q-171 0 -270.5 118.5t-99.5 342.5v592h379v-551q0 -137 127 -137q67 0 103 43t36 119v526h379v-623q0 -61 61 -61z" />
    <glyph glyph-name="uni0448.loclBGR" horiz-adv-x="1740" 
d="M1280 487v537h379v-1024h-379v96q-101 -125 -279 -125q-176 0 -256 127q-112 -127 -294 -127q-179 0 -279 112t-100 318v623h379v-571q0 -117 104 -117q121 0 121 151v537h379v-571q0 -117 104 -117q121 0 121 151z" />
    <glyph glyph-name="uni0449.loclBGR" horiz-adv-x="1832" 
d="M1720 340h92v-614h-348v303q-72 28 -121 90q-115 -148 -321 -148q-183 0 -272 133q-109 -133 -299 -133q-179 0 -279 112t-100 318v623h379v-571q0 -117 104 -117q121 0 121 151v537h379v-571q0 -117 104 -117q121 0 121 151v537h379v-623q0 -61 61 -61z" />
    <glyph glyph-name="uni044C.loclBGR" horiz-adv-x="1013" 
d="M440 774h113q212 0 326 -108.5t114 -296.5q0 -175 -123 -289q-122 -113 -338 -113q-223 0 -341.5 111t-118.5 311v635h368v-250zM625 383q0 82 -93 82h-92v-66q0 -94 92 -94q93 0 93 78z" />
    <glyph glyph-name="uni044A.loclBGR" horiz-adv-x="1167" 
d="M594 774h113q212 0 326 -108.5t114 -296.5q0 -175 -123 -289q-122 -113 -338 -113q-223 0 -342 111t-119 311v287h-225v348h594v-250zM778 383q0 82 -92 82h-92v-66q0 -94 92 -94t92 78z" />
    <glyph glyph-name="uni044E.loclBGR" horiz-adv-x="1634" 
d="M1047 1053q232 0 391 -156t159 -385t-159 -385t-391 -156q-177 0 -312 99t-190 262h-84v-332h-379v1434h379v-742h82q55 163 190.5 262t313.5 99zM922 381q49 -49 125 -49t122 49q50 53 50 131q0 79 -50 129q-45 51 -122 51t-125 -51t-48 -129q0 -77 48 -131z" />
    <glyph glyph-name="zero.sinf" horiz-adv-x="839" 
d="M700 -238q-106 -118 -280 -118q-177 0 -283 118t-106 320q0 201 106 319q107 119 283 119q173 0 280 -119q109 -121 109 -319q0 -199 -109 -320zM332 82q0 -150 88 -150t88 150q0 149 -88 149t-88 -149z" />
    <glyph glyph-name="one.sinf" horiz-adv-x="579" 
d="M0 393l270 99h248v-820h-291v514l-159 -39z" />
    <glyph glyph-name="two.sinf" horiz-adv-x="714" 
d="M674 -328h-627v209l287 269q55 52 55 83q0 37 -41 37q-45 0 -80 -86l-237 135q103 201 331 201q127 0 218 -76q92 -74 92 -194q0 -130 -144 -256l-73 -66h219v-256z" />
    <glyph glyph-name="three.sinf" horiz-adv-x="692" 
d="M641 309l-131 -147q162 -61 162 -225q0 -137 -92 -215t-244 -78q-244 0 -336 200l233 133q29 -81 103 -81q57 0 57 41q0 38 -47 38h-65l-103 154l98 111h-233v252h598v-183z" />
    <glyph glyph-name="four.sinf" horiz-adv-x="749" 
d="M662 23h67v-246h-67v-105h-263v105h-389v246l226 469h301l-213 -469h75v135h263v-135z" />
    <glyph glyph-name="five.sinf" horiz-adv-x="675" 
d="M328 190h16q146 0 228.5 -67.5t82.5 -198.5q0 -136 -88 -208t-235 -72q-243 0 -332 200l236 113q28 -72 92 -72q59 0 59 43t-53 43h-279l35 521h535v-252h-295z" />
    <glyph glyph-name="six.sinf" horiz-adv-x="704" 
d="M594 492l-148 -256q112 -25 175 -102.5t63 -188.5q0 -136 -89.5 -218.5t-242.5 -82.5t-242.5 82.5t-89.5 218.5q0 93 46 166l225 381h303zM289 -55q0 -62 63 -62q64 0 64 62q0 61 -64 61q-63 0 -63 -61z" />
    <glyph glyph-name="seven.sinf" horiz-adv-x="634" 
d="M0 240v252h614v-218l-219 -602h-297l207 568h-305z" />
    <glyph glyph-name="eight.sinf" horiz-adv-x="704" 
d="M563 100q121 -71 121 -202q0 -117 -89 -185.5t-243 -68.5t-243 68.5t-89 185.5q0 131 121 202q-92 65 -92 170q0 114 85 182t218 68t218 -68t85 -182q0 -105 -92 -170zM301 246q0 -43 51 -43t51 43q0 47 -51 47t-51 -47zM418 -68q0 58 -66 58q-65 0 -65 -58q0 -59 65 -59
q66 0 66 59z" />
    <glyph glyph-name="nine.sinf" horiz-adv-x="704" 
d="M684 219q0 -95 -45 -166l-225 -381h-303l147 256q-112 25 -175 102.5t-63 188.5q0 136 89.5 218.5t242.5 82.5t242.5 -82.5t89.5 -218.5zM416 219q0 62 -64 62q-63 0 -63 -62q0 -61 63 -61q64 0 64 61z" />
    <glyph glyph-name="zero.tf" horiz-adv-x="1228" 
d="M1061 170q-156 -203 -447 -203q-290 0 -446 203q-158 208 -158 547q0 340 158 545q155 204 446 204q292 0 447 -204q158 -205 158 -545q0 -339 -158 -547zM420 717q0 -352 194 -352q195 0 195 352t-195 352q-194 0 -194 -352z" />
    <glyph glyph-name="one.tf" horiz-adv-x="1228" 
d="M854 1434v-1037h344v-397h-1147v397h393v609l-247 -60l-95 342l404 146h348z" />
    <glyph glyph-name="two.tf" horiz-adv-x="1228" 
d="M1174 0h-1108v299l548 485q119 107 119 179q0 49 -35.5 77.5t-93.5 28.5q-144 0 -209 -182l-354 205q65 180 215.5 277t347.5 97q223 0 379 -129q160 -130 160 -358q0 -121 -50 -215.5t-163 -194.5l-193 -172h437v-397z" />
    <glyph glyph-name="three.tf" horiz-adv-x="1228" 
d="M1100 1118l-242 -270q153 -39 236.5 -141t83.5 -256q0 -235 -151 -359.5t-413 -124.5q-216 0 -371.5 99.5t-211.5 285.5l360 205q49 -192 223 -192q154 0 154 106q0 54 -39 78t-125 24h-76l-166 244l203 219h-469v398h1004v-316z" />
    <glyph glyph-name="four.tf" horiz-adv-x="1228" 
d="M1055 578h143v-369h-143v-209h-402v209h-643v369l436 856h465l-436 -856h178v221h402v-221z" />
    <glyph glyph-name="five.tf" horiz-adv-x="1228" 
d="M549 928h86q265 0 409 -116.5t144 -352.5q0 -235 -160 -365q-157 -127 -414 -127q-207 0 -360 92.5t-215 266.5l364 196q47 -157 211 -157t164 104q0 96 -164 96h-497l59 869h920v-398h-541z" />
    <glyph glyph-name="six.tf" horiz-adv-x="1228" 
d="M1024 1434l-297 -443q215 -27 344 -168q127 -139 127 -340q0 -226 -158 -372q-156 -144 -426 -144q-272 0 -428 144q-155 143 -155 372q0 162 80 283l2 4l4 4l446 660h461zM485 373q45 -39 129 -39q82 0 127 39q47 41 47 110q0 68 -47 109t-127 41q-82 0 -129 -41
q-45 -39 -45 -109q0 -71 45 -110z" />
    <glyph glyph-name="seven.tf" horiz-adv-x="1228" 
d="M41 1036v398h1126v-336l-487 -1098h-451l455 1036h-643z" />
    <glyph glyph-name="eight.tf" horiz-adv-x="1228" 
d="M987 750q205 -120 205 -347q0 -203 -151 -317.5t-427 -114.5t-426.5 114.5t-150.5 317.5q0 227 205 347q-156 105 -156 286q0 198 147 312t381 114t381 -114q148 -115 148 -312q0 -181 -156 -286zM774 997q0 105 -160 105q-159 0 -159 -105q0 -104 159 -104
q160 0 160 104zM446 461q0 -121 168 -121t168 121t-168 121t-168 -121z" />
    <glyph glyph-name="nine.tf" horiz-adv-x="1228" 
d="M1118 668l-2 -4l-4 -5l-446 -659h-461l297 442q-219 27 -346 166q-125 137 -125 342q0 228 155 371q157 145 428 145q269 0 426 -145q158 -146 158 -371q0 -161 -80 -282zM485 1059q-45 -39 -45 -109q0 -71 45 -110t129 -39q82 0 127 39q47 41 47 110q0 68 -47 109
t-127 41q-82 0 -129 -41z" />
    <glyph glyph-name="zero.dnom" horiz-adv-x="839" 
d="M700 90q-107 -119 -280 -119q-176 0 -283 119q-106 118 -106 320q0 201 106 319q107 119 283 119q173 0 280 -119q109 -121 109 -319q0 -199 -109 -320zM332 410q0 -150 88 -150t88 150q0 149 -88 149t-88 -149z" />
    <glyph glyph-name="one.dnom" horiz-adv-x="571" 
d="M0 721l270 98h248v-819h-291v514l-159 -39z" />
    <glyph glyph-name="two.dnom" horiz-adv-x="718" 
d="M674 0h-627v209l287 268q55 52 55 84q0 37 -41 37q-45 0 -80 -86l-237 135q103 201 331 201q127 0 218 -76q92 -74 92 -194q0 -130 -144 -256l-73 -66h219v-256z" />
    <glyph glyph-name="three.dnom" horiz-adv-x="661" 
d="M641 637l-131 -148q162 -61 162 -225q0 -137 -92 -215t-244 -78q-244 0 -336 201l233 133q30 -82 103 -82q57 0 57 41q0 39 -47 39h-65l-103 154l98 110h-233v252h598v-182z" />
    <glyph glyph-name="four.dnom" horiz-adv-x="749" 
d="M662 350h67v-246h-67v-104h-263v104h-389v246l226 469h301l-213 -469h75v135h263v-135z" />
    <glyph glyph-name="five.dnom" horiz-adv-x="675" 
d="M328 518h16q146 0 228.5 -67.5t82.5 -198.5q0 -136 -88 -208.5t-235 -72.5q-243 0 -332 201l236 113q28 -72 92 -72q59 0 59 43t-53 43h-279l35 520h535v-252h-295z" />
    <glyph glyph-name="six.dnom" horiz-adv-x="704" 
d="M594 819l-148 -256q112 -25 175 -102.5t63 -188.5q0 -136 -89.5 -218.5t-242.5 -82.5t-242.5 82.5t-89.5 218.5q0 93 46 166l225 381h303zM289 272q0 -61 63 -61q64 0 64 61q0 62 -64 62q-63 0 -63 -62z" />
    <glyph glyph-name="seven.dnom" horiz-adv-x="634" 
d="M0 567v252h614v-217l-219 -602h-297l207 567h-305z" />
    <glyph glyph-name="eight.dnom" horiz-adv-x="704" 
d="M563 428q121 -71 121 -203q0 -117 -89 -185.5t-243 -68.5t-243 68.5t-89 185.5q0 132 121 203q-92 65 -92 170q0 114 85 182t218 68t218 -68t85 -182q0 -105 -92 -170zM301 573q0 -43 51 -43t51 43q0 48 -51 48t-51 -48zM418 260q0 57 -66 57q-65 0 -65 -57q0 -59 65 -59
q66 0 66 59z" />
    <glyph glyph-name="nine.dnom" horiz-adv-x="704" 
d="M674 547q0 -95 -45 -166l-226 -381h-303l148 256q-112 25 -175 102.5t-63 188.5q0 136 89.5 218.5t242.5 82.5t242.5 -82.5t89.5 -218.5zM406 547q0 61 -64 61q-63 0 -63 -61q0 -62 63 -62q64 0 64 62z" />
    <glyph glyph-name="zero.numr" horiz-adv-x="839" 
d="M700 705q-107 -119 -280 -119q-176 0 -283 119q-106 118 -106 319t106 319q107 119 283 119q173 0 280 -119q109 -121 109 -319t-109 -319zM332 1024q0 -150 88 -150t88 150t-88 150t-88 -150z" />
    <glyph glyph-name="one.numr" horiz-adv-x="571" 
d="M0 1335l270 99h248v-820h-291v514l-159 -38z" />
    <glyph glyph-name="two.numr" horiz-adv-x="718" 
d="M674 614h-627v209l287 269q55 52 55 84q0 36 -41 36q-45 0 -80 -86l-237 136q102 200 331 200q127 0 218 -76q92 -74 92 -194q0 -130 -144 -256l-73 -66h219v-256z" />
    <glyph glyph-name="three.numr" horiz-adv-x="661" 
d="M641 1251l-131 -147q162 -61 162 -225q0 -137 -92 -215t-244 -78q-244 0 -336 200l233 134q30 -82 103 -82q57 0 57 41q0 39 -47 39h-65l-103 153l98 111h-233v252h598v-183z" />
    <glyph glyph-name="four.numr" horiz-adv-x="749" 
d="M662 965h67v-246h-67v-105h-263v105h-389v246l226 469h301l-213 -469h75v135h263v-135z" />
    <glyph glyph-name="five.numr" horiz-adv-x="675" 
d="M328 1133h16q146 0 228.5 -68t82.5 -199q0 -136 -88 -208t-235 -72q-243 0 -332 200l236 113q28 -72 92 -72q59 0 59 43t-53 43h-279l35 521h535v-252h-295z" />
    <glyph glyph-name="six.numr" horiz-adv-x="704" 
d="M594 1434l-148 -256q112 -25 175 -102.5t63 -188.5q0 -136 -89.5 -218.5t-242.5 -82.5t-242.5 82.5t-89.5 218.5q0 93 46 166l225 381h303zM289 887q0 -62 63 -62q64 0 64 62q0 61 -64 61q-63 0 -63 -61z" />
    <glyph glyph-name="seven.numr" horiz-adv-x="634" 
d="M0 1182v252h614v-217l-219 -603h-297l207 568h-305z" />
    <glyph glyph-name="eight.numr" horiz-adv-x="704" 
d="M563 1042q121 -71 121 -202q0 -117 -89 -185.5t-243 -68.5t-243 68.5t-89 185.5q0 131 121 202q-92 65 -92 170q0 114 85 182t218 68t218 -68t85 -182q0 -105 -92 -170zM301 1188q0 -43 51 -43t51 43q0 47 -51 47t-51 -47zM418 874q0 58 -66 58q-65 0 -65 -58
q0 -59 65 -59q66 0 66 59z" />
    <glyph glyph-name="nine.numr" horiz-adv-x="704" 
d="M674 1161q0 -95 -45 -166l-226 -381h-303l148 256q-112 25 -175 102.5t-63 188.5q0 136 89.5 218.5t242.5 82.5t242.5 -82.5t89.5 -218.5zM406 1161q0 62 -64 62q-63 0 -63 -62q0 -61 63 -61q64 0 64 61z" />
    <glyph glyph-name="zero.sups" horiz-adv-x="839" 
d="M700 1032q-107 -119 -280 -119q-176 0 -283 119q-106 118 -106 320q0 201 106 319q107 119 283 119q173 0 280 -119q109 -121 109 -319q0 -199 -109 -320zM332 1352q0 -150 88 -150t88 150q0 149 -88 149t-88 -149z" />
    <glyph glyph-name="one.sups" horiz-adv-x="571" 
d="M0 1663l270 98h248v-819h-291v514l-159 -39z" />
    <glyph glyph-name="two.sups" horiz-adv-x="718" 
d="M674 942h-627v209l287 268q55 52 55 84q0 37 -41 37q-45 0 -80 -86l-237 135q103 201 331 201q127 0 218 -76q92 -74 92 -194q0 -130 -144 -256l-73 -66h219v-256z" />
    <glyph glyph-name="three.sups" horiz-adv-x="661" 
d="M641 1579l-131 -147q162 -61 162 -226q0 -137 -92 -215t-244 -78q-244 0 -336 201l233 133q30 -82 103 -82q57 0 57 41q0 39 -47 39h-65l-103 154l98 110h-233v252h598v-182z" />
    <glyph glyph-name="four.sups" horiz-adv-x="749" 
d="M662 1292h67v-245h-67v-105h-263v105h-389v245l226 469h301l-213 -469h75v135h263v-135z" />
    <glyph glyph-name="five.sups" horiz-adv-x="675" 
d="M328 1460h16q146 0 228.5 -67.5t82.5 -198.5q0 -136 -88 -208.5t-235 -72.5q-243 0 -332 201l236 113q28 -72 92 -72q59 0 59 43t-53 43h-279l35 520h535v-252h-295z" />
    <glyph glyph-name="six.sups" horiz-adv-x="704" 
d="M594 1761l-148 -256q112 -25 175 -102.5t63 -188.5q0 -136 -89.5 -218.5t-242.5 -82.5t-242.5 82.5t-89.5 218.5q0 93 46 166l225 381h303zM289 1214q0 -61 63 -61q64 0 64 61q0 62 -64 62q-63 0 -63 -62z" />
    <glyph glyph-name="seven.sups" horiz-adv-x="634" 
d="M0 1509v252h614v-217l-219 -602h-297l207 567h-305z" />
    <glyph glyph-name="eight.sups" horiz-adv-x="704" 
d="M563 1370q121 -71 121 -203q0 -117 -89 -185.5t-243 -68.5t-243 68.5t-89 185.5q0 132 121 203q-92 65 -92 170q0 114 85 182t218 68t218 -68t85 -182q0 -105 -92 -170zM301 1516q0 -43 51 -43t51 43q0 47 -51 47t-51 -47zM418 1202q0 58 -66 58q-65 0 -65 -58
q0 -59 65 -59q66 0 66 59z" />
    <glyph glyph-name="nine.sups" horiz-adv-x="704" 
d="M674 1489q0 -95 -45 -166l-226 -381h-303l148 256q-112 25 -175 102.5t-63 188.5q0 136 89.5 218.5t242.5 82.5t242.5 -82.5t89.5 -218.5zM406 1489q0 61 -64 61q-63 0 -63 -61q0 -62 63 -62q64 0 64 62z" />
    <glyph glyph-name="cent.tf" horiz-adv-x="1228" 
d="M784 856l-102 -315q97 3 145 88l320 -185q-68 -125 -193.5 -196.5t-277.5 -71.5q-44 0 -109 10l-59 -186h-133l71 223q-146 62 -231.5 194.5t-85.5 299.5q0 232 156 385q155 155 391 155q45 0 102 -8l60 185h133l-72 -222q160 -69 248 -223l-320 -182q-15 27 -43 49z
M508 717q0 -84 55 -133l101 309q-68 -5 -112 -54t-44 -122z" />
    <glyph glyph-name="dollar.tf" horiz-adv-x="1228" 
d="M1188 426q0 -199 -130.5 -318.5t-361.5 -138.5v-174h-143v174q-202 13 -336.5 103.5t-185.5 244.5l360 195q40 -126 162 -160v195q-250 80 -363 178q-114 102 -114 283q0 201 129 321q132 120 348 135v174h143v-176q327 -34 465 -329l-350 -189q-26 99 -115 135v-202
q1 0 6.5 -2.5t6.5 -2.5q105 -35 164 -59t120 -59q98 -56 146.5 -134t48.5 -194zM475 1010q0 -49 78 -84v164q-78 -18 -78 -80zM696 500v-158q92 12 92 72q0 48 -92 86z" />
    <glyph glyph-name="Euro.tf" horiz-adv-x="1228" 
d="M872 483l347 -198q-64 -148 -192.5 -233t-299.5 -85q-226 0 -376.5 142.5t-198.5 394.5h-142v172h123v41v37h-123v172h142q44 252 193.5 396t371.5 144q342 0 491 -327l-346 -199q-26 68 -58.5 98.5t-86.5 30.5q-105 0 -148 -143h240v-172h-266v-37v-41h266v-172h-238
q47 -139 156 -139q93 0 145 118z" />
    <glyph glyph-name="florin.tf" horiz-adv-x="1228" 
d="M1208 1448v-369q-116 28 -189.5 0t-92.5 -104l-19 -78h219v-360h-301l-139 -598q-22 -92 -70.5 -163.5t-113.5 -113t-144.5 -66t-164.5 -22.5t-173 18v369q225 -55 265 107l116 469h-217v360h308l51 205q59 227 245 309q189 86 420 37z" />
    <glyph glyph-name="uni20BD.tf" horiz-adv-x="1228" 
d="M686 477h-143v-80h389v-204h-389v-191h-410v191h-113v204h113v80h-113v369h113v590h553q223 0 373 -129q149 -125 149 -344q0 -241 -145 -365q-145 -121 -377 -121zM686 1038h-143v-192h143q113 0 113 96t-113 96z" />
    <glyph glyph-name="sterling.tf" horiz-adv-x="1228" 
d="M567 563v-166h641v-397h-1167v397h117v166h-97v287h97v127q0 230 145 360q147 129 352 129q193 0 323 -81.5t212 -254.5l-354 -190q-24 75 -58 108t-90 33q-59 0 -90 -36.5t-31 -94.5v-100h416v-287h-416z" />
    <glyph glyph-name="yen.tf" horiz-adv-x="1228" 
d="M774 1434h455l-340 -662h237v-205h-307v-86h307v-205h-307v-276h-409v276h-308v205h308v86h-308v205h238l-340 662h455l159 -390z" />
    <glyph glyph-name="brevecy" horiz-adv-x="880" 
d="M799 1124h-717v308h717v-308z" />
    </font>
</defs>
</svg>
