<?xml version="1.0" standalone="no"?>
<!DOCTYPE svg PUBLIC "-//W3C//DTD SVG 1.1//EN" "http://www.w3.org/Graphics/SVG/1.1/DTD/svg11.dtd" >
<svg xmlns="http://www.w3.org/2000/svg" xmlns:xlink="http://www.w3.org/1999/xlink" version="1.1">
<metadata>
Created by FontForge 20201107 at Sat Dec  7 11:28:32 2024
 By 
Copyright (c) 2016 by Radomir Tinkov. All rights reserved.
</metadata>
<defs>
<font id="SVN-GilroyLight" horiz-adv-x="1320" >
  <font-face 
    font-family="SVN-Gilroy Light"
    font-weight="300"
    font-stretch="normal"
    units-per-em="2048"
    panose-1="0 0 4 0 0 0 0 0 0 0"
    ascent="1638"
    descent="-410"
    x-height="1024"
    cap-height="1434"
    bbox="-604 -492 2091 2161"
    underline-thickness="102"
    underline-position="-204"
    unicode-range="U+0020-FB02"
  />
<missing-glyph horiz-adv-x="1024" 
d="M190 1638h650v-2048h-650v2048zM682 1434v67h-338v-67h133v-76h-135v-68h340v68h-135v76h135zM547 1094v143h-205v-213h340v70h-135zM410 1167h67v-73h-67v73zM682 901v68h-340v-68h135v-76h-135v-67h205v143h135zM682 641v205h-68v-135h-272v-70h340zM682 365v231h-205
v-115h70v47h67v-96h-204v164h-68v-231h340zM682 10v232h-340v-232h340zM410 174h204v-96h-204v96zM682 -104v67h-340v-67h143l-143 -97v-67h340v67h-209l143 97h66z" />
    <glyph glyph-name="fi" unicode="fi" horiz-adv-x="1044" 
d="M336 1024h553v-1024h-105v924h-448v-924h-105v924h-176v100h176v55q0 377 410 377q86 0 199 -22v-95q-108 19 -199 19q-159 0 -232 -66t-73 -213v-55z" />
    <glyph glyph-name="fl" unicode="fl" horiz-adv-x="1044" 
d="M641 1456q107 0 248 -22v-1434h-105v1354q-57 8 -143 8q-159 0 -232 -67.5t-73 -215.5v-55h244v-100h-244v-924h-105v924h-176v100h176v55q0 377 410 377z" />
    <glyph glyph-name="f_f" unicode="ff" horiz-adv-x="1193" 
d="M1194 1477v-99q-305 24 -305 -278v-76h305v-100h-305v-924h-105v924h-448v-924h-105v924h-176v100h176v55q0 193 106.5 291.5t303.5 85.5v-98q-305 24 -305 -279v-55h448v76q0 193 106.5 291.5t303.5 85.5z" />
    <glyph glyph-name="f_f_i" unicode="ffi" horiz-adv-x="1597" 
d="M889 1024h551v-1024h-103v924h-448v-924h-105v924h-448v-924h-105v924h-176v100h176v55q0 193 106.5 291.5t303.5 85.5v-98q-305 24 -305 -279v-55h448v76q0 377 410 377q81 0 199 -23v-94q-102 18 -199 18q-160 0 -232.5 -65.5t-72.5 -212.5v-76z" />
    <glyph glyph-name="f_f_l" unicode="ffl" horiz-adv-x="1597" 
d="M1194 1477q101 0 246 -23v-1454h-103v1374q-57 8 -143 8q-160 0 -232.5 -67t-72.5 -215v-76h244v-100h-244v-924h-105v924h-448v-924h-105v924h-176v100h176v55q0 193 106.5 291.5t303.5 85.5v-98q-305 24 -305 -279v-55h448v76q0 377 410 377z" />
    <glyph glyph-name=".notdef" horiz-adv-x="1024" 
d="M190 1638h650v-2048h-650v2048zM682 1434v67h-338v-67h133v-76h-135v-68h340v68h-135v76h135zM547 1094v143h-205v-213h340v70h-135zM410 1167h67v-73h-67v73zM682 901v68h-340v-68h135v-76h-135v-67h205v143h135zM682 641v205h-68v-135h-272v-70h340zM682 365v231h-205
v-115h70v47h67v-96h-204v164h-68v-231h340zM682 10v232h-340v-232h340zM410 174h204v-96h-204v96zM682 -104v67h-340v-67h143l-143 -97v-67h340v67h-209l143 97h66z" />
    <glyph glyph-name=".null" horiz-adv-x="0" 
 />
    <glyph glyph-name="nonmarkingreturn" horiz-adv-x="682" 
 />
    <glyph glyph-name="space" unicode=" " horiz-adv-x="546" 
 />
    <glyph glyph-name="exclam" unicode="!" horiz-adv-x="450" 
d="M266 369h-82l-20 655v410h123v-410zM291 6q-26 -26 -65.5 -26t-65.5 26t-26 65.5t26 65.5t65.5 26t65.5 -26t26 -65.5t-26 -65.5z" />
    <glyph glyph-name="quotedbl" unicode="&#x22;" horiz-adv-x="600" 
d="M205 1051h-82l-14 383h110zM477 1051h-82l-12 383h109z" />
    <glyph glyph-name="numbersign" unicode="#" horiz-adv-x="1234" 
d="M1161 948l-16 -94h-244l-45 -274h246l-17 -95h-245l-64 -383h-102l63 383h-315l-64 -383h-102l63 383h-243l14 95h246l45 274h-246l15 94h247l64 383h102l-63 -383h315l64 383h102l-63 -383h243zM438 580h316l45 274h-316z" />
    <glyph glyph-name="dollar" unicode="$" horiz-adv-x="1126" 
d="M1038 367q0 -160 -110 -267q-108 -105 -287 -120v-185h-96v182q-170 7 -290 83.5t-167 207.5l94 54q74 -225 363 -240v608q-97 32 -153.5 59.5t-117.5 71.5q-118 85 -118 262q0 157 110 258q113 104 279 113v184h96v-184q126 -14 221 -80.5t142 -177.5l-93 -51
q-71 179 -270 203v-582q152 -54 229 -102q84 -51 124 -119t44 -178zM264 1083q0 -105 65.5 -166.5t215.5 -115.5v549q-125 -11 -203 -84.5t-78 -182.5zM641 657v-571q133 13 210 90t77 191q0 108 -68 172t-219 118z" />
    <glyph glyph-name="percent" unicode="%" horiz-adv-x="1466" 
d="M442 846q-137 0 -225 88t-88 217t88 217t225 88q136 0 224 -88q90 -90 90 -217q0 -129 -88 -217t-226 -88zM291 999q59 -59 151 -59q93 0 152 59q61 61 61 152t-61 149q-59 62 -152 62q-92 0 -151 -62q-60 -60 -60 -149t60 -152zM274 145l-67 39l973 1094l69 -39z
M1245 66q-89 -89 -223 -89q-136 0 -225 89q-88 88 -88 217t88 217t225 88q135 0 223 -88q90 -90 90 -217t-90 -217zM870 131q59 -59 152 -59t152 59q61 61 61 152t-61 149q-59 62 -152 62t-152 -62q-59 -59 -59 -149t59 -152z" />
    <glyph glyph-name="ampersand" unicode="&#x26;" horiz-adv-x="1341" 
d="M1090 246l196 -207l-96 -55l-166 174q-156 -181 -428 -181q-213 0 -340 109q-127 112 -127 295q0 136 75 247.5t210 170.5q-115 133 -115 280q0 172 119 273q119 104 287 104q138 0 246.5 -72t152.5 -198l-90 -53q-32 100 -115.5 159.5t-191.5 59.5q-129 0 -213 -76
t-84 -193q0 -76 36 -140t119 -148l449 -469q65 121 86 284l96 -55q-26 -171 -106 -309zM592 82q222 0 358 154l-461 483q-123 -46 -186 -135.5t-63 -200.5q0 -140 95 -220.5t257 -80.5z" />
    <glyph glyph-name="quotesingle" unicode="'" horiz-adv-x="321" 
d="M205 1051h-82l-14 383h110z" />
    <glyph glyph-name="parenleft" unicode="(" horiz-adv-x="534" 
d="M453 -205h-105q-226 450 -226 921.5t226 921.5h105q-226 -450 -226 -921.5t226 -921.5z" />
    <glyph glyph-name="parenright" unicode=")" horiz-adv-x="534" 
d="M186 -205h-104q226 450 226 921.5t-226 921.5h104q226 -450 226 -921.5t-226 -921.5z" />
    <glyph glyph-name="asterisk" unicode="*" horiz-adv-x="792" 
d="M467 1247l195 4v-88l-195 4l108 -161l-79 -48l-101 172l-98 -172l-82 48l109 161l-195 -4v88l195 -4l-109 162l82 47l98 -170l101 170l79 -47z" />
    <glyph glyph-name="plus" unicode="+" horiz-adv-x="1091" 
d="M596 766h367v-98h-367v-367h-100v367h-367v98h367v367h100v-367z" />
    <glyph glyph-name="comma" unicode="," horiz-adv-x="456" 
d="M205 139h127l-111 -426h-94z" />
    <glyph glyph-name="hyphen" unicode="-" horiz-adv-x="1091" 
d="M915 584h-737v98h737v-98z" />
    <glyph glyph-name="period" unicode="." horiz-adv-x="436" 
d="M285 6q-26 -26 -65.5 -26t-65.5 26t-26 65.5t26 65.5t65.5 26t65.5 -26t26 -65.5t-26 -65.5z" />
    <glyph glyph-name="slash" unicode="/" horiz-adv-x="1079" 
d="M989 1638l-819 -1843h-82l819 1843h82z" />
    <glyph glyph-name="zero" unicode="0" horiz-adv-x="1290" 
d="M1040 178q-142 -201 -395 -201t-395 201q-141 200 -141 539t141 538q142 201 395 201t395 -201t142 -538q0 -338 -142 -539zM332 248q114 -166 313 -166t313 166q113 168 113 469q0 302 -113 467q-113 168 -313 168t-313 -168q-113 -165 -113 -467q0 -301 113 -469z" />
    <glyph glyph-name="one" unicode="1" horiz-adv-x="679" 
d="M35 1305l375 129h92v-1434h-109v1315l-332 -105z" />
    <glyph glyph-name="two" unicode="2" horiz-adv-x="1079" 
d="M989 0h-901v98l526 541q232 241 232 405q0 140 -89 224t-227 84q-240 0 -342 -217l-92 55q62 128 176 197t258 69q174 0 299 -110q127 -112 127 -302q0 -118 -66.5 -232t-201.5 -251l-444 -457h745v-104z" />
    <glyph glyph-name="three" unicode="3" horiz-adv-x="1103" 
d="M940 1331l-346 -493q180 -18 297 -129t117 -295q0 -200 -138 -320q-138 -117 -335 -117q-161 0 -283.5 72.5t-173.5 200.5l90 53q38 -105 134.5 -163t232.5 -58q161 0 262.5 90.5t101.5 241.5q0 153 -104 241q-104 90 -265 90v3l-2 -3h-28l-47 72l362 514h-700v103h825
v-103z" />
    <glyph glyph-name="four" unicode="4" horiz-adv-x="1173" 
d="M938 403h184v-102h-184v-301h-109v301h-772v102l545 1031h119l-543 -1031h651v451h109v-451z" />
    <glyph glyph-name="five" unicode="5" horiz-adv-x="1107" 
d="M274 850h271q201 0 338 -119q139 -118 139 -317t-139 -320q-138 -117 -338 -117q-160 0 -283 77t-170 212l92 53q35 -114 130.5 -175.5t230.5 -61.5q160 0 264 90q104 88 104 242q0 153 -104 241q-104 90 -264 90h-383l49 689h758v-103h-662z" />
    <glyph glyph-name="six" unicode="6" horiz-adv-x="1099" 
d="M549 922q209 0 346 -134q135 -132 135 -339q0 -208 -135 -340t-346 -132t-346 132t-135 340q0 161 88 286l481 699h123l-367 -535q84 23 156 23zM922 449q0 163 -103 266q-102 102 -270 102t-270 -102q-101 -101 -101 -266q0 -162 102.5 -264.5t268.5 -102.5t269.5 102.5
t103.5 264.5z" />
    <glyph glyph-name="seven" unicode="7" horiz-adv-x="1003" 
d="M47 1331v103h868v-103l-557 -1331h-112l557 1331h-756z" />
    <glyph glyph-name="eight" unicode="8" horiz-adv-x="1126" 
d="M782 741q120 -48 188 -142t68 -216q0 -190 -133 -299q-131 -107 -342 -107t-342 107q-133 109 -133 299q0 122 68 216t188 142q-98 48 -153.5 133.5t-55.5 194.5q0 183 123 285q126 102 305 102q180 0 303 -102q125 -101 125 -285q0 -109 -55.5 -194.5t-153.5 -133.5z
M244 1069q0 -128 89 -204.5t230 -76.5t230.5 77t89.5 204q0 131 -88.5 207t-231.5 76t-231 -75.5t-88 -207.5zM297 162q100 -80 266 -80t266 80q99 80 99 221q0 143 -99 219q-100 80 -266 80t-266 -80q-98 -76 -98 -219q0 -142 98 -221z" />
    <glyph glyph-name="nine" unicode="9" horiz-adv-x="1099" 
d="M1030 985q0 -162 -88 -287l-479 -698h-123l367 535q-84 -23 -158 -23q-212 0 -346 131q-135 132 -135 342q0 206 135 338q136 133 346 133t346 -133q135 -132 135 -338zM178 985q0 -165 101 -266q103 -103 270 -103t270 103t103 266q0 162 -103.5 264.5t-269.5 102.5
t-268.5 -102.5t-102.5 -264.5z" />
    <glyph glyph-name="colon" unicode=":" horiz-adv-x="436" 
d="M285 866q-26 -26 -65.5 -26t-65.5 26t-26 65.5t26 65.5t65.5 26t65.5 -26t26 -65.5t-26 -65.5zM285 6q-26 -26 -65.5 -26t-65.5 26t-26 65.5t26 65.5t65.5 26t65.5 -26t26 -65.5t-26 -65.5z" />
    <glyph glyph-name="semicolon" unicode=";" horiz-adv-x="471" 
d="M319 866q-26 -26 -65.5 -26t-65.5 26t-26 65.5t26 65.5t65.5 26t65.5 -26t26 -65.5t-26 -65.5zM205 139h127l-111 -426h-94z" />
    <glyph glyph-name="less" unicode="&#x3c;" horiz-adv-x="1079" 
d="M131 770l819 365v-115l-702 -303l702 -303v-115l-819 365v106z" />
    <glyph glyph-name="equal" unicode="=" horiz-adv-x="1099" 
d="M969 872h-840v99h840v-99zM969 463h-840v98h840v-98z" />
    <glyph glyph-name="greater" unicode="&#x3e;" horiz-adv-x="1079" 
d="M129 1020v115l819 -365v-106l-819 -365v115l702 303z" />
    <glyph glyph-name="question" unicode="?" horiz-adv-x="1085" 
d="M559 369h-108q0 181 139 331q18 20 67 69t73 76.5t56 71t46 85t14 85.5q0 126 -83.5 195.5t-227.5 69.5q-124 0 -213 -57t-121 -160l-92 51q43 128 159 199t267 71q182 0 301 -98q120 -94 120 -271q0 -154 -141 -299q-11 -12 -48 -49t-52.5 -54t-46 -52t-45 -60t-32 -60
t-25 -70.5t-7.5 -73.5zM571 6q-26 -26 -65.5 -26t-65.5 26t-26 65.5t26 65.5t65.5 26t65.5 -26t26 -65.5t-26 -65.5z" />
    <glyph glyph-name="at" unicode="@" horiz-adv-x="1652" 
d="M842 1253q219 0 385 -106q163 -101 247.5 -258t84.5 -336q0 -207 -81.5 -317.5t-205.5 -110.5q-87 0 -144.5 49t-70.5 139q-89 -129 -246 -129q-143 0 -238 95q-94 94 -94 233t94 233q95 95 238 95q157 0 242 -123v108h98v-456q0 -187 135 -187q100 0 158.5 95.5
t58.5 275.5q0 276 -190 463q-189 186 -471 186q-291 0 -492 -198q-200 -200 -200 -492q0 -299 206 -496q206 -194 523 -194q210 0 350 57l6 -53q-152 -55 -356 -55q-336 0 -560 211q-223 207 -223 530q0 308 213 524q214 217 533 217zM645 344q71 -65 170 -65q100 0 168 65
q70 64 70 168t-70 168q-68 65 -168 65q-99 0 -170 -65q-67 -64 -67 -168t67 -168z" />
    <glyph glyph-name="A" unicode="A" horiz-adv-x="1288" 
d="M1257 0h-114l-139 365h-719l-140 -365h-114l557 1434h114zM645 1300l-319 -833h639z" />
    <glyph glyph-name="B" unicode="B" horiz-adv-x="1275" 
d="M942 743q112 -43 179 -137.5t67 -214.5q0 -161 -115 -276t-276 -115h-619v1434h572q155 0 266 -111q110 -110 110 -266q0 -102 -49.5 -185.5t-134.5 -128.5zM750 1331h-463v-549h463q111 0 188 80q80 83 80 195t-80 192q-76 82 -188 82zM287 102h510q114 0 198 84
q84 87 84 205q0 119 -84 203q-83 86 -198 86h-510v-578z" />
    <glyph glyph-name="C" unicode="C" horiz-adv-x="1538" 
d="M842 -23q-322 0 -535 213q-211 214 -211 527t211 524q212 215 535 215q197 0 360 -94q164 -92 254 -250l-96 -55q-71 132 -211 213q-137 82 -307 82q-277 0 -459 -185q-178 -181 -178 -450t178 -453q182 -182 459 -182q167 0 308.5 82t213.5 219l96 -55
q-88 -161 -254.5 -256t-363.5 -95z" />
    <glyph glyph-name="D" unicode="D" horiz-adv-x="1488" 
d="M178 1434h539q292 0 483 -209q193 -205 193 -508q0 -302 -193 -510q-192 -207 -483 -207h-539v1434zM287 102h430q249 0 409 177q160 180 160 438q0 259 -160 436q-159 178 -409 178h-430v-1229z" />
    <glyph glyph-name="E" unicode="E" horiz-adv-x="1091" 
d="M287 672v-570h717v-102h-826v1434h815v-103h-706v-557h655v-102h-655z" />
    <glyph glyph-name="F" unicode="F" horiz-adv-x="1060" 
d="M973 1434v-103h-686v-573h661v-103h-661v-655h-109v1434h795z" />
    <glyph glyph-name="G" unicode="G" horiz-adv-x="1636" 
d="M823 668h719v-56q0 -268 -190 -452q-192 -183 -502 -183q-328 0 -541 213q-213 216 -213 527q0 313 211 524q212 215 535 215q197 0 360 -94q167 -95 256 -252l-96 -57q-69 133 -213 217q-137 82 -307 82q-277 0 -459 -185q-178 -181 -178 -450q0 -270 180 -453
q182 -182 465 -182q252 0 407 137q157 139 175 346h-609v103z" />
    <glyph glyph-name="H" unicode="H" horiz-adv-x="1406" 
d="M1120 788v646h109v-1434h-109v686h-833v-686h-109v1434h109v-646h833z" />
    <glyph glyph-name="I" unicode="I" horiz-adv-x="464" 
d="M178 0v1434h109v-1434h-109z" />
    <glyph glyph-name="J" unicode="J" horiz-adv-x="1132" 
d="M516 -23q-151 0 -264.5 62.5t-163.5 177.5l92 55q76 -190 336 -190q162 0 256 81.5t94 229.5v1041h111v-1041q0 -200 -131 -307q-130 -109 -330 -109z" />
    <glyph glyph-name="K" unicode="K" horiz-adv-x="1171" 
d="M406 737l745 -737h-145l-719 707v-707h-109v1434h109v-668l698 668h145z" />
    <glyph glyph-name="L" unicode="L" horiz-adv-x="1009" 
d="M287 1434v-1332h676v-102h-785v1434h109z" />
    <glyph glyph-name="M" unicode="M" horiz-adv-x="1652" 
d="M1337 1434h138v-1434h-109v1274l-530 -881h-19l-530 881v-1274h-109v1434h135l512 -848z" />
    <glyph glyph-name="N" unicode="N" horiz-adv-x="1406" 
d="M1120 201v1233h109v-1434h-96l-846 1233v-1233h-109v1434h94z" />
    <glyph glyph-name="O" unicode="O" horiz-adv-x="1671" 
d="M1360 193q-216 -216 -524 -216q-309 0 -525 216q-215 218 -215 524q0 307 215 522q214 217 525 217q310 0 524 -217q215 -215 215 -522q0 -306 -215 -524zM387 266q184 -184 449 -184t446 184q184 187 184 451t-184 448q-181 187 -446 187t-449 -187q-182 -185 -182 -448
t182 -451z" />
    <glyph glyph-name="P" unicode="P" horiz-adv-x="1202" 
d="M178 1434h488q192 0 319 -127t127 -318q0 -190 -127 -317q-125 -125 -319 -125h-379v-547h-109v1434zM287 649h379q145 0 241 96q97 97 97 244q0 149 -97 246q-96 96 -241 96h-379v-682z" />
    <glyph glyph-name="Q" unicode="Q" horiz-adv-x="1681" 
d="M1575 717q0 -315 -225 -533l168 -166l-74 -67l-172 168q-195 -142 -436 -142q-306 0 -525 216q-215 218 -215 524q0 307 215 522q217 217 525 217t522 -217q217 -214 217 -522zM836 82q198 0 360 113l-317 313l73 67l322 -317q192 186 192 459q0 264 -184 448
q-184 187 -446 187q-263 0 -447 -187q-184 -184 -184 -448t184 -451q184 -184 447 -184z" />
    <glyph glyph-name="R" unicode="R" horiz-adv-x="1255" 
d="M1208 0h-125l-344 588h-452v-588h-109v1434h565q174 0 299 -125t125 -299q0 -142 -90 -258q-87 -113 -225 -150zM743 1331h-456v-641h456q132 0 224 92q92 95 92 228q0 132 -92 227q-91 94 -224 94z" />
    <glyph glyph-name="S" unicode="S" horiz-adv-x="1175" 
d="M616 -23q-196 0 -335 90.5t-189 247.5l94 56q39 -136 150 -212.5t280 -76.5q170 0 265.5 78.5t95.5 208.5q0 116 -90 182q-84 62 -281 125l-102 33l-90 34q-61 25 -88 43q-97 62 -127 111q-47 81 -47 174q0 175 122 279q124 106 312 106q163 0 283.5 -81.5t177.5 -219.5
l-93 -51q-102 248 -368 248q-146 0 -235 -77t-89 -200q0 -116 82 -174t268 -119q129 -43 185 -67q67 -27 143 -76q147 -89 147 -268t-129 -287q-128 -107 -342 -107z" />
    <glyph glyph-name="T" unicode="T" horiz-adv-x="1105" 
d="M47 1434h1012v-103h-451v-1331h-110v1331h-451v103z" />
    <glyph glyph-name="U" unicode="U" horiz-adv-x="1366" 
d="M158 479v955h108v-955q0 -182 110 -289.5t306 -107.5t307 107.5t111 289.5v955h108v-955q0 -225 -145 -364q-144 -138 -381 -138t-381 138q-143 137 -143 364z" />
    <glyph glyph-name="V" unicode="V" horiz-adv-x="1239" 
d="M676 0h-115l-534 1434h118l473 -1293l476 1293h116z" />
    <glyph glyph-name="W" unicode="W" horiz-adv-x="2033" 
d="M614 0h-131l-415 1434h114l371 -1289l399 1289h129l402 -1289l368 1289h115l-416 -1434h-131l-401 1292z" />
    <glyph glyph-name="X" unicode="X" horiz-adv-x="1173" 
d="M649 737l477 -737h-125l-413 639l-414 -639h-127l477 737l-450 697h125l389 -600l387 600h125z" />
    <glyph glyph-name="Y" unicode="Y" horiz-adv-x="1193" 
d="M1051 1434h123l-523 -844v-590h-108v590l-523 844h123l455 -740z" />
    <glyph glyph-name="Z" unicode="Z" horiz-adv-x="1071" 
d="M983 1331l-774 -1229h795v-102h-916v102l774 1229h-753v103h874v-103z" />
    <glyph glyph-name="bracketleft" unicode="[" horiz-adv-x="567" 
d="M526 1638v-100h-293v-1642h293v-101h-397v1843h397z" />
    <glyph glyph-name="backslash" unicode="\" horiz-adv-x="1079" 
d="M989 -205h-82l-819 1843h82z" />
    <glyph glyph-name="bracketright" unicode="]" horiz-adv-x="567" 
d="M41 1638h397v-1843h-397v101h293v1642h-293v100z" />
    <glyph glyph-name="asciicircum" unicode="^" horiz-adv-x="1028" 
d="M463 1434h102l361 -615h-121l-291 498l-291 -498h-121z" />
    <glyph glyph-name="underscore" unicode="_" horiz-adv-x="1038" 
d="M956 -272h-874v98h874v-98z" />
    <glyph glyph-name="grave" unicode="`" horiz-adv-x="368" 
d="M328 1167h-99l-188 260h123z" />
    <glyph glyph-name="a" unicode="a" 
d="M1059 793v231h104v-1024h-104v231q-67 -120 -181.5 -187t-259.5 -67q-217 0 -374 154q-156 156 -156 381q0 226 156 379q156 156 374 156q145 0 259.5 -67t181.5 -187zM317 203q127 -127 310 -127q180 0 307 127q125 125 125 309t-125 309q-127 127 -307 127
q-183 0 -310 -127q-124 -124 -124 -309t124 -309z" />
    <glyph glyph-name="b" unicode="b" 
d="M700 1047q222 0 375 -156q156 -153 156 -379q0 -225 -156 -381q-154 -154 -375 -154q-145 0 -261 69.5t-179 191.5v-238h-102v1434h102v-648q63 122 179 191.5t261 69.5zM385 203q127 -127 309 -127q180 0 307 127t127 309t-127 309t-307 127q-182 0 -309 -127
q-125 -125 -125 -309t125 -309z" />
    <glyph glyph-name="c" unicode="c" horiz-adv-x="1148" 
d="M627 -23q-231 0 -385 154t-154 381t154 381t385 154q150 0 270.5 -71t175.5 -192l-84 -49q-44 98 -141.5 155.5t-220.5 57.5q-183 0 -310 -127q-124 -124 -124 -309q0 -187 124 -311q125 -125 310 -125q122 0 219.5 57t148.5 156l86 -51q-62 -119 -184 -190t-270 -71z
" />
    <glyph glyph-name="d" unicode="d" 
d="M1061 786v648h102v-1434h-102v238q-63 -122 -179 -191.5t-261 -69.5q-220 0 -377 154q-154 157 -154 381q0 225 154 379q156 156 377 156q145 0 261 -69.5t179 -191.5zM317 203q127 -127 310 -127q180 0 307 127t127 309t-127 309t-307 127q-183 0 -310 -127
q-124 -124 -124 -309t124 -309z" />
    <glyph glyph-name="e" unicode="e" horiz-adv-x="1206" 
d="M618 1047q226 0 365 -160q141 -159 141 -379q0 -5 -1 -24.5t-1 -24.5h-927q18 -172 137 -279q119 -104 297 -104q121 0 213.5 50t140.5 136l90 -53q-64 -107 -181.5 -169.5t-264.5 -62.5q-237 0 -387 150q-152 152 -152 385q0 230 148 381q151 154 382 154zM618 948
q-173 0 -290 -108q-118 -109 -133 -281h823q-15 181 -131 285q-113 104 -269 104z" />
    <glyph glyph-name="f" unicode="f" horiz-adv-x="641" 
d="M641 1456v-98q-305 24 -305 -279v-55h305v-100h-305v-924h-105v924h-176v100h176v55q0 193 106.5 291.5t303.5 85.5z" />
    <glyph glyph-name="g" unicode="g" horiz-adv-x="1327" 
d="M1067 786v238h102v-975q0 -222 -145 -352q-144 -129 -365 -129q-175 0 -300 64.5t-183 181.5l90 51q99 -199 393 -199q190 0 299 103t109 280v189q-63 -122 -179 -191.5t-261 -69.5q-220 0 -377 154q-154 157 -154 381q0 225 154 379q156 156 377 156q145 0 261 -69.5
t179 -191.5zM324 203q127 -127 309 -127q180 0 307 127t127 309t-127 309t-307 127q-182 0 -309 -127q-125 -125 -125 -309t125 -309z" />
    <glyph glyph-name="h" unicode="h" horiz-adv-x="1155" 
d="M627 1047q182 0 289.5 -111.5t107.5 -298.5v-637h-104v637q0 144 -80 227.5t-222 83.5q-162 0 -260 -106.5t-98 -300.5v-541h-102v1434h102v-605q111 218 367 218z" />
    <glyph glyph-name="i" unicode="i" horiz-adv-x="417" 
d="M127 1264q-1 29 16 49t41.5 24.5t49 0t41.5 -24.5t16 -49q2 -50 -40 -70.5t-84 0t-40 70.5zM260 0h-102v1024h102v-1024z" />
    <glyph glyph-name="j" unicode="j" horiz-adv-x="456" 
d="M197 -117v1141h102v-1141q0 -165 -88 -246.5t-252 -68.5v98q238 -24 238 217zM166 1264q-1 29 16 49t41.5 24.5t49 0t41.5 -24.5t16 -49q2 -50 -40 -70.5t-84 0t-40 70.5z" />
    <glyph glyph-name="k" unicode="k" horiz-adv-x="989" 
d="M371 532l571 -532h-139l-543 504v-504h-102v1434h102v-875l518 465h144z" />
    <glyph glyph-name="l" unicode="l" horiz-adv-x="417" 
d="M260 0h-102v1495h102v-1495z" />
    <glyph glyph-name="m" unicode="m" horiz-adv-x="1755" 
d="M1251 1047q170 0 271.5 -106t101.5 -292v-649h-102v649q0 141 -74 220t-199 79q-141 0 -224 -96.5t-83 -280.5v-571h-102v649q0 142 -70 220.5t-192 78.5q-140 0 -229 -98.5t-89 -278.5v-571h-102v1024h102v-176q108 199 330 199q113 0 197 -55t122 -154
q53 102 143.5 155.5t198.5 53.5z" />
    <glyph glyph-name="n" unicode="n" horiz-adv-x="1155" 
d="M627 1047q182 0 289.5 -111.5t107.5 -298.5v-637h-104v637q0 144 -80 227.5t-222 83.5q-162 0 -260 -106.5t-98 -300.5v-541h-102v1024h102v-195q111 218 367 218z" />
    <glyph glyph-name="o" unicode="o" horiz-adv-x="1251" 
d="M627 -23q-226 0 -383 154q-156 156 -156 381q0 226 156 379q156 156 383 156q223 0 379 -156q157 -154 157 -379q0 -224 -157 -381q-157 -154 -379 -154zM317 203q127 -127 310 -127q180 0 307 127q125 125 125 309t-125 309q-127 127 -307 127q-183 0 -310 -127
q-124 -124 -124 -309t124 -309z" />
    <glyph glyph-name="p" unicode="p" 
d="M700 1047q222 0 375 -156q156 -153 156 -379q0 -225 -156 -381q-154 -154 -375 -154q-145 0 -261 69.5t-179 191.5v-648h-102v1434h102v-238q63 122 179 191.5t261 69.5zM385 203q127 -127 309 -127q180 0 307 127t127 309t-127 309t-307 127q-182 0 -309 -127
q-125 -125 -125 -309t125 -309z" />
    <glyph glyph-name="q" unicode="q" 
d="M1061 786v238h102v-1434h-102v648q-63 -122 -179 -191.5t-261 -69.5q-220 0 -377 154q-154 157 -154 381q0 225 154 379q156 156 377 156q145 0 261 -69.5t179 -191.5zM317 203q127 -127 310 -127q180 0 307 127t127 309t-127 309t-307 127q-183 0 -310 -127
q-124 -124 -124 -309t124 -309z" />
    <glyph glyph-name="r" unicode="r" horiz-adv-x="651" 
d="M260 1024v-201q92 215 342 215v-98q-152 0 -247 -96.5t-95 -274.5v-569h-102v1024h102z" />
    <glyph glyph-name="s" unicode="s" horiz-adv-x="937" 
d="M227 756q0 -130 219 -185q166 -36 235 -68q167 -75 167 -235q0 -128 -102 -209.5t-265 -81.5q-145 0 -247.5 61.5t-141.5 166.5l88 51q29 -85 107.5 -132.5t193.5 -47.5q118 0 191 51t73 141q0 71 -60 118t-159 69q-8 2 -25 6q-50 12 -76 18.5t-72.5 21.5t-73 29t-60 37
t-51 48.5t-30.5 61.5t-13 79q0 123 96 207q101 84 252 84q121 0 213 -55t135 -150l-86 -49q-30 73 -101 114t-161 41q-106 0 -176 -53t-70 -139z" />
    <glyph glyph-name="t" unicode="t" horiz-adv-x="770" 
d="M682 1024v-100h-305v-666q0 -87 32.5 -126.5t100.5 -44.5t172 5v-92q-210 -31 -310 29.5t-100 228.5v666h-225v100h225v256l105 31v-287h305z" />
    <glyph glyph-name="u" unicode="u" horiz-adv-x="1155" 
d="M895 483v541h102v-1024h-102v195q-111 -218 -367 -218q-182 0 -289.5 111.5t-107.5 298.5v637h105v-637q0 -144 80 -227.5t221 -83.5q162 0 260 106.5t98 300.5z" />
    <glyph glyph-name="v" unicode="v" horiz-adv-x="1046" 
d="M522 106l387 918h109l-432 -1024h-125l-434 1024h110z" />
    <glyph glyph-name="w" unicode="w" horiz-adv-x="1576" 
d="M1128 133l273 891h108l-323 -1024h-113l-285 872l-284 -872h-113l-323 1024h108l273 -891l286 891h107z" />
    <glyph glyph-name="x" unicode="x" horiz-adv-x="1038" 
d="M582 528l407 -528h-125l-346 446l-346 -446h-125l410 526l-385 498h125l321 -416l324 416h123z" />
    <glyph glyph-name="y" unicode="y" horiz-adv-x="1044" 
d="M551 113l356 911h111l-443 -1118q-61 -154 -169.5 -240t-235.5 -76v97q97 -7 176 56t129 183l23 56l-471 1042h110z" />
    <glyph glyph-name="z" unicode="z" horiz-adv-x="976" 
d="M866 956l-612 -856h633v-100h-778v68l614 856h-594v100h737v-68z" />
    <glyph glyph-name="braceleft" unicode="{" horiz-adv-x="714" 
d="M674 -123v-98q-166 -17 -254 61t-88 242v383q0 116 -51 160.5t-172 44.5v98q121 0 172 44.5t51 160.5v383q0 164 88 242t254 61v-100q-124 14 -181 -33.5t-57 -169.5v-383q0 -213 -164 -254q164 -41 164 -254v-383q0 -122 57 -169.5t181 -35.5z" />
    <glyph glyph-name="bar" unicode="|" horiz-adv-x="458" 
d="M281 -410h-103v1885h103v-1885z" />
    <glyph glyph-name="braceright" unicode="}" horiz-adv-x="714" 
d="M41 -221v98q124 -12 181 35.5t57 169.5v383q0 214 163 254q-163 40 -163 254v383q0 122 -57 169.5t-181 33.5v100q166 17 254 -61t88 -242v-383q0 -116 51 -160.5t172 -44.5v-98q-121 0 -172 -44.5t-51 -160.5v-383q0 -164 -88 -242t-254 -61z" />
    <glyph glyph-name="asciitilde" unicode="~" horiz-adv-x="1202" 
d="M977 842l94 -45q-16 -55 -43 -99t-70 -74.5t-96 -39t-126.5 13t-157.5 76.5q-141 93 -230.5 72.5t-124.5 -154.5l-94 45q16 55 43.5 99t71.5 74.5t98 38.5t127.5 -13.5t155.5 -75.5q284 -187 352 82z" />
    <glyph glyph-name="exclamdown" unicode="&#xa1;" horiz-adv-x="450" 
d="M160 1018q26 26 65.5 26t65.5 -26t26 -65.5t-26 -65.5t-65.5 -26t-65.5 26t-26 65.5t26 65.5zM164 0l20 655h82l21 -655v-410h-123v410z" />
    <glyph glyph-name="cent" unicode="&#xa2;" horiz-adv-x="1148" 
d="M995 494l86 -52q-62 -119 -184 -189.5t-270 -70.5q-81 0 -152 21l-65 -203h-82l73 227q-143 62 -228 193.5t-85 296.5q0 227 154 381q153 153 385 153q43 0 108 -10l64 193h82l-70 -213q185 -63 262 -232l-84 -49q-58 130 -209 186l-272 -829q62 -16 119 -16
q122 0 219.5 57t148.5 156zM193 717q0 -128 65 -233.5t176 -159.5l271 823q-37 6 -78 6q-183 0 -310 -127q-124 -124 -124 -309z" />
    <glyph glyph-name="sterling" unicode="&#xa3;" horiz-adv-x="1208" 
d="M401 600v-496h773v-104h-1086v104h205v496h-164v96h164v348q0 193 121 302q119 110 291 110q277 0 382 -266l-88 -51q-77 213 -294 213q-134 0 -219 -82.5t-85 -225.5v-348h494v-96h-494z" />
    <glyph glyph-name="currency" unicode="&#xa4;" horiz-adv-x="1132" 
d="M901 436l141 -143l-53 -53l-143 143q-119 -98 -281 -98q-159 0 -278 98l-146 -143l-53 53l145 143q-102 120 -102 281q0 160 102 280l-145 144l53 53l146 -143q119 98 278 98q162 0 281 -98l143 143l53 -53l-141 -144q100 -121 100 -280q0 -160 -100 -281zM330 952
q-94 -94 -94 -235q0 -140 94 -238q96 -96 235 -96q140 0 236 96q96 101 96 238q0 139 -96 235q-94 99 -236 99q-141 0 -235 -99z" />
    <glyph glyph-name="yen" unicode="&#xa5;" horiz-adv-x="1167" 
d="M1051 1434h123l-453 -729h297v-93h-352l-15 -22v-135h367v-90h-367v-365h-108v365h-391v90h391v135l-15 22h-376v93h321l-453 729h123l449 -729h10z" />
    <glyph glyph-name="brokenbar" unicode="&#xa6;" horiz-adv-x="458" 
d="M281 717h-103v758h103v-758zM281 -410h-103v758h103v-758z" />
    <glyph glyph-name="section" unicode="&#xa7;" horiz-adv-x="1040" 
d="M817 281q94 -88 94 -211q0 -132 -100 -213q-103 -86 -264 -86q-315 0 -414 266l88 51q67 -217 326 -217q117 0 188.5 54t71.5 145q0 104 -113 172q-51 35 -100 57q-12 6 -31 14.5t-48 21t-52 23.5q-144 63 -227 125q-107 85 -107 219q0 152 143 246q-88 88 -88 207
q0 125 97 213q98 88 251 88q131 0 226 -62t139 -177l-84 -48q-77 189 -281 189q-105 0 -174 -56t-69 -147q0 -116 155 -201q31 -16 179 -82q135 -59 223 -129q106 -81 106 -217q0 -150 -135 -245zM233 702q0 -87 66 -145t205 -111q165 -62 233 -104q111 70 111 184
q0 87 -63 142.5t-207 115.5q-154 60 -228 105q-117 -71 -117 -187z" />
    <glyph glyph-name="dieresis" unicode="&#xa8;" horiz-adv-x="600" 
d="M117 1182q-32 0 -54 21t-22 52q0 32 22 54t54 22q31 0 52 -22t21 -54q0 -31 -21 -52t-52 -21zM485 1182q-32 0 -53.5 21t-21.5 52q0 32 21.5 54t53.5 22q31 0 52.5 -22t21.5 -54q0 -31 -21.5 -52t-52.5 -21z" />
    <glyph glyph-name="copyright" unicode="&#xa9;" horiz-adv-x="1673" 
d="M1362 193q-219 -216 -524 -216q-306 0 -525 216q-217 217 -217 524q0 308 217 522q217 217 525 217q307 0 524 -217q217 -214 217 -522q0 -307 -217 -524zM350 227q203 -200 488 -200t485 200q201 204 201 490t-201 487q-200 203 -485 203t-488 -203q-200 -200 -200 -487
t200 -490zM844 324q-173 0 -285 112q-113 113 -113 281q0 165 113 278q115 115 285 115q108 0 196 -50.5t138 -139.5l-86 -50q-32 67 -99.5 105.5t-148.5 38.5q-131 0 -213 -88q-82 -85 -82 -209q0 -123 82 -211q83 -86 213 -86q83 0 150.5 38.5t97.5 106.5l88 -51
q-50 -88 -139 -139t-197 -51z" />
    <glyph glyph-name="guillemotleft" unicode="&#xab;" horiz-adv-x="960" 
d="M383 987h127l-219 -354l219 -354h-127l-219 354zM670 987h127l-217 -354l217 -354h-127l-217 354z" />
    <glyph glyph-name="logicalnot" unicode="&#xac;" horiz-adv-x="1064" 
d="M129 682v100h807v-354h-105v254h-702z" />
    <glyph glyph-name="registered" unicode="&#xae;" horiz-adv-x="1673" 
d="M313 1239q217 217 525 217q307 0 524 -217q217 -214 217 -522q0 -307 -217 -524q-219 -216 -524 -216q-306 0 -525 216q-217 217 -217 524q0 308 217 522zM350 227q203 -200 488 -200t485 200q201 204 201 490t-201 487q-200 203 -485 203t-488 -203q-200 -200 -200 -487
t200 -490zM1124 858q0 -168 -153 -217l172 -303h-109l-160 285h-28h-129v-285h-99v758h228q130 0 204 -67.5t74 -170.5zM717 1001v-284h133q176 0 176 141q0 67 -45.5 105t-130.5 38h-133z" />
    <glyph glyph-name="overscore" unicode="&#xaf;" horiz-adv-x="600" 
d="M559 1202h-518v90h518v-90z" />
    <glyph glyph-name="degree" unicode="&#xb0;" horiz-adv-x="790" 
d="M395 1059q-130 0 -219 86q-88 88 -88 213t88 213t219 88t219 -88t88 -213q0 -128 -88 -213q-86 -86 -219 -86zM395 1153q91 0 148 57t57 148q0 88 -59 147q-60 60 -146 60q-88 0 -146.5 -59.5t-58.5 -147.5q0 -87 59 -146t146 -59z" />
    <glyph glyph-name="plusminus" unicode="&#xb1;" horiz-adv-x="1091" 
d="M596 1243v-346h367v-100h-367v-346h-100v346h-367v100h367v346h100zM963 190h-834v101h834v-101z" />
    <glyph glyph-name="acute" unicode="&#xb4;" horiz-adv-x="368" 
d="M41 1167l164 260h123l-187 -260h-100z" />
    <glyph glyph-name="uni00B5" unicode="&#xb5;" horiz-adv-x="1243" 
d="M1108 100h68v-100h-78q-82 0 -130 49.5t-48 134.5v6q-115 -213 -365 -213q-201 0 -295 138v-525h-102v1434h102v-637q0 -143 80.5 -227t222.5 -84q162 0 259.5 106.5t97.5 300.5v541h104v-840q0 -38 23 -61t61 -23z" />
    <glyph glyph-name="paragraph" unicode="&#xb6;" horiz-adv-x="1167" 
d="M485 1434h594v-97h-123v-1747h-102v1747h-268v-1747h-101v1051q-165 0 -282 117q-115 118 -115 280q0 164 115 279q117 117 282 117z" />
    <glyph glyph-name="middot" unicode="&#xb7;" horiz-adv-x="436" 
d="M285 641q-26 -26 -65.5 -26t-65.5 26t-26 65.5t26 65.5t65.5 26t65.5 -26t26 -65.5t-26 -65.5z" />
    <glyph glyph-name="cedilla" unicode="&#xb8;" horiz-adv-x="466" 
d="M246 0v-115q84 -11 135 -51t51 -102q0 -194 -399 -164v84q151 -13 230 8t79 72q0 88 -188 88v180h92z" />
    <glyph glyph-name="guillemotright" unicode="&#xbb;" horiz-adv-x="960" 
d="M164 987h127l217 -354l-217 -354h-127l217 354zM451 987h127l219 -354l-219 -354h-127l219 354z" />
    <glyph glyph-name="onequarter" unicode="&#xbc;" horiz-adv-x="1697" 
d="M356 1434v-820h-98v709l-205 -68l-26 86l252 93h77zM272 0l832 1434h96l-833 -1434h-95zM1538 256h111v-92h-111v-164h-98v164h-436v92l307 563h106l-307 -563h330v213h98v-213z" />
    <glyph glyph-name="onehalf" unicode="&#xbd;" horiz-adv-x="1669" 
d="M356 1434v-820h-98v709l-205 -68l-26 86l252 93h77zM272 0l832 1434h96l-833 -1434h-95zM1464 350l-280 -256h418v-94h-564v80l359 334q90 81 90 184q0 67 -46 109.5t-124 42.5q-142 0 -195 -136l-82 45q32 87 105 136t172 49q120 0 194 -70t74 -176q0 -133 -121 -248z
" />
    <glyph glyph-name="threequarters" unicode="&#xbe;" horiz-adv-x="1908" 
d="M631 850q0 -116 -79.5 -188t-211.5 -72q-207 0 -283 166l82 47q52 -119 201 -119q92 0 142 45.5t50 120.5t-51.5 121.5t-140.5 46.5h-8l-47 72l198 249h-401v95h516v-95l-197 -243q108 -13 169 -80t61 -166zM483 0l832 1434h96l-833 -1434h-95zM1749 256h111v-92h-111
v-164h-98v164h-437v92l308 563h106l-307 -563h330v213h98v-213z" />
    <glyph glyph-name="questiondown" unicode="&#xbf;" horiz-adv-x="1085" 
d="M514 1018q26 26 65.5 26t65.5 -26t26 -65.5t-26 -65.5t-65.5 -26t-65.5 26t-26 65.5t26 65.5zM526 655h109q0 -181 -139 -331q-18 -20 -67 -69t-73 -76.5t-56 -71t-46 -85t-14 -85.5q0 -126 83.5 -195.5t227.5 -69.5q124 0 213 57t121 160l92 -51q-43 -128 -159 -199
t-267 -71q-182 0 -301 98q-121 95 -121 271q0 150 139 296q11 11 49.5 50t53 55t46 52.5t45.5 61t32 60t25 70.5t7 73z" />
    <glyph glyph-name="Agrave" unicode="&#xc0;" horiz-adv-x="1288" 
d="M580 1837l163 -260h-98l-188 260h123zM1257 0h-114l-139 365h-719l-140 -365h-114l557 1434h114zM645 1300l-319 -833h639z" />
    <glyph glyph-name="Aacute" unicode="&#xc1;" horiz-adv-x="1288" 
d="M723 1837h123l-187 -260h-100zM1257 0h-114l-139 365h-719l-140 -365h-114l557 1434h114zM645 1300l-319 -833h639z" />
    <glyph glyph-name="Acircumflex" unicode="&#xc2;" horiz-adv-x="1288" 
d="M809 1577l-164 195l-166 -195h-117l222 260h121l221 -260h-117zM1257 0h-114l-139 365h-719l-140 -365h-114l557 1434h114zM645 1300l-319 -833h639z" />
    <glyph glyph-name="Atilde" unicode="&#xc3;" horiz-adv-x="1288" 
d="M641 1661q-86 81 -135 68.5t-49 -125.5h-90q0 112 41 168.5t105 50.5t136 -68q185 -156 185 57h90q0 -166 -88 -206q-87 -40 -195 55zM1257 0h-114l-139 365h-719l-140 -365h-114l557 1434h114zM645 1300l-319 -833h639z" />
    <glyph glyph-name="Adieresis" unicode="&#xc4;" horiz-adv-x="1288" 
d="M461 1591q-32 0 -54 21.5t-22 52.5q0 32 22 54t54 22q31 0 52.5 -22t21.5 -54q0 -31 -21.5 -52.5t-52.5 -21.5zM829 1591q-32 0 -53.5 21.5t-21.5 52.5q0 32 21.5 54t53.5 22q31 0 52.5 -22t21.5 -54q0 -31 -21.5 -52.5t-52.5 -21.5zM1257 0h-114l-139 365h-719
l-140 -365h-114l557 1434h114zM645 1300l-319 -833h639z" />
    <glyph glyph-name="Aring" unicode="&#xc5;" horiz-adv-x="1288" 
d="M1257 0h-114l-139 365h-719l-140 -365h-114l538 1384q-63 20 -99 70.5t-36 116.5q0 87 58.5 142.5t150.5 55.5q93 0 152 -55.5t59 -142.5q0 -66 -36 -116.5t-97 -70.5zM643 1454q77 -6 109.5 55.5t0 123t-109.5 55.5q-55 0 -88 -32.5t-33 -84.5t33 -84.5t88 -32.5z
M645 1300l-319 -833h639z" />
    <glyph glyph-name="AE" unicode="&#xc6;" horiz-adv-x="1787" 
d="M1030 672v-570h668v-102h-778v375h-560l-229 -375h-125l879 1434h803v-103h-658v-557h621v-102h-621zM920 1292l-498 -815h498v815z" />
    <glyph glyph-name="Ccedilla" unicode="&#xc7;" horiz-adv-x="1538" 
d="M1364 383l96 -55q-85 -153 -236.5 -245.5t-336.5 -102.5v-95q84 -11 135 -51t51 -102q0 -194 -399 -164v84q151 -13 230 8t79 72q0 88 -188 88v160q-305 15 -502 227t-197 510q0 313 211 524q212 215 535 215q197 0 360 -94q164 -92 254 -250l-96 -55q-71 132 -211 213
q-137 82 -307 82q-277 0 -459 -185q-178 -181 -178 -450t178 -453q182 -182 459 -182q167 0 308.5 82t213.5 219z" />
    <glyph glyph-name="Egrave" unicode="&#xc8;" horiz-adv-x="1091" 
d="M520 1837l164 -260h-98l-189 260h123zM287 672v-570h717v-102h-826v1434h815v-103h-706v-557h655v-102h-655z" />
    <glyph glyph-name="Eacute" unicode="&#xc9;" horiz-adv-x="1091" 
d="M664 1837h122l-186 -260h-100zM287 672v-570h717v-102h-826v1434h815v-103h-706v-557h655v-102h-655z" />
    <glyph glyph-name="Ecircumflex" unicode="&#xca;" horiz-adv-x="1091" 
d="M764 1577l-164 195l-166 -195h-117l222 260h120l222 -260h-117zM287 672v-570h717v-102h-826v1434h815v-103h-706v-557h655v-102h-655z" />
    <glyph glyph-name="Edieresis" unicode="&#xcb;" horiz-adv-x="1091" 
d="M401 1591q-32 0 -53.5 21.5t-21.5 52.5q0 32 21.5 54t53.5 22q31 0 52.5 -22t21.5 -54q0 -31 -21.5 -52.5t-52.5 -21.5zM770 1591q-32 0 -54 21.5t-22 52.5q0 32 22 54t54 22q31 0 52.5 -22t21.5 -54q0 -31 -21.5 -52.5t-52.5 -21.5zM287 672v-570h717v-102h-826v1434
h815v-103h-706v-557h655v-102h-655z" />
    <glyph glyph-name="Igrave" unicode="&#xcc;" horiz-adv-x="464" 
d="M330 1577h-99l-188 260h123zM178 1434v-1434h109v1434h-109z" />
    <glyph glyph-name="Iacute" unicode="&#xcd;" horiz-adv-x="464" 
d="M145 1577l164 260h123l-186 -260h-101zM178 1434v-1434h109v1434h-109z" />
    <glyph glyph-name="Icircumflex" unicode="&#xce;" horiz-adv-x="464" 
d="M170 1837h121l221 -260h-117l-164 195l-165 -195h-117zM287 0h-109v1434h109v-1434z" />
    <glyph glyph-name="Idieresis" unicode="&#xcf;" horiz-adv-x="464" 
d="M47 1591q-32 0 -54 21.5t-22 52.5q0 32 22 54t54 22q31 0 52.5 -22t21.5 -54q0 -31 -21.5 -52.5t-52.5 -21.5zM416 1591q-32 0 -54 21.5t-22 52.5q0 32 22 54t54 22q31 0 52 -22t21 -54q0 -31 -21 -52.5t-52 -21.5zM178 0v1434h109v-1434h-109z" />
    <glyph glyph-name="Eth" unicode="&#xd0;" horiz-adv-x="1529" 
d="M219 1434h539q292 0 483 -209q193 -205 193 -508q0 -302 -193 -510q-192 -207 -483 -207h-539v668h-137v98h137v668zM328 102h430q249 0 409 177q160 180 160 438q0 259 -160 436q-159 178 -409 178h-430v-565h491v-98h-491v-566z" />
    <glyph glyph-name="Ntilde" unicode="&#xd1;" horiz-adv-x="1406" 
d="M508 1604h-90q0 112 41 168.5t105 50.5t136 -68q185 -156 185 57h90q0 -166 -88 -206q-87 -40 -195 55q-86 81 -135 68.5t-49 -125.5zM1120 201v1233h109v-1434h-96l-846 1233v-1233h-109v1434h94z" />
    <glyph glyph-name="Ograve" unicode="&#xd2;" horiz-adv-x="1671" 
d="M971 1577h-99l-188 260h123zM1360 193q215 218 215 524q0 307 -215 522q-214 217 -524 217q-311 0 -525 -217q-215 -215 -215 -522q0 -306 215 -524q216 -216 525 -216q308 0 524 216zM387 266q-182 188 -182 451t182 448q184 187 449 187t446 -187q184 -184 184 -448
t-184 -451q-181 -184 -446 -184t-449 184z" />
    <glyph glyph-name="Oacute" unicode="&#xd3;" horiz-adv-x="1671" 
d="M793 1577l163 260h123l-186 -260h-100zM1360 193q215 218 215 524q0 307 -215 522q-214 217 -524 217q-311 0 -525 -217q-215 -215 -215 -522q0 -306 215 -524q216 -216 525 -216q308 0 524 216zM387 266q-182 188 -182 451t182 448q184 187 449 187t446 -187
q184 -184 184 -448t-184 -451q-181 -184 -446 -184t-449 184z" />
    <glyph glyph-name="Ocircumflex" unicode="&#xd4;" horiz-adv-x="1671" 
d="M1001 1577l-163 195l-166 -195h-117l221 260h121l221 -260h-117zM311 1239q214 217 525 217q310 0 524 -217q215 -215 215 -522q0 -306 -215 -524q-216 -216 -524 -216q-309 0 -525 216q-215 218 -215 524q0 307 215 522zM387 266q184 -184 449 -184t446 184
q184 187 184 451t-184 448q-181 187 -446 187t-449 -187q-182 -185 -182 -448t182 -451z" />
    <glyph glyph-name="Otilde" unicode="&#xd5;" horiz-adv-x="1671" 
d="M659 1604h-90q0 112 41 168.5t105.5 50.5t136.5 -68q184 -156 184 57h90q0 -166 -88 -206q-86 -39 -194 55q-86 81 -135.5 68.5t-49.5 -125.5zM1360 193q-216 -216 -524 -216q-309 0 -525 216q-215 218 -215 524q0 307 215 522q214 217 525 217q310 0 524 -217
q215 -215 215 -522q0 -306 -215 -524zM387 266q184 -184 449 -184t446 184q184 187 184 451t-184 448q-181 187 -446 187t-449 -187q-182 -185 -182 -448t182 -451z" />
    <glyph glyph-name="Odieresis" unicode="&#xd6;" horiz-adv-x="1671" 
d="M651 1591q-32 0 -54 21.5t-22 52.5q0 32 22 54t54 22q31 0 52.5 -22t21.5 -54q0 -31 -21.5 -52.5t-52.5 -21.5zM1020 1591q-32 0 -54 21.5t-22 52.5q0 32 22 54t54 22q31 0 52.5 -22t21.5 -54q0 -31 -21.5 -52.5t-52.5 -21.5zM1360 193q-216 -216 -524 -216
q-309 0 -525 216q-215 218 -215 524q0 307 215 522q214 217 525 217q310 0 524 -217q215 -215 215 -522q0 -306 -215 -524zM387 266q184 -184 449 -184t446 184q184 187 184 451t-184 448q-181 187 -446 187t-449 -187q-182 -185 -182 -448t182 -451z" />
    <glyph glyph-name="multiply" unicode="&#xd7;" horiz-adv-x="960" 
d="M772 1077l72 -65l-295 -295l295 -295l-72 -66l-293 293l-293 -293l-69 66l295 295l-295 295l69 65l293 -293z" />
    <glyph glyph-name="Oslash" unicode="&#xd8;" horiz-adv-x="1691" 
d="M1489 1391l-119 -140q225 -217 225 -534q0 -306 -215 -524q-216 -216 -524 -216q-254 0 -448 150l-109 -127l-76 43l119 139q-225 218 -225 535q0 307 215 522q214 217 524 217q253 0 451 -149l108 127zM412 262l825 963q-168 127 -381 127q-264 0 -448 -187
q-183 -186 -183 -448q0 -265 187 -455zM856 82q266 0 447 184q184 187 184 451q0 265 -187 452l-823 -962q168 -125 379 -125z" />
    <glyph glyph-name="Ugrave" unicode="&#xd9;" horiz-adv-x="1366" 
d="M778 1577h-98l-188 260h122zM158 479q0 -227 143 -364q144 -138 381 -138t381 138q145 139 145 364v955h-108v-955q0 -182 -111 -289.5t-307 -107.5t-306 107.5t-110 289.5v955h-108v-955z" />
    <glyph glyph-name="Uacute" unicode="&#xda;" horiz-adv-x="1366" 
d="M629 1577l164 260h122l-186 -260h-100zM158 479q0 -227 143 -364q144 -138 381 -138t381 138q145 139 145 364v955h-108v-955q0 -182 -111 -289.5t-307 -107.5t-306 107.5t-110 289.5v955h-108v-955z" />
    <glyph glyph-name="Ucircumflex" unicode="&#xdb;" horiz-adv-x="1366" 
d="M844 1577l-164 195l-166 -195h-117l221 260h121l222 -260h-117zM1100 479v955h108v-955q0 -225 -145 -364q-144 -138 -381 -138t-381 138q-143 137 -143 364v955h108v-955q0 -182 110 -289.5t306 -107.5t307 107.5t111 289.5z" />
    <glyph glyph-name="Udieresis" unicode="&#xdc;" horiz-adv-x="1366" 
d="M496 1591q-32 0 -54 21.5t-22 52.5q0 32 22 54t54 22q31 0 52 -22t21 -54q0 -31 -21 -52.5t-52 -21.5zM864 1591q-32 0 -54 21.5t-22 52.5q0 32 22 54t54 22q31 0 52.5 -22t21.5 -54q0 -31 -21.5 -52.5t-52.5 -21.5zM158 479v955h108v-955q0 -182 110 -289.5t306 -107.5
t307 107.5t111 289.5v955h108v-955q0 -225 -145 -364q-144 -138 -381 -138t-381 138q-143 137 -143 364z" />
    <glyph glyph-name="Yacute" unicode="&#xdd;" horiz-adv-x="1193" 
d="M670 1837h123l-187 -260h-100zM1051 1434h123l-523 -844v-590h-108v590l-523 844h123l455 -740z" />
    <glyph glyph-name="Thorn" unicode="&#xde;" horiz-adv-x="1202" 
d="M287 1161h379q192 0 319 -127t127 -317q0 -191 -127 -318t-319 -127h-379v-272h-109v1434h109v-273zM287 375h379q145 0 241 96q97 102 97 246q0 149 -97 246q-96 96 -241 96h-379v-684z" />
    <glyph glyph-name="germandbls" unicode="&#xdf;" horiz-adv-x="1056" 
d="M594 -8v94q147 -8 229 45t82 158q0 63 -44 136.5t-107 133.5q-150 150 -150 248q0 35 19.5 70t47 64.5t54.5 60t46.5 67t19.5 74.5q0 97 -66 156t-176 59q-131 0 -210 -78.5t-79 -222.5v-1057h-102v1057q0 184 108 291.5t283 107.5q161 0 254 -90q92 -89 92 -223
q0 -34 -12 -68.5t-36.5 -69t-43 -56.5t-49.5 -56q-45 -47 -47.5 -86.5t30.5 -81.5q22 -30 75 -85.5t92.5 -99.5t72.5 -112.5t33 -138.5q0 -144 -111.5 -225.5t-304.5 -71.5z" />
    <glyph glyph-name="agrave" unicode="&#xe0;" 
d="M649 1427l164 -260h-98l-189 260h123zM1059 793v231h104v-1024h-104v231q-67 -120 -181.5 -187t-259.5 -67q-217 0 -374 154q-156 156 -156 381q0 226 156 379q156 156 374 156q145 0 259.5 -67t181.5 -187zM317 203q127 -127 310 -127q180 0 307 127q125 125 125 309
t-125 309q-127 127 -307 127q-183 0 -310 -127q-124 -124 -124 -309t124 -309z" />
    <glyph glyph-name="aacute" unicode="&#xe1;" 
d="M817 1427h123l-186 -260h-101zM1059 793v231h104v-1024h-104v231q-67 -120 -181.5 -187t-259.5 -67q-217 0 -374 154q-156 156 -156 381q0 226 156 379q156 156 374 156q145 0 259.5 -67t181.5 -187zM317 203q127 -127 310 -127q180 0 307 127q125 125 125 309t-125 309
q-127 127 -307 127q-183 0 -310 -127q-124 -124 -124 -309t124 -309z" />
    <glyph glyph-name="acircumflex" unicode="&#xe2;" 
d="M860 1167l-164 195l-166 -195h-116l221 260h121l221 -260h-117zM1059 793v231h104v-1024h-104v231q-67 -120 -181.5 -187t-259.5 -67q-217 0 -374 154q-156 156 -156 381q0 226 156 379q156 156 374 156q145 0 259.5 -67t181.5 -187zM317 203q127 -127 310 -127
q180 0 307 127q125 125 125 309t-125 309q-127 127 -307 127q-183 0 -310 -127q-124 -124 -124 -309t124 -309z" />
    <glyph glyph-name="atilde" unicode="&#xe3;" 
d="M727 1251q-86 81 -135 68.5t-49 -125.5h-90q0 112 41 168.5t105 51t136 -67.5q185 -156 185 57h90q0 -167 -88 -207q-87 -40 -195 55zM1059 793v231h104v-1024h-104v231q-67 -120 -181.5 -187t-259.5 -67q-217 0 -374 154q-156 156 -156 381q0 226 156 379
q156 156 374 156q145 0 259.5 -67t181.5 -187zM317 203q127 -127 310 -127q180 0 307 127q125 125 125 309t-125 309q-127 127 -307 127q-183 0 -310 -127q-124 -124 -124 -309t124 -309z" />
    <glyph glyph-name="adieresis" unicode="&#xe4;" 
d="M444 1182q-32 0 -53.5 21t-21.5 52q0 32 21.5 54t53.5 22q31 0 52.5 -22t21.5 -54q0 -31 -21.5 -52t-52.5 -21zM813 1182q-32 0 -54 21t-22 52q0 32 22 54t54 22q31 0 52.5 -22t21.5 -54q0 -31 -21.5 -52t-52.5 -21zM1059 793v231h104v-1024h-104v231
q-67 -120 -181.5 -187t-259.5 -67q-217 0 -374 154q-156 156 -156 381q0 226 156 379q156 156 374 156q145 0 259.5 -67t181.5 -187zM317 203q127 -127 310 -127q180 0 307 127q125 125 125 309t-125 309q-127 127 -307 127q-183 0 -310 -127q-124 -124 -124 -309t124 -309z
" />
    <glyph glyph-name="aring" unicode="&#xe5;" 
d="M629 1133q-92 0 -150.5 55.5t-58.5 142.5t58.5 143t150.5 56q93 0 152 -56t59 -143t-59 -142.5t-152 -55.5zM629 1448q-55 0 -88 -32.5t-33 -84.5t33 -84.5t88 -32.5q77 -6 109.5 55.5t0 123t-109.5 55.5zM1059 793v231h104v-1024h-104v231q-67 -120 -181.5 -187
t-259.5 -67q-217 0 -374 154q-156 156 -156 381q0 226 156 379q156 156 374 156q145 0 259.5 -67t181.5 -187zM317 203q127 -127 310 -127q180 0 307 127q125 125 125 309t-125 309q-127 127 -307 127q-183 0 -310 -127q-124 -124 -124 -309t124 -309z" />
    <glyph glyph-name="ae" unicode="&#xe6;" horiz-adv-x="2172" 
d="M1591 1047q231 0 365 -158q135 -156 135 -381q0 -5 -1 -24.5t-1 -24.5h-924q15 -173 133 -279q116 -104 293 -104q125 0 220 50t143 136l90 -53q-64 -107 -180 -169.5t-260 -62.5q-153 0 -267 66.5t-176 189.5v-233h-102v231q-67 -120 -181.5 -187t-259.5 -67
q-217 0 -374 154q-156 156 -156 381q0 226 156 379q156 156 374 156q145 0 259.5 -67t181.5 -187v231h102v-238q61 123 172 192t258 69zM317 203q127 -127 310 -127q180 0 307 127q125 125 125 309t-125 309q-127 127 -307 127q-183 0 -310 -127q-124 -124 -124 -309
t124 -309zM1587 948q-179 0 -293 -108t-129 -281h822q-15 183 -129 285q-110 104 -271 104z" />
    <glyph glyph-name="ccedilla" unicode="&#xe7;" horiz-adv-x="1148" 
d="M995 289l86 -51q-57 -109 -166 -178.5t-243 -79.5v-95q84 -11 135 -51t51 -102q0 -194 -399 -164v84q151 -13 230 8t79 72q0 88 -188 88v160q-215 15 -353 165q-139 151 -139 367q0 227 154 381t385 154q150 0 270.5 -71t175.5 -192l-84 -49q-44 98 -141.5 155.5
t-220.5 57.5q-183 0 -310 -127q-124 -124 -124 -309q0 -187 124 -311q125 -125 310 -125q122 0 219.5 57t148.5 156z" />
    <glyph glyph-name="egrave" unicode="&#xe8;" horiz-adv-x="1206" 
d="M541 1427l164 -260h-99l-188 260h123zM618 1047q226 0 365 -160q141 -159 141 -379q0 -5 -1 -24.5t-1 -24.5h-927q18 -172 137 -279q119 -104 297 -104q121 0 213.5 50t140.5 136l90 -53q-64 -107 -181.5 -169.5t-264.5 -62.5q-237 0 -387 150q-152 152 -152 385
q0 230 148 381q151 154 382 154zM618 948q-173 0 -290 -108q-118 -109 -133 -281h823q-15 181 -131 285q-113 104 -269 104z" />
    <glyph glyph-name="eacute" unicode="&#xe9;" horiz-adv-x="1206" 
d="M725 1427h123l-186 -260h-101zM618 1047q226 0 365 -160q141 -159 141 -379q0 -5 -1 -24.5t-1 -24.5h-927q18 -172 137 -279q119 -104 297 -104q121 0 213.5 50t140.5 136l90 -53q-64 -107 -181.5 -169.5t-264.5 -62.5q-237 0 -387 150q-152 152 -152 385q0 230 148 381
q151 154 382 154zM618 948q-173 0 -290 -108q-118 -109 -133 -281h823q-15 181 -131 285q-113 104 -269 104z" />
    <glyph glyph-name="ecircumflex" unicode="&#xea;" horiz-adv-x="1206" 
d="M801 1167l-164 195l-166 -195h-117l221 260h121l222 -260h-117zM618 1047q226 0 365 -160q141 -159 141 -379q0 -5 -1 -24.5t-1 -24.5h-927q18 -172 137 -279q119 -104 297 -104q121 0 213.5 50t140.5 136l90 -53q-64 -107 -181.5 -169.5t-264.5 -62.5q-237 0 -387 150
q-152 152 -152 385q0 230 148 381q151 154 382 154zM618 948q-173 0 -290 -108q-118 -109 -133 -281h823q-15 181 -131 285q-113 104 -269 104z" />
    <glyph glyph-name="edieresis" unicode="&#xeb;" horiz-adv-x="1206" 
d="M422 1182q-32 0 -54 21t-22 52q0 32 22 54t54 22q31 0 52.5 -22t21.5 -54q0 -31 -21.5 -52t-52.5 -21zM791 1182q-32 0 -54 21t-22 52q0 32 22 54t54 22q31 0 52 -22t21 -54q0 -31 -21 -52t-52 -21zM618 1047q226 0 365 -160q141 -159 141 -379q0 -5 -1 -24.5t-1 -24.5
h-927q18 -172 137 -279q119 -104 297 -104q121 0 213.5 50t140.5 136l90 -53q-64 -107 -181.5 -169.5t-264.5 -62.5q-237 0 -387 150q-152 152 -152 385q0 230 148 381q151 154 382 154zM618 948q-173 0 -290 -108q-118 -109 -133 -281h823q-15 181 -131 285
q-113 104 -269 104z" />
    <glyph glyph-name="igrave" unicode="&#xec;" horiz-adv-x="417" 
d="M313 1167h-100l-135 260h123zM260 0v1024h-102v-1024h102z" />
    <glyph glyph-name="iacute" unicode="&#xed;" horiz-adv-x="417" 
d="M119 1167l112 260h125l-137 -260h-100zM158 0h102v1024h-102v-1024z" />
    <glyph glyph-name="icircumflex" unicode="&#xee;" horiz-adv-x="417" 
d="M147 1427h123l172 -260h-116l-117 176l-117 -176h-117zM260 0h-102v1024h102v-1024z" />
    <glyph glyph-name="idieresis" unicode="&#xef;" horiz-adv-x="417" 
d="M72 1182q-31 0 -52.5 21t-21.5 52q0 32 21.5 54t52.5 22q32 0 53.5 -22t21.5 -54q0 -31 -21.5 -52t-53.5 -21zM346 1182q-32 0 -54 21t-22 52q0 32 22 54t54 22q31 0 52.5 -22t21.5 -54q0 -31 -21.5 -52t-52.5 -21zM260 0h-102v1024h102v-1024z" />
    <glyph glyph-name="eth" unicode="&#xf0;" horiz-adv-x="1202" 
d="M662 1239l358 -481q94 -125 94 -287q0 -217 -151 -356q-150 -138 -361 -138q-212 0 -362 138q-152 140 -152 356q0 210 148 346q150 135 350 135q116 0 202 -45l-210 281l-244 -150v95l196 120l-135 181h121l96 -129l228 139v-94zM1010 471q0 140 -68 229
q-118 154 -340 154q-175 0 -293 -109q-116 -107 -116 -274q0 -176 118 -285q119 -110 291 -110q173 0 289 110q119 110 119 285z" />
    <glyph glyph-name="ntilde" unicode="&#xf1;" horiz-adv-x="1155" 
d="M594 1251q-86 81 -135 68.5t-49 -125.5h-91q0 112 41 168.5t105.5 51t136.5 -67.5q184 -156 184 57h91q0 -166 -89 -207q-86 -39 -194 55zM627 1047q182 0 289.5 -111.5t107.5 -298.5v-637h-104v637q0 144 -80 227.5t-222 83.5q-162 0 -260 -106.5t-98 -300.5v-541h-102
v1024h102v-195q111 218 367 218z" />
    <glyph glyph-name="ograve" unicode="&#xf2;" horiz-adv-x="1251" 
d="M758 1167h-99l-188 260h123zM627 -23q222 0 379 154q157 157 157 381q0 225 -157 379q-156 156 -379 156q-227 0 -383 -156q-156 -153 -156 -379q0 -225 156 -381q157 -154 383 -154zM317 203q-124 124 -124 309t124 309q127 127 310 127q180 0 307 -127
q125 -125 125 -309t-125 -309q-127 -127 -307 -127q-183 0 -310 127z" />
    <glyph glyph-name="oacute" unicode="&#xf3;" horiz-adv-x="1251" 
d="M592 1167l164 260h123l-187 -260h-100zM627 -23q222 0 379 154q157 157 157 381q0 225 -157 379q-156 156 -379 156q-227 0 -383 -156q-156 -153 -156 -379q0 -225 156 -381q157 -154 383 -154zM317 203q-124 124 -124 309t124 309q127 127 310 127q180 0 307 -127
q125 -125 125 -309t-125 -309q-127 -127 -307 -127q-183 0 -310 127z" />
    <glyph glyph-name="ocircumflex" unicode="&#xf4;" horiz-adv-x="1251" 
d="M791 1167l-164 195l-166 -195h-117l221 260h121l221 -260h-116zM627 1047q223 0 379 -156q157 -154 157 -379q0 -224 -157 -381q-157 -154 -379 -154q-226 0 -383 154q-156 156 -156 381q0 226 156 379q156 156 383 156zM317 203q127 -127 310 -127q180 0 307 127
q125 125 125 309t-125 309q-127 127 -307 127q-183 0 -310 -127q-124 -124 -124 -309t124 -309z" />
    <glyph glyph-name="otilde" unicode="&#xf5;" horiz-adv-x="1251" 
d="M463 1194h-90q0 112 41 168.5t105 51t136 -67.5q185 -156 185 57h90q0 -167 -88 -207q-87 -40 -195 55q-86 81 -135 68.5t-49 -125.5zM627 -23q-226 0 -383 154q-156 156 -156 381q0 226 156 379q156 156 383 156q223 0 379 -156q157 -154 157 -379q0 -224 -157 -381
q-157 -154 -379 -154zM317 203q127 -127 310 -127q180 0 307 127q125 125 125 309t-125 309q-127 127 -307 127q-183 0 -310 -127q-124 -124 -124 -309t124 -309z" />
    <glyph glyph-name="odieresis" unicode="&#xf6;" horiz-adv-x="1251" 
d="M436 1182q-32 0 -54 21t-22 52q0 32 22 54t54 22q31 0 52.5 -22t21.5 -54q0 -31 -21.5 -52t-52.5 -21zM805 1182q-32 0 -54 21t-22 52q0 32 22 54t54 22q31 0 52.5 -22t21.5 -54q0 -31 -21.5 -52t-52.5 -21zM627 -23q-226 0 -383 154q-156 156 -156 381q0 226 156 379
q156 156 383 156q223 0 379 -156q157 -154 157 -379q0 -224 -157 -381q-157 -154 -379 -154zM317 203q127 -127 310 -127q180 0 307 127q125 125 125 309t-125 309q-127 127 -307 127q-183 0 -310 -127q-124 -124 -124 -309t124 -309z" />
    <glyph glyph-name="divide" unicode="&#xf7;" horiz-adv-x="1187" 
d="M659 1034q-26 -26 -65.5 -26t-65.5 26t-26 65.5t26 65.5t65.5 26t65.5 -26t26 -65.5t-26 -65.5zM1059 668h-930v98h930v-98zM659 268q-26 -26 -65.5 -26t-65.5 26t-26 65.5t26 65.5t65.5 26t65.5 -26t26 -65.5t-26 -65.5z" />
    <glyph glyph-name="oslash" unicode="&#xf8;" horiz-adv-x="1251" 
d="M1110 993l-96 -106q149 -155 149 -375q0 -224 -157 -381q-157 -154 -379 -154q-191 0 -334 113l-86 -96l-64 37l97 106q-152 152 -152 375q0 226 156 379q156 156 383 156q188 0 331 -113l86 96zM193 512q0 -173 114 -299l584 647q-113 88 -264 88q-183 0 -310 -127
q-124 -124 -124 -309zM627 76q180 0 307 127q125 125 125 309q0 172 -115 299l-584 -647q116 -88 267 -88z" />
    <glyph glyph-name="ugrave" unicode="&#xf9;" horiz-adv-x="1155" 
d="M496 1427l163 -260h-98l-188 260h123zM895 483v541h102v-1024h-102v195q-111 -218 -367 -218q-182 0 -289.5 111.5t-107.5 298.5v637h105v-637q0 -144 80 -227.5t221 -83.5q162 0 260 106.5t98 300.5z" />
    <glyph glyph-name="uacute" unicode="&#xfa;" horiz-adv-x="1155" 
d="M682 1427h123l-187 -260h-100zM895 483v541h102v-1024h-102v195q-111 -218 -367 -218q-182 0 -289.5 111.5t-107.5 298.5v637h105v-637q0 -144 80 -227.5t221 -83.5q162 0 260 106.5t98 300.5z" />
    <glyph glyph-name="ucircumflex" unicode="&#xfb;" horiz-adv-x="1155" 
d="M725 1167l-164 195l-166 -195h-116l221 260h121l221 -260h-117zM895 483v541h102v-1024h-102v195q-111 -218 -367 -218q-182 0 -289.5 111.5t-107.5 298.5v637h105v-637q0 -144 80 -227.5t221 -83.5q162 0 260 106.5t98 300.5z" />
    <glyph glyph-name="udieresis" unicode="&#xfc;" horiz-adv-x="1155" 
d="M377 1182q-32 0 -54 21t-22 52q0 32 22 54t54 22q31 0 52.5 -22t21.5 -54q0 -31 -21.5 -52t-52.5 -21zM745 1182q-32 0 -53.5 21t-21.5 52q0 32 21.5 54t53.5 22q31 0 52.5 -22t21.5 -54q0 -31 -21.5 -52t-52.5 -21zM895 483v541h102v-1024h-102v195q-111 -218 -367 -218
q-182 0 -289.5 111.5t-107.5 298.5v637h105v-637q0 -144 80 -227.5t221 -83.5q162 0 260 106.5t98 300.5z" />
    <glyph glyph-name="yacute" unicode="&#xfd;" horiz-adv-x="1044" 
d="M635 1427h123l-187 -260h-100zM551 113l356 911h111l-443 -1118q-61 -154 -169.5 -240t-235.5 -76v97q97 -7 176 56t129 183l23 56l-471 1042h110z" />
    <glyph glyph-name="thorn" unicode="&#xfe;" 
d="M700 1047q222 0 375 -156q156 -153 156 -379q0 -225 -156 -381q-154 -154 -375 -154q-145 0 -261 69.5t-179 191.5v-648h-102v1844h102v-648q63 122 179 191.5t261 69.5zM385 203q127 -127 309 -127q180 0 307 127t127 309t-127 309t-307 127q-182 0 -309 -127
q-125 -125 -125 -309t125 -309z" />
    <glyph glyph-name="ydieresis" unicode="&#xff;" horiz-adv-x="1044" 
d="M344 1182q-32 0 -54 21t-22 52q0 32 22 54t54 22q31 0 52.5 -22t21.5 -54q0 -31 -21.5 -52t-52.5 -21zM713 1182q-32 0 -54 21t-22 52q0 32 22 54t54 22q31 0 52 -22t21 -54q0 -31 -21 -52t-52 -21zM551 113l356 911h111l-443 -1118q-61 -154 -169.5 -240t-235.5 -76v97
q97 -7 176 56t129 183l23 56l-471 1042h110z" />
    <glyph glyph-name="Amacron" unicode="&#x100;" horiz-adv-x="1288" 
d="M385 1702h518v-90h-518v90zM1257 0h-114l-139 365h-719l-140 -365h-114l557 1434h114zM645 1300l-319 -833h639z" />
    <glyph glyph-name="amacron" unicode="&#x101;" 
d="M369 1292h518v-90h-518v90zM1059 793v231h104v-1024h-104v231q-67 -120 -181.5 -187t-259.5 -67q-217 0 -374 154q-156 156 -156 381q0 226 156 379q156 156 374 156q145 0 259.5 -67t181.5 -187zM317 203q127 -127 310 -127q180 0 307 127q125 125 125 309t-125 309
q-127 127 -307 127q-183 0 -310 -127q-124 -124 -124 -309t124 -309z" />
    <glyph glyph-name="Abreve" unicode="&#x102;" horiz-adv-x="1288" 
d="M373 1817h98q0 -160 174 -160t174 160h99q0 -116 -74 -183t-199 -67t-198.5 67t-73.5 183zM1257 0h-114l-139 365h-719l-140 -365h-114l557 1434h114zM645 1300l-319 -833h639z" />
    <glyph glyph-name="abreve" unicode="&#x103;" 
d="M469 1407h98q0 -160 174 -160t174 160h99q0 -116 -74 -183t-199 -67t-198.5 67t-73.5 183zM1059 793v231h104v-1024h-104v231q-67 -120 -181.5 -187t-259.5 -67q-217 0 -374 154q-156 156 -156 381q0 226 156 379q156 156 374 156q145 0 259.5 -67t181.5 -187zM317 203
q127 -127 310 -127q180 0 307 127q125 125 125 309t-125 309q-127 127 -307 127q-183 0 -310 -127q-124 -124 -124 -309t124 -309z" />
    <glyph glyph-name="Aogonek" unicode="&#x104;" horiz-adv-x="1288" 
d="M1087 -268q0 -76 82 -76q47 0 88 18v-86q-41 -20 -110 -20q-75 0 -117.5 39.5t-42.5 107.5q0 133 158 285h-2l-139 365h-719l-140 -365h-114l557 1434h114l555 -1434q-170 -153 -170 -268zM645 1300l-319 -833h639z" />
    <glyph glyph-name="aogonek" unicode="&#x105;" 
d="M1163 1024v-1024q-170 -153 -170 -268q0 -76 82 -76q45 0 88 18v-86q-44 -20 -110 -20q-75 0 -117.5 39.5t-42.5 107.5q0 136 166 305v211q-67 -120 -181.5 -187t-259.5 -67q-217 0 -374 154q-156 156 -156 381q0 226 156 379q156 156 374 156q145 0 259.5 -67
t181.5 -187v231h104zM317 203q127 -127 310 -127q180 0 307 127q125 125 125 309t-125 309q-127 127 -307 127q-183 0 -310 -127q-124 -124 -124 -309t124 -309z" />
    <glyph glyph-name="Cacute" unicode="&#x106;" horiz-adv-x="1538" 
d="M756 1577l164 260h122l-186 -260h-100zM842 -23q197 0 363.5 95t254.5 256l-96 55q-72 -137 -213.5 -219t-308.5 -82q-277 0 -459 182q-178 184 -178 453t178 450q182 185 459 185q170 0 307 -82q140 -81 211 -213l96 55q-90 158 -254 250q-163 94 -360 94
q-323 0 -535 -215q-211 -211 -211 -524t211 -527q213 -213 535 -213z" />
    <glyph glyph-name="cacute" unicode="&#x107;" horiz-adv-x="1148" 
d="M526 1167l164 260h123l-186 -260h-101zM627 -23q148 0 270 71t184 190l-86 51q-51 -99 -148.5 -156t-219.5 -57q-185 0 -310 125q-124 124 -124 311q0 185 124 309q127 127 310 127q123 0 220.5 -57.5t141.5 -155.5l84 49q-55 121 -175.5 192t-270.5 71q-231 0 -385 -154
t-154 -381t154 -381t385 -154z" />
    <glyph glyph-name="Cdotaccent" unicode="&#x10a;" horiz-adv-x="1538" 
d="M842 1583q-41 0 -69 27.5t-28 68.5t28 69t69 28q39 0 66.5 -28t27.5 -69t-27.5 -68.5t-66.5 -27.5zM842 -23q-322 0 -535 213q-211 214 -211 527t211 524q212 215 535 215q197 0 360 -94q164 -92 254 -250l-96 -55q-71 132 -211 213q-137 82 -307 82q-277 0 -459 -185
q-178 -181 -178 -450t178 -453q182 -182 459 -182q167 0 308.5 82t213.5 219l96 -55q-88 -161 -254.5 -256t-363.5 -95z" />
    <glyph glyph-name="cdotaccent" unicode="&#x10b;" horiz-adv-x="1148" 
d="M612 1174q-41 0 -68.5 27.5t-27.5 68.5t27.5 68.5t68.5 27.5q39 0 67 -27.5t28 -68.5t-28 -68.5t-67 -27.5zM627 -23q-231 0 -385 154t-154 381t154 381t385 154q150 0 270.5 -71t175.5 -192l-84 -49q-44 98 -141.5 155.5t-220.5 57.5q-183 0 -310 -127
q-124 -124 -124 -309q0 -187 124 -311q125 -125 310 -125q122 0 219.5 57t148.5 156l86 -51q-62 -119 -184 -190t-270 -71z" />
    <glyph glyph-name="Ccaron" unicode="&#x10c;" horiz-adv-x="1538" 
d="M903 1577h-123l-221 260h119l164 -195l164 195h118zM1364 383l96 -55q-88 -161 -254.5 -256t-363.5 -95q-322 0 -535 213q-211 214 -211 527t211 524q212 215 535 215q197 0 360 -94q164 -92 254 -250l-96 -55q-71 132 -211 213q-137 82 -307 82q-277 0 -459 -185
q-178 -181 -178 -450t178 -453q182 -182 459 -182q167 0 308.5 82t213.5 219z" />
    <glyph glyph-name="ccaron" unicode="&#x10d;" horiz-adv-x="1148" 
d="M674 1167h-123l-221 260h119l163 -194l164 194h119zM995 289l86 -51q-62 -119 -184 -190t-270 -71q-231 0 -385 154t-154 381t154 381t385 154q150 0 270.5 -71t175.5 -192l-84 -49q-44 98 -141.5 155.5t-220.5 57.5q-183 0 -310 -127q-124 -124 -124 -309
q0 -187 124 -311q125 -125 310 -125q122 0 219.5 57t148.5 156z" />
    <glyph glyph-name="Dcaron" unicode="&#x10e;" horiz-adv-x="1488" 
d="M778 1577h-123l-221 260h119l164 -195l164 195h118zM178 1434h539q292 0 483 -209q193 -205 193 -508q0 -302 -193 -510q-192 -207 -483 -207h-539v1434zM287 102h430q249 0 409 177q160 180 160 438q0 259 -160 436q-159 178 -409 178h-430v-1229z" />
    <glyph glyph-name="dcaron" unicode="&#x10f;" horiz-adv-x="1427" 
d="M1061 786v648h102v-1434h-102v238q-63 -122 -179 -191.5t-261 -69.5q-220 0 -377 154q-154 157 -154 381q0 225 154 379q156 156 377 156q145 0 261 -69.5t179 -191.5zM1317 1085l20 349h103l-49 -349h-74zM317 203q127 -127 310 -127q180 0 307 127t127 309t-127 309
t-307 127q-183 0 -310 -127q-124 -124 -124 -309t124 -309z" />
    <glyph glyph-name="Dcroat" unicode="&#x110;" horiz-adv-x="1529" 
d="M219 1434h539q292 0 483 -209q193 -205 193 -508q0 -302 -193 -510q-192 -207 -483 -207h-539v649h-127v94h127v691zM328 102h430q249 0 409 177q160 180 160 438q0 259 -160 436q-159 178 -409 178h-430v-588h391v-94h-391v-547z" />
    <glyph glyph-name="dslash" unicode="&#x111;" horiz-adv-x="1337" 
d="M1163 1278h140v-86h-140v-1192h-104v233q-64 -120 -180 -188t-261 -68q-217 0 -374 154q-156 156 -156 381q0 226 156 379q156 156 374 156q145 0 261 -68t180 -188v401h-412v86h412v156h104v-156zM317 203q127 -127 310 -127q180 0 307 127q125 125 125 309t-125 309
q-127 127 -307 127q-183 0 -310 -127q-124 -124 -124 -309t124 -309z" />
    <glyph glyph-name="Emacron" unicode="&#x112;" horiz-adv-x="1091" 
d="M326 1702h518v-90h-518v90zM287 672v-570h717v-102h-826v1434h815v-103h-706v-557h655v-102h-655z" />
    <glyph glyph-name="emacron" unicode="&#x113;" horiz-adv-x="1206" 
d="M346 1292h518v-90h-518v90zM618 1047q226 0 365 -160q141 -159 141 -379q0 -5 -1 -24.5t-1 -24.5h-927q18 -172 137 -279q119 -104 297 -104q121 0 213.5 50t140.5 136l90 -53q-64 -107 -181.5 -169.5t-264.5 -62.5q-237 0 -387 150q-152 152 -152 385q0 230 148 381
q151 154 382 154zM618 948q-173 0 -290 -108q-118 -109 -133 -281h823q-15 181 -131 285q-113 104 -269 104z" />
    <glyph glyph-name="Edotaccent" unicode="&#x116;" horiz-adv-x="1091" 
d="M586 1583q-41 0 -69 27.5t-28 68.5t28 69t69 28q39 0 66.5 -28t27.5 -69t-27.5 -68.5t-66.5 -27.5zM287 672v-570h717v-102h-826v1434h815v-103h-706v-557h655v-102h-655z" />
    <glyph glyph-name="edotaccent" unicode="&#x117;" horiz-adv-x="1206" 
d="M606 1174q-41 0 -68.5 27.5t-27.5 68.5t27.5 68.5t68.5 27.5q39 0 66.5 -27.5t27.5 -68.5t-27.5 -68.5t-66.5 -27.5zM618 1047q226 0 365 -160q141 -159 141 -379q0 -5 -1 -24.5t-1 -24.5h-927q18 -172 137 -279q119 -104 297 -104q121 0 213.5 50t140.5 136l90 -53
q-64 -107 -181.5 -169.5t-264.5 -62.5q-237 0 -387 150q-152 152 -152 385q0 230 148 381q151 154 382 154zM618 948q-173 0 -290 -108q-118 -109 -133 -281h823q-15 181 -131 285q-113 104 -269 104z" />
    <glyph glyph-name="Eogonek" unicode="&#x118;" horiz-adv-x="1093" 
d="M1004 0h-3q-170 -153 -170 -268q0 -76 84 -76q45 0 89 18v-86q-44 -20 -111 -20q-77 0 -119.5 39.5t-42.5 107.5q0 139 162 285h-715v1434h815v-103h-706v-557h655v-102h-655v-570h717v-102z" />
    <glyph glyph-name="eogonek" unicode="&#x119;" horiz-adv-x="1206" 
d="M618 1047q226 0 365 -160q141 -159 141 -379q0 -5 -1 -24.5t-1 -24.5h-927q18 -172 137 -279q119 -104 297 -104q121 0 213.5 50t140.5 136l90 -53q-42 -63 -80 -96q-138 -156 -194 -240.5t-56 -140.5q0 -76 84 -76q44 0 88 18v-86q-44 -20 -112 -20q-75 0 -117.5 39.5
t-42.5 107.5q0 127 154 287q-80 -25 -170 -25q-237 0 -387 150q-152 152 -152 385q0 230 148 381q151 154 382 154zM618 948q-173 0 -290 -108q-118 -109 -133 -281h823q-15 181 -131 285q-113 104 -269 104z" />
    <glyph glyph-name="Ecaron" unicode="&#x11a;" horiz-adv-x="1091" 
d="M647 1577h-123l-221 260h119l164 -195l164 195h118zM287 672v-570h717v-102h-826v1434h815v-103h-706v-557h655v-102h-655z" />
    <glyph glyph-name="ecaron" unicode="&#x11b;" horiz-adv-x="1206" 
d="M668 1167h-123l-221 260h118l164 -194l164 194h119zM618 1047q226 0 365 -160q141 -159 141 -379q0 -5 -1 -24.5t-1 -24.5h-927q18 -172 137 -279q119 -104 297 -104q121 0 213.5 50t140.5 136l90 -53q-64 -107 -181.5 -169.5t-264.5 -62.5q-237 0 -387 150
q-152 152 -152 385q0 230 148 381q151 154 382 154zM618 948q-173 0 -290 -108q-118 -109 -133 -281h823q-15 181 -131 285q-113 104 -269 104z" />
    <glyph glyph-name="Gbreve" unicode="&#x11e;" horiz-adv-x="1636" 
d="M549 1817h98q0 -160 174 -160t174 160h99q0 -116 -74 -183t-199 -67t-198.5 67t-73.5 183zM823 668h719v-56q0 -268 -190 -452q-192 -183 -502 -183q-328 0 -541 213q-213 216 -213 527q0 313 211 524q212 215 535 215q197 0 360 -94q167 -95 256 -252l-96 -57
q-69 133 -213 217q-137 82 -307 82q-277 0 -459 -185q-178 -181 -178 -450q0 -270 180 -453q182 -182 465 -182q252 0 407 137q157 139 175 346h-609v103z" />
    <glyph glyph-name="gbreve" unicode="&#x11f;" horiz-adv-x="1327" 
d="M373 1407h98q0 -160 174 -160t174 160h99q0 -116 -74 -183t-199 -67t-198.5 67t-73.5 183zM1067 786v238h102v-975q0 -222 -145 -352q-144 -129 -365 -129q-175 0 -300 64.5t-183 181.5l90 51q99 -199 393 -199q190 0 299 103t109 280v189q-63 -122 -179 -191.5
t-261 -69.5q-220 0 -377 154q-154 157 -154 381q0 225 154 379q156 156 377 156q145 0 261 -69.5t179 -191.5zM324 203q127 -127 309 -127q180 0 307 127t127 309t-127 309t-307 127q-182 0 -309 -127q-125 -125 -125 -309t125 -309z" />
    <glyph glyph-name="Gdotaccent" unicode="&#x120;" horiz-adv-x="1636" 
d="M821 1583q-41 0 -68.5 27.5t-27.5 68.5t27.5 69t68.5 28q39 0 66.5 -28t27.5 -69t-27.5 -68.5t-66.5 -27.5zM823 668h719v-56q0 -268 -190 -452q-192 -183 -502 -183q-328 0 -541 213q-213 216 -213 527q0 313 211 524q212 215 535 215q197 0 360 -94q167 -95 256 -252
l-96 -57q-69 133 -213 217q-137 82 -307 82q-277 0 -459 -185q-178 -181 -178 -450q0 -270 180 -453q182 -182 465 -182q252 0 407 137q157 139 175 346h-609v103z" />
    <glyph glyph-name="gdotaccent" unicode="&#x121;" horiz-adv-x="1327" 
d="M645 1174q-41 0 -68.5 27.5t-27.5 68.5t27.5 68.5t68.5 27.5q39 0 66.5 -27.5t27.5 -68.5t-27.5 -68.5t-66.5 -27.5zM1067 786v238h102v-975q0 -222 -145 -352q-144 -129 -365 -129q-175 0 -300 64.5t-183 181.5l90 51q99 -199 393 -199q190 0 299 103t109 280v189
q-63 -122 -179 -191.5t-261 -69.5q-220 0 -377 154q-154 157 -154 381q0 225 154 379q156 156 377 156q145 0 261 -69.5t179 -191.5zM324 203q127 -127 309 -127q180 0 307 127t127 309t-127 309t-307 127q-182 0 -309 -127q-125 -125 -125 -309t125 -309z" />
    <glyph glyph-name="Gcommaaccent" unicode="&#x122;" horiz-adv-x="1636" 
d="M823 668h719v-56q0 -268 -190 -452q-192 -183 -502 -183q-328 0 -541 213q-213 216 -213 527q0 313 211 524q212 215 535 215q197 0 360 -94q167 -95 256 -252l-96 -57q-69 133 -213 217q-137 82 -307 82q-277 0 -459 -185q-178 -181 -178 -450q0 -270 180 -453
q182 -182 465 -182q252 0 407 137q157 139 175 346h-609v103zM881 -492h-74l20 349h105z" />
    <glyph glyph-name="gcommaaccent" unicode="&#x123;" horiz-adv-x="1327" 
d="M631 1556h74l-21 -348h-104zM1067 786v238h102v-975q0 -222 -145 -352q-144 -129 -365 -129q-175 0 -300 64.5t-183 181.5l90 51q99 -199 393 -199q190 0 299 103t109 280v189q-63 -122 -179 -191.5t-261 -69.5q-220 0 -377 154q-154 157 -154 381q0 225 154 379
q156 156 377 156q145 0 261 -69.5t179 -191.5zM324 203q127 -127 309 -127q180 0 307 127t127 309t-127 309t-307 127q-182 0 -309 -127q-125 -125 -125 -309t125 -309z" />
    <glyph glyph-name="Hbar" unicode="&#x126;" horiz-adv-x="1515" 
d="M1284 1151h135v-90h-135v-1061h-110v686h-832v-686h-111v1061h-135v90h135v283h111v-283h832v283h110v-283zM342 788h832v273h-832v-273z" />
    <glyph glyph-name="hbar" unicode="&#x127;" horiz-adv-x="1181" 
d="M653 1047q182 0 290 -111.5t108 -298.5v-637h-103v637q0 143 -80.5 227t-222.5 84q-162 0 -259 -106.5t-97 -300.5v-541h-105v1192h-149v86h149v156h105v-156h319v-86h-319v-358q115 213 364 213z" />
    <glyph glyph-name="Itilde" unicode="&#x128;" horiz-adv-x="464" 
d="M178 0v1434h109v-1434h-109zM43 1604h-90q0 112 41 168.5t105.5 50.5t136.5 -68q184 -156 184 57h90q0 -166 -88 -206q-87 -40 -195 55q-86 81 -135 68.5t-49 -125.5z" />
    <glyph glyph-name="itilde" unicode="&#x129;" horiz-adv-x="417" 
d="M260 0h-102v1024h102v-1024zM47 1194h-82q0 111 37.5 168t96 51.5t122.5 -67.5q82 -76 117 -61.5t35 118.5h82q0 -167 -76 -207q-83 -42 -180 55q-77 79 -114.5 65.5t-37.5 -122.5z" />
    <glyph glyph-name="Imacron" unicode="&#x12a;" horiz-adv-x="464" 
d="M489 1612h-518v90h518v-90zM178 0v1434h109v-1434h-109z" />
    <glyph glyph-name="imacron" unicode="&#x12b;" horiz-adv-x="417" 
d="M399 1202h-381v90h381v-90zM260 0h-102v1024h102v-1024z" />
    <glyph glyph-name="Iogonek" unicode="&#x12e;" horiz-adv-x="464" 
d="M272 -344q44 0 88 18v-86q-41 -20 -110 -20q-77 0 -119.5 39.5t-42.5 107.5q0 114 90 289v1430h109v-1434l-51 -96q-46 -105 -46 -172q0 -76 82 -76z" />
    <glyph glyph-name="iogonek" unicode="&#x12f;" horiz-adv-x="417" 
d="M127 1354q-1 29 16 49t41.5 24.5t49 0t41.5 -24.5t16 -49q2 -50 -40 -70.5t-84 0t-40 70.5zM252 -344q44 0 88 18v-86q-41 -20 -111 -20q-73 0 -117 46.5t-44 117.5q0 108 90 280v1012h102v-1024q-90 -156 -90 -252q0 -39 23 -65.5t59 -26.5z" />
    <glyph glyph-name="Idot" unicode="&#x130;" horiz-adv-x="464" 
d="M231 1583q-41 0 -68.5 27.5t-27.5 68.5t27.5 69t68.5 28q39 0 67 -28t28 -69t-28 -68.5t-67 -27.5zM178 0v1434h109v-1434h-109z" />
    <glyph glyph-name="dotlessi" unicode="&#x131;" horiz-adv-x="417" 
d="M260 0h-102v1024h102v-1024z" />
    <glyph glyph-name="Kcommaaccent" unicode="&#x136;" horiz-adv-x="1171" 
d="M1130 1434l-724 -697l745 -737h-145l-719 707v-707h-109v1434h109v-668l698 668h145zM639 -492h-74l21 349h104z" />
    <glyph glyph-name="kcommaaccent" unicode="&#x137;" horiz-adv-x="989" 
d="M922 1024l-551 -492l571 -532h-139l-543 504v-504h-102v1434h102v-875l518 465h144zM541 -492h-74l20 349h105z" />
    <glyph glyph-name="Lacute" unicode="&#x139;" horiz-adv-x="1009" 
d="M342 1837h123l-186 -260h-101zM287 1434v-1332h676v-102h-785v1434h109z" />
    <glyph glyph-name="lacute" unicode="&#x13a;" horiz-adv-x="417" 
d="M156 1577l163 260h123l-186 -260h-100zM158 0h102v1495h-102v-1495z" />
    <glyph glyph-name="Lcommaaccent" unicode="&#x13b;" horiz-adv-x="1009" 
d="M287 1434v-1332h676v-102h-785v1434h109zM588 -492h-74l21 349h104z" />
    <glyph glyph-name="lcommaaccent" unicode="&#x13c;" horiz-adv-x="417" 
d="M260 0h-102v1495h102v-1495zM213 -492h-74l21 349h104z" />
    <glyph glyph-name="Lcaron" unicode="&#x13d;" horiz-adv-x="1009" 
d="M287 1434v-1332h676v-102h-785v1434h109zM559 1434h103l-50 -349h-73z" />
    <glyph glyph-name="lcaron" unicode="&#x13e;" horiz-adv-x="526" 
d="M260 0h-102v1495h102v-1495zM489 1147h-73l20 348h103z" />
    <glyph glyph-name="Lslash" unicode="&#x141;" horiz-adv-x="1044" 
d="M322 575v-473h675v-102h-784v512l-125 -74v101l125 73v822h109v-758l374 221v-100z" />
    <glyph glyph-name="lslash" unicode="&#x142;" horiz-adv-x="491" 
d="M297 823l154 105v-101l-154 -104v-723h-102v651l-154 -104v100l154 105v743h102v-672z" />
    <glyph glyph-name="Nacute" unicode="&#x143;" horiz-adv-x="1406" 
d="M610 1577l164 260h123l-186 -260h-101zM1120 1434v-1233l-848 1233h-94v-1434h109v1233l846 -1233h96v1434h-109z" />
    <glyph glyph-name="nacute" unicode="&#x144;" horiz-adv-x="1155" 
d="M676 1427h123l-187 -260h-100zM627 1047q182 0 289.5 -111.5t107.5 -298.5v-637h-104v637q0 144 -80 227.5t-222 83.5q-162 0 -260 -106.5t-98 -300.5v-541h-102v1024h102v-195q111 218 367 218z" />
    <glyph glyph-name="Ncommaaccent" unicode="&#x145;" horiz-adv-x="1406" 
d="M1120 201v1233h109v-1434h-96l-846 1233v-1233h-109v1434h94zM700 -492h-73l20 349h105z" />
    <glyph glyph-name="ncommaaccent" unicode="&#x146;" horiz-adv-x="1155" 
d="M627 1047q182 0 289.5 -111.5t107.5 -298.5v-637h-104v637q0 144 -80 227.5t-222 83.5q-162 0 -260 -106.5t-98 -300.5v-541h-102v1024h102v-195q111 218 367 218zM608 -492h-73l20 349h104z" />
    <glyph glyph-name="Ncaron" unicode="&#x147;" horiz-adv-x="1406" 
d="M758 1577h-123l-221 260h118l164 -195l164 195h119zM1120 201v1233h109v-1434h-96l-846 1233v-1233h-109v1434h94z" />
    <glyph glyph-name="ncaron" unicode="&#x148;" horiz-adv-x="1155" 
d="M659 1167h-122l-222 260h119l164 -194l164 194h119zM627 1047q182 0 289.5 -111.5t107.5 -298.5v-637h-104v637q0 144 -80 227.5t-222 83.5q-162 0 -260 -106.5t-98 -300.5v-541h-102v1024h102v-195q111 218 367 218z" />
    <glyph glyph-name="Eng" unicode="&#x14a;" horiz-adv-x="1406" 
d="M1120 201v1233h109v-1434q0 -410 -420 -410v105q161 0 236 69t75 236v18l-833 1215v-1233h-109v1434h94z" />
    <glyph glyph-name="eng" unicode="&#x14b;" horiz-adv-x="1155" 
d="M627 1047q182 0 289.5 -111.5t107.5 -298.5v-754q0 -165 -88 -246.5t-252 -68.5v98q121 -12 178.5 41t57.5 176v754q0 144 -80 227.5t-222 83.5q-162 0 -260 -106.5t-98 -300.5v-541h-102v1024h102v-195q111 218 367 218z" />
    <glyph glyph-name="Omacron" unicode="&#x14c;" horiz-adv-x="1671" 
d="M1094 1612h-519v90h519v-90zM1360 193q-216 -216 -524 -216q-309 0 -525 216q-215 218 -215 524q0 307 215 522q214 217 525 217q310 0 524 -217q215 -215 215 -522q0 -306 -215 -524zM387 266q184 -184 449 -184t446 184q184 187 184 451t-184 448q-181 187 -446 187
t-449 -187q-182 -185 -182 -448t182 -451z" />
    <glyph glyph-name="omacron" unicode="&#x14d;" horiz-adv-x="1251" 
d="M879 1202h-519v90h519v-90zM627 -23q-226 0 -383 154q-156 156 -156 381q0 226 156 379q156 156 383 156q223 0 379 -156q157 -154 157 -379q0 -224 -157 -381q-157 -154 -379 -154zM317 203q127 -127 310 -127q180 0 307 127q125 125 125 309t-125 309
q-127 127 -307 127q-183 0 -310 -127q-124 -124 -124 -309t124 -309z" />
    <glyph glyph-name="Ohungarumlaut" unicode="&#x150;" horiz-adv-x="1671" 
d="M584 1577l143 266h115l-154 -266h-104zM874 1577l164 266h115l-174 -266h-105zM1360 193q215 218 215 524q0 307 -215 522q-214 217 -524 217q-311 0 -525 -217q-215 -215 -215 -522q0 -306 215 -524q216 -216 525 -216q308 0 524 216zM387 266q-182 188 -182 451
t182 448q184 187 449 187t446 -187q184 -184 184 -448t-184 -451q-181 -184 -446 -184t-449 184z" />
    <glyph glyph-name="ohungarumlaut" unicode="&#x151;" horiz-adv-x="1251" 
d="M369 1167l143 267h115l-154 -267h-104zM659 1167l164 267h115l-174 -267h-105zM627 -23q222 0 379 154q157 157 157 381q0 225 -157 379q-156 156 -379 156q-227 0 -383 -156q-156 -153 -156 -379q0 -225 156 -381q157 -154 383 -154zM317 203q-124 124 -124 309t124 309
q127 127 310 127q180 0 307 -127q125 -125 125 -309t-125 -309q-127 -127 -307 -127q-183 0 -310 127z" />
    <glyph glyph-name="OE" unicode="&#x152;" horiz-adv-x="1867" 
d="M1116 672v-570h664v-102h-772q-97 -23 -193 -23q-312 0 -516 213q-203 215 -203 527t203 524q203 215 516 215q100 0 193 -22h761v-103h-653v-557h615v-102h-615zM1008 111v1212q-95 29 -193 29q-267 0 -440 -185q-170 -182 -170 -450t170 -453q173 -182 440 -182
q98 0 193 29z" />
    <glyph glyph-name="oe" unicode="&#x153;" horiz-adv-x="2172" 
d="M1587 1047q224 0 363 -160q141 -159 141 -379q0 -39 -2 -49h-928q18 -172 137 -279q119 -104 297 -104q121 0 214 50t141 136l90 -53q-64 -107 -180.5 -169.5t-262.5 -62.5q-175 0 -304 87.5t-185 238.5q-57 -149 -186.5 -237.5t-294.5 -88.5q-228 0 -385 154
q-154 154 -154 381t154 381q157 154 385 154q165 0 294.5 -89t186.5 -239q56 151 183.5 239.5t295.5 88.5zM627 76q183 0 305 125q125 125 125 311q0 184 -125 309q-124 127 -305 127q-185 0 -312 -127q-122 -125 -122 -309q0 -186 122 -311q125 -125 312 -125zM1585 948
q-171 0 -291 -108q-118 -109 -133 -281h824q-15 180 -132 285q-113 104 -268 104z" />
    <glyph glyph-name="Racute" unicode="&#x154;" horiz-adv-x="1255" 
d="M719 1837h123l-187 -260h-100zM1208 0h-125l-344 588h-452v-588h-109v1434h565q174 0 299 -125t125 -299q0 -142 -90 -258q-87 -113 -225 -150zM743 1331h-456v-641h456q132 0 224 92q92 95 92 228q0 132 -92 227q-91 94 -224 94z" />
    <glyph glyph-name="racute" unicode="&#x155;" horiz-adv-x="651" 
d="M457 1427h123l-187 -260h-100zM260 1024v-201q92 215 342 215v-98q-152 0 -247 -96.5t-95 -274.5v-569h-102v1024h102z" />
    <glyph glyph-name="Rcommaaccent" unicode="&#x156;" horiz-adv-x="1255" 
d="M852 602l356 -602h-125l-344 588h-452v-588h-109v1434h565q174 0 299 -125t125 -299q0 -142 -90 -258q-87 -113 -225 -150zM743 1331h-456v-641h456q132 0 224 92q92 95 92 228q0 132 -92 227q-91 94 -224 94zM686 -492h-74l21 349h104z" />
    <glyph glyph-name="rcommaaccent" unicode="&#x157;" horiz-adv-x="651" 
d="M260 1024v-201q92 215 342 215v-98q-152 0 -247 -96.5t-95 -274.5v-569h-102v1024h102zM211 -492h-74l21 349h104z" />
    <glyph glyph-name="Rcaron" unicode="&#x158;" horiz-adv-x="1255" 
d="M702 1577h-122l-222 260h119l164 -195l164 195h119zM1208 0h-125l-344 588h-452v-588h-109v1434h565q174 0 299 -125t125 -299q0 -142 -90 -258q-87 -113 -225 -150zM743 1331h-456v-641h456q132 0 224 92q92 95 92 228q0 132 -92 227q-91 94 -224 94z" />
    <glyph glyph-name="rcaron" unicode="&#x159;" horiz-adv-x="651" 
d="M440 1167h-123l-221 260h119l164 -194l164 194h119zM260 1024v-201q92 215 342 215v-98q-152 0 -247 -96.5t-95 -274.5v-569h-102v1024h102z" />
    <glyph glyph-name="Sacute" unicode="&#x15a;" horiz-adv-x="1175" 
d="M487 1577l164 260h123l-186 -260h-101zM616 -23q214 0 342 107q129 108 129 287t-147 268q-76 49 -143 76q-56 24 -185 67q-186 61 -268 119t-82 174q0 123 89 200t235 77q266 0 368 -248l93 51q-57 138 -177.5 219.5t-283.5 81.5q-188 0 -312 -106q-122 -104 -122 -279
q0 -93 47 -174q30 -49 127 -111q27 -18 88 -43l90 -34l102 -33q197 -63 281 -125q90 -66 90 -182q0 -130 -95.5 -208.5t-265.5 -78.5q-169 0 -280 76.5t-150 212.5l-94 -56q50 -157 189 -247.5t335 -90.5z" />
    <glyph glyph-name="sacute" unicode="&#x15b;" horiz-adv-x="937" 
d="M547 1427h123l-187 -260h-100zM227 756q0 -130 219 -185q166 -36 235 -68q167 -75 167 -235q0 -128 -102 -209.5t-265 -81.5q-145 0 -247.5 61.5t-141.5 166.5l88 51q29 -85 107.5 -132.5t193.5 -47.5q118 0 191 51t73 141q0 71 -60 118t-159 69q-8 2 -25 6
q-50 12 -76 18.5t-72.5 21.5t-73 29t-60 37t-51 48.5t-30.5 61.5t-13 79q0 123 96 207q101 84 252 84q121 0 213 -55t135 -150l-86 -49q-30 73 -101 114t-161 41q-106 0 -176 -53t-70 -139z" />
    <glyph glyph-name="Scedilla" unicode="&#x15e;" horiz-adv-x="1175" 
d="M1087 371q0 -177 -124 -283q-123 -108 -328 -111v-92q84 -11 135 -51t51 -102q0 -194 -399 -164v84q151 -13 230 8t79 72q0 88 -188 88v162q-170 17 -288.5 105t-162.5 228l94 56q39 -136 150 -212.5t280 -76.5q170 0 265.5 78.5t95.5 208.5q0 116 -90 182
q-84 62 -281 125l-102 33l-90 34q-61 25 -88 43q-97 62 -127 111q-47 81 -47 174q0 175 122 279q124 106 312 106q163 0 283.5 -81.5t177.5 -219.5l-93 -51q-102 248 -368 248q-146 0 -235 -77t-89 -200q0 -116 82 -174t268 -119q129 -43 185 -67q67 -27 143 -76
q147 -89 147 -268z" />
    <glyph glyph-name="scedilla" unicode="&#x15f;" horiz-adv-x="937" 
d="M848 268q0 -119 -89 -198.5t-235 -89.5v-95q84 -11 135.5 -51.5t51.5 -101.5q0 -194 -400 -164v84q151 -13 230.5 8t79.5 72q0 88 -189 88v160q-127 10 -215.5 70t-124.5 155l88 51q29 -85 107.5 -132.5t193.5 -47.5q118 0 191 51t73 141q0 71 -60 118t-159 69
q-8 2 -25 6q-50 12 -76 18.5t-72.5 21.5t-73 29t-60 37t-51 48.5t-30.5 61.5t-13 79q0 123 96 207q101 84 252 84q121 0 213 -55t135 -150l-86 -49q-30 73 -101 114t-161 41q-106 0 -176 -53t-70 -139q0 -130 219 -185q166 -36 235 -68q167 -75 167 -235z" />
    <glyph glyph-name="Scaron" unicode="&#x160;" horiz-adv-x="1175" 
d="M635 1577h-123l-221 260h119l163 -195l164 195h119zM612 782q129 -43 185 -67q67 -27 143 -76q147 -89 147 -268t-129 -287q-128 -107 -342 -107q-196 0 -335 90.5t-189 247.5l94 56q39 -136 150 -212.5t280 -76.5q170 0 265.5 78.5t95.5 208.5q0 116 -90 182
q-84 62 -281 125l-102 33l-90 34q-61 25 -88 43q-97 62 -127 111q-47 81 -47 174q0 175 122 279q124 106 312 106q163 0 283.5 -81.5t177.5 -219.5l-93 -51q-102 248 -368 248q-146 0 -235 -77t-89 -200q0 -116 82 -174t268 -119z" />
    <glyph glyph-name="scaron" unicode="&#x161;" horiz-adv-x="937" 
d="M530 1167h-122l-222 260h119l164 -194l164 194h119zM227 756q0 -130 219 -185q166 -36 235 -68q167 -75 167 -235q0 -128 -102 -209.5t-265 -81.5q-145 0 -247.5 61.5t-141.5 166.5l88 51q29 -85 107.5 -132.5t193.5 -47.5q118 0 191 51t73 141q0 71 -60 118t-159 69
q-8 2 -25 6q-50 12 -76 18.5t-72.5 21.5t-73 29t-60 37t-51 48.5t-30.5 61.5t-13 79q0 123 96 207q101 84 252 84q121 0 213 -55t135 -150l-86 -49q-30 73 -101 114t-161 41q-106 0 -176 -53t-70 -139z" />
    <glyph glyph-name="uni0162" unicode="&#x162;" horiz-adv-x="1105" 
d="M47 1434h1012v-103h-451v-1331h-110v1331h-451v103zM557 -492h-74l21 349h104z" />
    <glyph glyph-name="uni0163" unicode="&#x163;" horiz-adv-x="770" 
d="M682 1024v-100h-305v-666q0 -87 32.5 -126.5t100.5 -44.5t172 5v-92q-210 -31 -310 29.5t-100 228.5v666h-225v100h225v256l105 31v-287h305zM487 -492h-73l20 349h105z" />
    <glyph glyph-name="Tcaron" unicode="&#x164;" horiz-adv-x="1105" 
d="M614 1577h-122l-222 260h119l164 -195l164 195h119zM47 1434h1012v-103h-451v-1331h-110v1331h-451v103z" />
    <glyph glyph-name="tcaron" unicode="&#x165;" horiz-adv-x="770" 
d="M518 1462h103l-50 -321h-73zM682 1024v-100h-305v-666q0 -87 32.5 -126.5t100.5 -44.5t172 5v-92q-210 -31 -310 29.5t-100 228.5v666h-225v100h225v256l105 31v-287h305z" />
    <glyph glyph-name="Tbar" unicode="&#x166;" horiz-adv-x="1105" 
d="M1059 1434v-103h-451v-565h314v-98h-314v-668h-110v668h-314v98h314v565h-451v103h1012z" />
    <glyph glyph-name="tbar" unicode="&#x167;" horiz-adv-x="770" 
d="M682 1024v-100h-305v-344h205v-86h-205v-236q0 -87 32.5 -126.5t100.5 -44.5t172 5v-92q-210 -31 -310 29.5t-100 228.5v236h-141v86h141v344h-225v100h225v256l105 31v-287h305z" />
    <glyph glyph-name="Utilde" unicode="&#x168;" horiz-adv-x="1366" 
d="M158 479v955h108v-955q0 -182 110 -289.5t306 -107.5t307 107.5t111 289.5v955h108v-955q0 -225 -145 -364q-144 -138 -381 -138t-381 138q-143 137 -143 364zM492 1604h-91q0 112 41 168.5t105.5 50.5t136.5 -68q184 -156 184 57h90q0 -166 -88 -206q-86 -39 -194 55
q-86 81 -135 68.5t-49 -125.5z" />
    <glyph glyph-name="utilde" unicode="&#x169;" horiz-adv-x="1155" 
d="M895 483v541h102v-1024h-102v195q-111 -218 -367 -218q-182 0 -289.5 111.5t-107.5 298.5v637h105v-637q0 -144 80 -227.5t221 -83.5q162 0 260 106.5t98 300.5zM373 1194h-90q0 112 41 168.5t105 51t136 -67.5q185 -156 185 57h90q0 -167 -88 -207q-87 -40 -195 55
q-86 81 -135 68.5t-49 -125.5z" />
    <glyph glyph-name="Umacron" unicode="&#x16a;" horiz-adv-x="1366" 
d="M938 1612h-518v90h518v-90zM158 479v955h108v-955q0 -182 110 -289.5t306 -107.5t307 107.5t111 289.5v955h108v-955q0 -225 -145 -364q-144 -138 -381 -138t-381 138q-143 137 -143 364z" />
    <glyph glyph-name="umacron" unicode="&#x16b;" horiz-adv-x="1155" 
d="M301 1292h518v-90h-518v90zM895 483v541h102v-1024h-102v195q-111 -218 -367 -218q-182 0 -289.5 111.5t-107.5 298.5v637h105v-637q0 -144 80 -227.5t221 -83.5q162 0 260 106.5t98 300.5z" />
    <glyph glyph-name="Uring" unicode="&#x16e;" horiz-adv-x="1366" 
d="M678 1475q-92 0 -150.5 55.5t-58.5 142.5t58.5 143t150.5 56q93 0 152 -56t59 -143t-59 -142.5t-152 -55.5zM678 1556q77 -6 109.5 55.5t0 123t-109.5 55.5q-55 0 -88 -32.5t-33 -84.5t33 -84.5t88 -32.5zM158 479v955h108v-955q0 -182 110 -289.5t306 -107.5t307 107.5
t111 289.5v955h108v-955q0 -225 -145 -364q-144 -138 -381 -138t-381 138q-143 137 -143 364z" />
    <glyph glyph-name="uring" unicode="&#x16f;" horiz-adv-x="1155" 
d="M561 1133q-92 0 -150.5 55.5t-58.5 142.5t58.5 143t150.5 56q93 0 152 -56t59 -143t-59 -142.5t-152 -55.5zM561 1448q-55 0 -88 -32.5t-33 -84.5t33 -84.5t88 -32.5q77 -6 109.5 55.5t0 123t-109.5 55.5zM895 483v541h102v-1024h-102v195q-111 -218 -367 -218
q-182 0 -289.5 111.5t-107.5 298.5v637h105v-637q0 -144 80 -227.5t221 -83.5q162 0 260 106.5t98 300.5z" />
    <glyph glyph-name="Uhungarumlaut" unicode="&#x170;" horiz-adv-x="1366" 
d="M428 1577l143 266h115l-154 -266h-104zM719 1577l164 266h114l-174 -266h-104zM158 479q0 -227 143 -364q144 -138 381 -138t381 138q145 139 145 364v955h-108v-955q0 -182 -111 -289.5t-307 -107.5t-306 107.5t-110 289.5v955h-108v-955z" />
    <glyph glyph-name="uhungarumlaut" unicode="&#x171;" horiz-adv-x="1155" 
d="M453 1434h114l-153 -267h-105zM764 1434h115l-174 -267h-105zM895 483v541h102v-1024h-102v195q-111 -218 -367 -218q-182 0 -289.5 111.5t-107.5 298.5v637h105v-637q0 -144 80 -227.5t221 -83.5q162 0 260 106.5t98 300.5z" />
    <glyph glyph-name="Uogonek" unicode="&#x172;" horiz-adv-x="1366" 
d="M1100 479v955h108v-955q0 -258 -180 -395q-141 -124 -207 -207q-55 -73 -55 -145q0 -76 82 -76q44 0 88 18v-86q-41 -20 -111 -20q-77 0 -119 39.5t-42 107.5q0 131 153 275q-70 -13 -135 -13q-237 0 -381 138q-143 137 -143 364v955h108v-955q0 -182 110 -289.5
t306 -107.5t307 107.5t111 289.5z" />
    <glyph glyph-name="uogonek" unicode="&#x173;" horiz-adv-x="1155" 
d="M997 1024v-1024q-170 -153 -170 -268q0 -76 82 -76q45 0 88 18v-86q-44 -20 -110 -20q-75 0 -117.5 39.5t-42.5 107.5q0 125 168 305v175q-111 -218 -367 -218q-182 0 -289.5 111.5t-107.5 298.5v637h105v-637q0 -144 80 -227.5t221 -83.5q162 0 260 106.5t98 300.5v541
h102z" />
    <glyph glyph-name="Wcircumflex" unicode="&#x174;" horiz-adv-x="2033" 
d="M1135 1577l-164 195l-166 -195h-117l221 260h121l221 -260h-116zM1483 145l368 1289h115l-416 -1434h-131l-401 1292l-404 -1292h-131l-415 1434h114l371 -1289l399 1289h129z" />
    <glyph glyph-name="wcircumflex" unicode="&#x175;" horiz-adv-x="1576" 
d="M952 1167l-164 195l-165 -195h-117l221 260h121l221 -260h-117zM1128 133l273 891h108l-323 -1024h-113l-285 872l-284 -872h-113l-323 1024h108l273 -891l286 891h107z" />
    <glyph glyph-name="Ycircumflex" unicode="&#x176;" horiz-adv-x="1193" 
d="M756 1577l-164 195l-166 -195h-117l221 260h121l221 -260h-116zM1051 1434h123l-523 -844v-590h-108v590l-523 844h123l455 -740z" />
    <glyph glyph-name="ycircumflex" unicode="&#x177;" horiz-adv-x="1044" 
d="M692 1167l-164 195l-166 -195h-116l221 260h121l221 -260h-117zM551 113l356 911h111l-443 -1118q-61 -154 -169.5 -240t-235.5 -76v97q97 -7 176 56t129 183l23 56l-471 1042h110z" />
    <glyph glyph-name="Ydieresis" unicode="&#x178;" horiz-adv-x="1193" 
d="M408 1591q-32 0 -54 21.5t-22 52.5q0 32 22 54t54 22q31 0 52 -22t21 -54q0 -31 -21 -52.5t-52 -21.5zM776 1591q-32 0 -54 21.5t-22 52.5q0 32 22 54t54 22q31 0 52.5 -22t21.5 -54q0 -31 -21.5 -52.5t-52.5 -21.5zM1051 1434h123l-523 -844v-590h-108v590l-523 844h123
l455 -740z" />
    <glyph glyph-name="Zacute" unicode="&#x179;" horiz-adv-x="1071" 
d="M625 1837h123l-187 -260h-100zM983 1331l-774 -1229h795v-102h-916v102l774 1229h-753v103h874v-103z" />
    <glyph glyph-name="zacute" unicode="&#x17a;" horiz-adv-x="976" 
d="M580 1427h122l-186 -260h-100zM866 956l-612 -856h633v-100h-778v68l614 856h-594v100h737v-68z" />
    <glyph glyph-name="Zdotaccent" unicode="&#x17b;" horiz-adv-x="1071" 
d="M547 1583q-41 0 -68.5 27.5t-27.5 68.5t27.5 69t68.5 28q39 0 66.5 -28t27.5 -69t-27.5 -68.5t-66.5 -27.5zM983 1331l-774 -1229h795v-102h-916v102l774 1229h-753v103h874v-103z" />
    <glyph glyph-name="zdotaccent" unicode="&#x17c;" horiz-adv-x="976" 
d="M502 1174q-41 0 -68.5 27.5t-27.5 68.5t27.5 68.5t68.5 27.5q39 0 66.5 -27.5t27.5 -68.5t-27.5 -68.5t-66.5 -27.5zM866 956l-612 -856h633v-100h-778v68l614 856h-594v100h737v-68z" />
    <glyph glyph-name="Zcaron" unicode="&#x17d;" horiz-adv-x="1071" 
d="M608 1577h-123l-221 260h119l164 -195l164 195h118zM983 1331l-774 -1229h795v-102h-916v102l774 1229h-753v103h874v-103z" />
    <glyph glyph-name="zcaron" unicode="&#x17e;" horiz-adv-x="976" 
d="M563 1167h-123l-221 260h119l164 -194l164 194h118zM866 956l-612 -856h633v-100h-778v68l614 856h-594v100h737v-68z" />
    <glyph glyph-name="florin" unicode="&#x192;" horiz-adv-x="892" 
d="M438 768l72 414q26 165 132 234t251 24v-103q-105 44 -183 0t-98 -157l-69 -412h245v-100h-262l-141 -826q-29 -165 -135 -234t-250 -24v103q108 -44 185 0t96 157l141 824h-236v100h252z" />
    <glyph glyph-name="Ohorn" unicode="&#x1a0;" horiz-adv-x="1671" 
d="M1360 193q-216 -216 -524 -216q-309 0 -525 216q-215 218 -215 524q0 307 215 522q214 217 525 217q97 0 190 -22h141q74 0 96.5 31t22.5 112v10h100v-10q0 -110 -36.5 -166t-116.5 -68q65 -42 127 -104q215 -215 215 -522q0 -306 -215 -524zM387 266q184 -184 449 -184
t446 184q184 187 184 451t-184 448q-181 187 -446 187t-449 -187q-182 -185 -182 -448t182 -451z" />
    <glyph glyph-name="ohorn" unicode="&#x1a1;" horiz-adv-x="1251" 
d="M627 -23q-226 0 -383 154q-156 156 -156 381q0 226 156 379q156 156 383 156q77 0 161 -23h78q74 0 96.5 31t22.5 112v11h100v-11q0 -102 -32 -157t-101 -72q9 -7 54 -47q157 -154 157 -379q0 -224 -157 -381q-157 -154 -379 -154zM317 203q127 -127 310 -127
q180 0 307 127q125 125 125 309t-125 309q-127 127 -307 127q-183 0 -310 -127q-124 -124 -124 -309t124 -309z" />
    <glyph glyph-name="Uhorn" unicode="&#x1af;" horiz-adv-x="1366" 
d="M158 479v955h108v-955q0 -182 110 -289.5t306 -107.5t307 107.5t111 289.5v955h55q74 0 96.5 31t22.5 112v10h100v-10q0 -114 -39.5 -169.5t-126.5 -66.5v-862q0 -225 -145 -364q-144 -138 -381 -138t-381 138q-143 137 -143 364z" />
    <glyph glyph-name="uhorn" unicode="&#x1b0;" horiz-adv-x="1155" 
d="M895 483v541h55q74 0 96.5 31t22.5 112v11h100v-11q0 -116 -41 -171t-131 -64v-932h-102v195q-111 -218 -367 -218q-182 0 -289.5 111.5t-107.5 298.5v637h105v-637q0 -144 80 -227.5t221 -83.5q162 0 260 106.5t98 300.5z" />
    <glyph glyph-name="Scommaaccent" unicode="&#x218;" horiz-adv-x="1175" 
d="M616 -23q-196 0 -335 90.5t-189 247.5l94 56q39 -136 150 -212.5t280 -76.5q170 0 265.5 78.5t95.5 208.5q0 116 -90 182q-84 62 -281 125l-102 33l-90 34q-61 25 -88 43q-97 62 -127 111q-47 81 -47 174q0 175 122 279q124 106 312 106q163 0 283.5 -81.5t177.5 -219.5
l-93 -51q-102 248 -368 248q-146 0 -235 -77t-89 -200q0 -116 82 -174t268 -119q129 -43 185 -67q67 -27 143 -76q147 -89 147 -268t-129 -287q-128 -107 -342 -107zM614 -492h-73l20 349h105z" />
    <glyph glyph-name="scommaaccent" unicode="&#x219;" horiz-adv-x="937" 
d="M227 756q0 -130 219 -185q166 -36 235 -68q167 -75 167 -235q0 -128 -102 -209.5t-265 -81.5q-145 0 -247.5 61.5t-141.5 166.5l88 51q29 -85 107.5 -132.5t193.5 -47.5q118 0 191 51t73 141q0 71 -60 118t-159 69q-8 2 -25 6q-50 12 -76 18.5t-72.5 21.5t-73 29t-60 37
t-51 48.5t-30.5 61.5t-13 79q0 123 96 207q101 84 252 84q121 0 213 -55t135 -150l-86 -49q-30 73 -101 114t-161 41q-106 0 -176 -53t-70 -139zM504 -492h-74l21 349h104z" />
    <glyph glyph-name="uni021A" unicode="&#x21a;" horiz-adv-x="1105" 
d="M47 1434h1012v-103h-451v-1331h-110v1331h-451v103zM557 -492h-74l21 349h104z" />
    <glyph glyph-name="uni021B" unicode="&#x21b;" horiz-adv-x="770" 
d="M682 1024v-100h-305v-666q0 -87 32.5 -126.5t100.5 -44.5t172 5v-92q-210 -31 -310 29.5t-100 228.5v666h-225v100h225v256l105 31v-287h305zM487 -492h-73l20 349h105z" />
    <glyph glyph-name="circumflex" unicode="&#x2c6;" horiz-adv-x="645" 
d="M383 1427l221 -260h-117l-163 195l-166 -195h-117l221 260h121z" />
    <glyph glyph-name="caron" unicode="&#x2c7;" horiz-adv-x="645" 
d="M324 1233l163 194h119l-221 -260h-123l-221 260h119z" />
    <glyph glyph-name="breve" unicode="&#x2d8;" horiz-adv-x="628" 
d="M41 1407h98q0 -160 174 -160t174 160h99q0 -116 -74 -183t-199 -67t-198.5 67t-73.5 183z" />
    <glyph glyph-name="dotaccent" unicode="&#x2d9;" horiz-adv-x="272" 
d="M137 1174q-41 0 -68.5 27.5t-27.5 68.5t27.5 68.5t68.5 27.5q39 0 66.5 -27.5t27.5 -68.5t-27.5 -68.5t-66.5 -27.5z" />
    <glyph glyph-name="ring" unicode="&#x2da;" horiz-adv-x="501" 
d="M250 1133q-92 0 -150.5 55.5t-58.5 142.5t58.5 143t150.5 56q93 0 152 -56t59 -143t-59 -142.5t-152 -55.5zM250 1214q77 -6 109.5 55.5t0 123t-109.5 55.5q-55 0 -88 -32.5t-33 -84.5t33 -84.5t88 -32.5z" />
    <glyph glyph-name="ogonek" unicode="&#x2db;" horiz-adv-x="354" 
d="M203 -432q-77 0 -119.5 39.5t-42.5 107.5q0 139 162 285h108q-170 -153 -170 -268q0 -76 84 -76q45 0 88 18v-86q-44 -20 -110 -20z" />
    <glyph glyph-name="tilde" unicode="&#x2dc;" horiz-adv-x="638" 
d="M131 1194h-90q0 112 41 168.5t105.5 51t136.5 -67.5q184 -156 184 57h90q0 -167 -88 -207q-87 -40 -195 55q-86 81 -135 68.5t-49 -125.5z" />
    <glyph glyph-name="hungarumlaut" unicode="&#x2dd;" horiz-adv-x="651" 
d="M41 1167l143 267h115l-154 -267h-104zM332 1167l164 267h114l-174 -267h-104z" />
    <glyph glyph-name="gravecomb" unicode="&#x300;" horiz-adv-x="0" 
d="M-41 1167h-98l-189 260h123z" />
    <glyph glyph-name="acutecomb" unicode="&#x301;" horiz-adv-x="0" 
d="M-328 1167l164 260h123l-186 -260h-101z" />
    <glyph glyph-name="uni0302" unicode="&#x302;" horiz-adv-x="0" 
d="M-262 1427l221 -260h-117l-164 195l-165 -195h-117l221 260h121z" />
    <glyph glyph-name="tildecomb" unicode="&#x303;" horiz-adv-x="0" 
d="M-508 1194h-90q0 112 41 168.5t105.5 51t136.5 -67.5q184 -156 184 57h90q0 -167 -88 -207q-87 -40 -195 55q-86 81 -135 68.5t-49 -125.5z" />
    <glyph glyph-name="uni0304" unicode="&#x304;" horiz-adv-x="0" 
d="M-41 1202h-518v90h518v-90z" />
    <glyph glyph-name="uni0306" unicode="&#x306;" horiz-adv-x="0" 
d="M-600 1407h98q0 -160 174 -160t174 160h99q0 -116 -74 -183t-199 -67t-198.5 67t-73.5 183z" />
    <glyph glyph-name="uni0307" unicode="&#x307;" horiz-adv-x="0" 
d="M-135 1174q-41 0 -68.5 27.5t-27.5 68.5t27.5 68.5t68.5 27.5q39 0 66.5 -27.5t27.5 -68.5t-27.5 -68.5t-66.5 -27.5z" />
    <glyph glyph-name="uni0308" unicode="&#x308;" horiz-adv-x="0" 
d="M-483 1182q-32 0 -54 21t-22 52q0 32 22 54t54 22q31 0 52 -22t21 -54q0 -31 -21 -52t-52 -21zM-115 1182q-32 0 -53.5 21t-21.5 52q0 32 21.5 54t53.5 22q31 0 52.5 -22t21.5 -54q0 -31 -21.5 -52t-52.5 -21z" />
    <glyph glyph-name="uni030A" unicode="&#x30a;" horiz-adv-x="0" 
d="M-252 1133q-92 0 -150.5 55.5t-58.5 142.5t58.5 143t150.5 56q93 0 152 -56t59 -143t-59 -142.5t-152 -55.5zM-252 1214q77 -6 109.5 55.5t0 123t-109.5 55.5q-55 0 -88 -32.5t-33 -84.5t33 -84.5t88 -32.5z" />
    <glyph glyph-name="uni030B" unicode="&#x30b;" horiz-adv-x="0" 
d="M-604 1167l143 267h115l-154 -267h-104zM-313 1167l163 267h115l-174 -267h-104z" />
    <glyph glyph-name="uni030C" unicode="&#x30c;" horiz-adv-x="0" 
d="M-322 1233l164 194h119l-221 -260h-123l-221 260h119z" />
    <glyph glyph-name="uni0312" unicode="&#x312;" horiz-adv-x="0" 
d="M-115 1966h74l-20 -348h-105z" />
    <glyph glyph-name="uni0326" unicode="&#x326;" horiz-adv-x="0" 
d="M-92 -492h-74l21 349h104z" />
    <glyph glyph-name="uni0327" unicode="&#x327;" horiz-adv-x="0" 
d="M-227 0v-115q84 -11 135 -51t51 -102q0 -194 -399 -164v84q151 -13 230 8t79 72q0 88 -188 88v180h92z" />
    <glyph glyph-name="uni0328" unicode="&#x328;" horiz-adv-x="0" 
d="M-152 -432q-77 0 -119 39.5t-42 107.5q0 140 161 285h109q-170 -153 -170 -268q0 -76 84 -76q45 0 88 18v-86q-44 -20 -111 -20z" />
    <glyph glyph-name="uni0394" unicode="&#x394;" horiz-adv-x="1282" 
d="M584 1434h114l557 -1434h-1228zM641 1300l-459 -1198h918z" />
    <glyph glyph-name="uni03A9" unicode="&#x3a9;" horiz-adv-x="1671" 
d="M1575 717q0 -196 -95.5 -359.5t-258.5 -255.5h331v-102h-555v102q204 52 338 224q131 168 131 391q0 264 -184 448q-181 187 -446 187t-449 -187q-182 -185 -182 -448q0 -223 131 -391q134 -172 338 -224v-102h-555v102h332q-163 92 -259 255.5t-96 359.5q0 307 215 522
q214 217 525 217q310 0 524 -217q215 -215 215 -522z" />
    <glyph glyph-name="pi" unicode="&#x3c0;" horiz-adv-x="1331" 
d="M68 1024h1196v-100h-170v-924h-105v924h-639v-924h-104v924h-178v100z" />
    <glyph glyph-name="uni0401" unicode="&#x401;" horiz-adv-x="1091" 
d="M401 1591q-32 0 -53.5 21.5t-21.5 52.5q0 32 21.5 54t53.5 22q31 0 52.5 -22t21.5 -54q0 -31 -21.5 -52.5t-52.5 -21.5zM770 1591q-32 0 -54 21.5t-22 52.5q0 32 22 54t54 22q31 0 52.5 -22t21.5 -54q0 -31 -21.5 -52.5t-52.5 -21.5zM287 672v-570h717v-102h-826v1434
h815v-103h-706v-557h655v-102h-655z" />
    <glyph glyph-name="uni0402" unicode="&#x402;" horiz-adv-x="1431" 
d="M918 965q170 0 273 -99t103 -278v-285q0 -166 -88 -248t-252 -69v100q121 -13 176.5 39.5t55.5 177.5v285q0 134 -71.5 206t-196.5 72q-168 0 -351 -80v-786h-110v1331h-410v103h997v-103h-477v-446q168 80 351 80z" />
    <glyph glyph-name="uni0403" unicode="&#x403;" horiz-adv-x="1009" 
d="M643 1835h123l-186 -260h-101zM178 1434h785v-103h-676v-1331h-109v1434z" />
    <glyph glyph-name="uni0404" unicode="&#x404;" horiz-adv-x="1531" 
d="M1356 383l98 -55q-88 -161 -254.5 -256t-363.5 -95q-323 0 -533 213q-207 216 -207 527t207 524q209 215 533 215q195 0 358 -94q166 -91 256 -250l-96 -55q-74 134 -213.5 214.5t-304.5 80.5q-265 0 -439 -168q-175 -166 -190 -416h809v-102h-809q15 -249 190 -418
q175 -166 439 -166q166 0 307 82t213 219z" />
    <glyph glyph-name="uni0405" unicode="&#x405;" horiz-adv-x="1175" 
d="M616 -23q-196 0 -335 90.5t-189 247.5l94 56q39 -136 150 -212.5t280 -76.5q170 0 265.5 78.5t95.5 208.5q0 116 -90 182q-84 62 -281 125l-102 33l-90 34q-61 25 -88 43q-97 62 -127 111q-47 81 -47 174q0 175 122 279q124 106 312 106q163 0 283.5 -81.5t177.5 -219.5
l-93 -51q-102 248 -368 248q-146 0 -235 -77t-89 -200q0 -116 82 -174t268 -119q129 -43 185 -67q67 -27 143 -76q147 -89 147 -268t-129 -287q-128 -107 -342 -107z" />
    <glyph glyph-name="uni0406" unicode="&#x406;" horiz-adv-x="464" 
d="M178 0v1434h109v-1434h-109z" />
    <glyph glyph-name="uni0407" unicode="&#x407;" horiz-adv-x="464" 
d="M47 1591q-32 0 -54 21.5t-22 52.5q0 32 22 54t54 22q31 0 52.5 -22t21.5 -54q0 -31 -21.5 -52.5t-52.5 -21.5zM416 1591q-32 0 -54 21.5t-22 52.5q0 32 22 54t54 22q31 0 52 -22t21 -54q0 -31 -21 -52.5t-52 -21.5zM178 0v1434h109v-1434h-109z" />
    <glyph glyph-name="uni0408" unicode="&#x408;" horiz-adv-x="1132" 
d="M516 -23q-151 0 -264.5 62.5t-163.5 177.5l92 55q76 -190 336 -190q162 0 256 81.5t94 229.5v1041h111v-1041q0 -200 -131 -307q-130 -109 -330 -109z" />
    <glyph glyph-name="uni0409" unicode="&#x409;" horiz-adv-x="2037" 
d="M1184 805h342q175 0 299 -115q125 -113 125 -287t-123 -288q-124 -115 -301 -115h-451v1331h-620v-725q0 -338 -103.5 -482.5t-314.5 -125.5v96q152 -15 229 99q80 118 80 415v826h838v-629zM1184 102h342q131 0 221 84q92 86 92 217q0 130 -92 213q-89 86 -221 86h-342
v-600z" />
    <glyph glyph-name="uni040A" unicode="&#x40a;" horiz-adv-x="2013" 
d="M1161 805h340q175 0 299 -115q125 -113 125 -287t-123 -288q-124 -115 -301 -115h-450v702h-764v-702h-109v1434h109v-629h764v629h110v-629zM1161 102h340q133 0 223 84q93 87 93 217q0 131 -93 215q-90 84 -223 84h-340v-600z" />
    <glyph glyph-name="uni040B" unicode="&#x40b;" horiz-adv-x="1443" 
d="M918 965q170 0 273 -99t103 -278v-588h-108v588q0 134 -71.5 206t-196.5 72q-168 0 -351 -80v-786h-110v1331h-410v103h997v-103h-477v-446q168 80 351 80z" />
    <glyph glyph-name="uni040C" unicode="&#x40c;" horiz-adv-x="1171" 
d="M664 1835h122l-186 -260h-100zM406 737l745 -737h-145l-719 707v-707h-109v1434h109v-668l698 668h145z" />
    <glyph glyph-name="uni040E" unicode="&#x40e;" horiz-adv-x="1159" 
d="M332 1700h518v-90h-518v90zM623 506l397 928h113l-478 -1121q-144 -334 -436 -313v100q220 -24 328 226l24 57l-503 1051h112z" />
    <glyph glyph-name="uni040F" unicode="&#x40f;" horiz-adv-x="1378" 
d="M1092 102v1332h110v-1434h-459v-274h-108v274h-457v1434h109v-1332h805z" />
    <glyph glyph-name="uni0410" unicode="&#x410;" horiz-adv-x="1288" 
d="M1257 0h-114l-139 365h-719l-140 -365h-114l557 1434h114zM645 1300l-319 -833h639z" />
    <glyph glyph-name="uni0411" unicode="&#x411;" horiz-adv-x="1198" 
d="M287 846h409q174 0 299 -125q125 -122 125 -297q0 -174 -125 -299q-122 -125 -299 -125h-518v1434h826v-103h-717v-485zM287 102h409q130 0 222 95t92 227q0 130 -92 225q-91 94 -222 94h-409v-641z" />
    <glyph glyph-name="uni0412" unicode="&#x412;" horiz-adv-x="1275" 
d="M942 743q112 -43 179 -137.5t67 -214.5q0 -161 -115 -276t-276 -115h-619v1434h572q155 0 266 -111q110 -110 110 -266q0 -102 -49.5 -185.5t-134.5 -128.5zM750 1331h-463v-549h463q111 0 188 80q80 83 80 195t-80 192q-76 82 -188 82zM287 102h510q114 0 198 84
q84 87 84 205q0 119 -84 203q-83 86 -198 86h-510v-578z" />
    <glyph glyph-name="uni0413" unicode="&#x413;" horiz-adv-x="1009" 
d="M178 1434h785v-103h-676v-1331h-109v1434z" />
    <glyph glyph-name="uni0414" unicode="&#x414;" horiz-adv-x="1413" 
d="M1184 1434v-1332h151v-376h-110v274h-1078v-274h-110v376h115q147 166 147 514v818h885zM408 1331v-717q0 -329 -127 -512h794v1229h-667z" />
    <glyph glyph-name="uni0415" unicode="&#x415;" horiz-adv-x="1091" 
d="M287 672v-570h717v-102h-826v1434h815v-103h-706v-557h655v-102h-655z" />
    <glyph glyph-name="uni0416" unicode="&#x416;" horiz-adv-x="1712" 
d="M1020 737l651 -737h-129l-631 711v-711h-110v711l-631 -711h-129l651 737l-631 697h129l611 -670v670h110v-670l611 670h129z" />
    <glyph glyph-name="uni0417" unicode="&#x417;" horiz-adv-x="1140" 
d="M793 741q125 -43 195.5 -138t70.5 -222q0 -176 -133 -291q-131 -113 -351 -113q-194 0 -317.5 84.5t-175.5 231.5l94 51q74 -264 399 -264q171 0 272 83t101 218q0 131 -91.5 215t-244.5 84h-161v102h114q151 0 241.5 79.5t90.5 205.5q0 125 -91.5 206t-238.5 81
q-277 0 -368 -236l-90 51q121 287 458 287q197 0 316 -113q123 -111 123 -276q0 -108 -56 -193t-157 -133z" />
    <glyph glyph-name="uni0418" unicode="&#x418;" horiz-adv-x="1406" 
d="M1229 0h-109v1233l-848 -1233h-94v1434h109v-1233l846 1233h96v-1434z" />
    <glyph glyph-name="uni0419" unicode="&#x419;" horiz-adv-x="1406" 
d="M961 1612h-519v90h519v-90zM1229 0h-109v1233l-848 -1233h-94v1434h109v-1233l846 1233h96v-1434z" />
    <glyph glyph-name="uni041A" unicode="&#x41a;" horiz-adv-x="1171" 
d="M406 737l745 -737h-145l-719 707v-707h-109v1434h109v-668l698 668h145z" />
    <glyph glyph-name="uni041B" unicode="&#x41b;" horiz-adv-x="1429" 
d="M37 0v96q104 -13 171 32.5t102.5 164t35.5 315.5v826h907v-1434h-110v1331h-688v-725q0 -338 -103.5 -481.5t-314.5 -124.5z" />
    <glyph glyph-name="uni041C" unicode="&#x41c;" horiz-adv-x="1652" 
d="M1337 1434h138v-1434h-109v1274l-530 -881h-19l-530 881v-1274h-109v1434h135l512 -848z" />
    <glyph glyph-name="uni041D" unicode="&#x41d;" horiz-adv-x="1406" 
d="M1120 788v646h109v-1434h-109v686h-833v-686h-109v1434h109v-646h833z" />
    <glyph glyph-name="uni041E" unicode="&#x41e;" horiz-adv-x="1671" 
d="M1360 193q-216 -216 -524 -216q-309 0 -525 216q-215 218 -215 524q0 307 215 522q214 217 525 217q310 0 524 -217q215 -215 215 -522q0 -306 -215 -524zM387 266q184 -184 449 -184t446 184q184 187 184 451t-184 448q-181 187 -446 187t-449 -187q-182 -185 -182 -448
t182 -451z" />
    <glyph glyph-name="uni041F" unicode="&#x41f;" horiz-adv-x="1378" 
d="M178 1434h1024v-1434h-110v1331h-805v-1331h-109v1434z" />
    <glyph glyph-name="uni0420" unicode="&#x420;" horiz-adv-x="1202" 
d="M178 1434h488q192 0 319 -127t127 -318q0 -190 -127 -317q-125 -125 -319 -125h-379v-547h-109v1434zM287 649h379q145 0 241 96q97 97 97 244q0 149 -97 246q-96 96 -241 96h-379v-682z" />
    <glyph glyph-name="uni0421" unicode="&#x421;" horiz-adv-x="1538" 
d="M842 -23q-322 0 -535 213q-211 214 -211 527t211 524q212 215 535 215q197 0 360 -94q164 -92 254 -250l-96 -55q-71 132 -211 213q-137 82 -307 82q-277 0 -459 -185q-178 -181 -178 -450t178 -453q182 -182 459 -182q167 0 308.5 82t213.5 219l96 -55
q-88 -161 -254.5 -256t-363.5 -95z" />
    <glyph glyph-name="uni0422" unicode="&#x422;" horiz-adv-x="1105" 
d="M47 1434h1012v-103h-451v-1331h-110v1331h-451v103z" />
    <glyph glyph-name="uni0423" unicode="&#x423;" horiz-adv-x="1159" 
d="M623 506l397 928h113l-478 -1121q-144 -334 -436 -313v100q220 -24 328 226l24 57l-503 1051h112z" />
    <glyph glyph-name="uni0424" unicode="&#x424;" horiz-adv-x="1646" 
d="M879 162v-162h-111v162q-315 9 -508 153q-192 143 -192 402q0 256 192 399q198 147 508 156v162h111v-162q307 -9 505 -156q195 -145 195 -399q0 -257 -195 -402q-194 -144 -505 -153zM768 262v909q-276 -11 -433 -128.5t-157 -325.5t157 -326t433 -129zM879 1171v-909
q275 11 432 129t157 326t-156.5 325.5t-432.5 128.5z" />
    <glyph glyph-name="uni0425" unicode="&#x425;" horiz-adv-x="1173" 
d="M649 737l477 -737h-125l-413 639l-414 -639h-127l477 737l-450 697h125l389 -600l387 600h125z" />
    <glyph glyph-name="uni0426" unicode="&#x426;" horiz-adv-x="1413" 
d="M1188 1434v-1332h149v-376h-108v274h-1051v1434h109v-1332h792v1332h109z" />
    <glyph glyph-name="uni0427" unicode="&#x427;" horiz-adv-x="1284" 
d="M997 723v711h109v-1434h-109v621q-195 -95 -403 -95q-211 0 -330 113q-121 115 -121 289v506h109v-506q0 -136 91 -217.5t251 -81.5q211 0 403 94z" />
    <glyph glyph-name="uni0428" unicode="&#x428;" horiz-adv-x="1959" 
d="M1673 102v1332h109v-1434h-1604v1434h109v-1332h639v1332h108v-1332h639z" />
    <glyph glyph-name="uni0429" unicode="&#x429;" horiz-adv-x="2007" 
d="M1782 1434v-1332h149v-376h-108v274h-1645v1434h109v-1332h639v1332h108v-1332h639v1332h109z" />
    <glyph glyph-name="uni042A" unicode="&#x42a;" horiz-adv-x="1419" 
d="M885 0h-490v1331h-395v103h506v-547h379q192 0 319 -127t127 -316q0 -190 -127 -317t-319 -127zM506 784v-682h379q144 0 241 97t97 245q0 147 -97 244q-96 96 -241 96h-379z" />
    <glyph glyph-name="uni042B" unicode="&#x42b;" horiz-adv-x="1562" 
d="M666 0h-488v1434h109v-547h379q192 0 319 -127t127 -316q0 -190 -127 -317t-319 -127zM1386 0h-110v1434h110v-1434zM287 784v-682h379q144 0 241 97t97 245q0 147 -97 244q-96 96 -241 96h-379z" />
    <glyph glyph-name="uni042C" unicode="&#x42c;" horiz-adv-x="1202" 
d="M287 887h379q192 0 319 -127t127 -316q0 -190 -127 -317t-319 -127h-488v1434h109v-547zM287 102h379q144 0 241 97t97 245q0 147 -97 244q-96 96 -241 96h-379v-682z" />
    <glyph glyph-name="uni042D" unicode="&#x42d;" horiz-adv-x="1531" 
d="M696 1456q325 0 531 -215q209 -212 209 -524t-209 -527q-207 -213 -531 -213q-197 0 -363.5 95t-254.5 256l98 55q72 -137 213 -219t307 -82q264 0 439 166q175 169 190 418h-809v102h809q-15 250 -190 416q-174 168 -439 168q-165 0 -304.5 -80.5t-213.5 -214.5l-96 55
q90 158 254 250q166 94 360 94z" />
    <glyph glyph-name="uni042E" unicode="&#x42e;" horiz-adv-x="2144" 
d="M1309 1456q310 0 524 -217q215 -215 215 -522q0 -306 -215 -524q-216 -216 -524 -216q-303 0 -514 205q-210 207 -222 504h-286v-686h-109v1434h109v-646h291q27 285 233 476q204 192 498 192zM1309 82q265 0 446 184q184 187 184 451t-184 448q-181 187 -446 187
q-267 0 -449 -185t-182 -450q0 -266 182 -451q181 -184 449 -184z" />
    <glyph glyph-name="uni042F" unicode="&#x42f;" horiz-adv-x="1284" 
d="M539 1434h567v-1434h-109v588h-393l-405 -588h-123l407 592q-156 21 -262 139q-104 119 -104 279q0 176 123 299q125 125 299 125zM539 690h458v641h-458q-131 0 -222 -94q-92 -95 -92 -227q0 -131 92 -226q91 -94 222 -94z" />
    <glyph glyph-name="uni0430" unicode="&#x430;" 
d="M1059 793v231h104v-1024h-104v231q-67 -120 -181.5 -187t-259.5 -67q-217 0 -374 154q-156 156 -156 381q0 226 156 379q156 156 374 156q145 0 259.5 -67t181.5 -187zM317 203q127 -127 310 -127q180 0 307 127q125 125 125 309t-125 309q-127 127 -307 127
q-183 0 -310 -127q-124 -124 -124 -309t124 -309z" />
    <glyph glyph-name="uni0431" unicode="&#x431;" horiz-adv-x="1169" 
d="M604 -25q-219 0 -368 146q-148 148 -148 381q0 256 74 395q78 143 309 256l107 47q153 65 180 80q67 37 102 76.5t43 103.5l82 -47q-11 -59 -39 -101.5t-82 -78.5q-45 -30 -94 -55q-45 -24 -123 -56l-121 -51q-154 -69 -223 -147q-70 -79 -94 -215q69 108 182.5 165.5
t235.5 57.5q205 0 340 -135t135 -344q0 -207 -141 -342q-139 -136 -357 -136zM604 78q173 0 283 104q110 107 110 271q0 166 -106 272t-277 106q-155 0 -280 -98q-123 -99 -135 -254q0 -175 114 -289q112 -112 291 -112z" />
    <glyph glyph-name="uni0432" unicode="&#x432;" horiz-adv-x="1038" 
d="M788 528q181 -58 181 -245q0 -127 -83 -205t-233 -78h-495v1024h456q143 0 224.5 -74t81.5 -194q0 -164 -132 -228zM614 924h-354v-355h354q98 0 149.5 47t51.5 134q0 82 -52.5 128t-148.5 46zM260 100h393q102 0 157.5 49.5t55.5 137.5q0 86 -56.5 134t-156.5 48h-393
v-369z" />
    <glyph glyph-name="uni0433" unicode="&#x433;" horiz-adv-x="823" 
d="M158 1024h641v-100h-539v-924h-102v1024z" />
    <glyph glyph-name="uni0434" unicode="&#x434;" horiz-adv-x="1208" 
d="M997 1024v-924h144v-374h-105v274h-884v-274h-105v374h119q113 152 113 412v512h718zM293 100h600v824h-512v-412q0 -254 -88 -412z" />
    <glyph glyph-name="uni0435" unicode="&#x435;" horiz-adv-x="1206" 
d="M618 1047q226 0 365 -160q141 -159 141 -379q0 -5 -1 -24.5t-1 -24.5h-927q18 -172 137 -279q119 -104 297 -104q121 0 213.5 50t140.5 136l90 -53q-64 -107 -181.5 -169.5t-264.5 -62.5q-237 0 -387 150q-152 152 -152 385q0 230 148 381q151 154 382 154zM618 948
q-173 0 -290 -108q-118 -109 -133 -281h823q-15 181 -131 285q-113 104 -269 104z" />
    <glyph glyph-name="uni0436" unicode="&#x436;" horiz-adv-x="1357" 
d="M827 532l484 -532h-127l-453 504v-504h-104v504l-453 -504h-127l485 532l-464 492h127l432 -463v463h104v-463l432 463h127z" />
    <glyph glyph-name="uni0437" unicode="&#x437;" horiz-adv-x="911" 
d="M649 528q92 -31 143.5 -98.5t51.5 -155.5q0 -129 -101 -213t-276 -84q-308 0 -399 242l88 51q65 -194 311 -194q126 0 199 56t73 149q0 85 -61.5 136.5t-163.5 51.5h-141v100h102q99 0 157 51t58 138q0 83 -66.5 136.5t-174.5 53.5q-210 0 -277 -166l-86 49
q44 101 137.5 158.5t225.5 57.5q156 0 249 -84q95 -83 95 -201q0 -166 -144 -234z" />
    <glyph glyph-name="uni0438" unicode="&#x438;" horiz-adv-x="1161" 
d="M260 178l653 846h91v-1024h-105v846l-651 -846h-90v1024h102v-846z" />
    <glyph glyph-name="uni0439" unicode="&#x439;" horiz-adv-x="1161" 
d="M838 1202h-519v90h519v-90zM260 178l653 846h91v-1024h-105v846l-651 -846h-90v1024h102v-846z" />
    <glyph glyph-name="uni043A" unicode="&#x43a;" horiz-adv-x="989" 
d="M371 532l571 -532h-139l-543 504v-504h-102v1024h102v-465l518 465h144z" />
    <glyph glyph-name="uni043B" unicode="&#x43b;" horiz-adv-x="1146" 
d="M268 1024h721v-1024h-102v924h-516v-494q0 -241 -88.5 -342t-255.5 -88v96q125 -11 183 67t58 267v594z" />
    <glyph glyph-name="uni043C" unicode="&#x43c;" horiz-adv-x="1304" 
d="M1024 1024h123v-1024h-105v868l-383 -604h-14l-385 608v-872h-102v1024h121l372 -588z" />
    <glyph glyph-name="uni043D" unicode="&#x43d;" horiz-adv-x="1161" 
d="M899 561v463h105v-1024h-105v463h-639v-463h-102v1024h102v-463h639z" />
    <glyph glyph-name="uni043E" unicode="&#x43e;" horiz-adv-x="1251" 
d="M627 -23q-226 0 -383 154q-156 156 -156 381q0 226 156 379q156 156 383 156q223 0 379 -156q157 -154 157 -379q0 -224 -157 -381q-157 -154 -379 -154zM317 203q127 -127 310 -127q180 0 307 127q125 125 125 309t-125 309q-127 127 -307 127q-183 0 -310 -127
q-124 -124 -124 -309t124 -309z" />
    <glyph glyph-name="uni043F" unicode="&#x43f;" horiz-adv-x="1161" 
d="M158 1024h846v-1024h-105v924h-639v-924h-102v1024z" />
    <glyph glyph-name="uni0440" unicode="&#x440;" 
d="M700 1047q222 0 375 -156q156 -153 156 -379q0 -225 -156 -381q-154 -154 -375 -154q-145 0 -261 69.5t-179 191.5v-648h-102v1434h102v-238q63 122 179 191.5t261 69.5zM385 203q127 -127 309 -127q180 0 307 127t127 309t-127 309t-307 127q-182 0 -309 -127
q-125 -125 -125 -309t125 -309z" />
    <glyph glyph-name="uni0441" unicode="&#x441;" horiz-adv-x="1148" 
d="M627 -23q-231 0 -385 154t-154 381t154 381t385 154q150 0 270.5 -71t175.5 -192l-84 -49q-44 98 -141.5 155.5t-220.5 57.5q-183 0 -310 -127q-124 -124 -124 -309q0 -187 124 -311q125 -125 310 -125q122 0 219.5 57t148.5 156l86 -51q-62 -119 -184 -190t-270 -71z
" />
    <glyph glyph-name="uni0442" unicode="&#x442;" horiz-adv-x="901" 
d="M27 1024h847v-100h-372v-924h-103v924h-372v100z" />
    <glyph glyph-name="uni0443" unicode="&#x443;" horiz-adv-x="1044" 
d="M551 113l356 911h111l-443 -1118q-61 -154 -169.5 -240t-235.5 -76v97q97 -7 176 56t129 183l23 56l-471 1042h110z" />
    <glyph glyph-name="uni0444" unicode="&#x444;" horiz-adv-x="1372" 
d="M737 -23v-387h-102v387q-248 15 -397 164q-150 150 -150 371q0 219 150 369q151 151 397 166v387h102v-387q245 -15 396 -166t151 -369q0 -220 -151 -371q-149 -149 -396 -164zM635 78v868q-202 -15 -322 -135t-120 -299t120 -299t322 -135zM737 946v-868q202 15 322 135
q121 121 121 299t-121 299q-120 120 -322 135z" />
    <glyph glyph-name="uni0445" unicode="&#x445;" horiz-adv-x="1038" 
d="M582 528l407 -528h-125l-346 446l-346 -446h-125l410 526l-385 498h125l321 -416l324 416h123z" />
    <glyph glyph-name="uni0446" unicode="&#x446;" horiz-adv-x="1214" 
d="M983 1024v-924h164v-374h-105v274h-884v1024h102v-924h619v924h104z" />
    <glyph glyph-name="uni0447" unicode="&#x447;" horiz-adv-x="1099" 
d="M838 498v526h104v-1024h-104v401q-134 -67 -312 -67q-197 0 -303 91.5t-106 264.5v334h102v-334q0 -258 303 -258q166 0 316 66z" />
    <glyph glyph-name="uni0448" unicode="&#x448;" horiz-adv-x="1673" 
d="M1411 100v924h105v-1024h-1358v1024h102v-924h524v924h105v-924h522z" />
    <glyph glyph-name="uni0449" unicode="&#x449;" horiz-adv-x="1726" 
d="M1516 1024v-924h143v-374h-105v274h-1396v1024h102v-924h524v924h105v-924h522v924h105z" />
    <glyph glyph-name="uni044A" unicode="&#x44a;" horiz-adv-x="1105" 
d="M397 627h301q142 0 240 -88q100 -87 100 -226q0 -138 -100 -225q-98 -88 -240 -88h-405v924h-293v100h397v-397zM397 100h301q101 0 168.5 60t67.5 153q0 95 -67 154t-169 59h-301v-426z" />
    <glyph glyph-name="uni044B" unicode="&#x44b;" horiz-adv-x="1318" 
d="M260 627h303q142 0 240 -88t98 -226q0 -137 -98 -225t-240 -88h-405v1024h102v-397zM1059 0v1024h102v-1024h-102zM260 100h303q99 0 166.5 60t67.5 153q0 95 -66.5 154t-167.5 59h-303v-426z" />
    <glyph glyph-name="uni044C" unicode="&#x44c;" horiz-adv-x="968" 
d="M260 627h303q142 0 240 -88t98 -226q0 -137 -98 -225t-240 -88h-405v1024h102v-397zM260 100h303q99 0 166.5 60t67.5 153q0 95 -66.5 154t-167.5 59h-303v-426z" />
    <glyph glyph-name="uni044D" unicode="&#x44d;" horiz-adv-x="1124" 
d="M518 1047q232 0 375 -152q143 -149 143 -383t-143 -383q-146 -152 -377 -152q-163 0 -284 70t-177 193l88 53q42 -101 140 -159t233 -58q174 0 285 108q114 111 129 279h-531v98h531q-15 170 -127 279q-111 108 -285 108q-127 0 -223.5 -57t-144.5 -158l-91 51
q62 122 183.5 192.5t275.5 70.5z" />
    <glyph glyph-name="uni044E" unicode="&#x44e;" horiz-adv-x="1644" 
d="M1020 1047q223 0 379 -156q157 -154 157 -379q0 -224 -157 -381q-157 -154 -379 -154q-213 0 -363 138t-168 348h-229v-463h-102v1024h102v-463h229q18 208 168 346q152 140 363 140zM711 203q127 -127 309 -127q180 0 307 127q125 125 125 309t-125 309
q-127 127 -307 127q-182 0 -309 -127q-125 -125 -125 -309t125 -309z" />
    <glyph glyph-name="uni044F" unicode="&#x44f;" horiz-adv-x="1024" 
d="M461 1024h405v-1024h-102v399h-221l-322 -399h-133l328 401q-126 14 -209.5 100.5t-83.5 209.5q0 137 98 225t240 88zM461 498h303v426h-303q-99 0 -166.5 -60t-67.5 -153q0 -95 66.5 -154t167.5 -59z" />
    <glyph glyph-name="uni0451" unicode="&#x451;" horiz-adv-x="1206" 
d="M422 1182q-32 0 -54 21t-22 52q0 32 22 54t54 22q31 0 52.5 -22t21.5 -54q0 -31 -21.5 -52t-52.5 -21zM791 1182q-32 0 -54 21t-22 52q0 32 22 54t54 22q31 0 52 -22t21 -54q0 -31 -21 -52t-52 -21zM618 1047q226 0 365 -160q141 -159 141 -379q0 -5 -1 -24.5t-1 -24.5
h-927q18 -172 137 -279q119 -104 297 -104q121 0 213.5 50t140.5 136l90 -53q-64 -107 -181.5 -169.5t-264.5 -62.5q-237 0 -387 150q-152 152 -152 385q0 230 148 381q151 154 382 154zM618 948q-173 0 -290 -108q-118 -109 -133 -281h823q-15 181 -131 285
q-113 104 -269 104z" />
    <glyph glyph-name="uni0452" unicode="&#x452;" horiz-adv-x="1181" 
d="M653 1047q182 0 290 -111.5t108 -298.5v-754q0 -165 -88 -246.5t-252 -68.5v98q237 -24 237 217v754q0 143 -80.5 227t-222.5 84q-162 0 -259 -106.5t-97 -300.5v-541h-105v1192h-149v86h149v156h105v-156h319v-86h-319v-358q115 213 364 213z" />
    <glyph glyph-name="uni0453" unicode="&#x453;" horiz-adv-x="823" 
d="M506 1427h123l-187 -260h-100zM158 1024h641v-100h-539v-924h-102v1024z" />
    <glyph glyph-name="uni0454" unicode="&#x454;" horiz-adv-x="1124" 
d="M981 293l88 -53q-56 -123 -177 -193t-284 -70q-231 0 -377 152q-143 149 -143 383q0 233 141 383q146 152 377 152q154 0 275.5 -70.5t183.5 -192.5l-90 -51q-48 100 -145 157.5t-224 57.5q-173 0 -284 -108q-112 -109 -127 -279h530v-98h-530q15 -167 127 -279
q114 -108 286 -108q135 0 233 58t140 159z" />
    <glyph glyph-name="uni0455" unicode="&#x455;" horiz-adv-x="937" 
d="M227 756q0 -130 219 -185q166 -36 235 -68q167 -75 167 -235q0 -128 -102 -209.5t-265 -81.5q-145 0 -247.5 61.5t-141.5 166.5l88 51q29 -85 107.5 -132.5t193.5 -47.5q118 0 191 51t73 141q0 71 -60 118t-159 69q-8 2 -25 6q-50 12 -76 18.5t-72.5 21.5t-73 29t-60 37
t-51 48.5t-30.5 61.5t-13 79q0 123 96 207q101 84 252 84q121 0 213 -55t135 -150l-86 -49q-30 73 -101 114t-161 41q-106 0 -176 -53t-70 -139z" />
    <glyph glyph-name="uni0456" unicode="&#x456;" horiz-adv-x="417" 
d="M127 1354q-1 29 16 49t41.5 24.5t49 0t41.5 -24.5t16 -49q2 -50 -40 -70.5t-84 0t-40 70.5zM260 0h-102v1024h102v-1024z" />
    <glyph glyph-name="uni0457" unicode="&#x457;" horiz-adv-x="417" 
d="M25 1182q-32 0 -54 21t-22 52q0 32 22 54t54 22q31 0 52 -22t21 -54q0 -31 -21 -52t-52 -21zM393 1182q-32 0 -54 21t-22 52q0 32 22 54t54 22q31 0 52.5 -22t21.5 -54q0 -31 -21.5 -52t-52.5 -21zM260 0h-102v1024h102v-1024z" />
    <glyph glyph-name="uni0458" unicode="&#x458;" horiz-adv-x="456" 
d="M330 1354q4 -50 -39 -70.5t-86 0t-39 70.5q-1 29 16 49t41.5 24.5t49 0t41.5 -24.5t16 -49zM197 -117v1141h102v-1141q0 -165 -88 -246.5t-252 -68.5v98q238 -24 238 217z" />
    <glyph glyph-name="uni0459" unicode="&#x459;" horiz-adv-x="1644" 
d="M969 586h288q138 0 228 -79.5t90 -213.5t-90 -213.5t-228 -79.5h-391v924h-495v-494q0 -241 -88.5 -342t-255.5 -88v96q125 -11 183 67t58 267v594h701v-438zM969 100h288q96 0 156 51.5t60 141.5q0 91 -59.5 141.5t-156.5 50.5h-288v-385z" />
    <glyph glyph-name="uni045A" unicode="&#x45a;" horiz-adv-x="1630" 
d="M956 586h287q140 0 230 -79.5t90 -213.5t-90 -213.5t-230 -79.5h-391v485h-598v-485h-104v1024h104v-438h598v438h104v-438zM956 100h287q96 0 155.5 51.5t59.5 141.5q0 92 -58 142t-157 50h-287v-385z" />
    <glyph glyph-name="uni045B" unicode="&#x45b;" horiz-adv-x="1181" 
d="M653 1047q182 0 290 -111.5t108 -298.5v-637h-103v637q0 143 -80.5 227t-222.5 84q-162 0 -259 -106.5t-97 -300.5v-541h-105v1192h-149v86h149v156h105v-156h319v-86h-319v-358q115 213 364 213z" />
    <glyph glyph-name="uni045C" unicode="&#x45c;" horiz-adv-x="989" 
d="M575 1427h123l-186 -260h-100zM371 532l571 -532h-139l-543 504v-504h-102v1024h102v-465l518 465h144z" />
    <glyph glyph-name="uni045E" unicode="&#x45e;" horiz-adv-x="1044" 
d="M268 1292h518v-90h-518v90zM551 113l356 911h111l-443 -1118q-61 -154 -169.5 -240t-235.5 -76v97q97 -7 176 56t129 183l23 56l-471 1042h110z" />
    <glyph glyph-name="uni045F" unicode="&#x45f;" horiz-adv-x="1161" 
d="M899 100v924h105v-1024h-371v-274h-105v274h-370v1024h102v-924h639z" />
    <glyph glyph-name="uni0490" unicode="&#x490;" horiz-adv-x="1009" 
d="M854 1434v245h109v-348h-676v-1331h-109v1434h676z" />
    <glyph glyph-name="uni0491" unicode="&#x491;" horiz-adv-x="823" 
d="M694 1024v213h105v-313h-539v-924h-102v1024h536z" />
    <glyph glyph-name="Wgrave" unicode="&#x1e80;" horiz-adv-x="2033" 
d="M1069 1577h-98l-189 260h123zM483 0h131l404 1292l401 -1292h131l416 1434h-115l-368 -1289l-402 1289h-129l-399 -1289l-371 1289h-114z" />
    <glyph glyph-name="wgrave" unicode="&#x1e81;" horiz-adv-x="1576" 
d="M723 1427l164 -260h-99l-188 260h123zM1128 133l273 891h108l-323 -1024h-113l-285 872l-284 -872h-113l-323 1024h108l273 -891l286 891h107z" />
    <glyph glyph-name="Wacute" unicode="&#x1e82;" horiz-adv-x="2033" 
d="M885 1577l164 260h122l-186 -260h-100zM483 0h131l404 1292l401 -1292h131l416 1434h-115l-368 -1289l-402 1289h-129l-399 -1289l-371 1289h-114z" />
    <glyph glyph-name="wacute" unicode="&#x1e83;" horiz-adv-x="1576" 
d="M866 1427h123l-186 -260h-101zM1128 133l273 891h108l-323 -1024h-113l-285 872l-284 -872h-113l-323 1024h108l273 -891l286 891h107z" />
    <glyph glyph-name="Wdieresis" unicode="&#x1e84;" horiz-adv-x="2033" 
d="M786 1591q-32 0 -53.5 21.5t-21.5 52.5q0 32 21.5 54t53.5 22q31 0 52.5 -22t21.5 -54q0 -31 -21.5 -52.5t-52.5 -21.5zM1155 1591q-32 0 -54 21.5t-22 52.5q0 32 22 54t54 22q31 0 52.5 -22t21.5 -54q0 -31 -21.5 -52.5t-52.5 -21.5zM614 0h-131l-415 1434h114
l371 -1289l399 1289h129l402 -1289l368 1289h115l-416 -1434h-131l-401 1292z" />
    <glyph glyph-name="wdieresis" unicode="&#x1e85;" horiz-adv-x="1576" 
d="M604 1182q-32 0 -54 21t-22 52q0 32 22 54t54 22q31 0 52.5 -22t21.5 -54q0 -31 -21.5 -52t-52.5 -21zM973 1182q-32 0 -54 21t-22 52q0 32 22 54t54 22q31 0 52.5 -22t21.5 -54q0 -31 -21.5 -52t-52.5 -21zM1128 133l273 891h108l-323 -1024h-113l-285 872l-284 -872
h-113l-323 1024h108l273 -891l286 891h107z" />
    <glyph glyph-name="uni1EA0" unicode="&#x1ea0;" horiz-adv-x="1288" 
d="M557 -258q-1 29 16 49t41.5 24.5t49 0t41.5 -24.5t16 -49q2 -50 -40 -70.5t-84 0t-40 70.5zM1257 0h-114l-139 365h-719l-140 -365h-114l557 1434h114zM645 1300l-319 -833h639z" />
    <glyph glyph-name="uni1EA1" unicode="&#x1ea1;" 
d="M543 -258q-1 29 16 49t41.5 24.5t49 0t41.5 -24.5t16 -49q2 -50 -40 -70.5t-84 0t-40 70.5zM1059 793v231h104v-1024h-104v231q-67 -120 -181.5 -187t-259.5 -67q-217 0 -374 154q-156 156 -156 381q0 226 156 379q156 156 374 156q145 0 259.5 -67t181.5 -187zM317 203
q127 -127 310 -127q180 0 307 127q125 125 125 309t-125 309q-127 127 -307 127q-183 0 -310 -127q-124 -124 -124 -309t124 -309z" />
    <glyph glyph-name="uni1EA2" unicode="&#x1ea2;" horiz-adv-x="1288" 
d="M686 1577h-84v14q0 37 5 55t22 31q21 21 37 25q3 6 8 6q17 12 24 18t14 20.5t7 33.5q0 29 -18 46t-52 17q-65 0 -100 -71q-6 3 -36.5 16t-35.5 16q23 55 68.5 85t103.5 30q64 0 109 -34.5t45 -102.5q0 -48 -22 -80.5t-52 -48.5q-28 -11 -35.5 -25.5t-7.5 -44.5v-6z
M1257 0h-114l-139 365h-719l-140 -365h-114l557 1434h114zM645 1300l-319 -833h639z" />
    <glyph glyph-name="uni1EA3" unicode="&#x1ea3;" 
d="M770 1167h-84v15q0 37 5 55t22 31q21 20 37 24q3 6 8 6q17 12 24 18t14 20.5t7 33.5q0 29 -18 46.5t-52 17.5q-65 0 -100 -72q-6 3 -23 10.5t-31.5 13.5t-17.5 9q23 55 68.5 84.5t103.5 29.5q64 0 109 -34.5t45 -102.5q0 -48 -22 -80.5t-52 -48.5q-28 -11 -35.5 -25
t-7.5 -44v-7zM1059 793v231h104v-1024h-104v231q-67 -120 -181.5 -187t-259.5 -67q-217 0 -374 154q-156 156 -156 381q0 226 156 379q156 156 374 156q145 0 259.5 -67t181.5 -187zM317 203q127 -127 310 -127q180 0 307 127q125 125 125 309t-125 309q-127 127 -307 127
q-183 0 -310 -127q-124 -124 -124 -309t124 -309z" />
    <glyph glyph-name="uni1EA4" unicode="&#x1ea4;" horiz-adv-x="1288" 
d="M797 1577l-152 180l-153 -180h-109l205 242h112l205 -242h-108zM1257 0h-114l-139 365h-719l-140 -365h-114l557 1434h114zM645 1300l-319 -833h639zM834 1747l151 242h115l-174 -242h-92z" />
    <glyph glyph-name="uni1EA5" unicode="&#x1ea5;" 
d="M848 1167l-152 181l-153 -181h-109l205 242h113l204 -242h-108zM1059 793v231h104v-1024h-104v231q-67 -120 -181.5 -187t-259.5 -67q-217 0 -374 154q-156 156 -156 381q0 226 156 379q156 156 374 156q145 0 259.5 -67t181.5 -187zM317 203q127 -127 310 -127
q180 0 307 127q125 125 125 309t-125 309q-127 127 -307 127q-183 0 -310 -127q-124 -124 -124 -309t124 -309zM885 1337l151 242h115l-174 -242h-92z" />
    <glyph glyph-name="uni1EA6" unicode="&#x1ea6;" horiz-adv-x="1288" 
d="M797 1577l-152 180l-153 -180h-109l205 242h112l205 -242h-108zM1257 0h-114l-139 365h-719l-140 -365h-114l557 1434h114zM645 1300l-319 -833h639zM963 1747h-93l-174 242h115z" />
    <glyph glyph-name="uni1EA7" unicode="&#x1ea7;" 
d="M848 1167l-152 181l-153 -181h-109l205 242h113l204 -242h-108zM1059 793v231h104v-1024h-104v231q-67 -120 -181.5 -187t-259.5 -67q-217 0 -374 154q-156 156 -156 381q0 226 156 379q156 156 374 156q145 0 259.5 -67t181.5 -187zM317 203q127 -127 310 -127
q180 0 307 127q125 125 125 309t-125 309q-127 127 -307 127q-183 0 -310 -127q-124 -124 -124 -309t124 -309zM1014 1337h-92l-174 242h114z" />
    <glyph glyph-name="uni1EA8" unicode="&#x1ea8;" horiz-adv-x="1288" 
d="M797 1577l-152 180l-153 -180h-109l205 242h112l205 -242h-108zM1257 0h-114l-139 365h-719l-140 -365h-114l557 1434h114zM645 1300l-319 -833h639zM913 1747h-77v14q0 36 4 51.5t20 28.5q19 19 33 23q3 6 8 6q16 11 22.5 16.5t13.5 18.5t7 30q0 27 -17 43.5t-48 16.5
q-60 0 -95 -68q-7 4 -34.5 16.5t-30.5 14.5q21 52 63 79t97 27q60 0 101.5 -32t41.5 -95q0 -82 -70 -118q-26 -11 -32.5 -24.5t-6.5 -41.5v-6z" />
    <glyph glyph-name="uni1EA9" unicode="&#x1ea9;" 
d="M848 1167l-152 181l-153 -181h-109l205 242h113l204 -242h-108zM1059 793v231h104v-1024h-104v231q-67 -120 -181.5 -187t-259.5 -67q-217 0 -374 154q-156 156 -156 381q0 226 156 379q156 156 374 156q145 0 259.5 -67t181.5 -187zM317 203q127 -127 310 -127
q180 0 307 127q125 125 125 309t-125 309q-127 127 -307 127q-183 0 -310 -127q-124 -124 -124 -309t124 -309zM965 1337h-78v15q0 36 4 51.5t20 28.5q19 18 33 22q3 6 8 6q16 11 22.5 16.5t13.5 19t7 30.5q0 27 -17 43t-48 16q-60 0 -94 -67q-7 4 -35 16t-31 14
q21 52 63 79.5t97 27.5q60 0 101.5 -32t41.5 -95q0 -83 -69 -119q-26 -11 -32.5 -24.5t-6.5 -41.5v-6z" />
    <glyph glyph-name="uni1EAA" unicode="&#x1eaa;" horiz-adv-x="1288" 
d="M797 1577l-152 180l-153 -180h-109l205 242h112l205 -242h-108zM1257 0h-114l-139 365h-719l-140 -365h-114l557 1434h114zM645 1300l-319 -833h639zM481 1870h-80q0 99 38 149.5t96.5 45.5t121.5 -60q82 -68 120 -55t38 106h78q0 -147 -78 -184q-81 -35 -178 49
q-156 144 -156 -51z" />
    <glyph glyph-name="uni1EAB" unicode="&#x1eab;" 
d="M848 1167l-152 181l-153 -181h-109l205 242h113l204 -242h-108zM1059 793v231h104v-1024h-104v231q-67 -120 -181.5 -187t-259.5 -67q-217 0 -374 154q-156 156 -156 381q0 226 156 379q156 156 374 156q145 0 259.5 -67t181.5 -187zM317 203q127 -127 310 -127
q180 0 307 127q125 125 125 309t-125 309q-127 127 -307 127q-183 0 -310 -127q-124 -124 -124 -309t124 -309zM532 1460h-79q0 99 38 149.5t96.5 45.5t121.5 -60q82 -68 119.5 -54.5t37.5 106.5h78q0 -148 -78 -185q-81 -35 -178 49q-156 144 -156 -51z" />
    <glyph glyph-name="uni1EAC" unicode="&#x1eac;" horiz-adv-x="1288" 
d="M797 1577l-152 180l-153 -180h-109l205 242h112l205 -242h-108zM1257 0h-114l-139 365h-719l-140 -365h-114l557 1434h114zM645 1300l-319 -833h639zM557 -258q-1 29 16 49t41.5 24.5t49 0t41.5 -24.5t16 -49q2 -50 -40 -70.5t-84 0t-40 70.5z" />
    <glyph glyph-name="uni1EAD" unicode="&#x1ead;" 
d="M848 1167l-152 181l-153 -181h-109l205 242h113l204 -242h-108zM1059 793v231h104v-1024h-104v231q-67 -120 -181.5 -187t-259.5 -67q-217 0 -374 154q-156 156 -156 381q0 226 156 379q156 156 374 156q145 0 259.5 -67t181.5 -187zM317 203q127 -127 310 -127
q180 0 307 127q125 125 125 309t-125 309q-127 127 -307 127q-183 0 -310 -127q-124 -124 -124 -309t124 -309zM543 -258q-1 29 16 49t41.5 24.5t49 0t41.5 -24.5t16 -49q2 -50 -40 -70.5t-84 0t-40 70.5z" />
    <glyph glyph-name="uni1EAE" unicode="&#x1eae;" horiz-adv-x="1288" 
d="M1257 0h-114l-139 365h-719l-140 -365h-114l557 1434h114zM645 1300l-319 -833h639zM391 1800h92q0 -149 162 -149t162 149h92q0 -108 -69 -170.5t-185 -62.5t-185 62.5t-69 170.5zM588 1843l151 242h115l-174 -242h-92z" />
    <glyph glyph-name="uni1EAF" unicode="&#x1eaf;" 
d="M487 1391h93q0 -150 161 -150q162 0 162 150h92q0 -108 -69 -171t-185 -63t-185 63t-69 171zM1059 793v231h104v-1024h-104v231q-67 -120 -181.5 -187t-259.5 -67q-217 0 -374 154q-156 156 -156 381q0 226 156 379q156 156 374 156q145 0 259.5 -67t181.5 -187zM317 203
q127 -127 310 -127q180 0 307 127q125 125 125 309t-125 309q-127 127 -307 127q-183 0 -310 -127q-124 -124 -124 -309t124 -309zM684 1434l152 241h114l-174 -241h-92z" />
    <glyph glyph-name="uni1EB0" unicode="&#x1eb0;" horiz-adv-x="1288" 
d="M1257 0h-114l-139 365h-719l-140 -365h-114l557 1434h114zM645 1300l-319 -833h639zM391 1800h92q0 -149 162 -149t162 149h92q0 -108 -69 -170.5t-185 -62.5t-185 62.5t-69 170.5zM707 1843h-93l-174 242h115z" />
    <glyph glyph-name="uni1EB1" unicode="&#x1eb1;" 
d="M487 1391h93q0 -150 161 -150q162 0 162 150h92q0 -108 -69 -171t-185 -63t-185 63t-69 171zM1059 793v231h104v-1024h-104v231q-67 -120 -181.5 -187t-259.5 -67q-217 0 -374 154q-156 156 -156 381q0 226 156 379q156 156 374 156q145 0 259.5 -67t181.5 -187zM317 203
q127 -127 310 -127q180 0 307 127q125 125 125 309t-125 309q-127 127 -307 127q-183 0 -310 -127q-124 -124 -124 -309t124 -309zM803 1434h-92l-174 241h114z" />
    <glyph glyph-name="uni1EB2" unicode="&#x1eb2;" horiz-adv-x="1288" 
d="M1257 0h-114l-139 365h-719l-140 -365h-114l557 1434h114zM645 1300l-319 -833h639zM391 1800h92q0 -149 162 -149t162 149h92q0 -108 -69 -170.5t-185 -62.5t-185 62.5t-69 170.5zM690 1843h-78v15q0 35 4.5 50.5t20.5 28.5q19 19 33 23q3 6 8 6q16 11 22.5 16.5
t13.5 19t7 30.5q0 27 -17 43t-49 16q-59 0 -94 -68q-7 4 -34.5 16.5t-30.5 14.5q22 52 63 79.5t96 27.5q60 0 102 -32t42 -95q0 -83 -70 -119q-26 -11 -32.5 -24.5t-6.5 -41.5v-6z" />
    <glyph glyph-name="uni1EB3" unicode="&#x1eb3;" 
d="M487 1391h93q0 -150 161 -150q162 0 162 150h92q0 -108 -69 -171t-185 -63t-185 63t-69 171zM1059 793v231h104v-1024h-104v231q-67 -120 -181.5 -187t-259.5 -67q-217 0 -374 154q-156 156 -156 381q0 226 156 379q156 156 374 156q145 0 259.5 -67t181.5 -187zM317 203
q127 -127 310 -127q180 0 307 127q125 125 125 309t-125 309q-127 127 -307 127q-183 0 -310 -127q-124 -124 -124 -309t124 -309zM786 1434h-77v14q0 36 4 51.5t20 28.5q19 18 33 22q3 6 8 6q16 11 22.5 16.5t13.5 19t7 30.5q0 27 -17 43t-48 16q-61 0 -95 -67
q-7 4 -34.5 16.5t-30.5 14.5q21 52 63 79t97 27q60 0 101.5 -32t41.5 -95q0 -83 -70 -119q-26 -11 -32.5 -24t-6.5 -41v-6z" />
    <glyph glyph-name="uni1EB4" unicode="&#x1eb4;" horiz-adv-x="1288" 
d="M1257 0h-114l-139 365h-719l-140 -365h-114l557 1434h114zM645 1300l-319 -833h639zM391 1800h92q0 -149 162 -149t162 149h92q0 -108 -69 -170.5t-185 -62.5t-185 62.5t-69 170.5zM481 1849h-80q0 60 14.5 103.5t39.5 64.5t57.5 26t70 -10.5t74.5 -47.5q82 -68 120 -55
t38 106h78q0 -148 -78 -185q-81 -35 -178 50q-156 144 -156 -52z" />
    <glyph glyph-name="uni1EB5" unicode="&#x1eb5;" 
d="M487 1391h93q0 -150 161 -150q162 0 162 150h92q0 -108 -69 -171t-185 -63t-185 63t-69 171zM1059 793v231h104v-1024h-104v231q-67 -120 -181.5 -187t-259.5 -67q-217 0 -374 154q-156 156 -156 381q0 226 156 379q156 156 374 156q145 0 259.5 -67t181.5 -187zM317 203
q127 -127 310 -127q180 0 307 127q125 125 125 309t-125 309q-127 127 -307 127q-183 0 -310 -127q-124 -124 -124 -309t124 -309zM578 1440h-80q0 99 38 149.5t96.5 45.5t121.5 -60q82 -68 119.5 -55t37.5 106h78q0 -147 -78 -184q-81 -35 -178 49q-155 143 -155 -51z" />
    <glyph glyph-name="uni1EB6" unicode="&#x1eb6;" horiz-adv-x="1288" 
d="M1257 0h-114l-139 365h-719l-140 -365h-114l557 1434h114zM645 1300l-319 -833h639zM391 1800h92q0 -149 162 -149t162 149h92q0 -108 -69 -170.5t-185 -62.5t-185 62.5t-69 170.5zM557 -258q-1 29 16 49t41.5 24.5t49 0t41.5 -24.5t16 -49q2 -50 -40 -70.5t-84 0
t-40 70.5z" />
    <glyph glyph-name="uni1EB7" unicode="&#x1eb7;" 
d="M487 1391h93q0 -150 161 -150q162 0 162 150h92q0 -108 -69 -171t-185 -63t-185 63t-69 171zM1059 793v231h104v-1024h-104v231q-67 -120 -181.5 -187t-259.5 -67q-217 0 -374 154q-156 156 -156 381q0 226 156 379q156 156 374 156q145 0 259.5 -67t181.5 -187zM317 203
q127 -127 310 -127q180 0 307 127q125 125 125 309t-125 309q-127 127 -307 127q-183 0 -310 -127q-124 -124 -124 -309t124 -309zM543 -258q-1 29 16 49t41.5 24.5t49 0t41.5 -24.5t16 -49q2 -50 -40 -70.5t-84 0t-40 70.5z" />
    <glyph glyph-name="uni1EB8" unicode="&#x1eb8;" horiz-adv-x="1091" 
d="M502 -258q-1 29 16 49t41.5 24.5t49 0t41.5 -24.5t16 -49q2 -50 -40 -70.5t-84 0t-40 70.5zM287 672v-570h717v-102h-826v1434h815v-103h-706v-557h655v-102h-655z" />
    <glyph glyph-name="uni1EB9" unicode="&#x1eb9;" horiz-adv-x="1206" 
d="M524 -258q-1 29 16 49t41.5 24.5t49 0t41.5 -24.5t16 -49q2 -50 -40 -70.5t-84 0t-40 70.5zM618 1047q226 0 365 -160q141 -159 141 -379q0 -5 -1 -24.5t-1 -24.5h-927q18 -172 137 -279q119 -104 297 -104q121 0 213.5 50t140.5 136l90 -53q-64 -107 -181.5 -169.5
t-264.5 -62.5q-237 0 -387 150q-152 152 -152 385q0 230 148 381q151 154 382 154zM618 948q-173 0 -290 -108q-118 -109 -133 -281h823q-15 181 -131 285q-113 104 -269 104z" />
    <glyph glyph-name="uni1EBA" unicode="&#x1eba;" horiz-adv-x="1091" 
d="M649 1577h-84v14q0 37 5 55t22 31q21 21 37 25q3 6 8 6q17 12 24 18t14 20.5t7 33.5q0 29 -18 46t-52 17q-65 0 -100 -71q-6 3 -37 16t-35 16q23 55 68.5 85t103.5 30q64 0 109 -34.5t45 -102.5q0 -48 -22 -80.5t-52 -48.5q-28 -11 -35.5 -25.5t-7.5 -44.5v-6zM287 672
v-570h717v-102h-826v1434h815v-103h-706v-557h655v-102h-655z" />
    <glyph glyph-name="uni1EBB" unicode="&#x1ebb;" horiz-adv-x="1206" 
d="M692 1167h-84v15q0 37 5 55t22 31q21 20 37 24q3 6 8 6q17 12 24 18t14 20.5t7 33.5q0 29 -18 46.5t-52 17.5q-65 0 -100 -72q-6 3 -23 10.5t-31.5 13.5t-17.5 9q23 55 68.5 84.5t103.5 29.5q64 0 109 -34.5t45 -102.5q0 -48 -22 -80.5t-52 -48.5q-28 -11 -35.5 -25
t-7.5 -44v-7zM618 1047q226 0 365 -160q141 -159 141 -379q0 -5 -1 -24.5t-1 -24.5h-927q18 -172 137 -279q119 -104 297 -104q121 0 213.5 50t140.5 136l90 -53q-64 -107 -181.5 -169.5t-264.5 -62.5q-237 0 -387 150q-152 152 -152 385q0 230 148 381q151 154 382 154z
M618 948q-173 0 -290 -108q-118 -109 -133 -281h823q-15 181 -131 285q-113 104 -269 104z" />
    <glyph glyph-name="uni1EBC" unicode="&#x1ebc;" horiz-adv-x="1091" 
d="M287 672v-570h717v-102h-826v1434h815v-103h-706v-557h655v-102h-655zM397 1604h-90q0 112 41 168.5t105.5 50.5t136.5 -68q184 -156 184 57h90q0 -166 -88 -206q-86 -39 -194 55q-86 81 -135.5 68.5t-49.5 -125.5z" />
    <glyph glyph-name="uni1EBD" unicode="&#x1ebd;" horiz-adv-x="1206" 
d="M618 1047q226 0 365 -160q141 -159 141 -379q0 -5 -1 -24.5t-1 -24.5h-927q18 -172 137 -279q119 -104 297 -104q121 0 213.5 50t140.5 136l90 -53q-64 -107 -181.5 -169.5t-264.5 -62.5q-237 0 -387 150q-152 152 -152 385q0 230 148 381q151 154 382 154zM618 948
q-173 0 -290 -108q-118 -109 -133 -281h823q-15 181 -131 285q-113 104 -269 104zM418 1194h-90q0 112 41 168.5t105 51t136 -67.5q185 -156 185 57h90q0 -167 -88 -207q-87 -40 -195 55q-86 81 -135 68.5t-49 -125.5z" />
    <glyph glyph-name="uni1EBE" unicode="&#x1ebe;" horiz-adv-x="1091" 
d="M752 1577l-152 180l-154 -180h-108l205 242h112l205 -242h-108zM287 672v-570h717v-102h-826v1434h815v-103h-706v-557h655v-102h-655zM788 1747l152 242h115l-174 -242h-93z" />
    <glyph glyph-name="uni1EBF" unicode="&#x1ebf;" horiz-adv-x="1206" 
d="M788 1167l-151 181l-154 -181h-108l205 242h112l205 -242h-109zM618 1047q226 0 365 -160q141 -159 141 -379q0 -5 -1 -24.5t-1 -24.5h-927q18 -172 137 -279q119 -104 297 -104q121 0 213.5 50t140.5 136l90 -53q-64 -107 -181.5 -169.5t-264.5 -62.5q-237 0 -387 150
q-152 152 -152 385q0 230 148 381q151 154 382 154zM618 948q-173 0 -290 -108q-118 -109 -133 -281h823q-15 181 -131 285q-113 104 -269 104zM825 1337l152 242h115l-174 -242h-93z" />
    <glyph glyph-name="uni1EC0" unicode="&#x1ec0;" horiz-adv-x="1091" 
d="M752 1577l-152 180l-154 -180h-108l205 242h112l205 -242h-108zM287 672v-570h717v-102h-826v1434h815v-103h-706v-557h655v-102h-655zM918 1747h-93l-174 242h115z" />
    <glyph glyph-name="uni1EC1" unicode="&#x1ec1;" horiz-adv-x="1206" 
d="M788 1167l-151 181l-154 -181h-108l205 242h112l205 -242h-109zM618 1047q226 0 365 -160q141 -159 141 -379q0 -5 -1 -24.5t-1 -24.5h-927q18 -172 137 -279q119 -104 297 -104q121 0 213.5 50t140.5 136l90 -53q-64 -107 -181.5 -169.5t-264.5 -62.5q-237 0 -387 150
q-152 152 -152 385q0 230 148 381q151 154 382 154zM618 948q-173 0 -290 -108q-118 -109 -133 -281h823q-15 181 -131 285q-113 104 -269 104zM954 1337h-92l-174 242h115z" />
    <glyph glyph-name="uni1EC2" unicode="&#x1ec2;" horiz-adv-x="1091" 
d="M752 1577l-152 180l-154 -180h-108l205 242h112l205 -242h-108zM287 672v-570h717v-102h-826v1434h815v-103h-706v-557h655v-102h-655zM868 1747h-77v14q0 36 4 51.5t20 28.5q19 19 33 23q3 6 8 6q16 11 22.5 16.5t13.5 18.5t7 30q0 27 -17 43.5t-48 16.5q-60 0 -95 -68
q-7 4 -34.5 16.5t-30.5 14.5q21 52 63 79t97 27q60 0 101.5 -32t41.5 -95q0 -82 -70 -118q-26 -11 -32.5 -24.5t-6.5 -41.5v-6z" />
    <glyph glyph-name="uni1EC3" unicode="&#x1ec3;" horiz-adv-x="1206" 
d="M788 1167l-151 181l-154 -181h-108l205 242h112l205 -242h-109zM618 1047q226 0 365 -160q141 -159 141 -379q0 -5 -1 -24.5t-1 -24.5h-927q18 -172 137 -279q119 -104 297 -104q121 0 213.5 50t140.5 136l90 -53q-64 -107 -181.5 -169.5t-264.5 -62.5q-237 0 -387 150
q-152 152 -152 385q0 230 148 381q151 154 382 154zM618 948q-173 0 -290 -108q-118 -109 -133 -281h823q-15 181 -131 285q-113 104 -269 104zM905 1337h-78v15q0 35 4.5 51t20.5 29q19 18 33 22q3 6 8 6q16 11 22.5 16.5t13.5 19t7 30.5q0 27 -17 43t-49 16q-60 0 -94 -67
q-7 4 -34.5 16t-30.5 14q22 52 63 79.5t96 27.5q60 0 102 -32t42 -95q0 -83 -70 -119q-26 -11 -32.5 -24.5t-6.5 -41.5v-6z" />
    <glyph glyph-name="uni1EC4" unicode="&#x1ec4;" horiz-adv-x="1091" 
d="M752 1577l-152 180l-154 -180h-108l205 242h112l205 -242h-108zM287 672v-570h717v-102h-826v1434h815v-103h-706v-557h655v-102h-655zM436 1870h-80q0 99 38 149.5t96.5 45.5t121.5 -60q82 -68 120 -55t38 106h78q0 -147 -78 -184q-81 -35 -178 49q-156 144 -156 -51z
" />
    <glyph glyph-name="uni1EC5" unicode="&#x1ec5;" horiz-adv-x="1206" 
d="M788 1167l-151 181l-154 -181h-108l205 242h112l205 -242h-109zM618 1047q226 0 365 -160q141 -159 141 -379q0 -5 -1 -24.5t-1 -24.5h-927q18 -172 137 -279q119 -104 297 -104q121 0 213.5 50t140.5 136l90 -53q-64 -107 -181.5 -169.5t-264.5 -62.5q-237 0 -387 150
q-152 152 -152 385q0 230 148 381q151 154 382 154zM618 948q-173 0 -290 -108q-118 -109 -133 -281h823q-15 181 -131 285q-113 104 -269 104zM473 1460h-80q0 99 38 149.5t96.5 45.5t121.5 -60q82 -68 120 -54.5t38 106.5h78q0 -148 -78 -185q-81 -35 -178 49
q-156 144 -156 -51z" />
    <glyph glyph-name="uni1EC6" unicode="&#x1ec6;" horiz-adv-x="1091" 
d="M752 1577l-152 180l-154 -180h-108l205 242h112l205 -242h-108zM287 672v-570h717v-102h-826v1434h815v-103h-706v-557h655v-102h-655zM502 -258q-1 29 16 49t41.5 24.5t49 0t41.5 -24.5t16 -49q2 -50 -40 -70.5t-84 0t-40 70.5z" />
    <glyph glyph-name="uni1EC7" unicode="&#x1ec7;" horiz-adv-x="1206" 
d="M788 1167l-151 181l-154 -181h-108l205 242h112l205 -242h-109zM618 1047q226 0 365 -160q141 -159 141 -379q0 -5 -1 -24.5t-1 -24.5h-927q18 -172 137 -279q119 -104 297 -104q121 0 213.5 50t140.5 136l90 -53q-64 -107 -181.5 -169.5t-264.5 -62.5q-237 0 -387 150
q-152 152 -152 385q0 230 148 381q151 154 382 154zM618 948q-173 0 -290 -108q-118 -109 -133 -281h823q-15 181 -131 285q-113 104 -269 104zM524 -258q-1 29 16 49t41.5 24.5t49 0t41.5 -24.5t16 -49q2 -50 -40 -70.5t-84 0t-40 70.5z" />
    <glyph glyph-name="uni1EC8" unicode="&#x1ec8;" horiz-adv-x="464" 
d="M274 1577h-84v14q0 37 5 55t22 31q21 21 37 25q3 6 8 6q17 12 24 18t14 20.5t7 33.5q0 29 -17.5 46t-51.5 17q-66 0 -101 -71q-6 3 -36 16t-35 16q23 55 68.5 85t103.5 30q64 0 108.5 -34.5t44.5 -102.5q0 -48 -22 -80.5t-52 -48.5q-28 -11 -35.5 -25.5t-7.5 -44.5v-6z
M178 0v1434h109v-1434h-109z" />
    <glyph glyph-name="uni1EC9" unicode="&#x1ec9;" horiz-adv-x="417" 
d="M260 0h-102v1024h102v-1024zM252 1167h-84v15q0 37 5 55t22 31q20 20 36 24q3 6 9 6q17 12 24 18t14 20.5t7 33.5q0 29 -18 46.5t-52 17.5q-65 0 -100 -72q-6 3 -23 10.5t-31.5 13.5t-17.5 9q23 55 68.5 84.5t103.5 29.5q64 0 109 -34.5t45 -102.5q0 -48 -22 -80.5
t-52 -48.5q-28 -11 -35.5 -25t-7.5 -44v-7z" />
    <glyph glyph-name="uni1ECA" unicode="&#x1eca;" horiz-adv-x="464" 
d="M150 -258q-1 29 15.5 49t41 24.5t49.5 0t41.5 -24.5t15.5 -49q1 -30 -15.5 -51t-41 -25.5t-49.5 0t-41.5 25.5t-15.5 51zM178 0v1434h109v-1434h-109z" />
    <glyph glyph-name="uni1ECB" unicode="&#x1ecb;" horiz-adv-x="417" 
d="M131 -258q-1 29 16 49t41.5 24.5t49 0t41.5 -24.5t16 -49q2 -50 -40 -70.5t-84 0t-40 70.5zM127 1264q-1 29 16 49t41.5 24.5t49 0t41.5 -24.5t16 -49q2 -50 -40 -70.5t-84 0t-40 70.5zM260 0h-102v1024h102v-1024z" />
    <glyph glyph-name="uni1ECC" unicode="&#x1ecc;" horiz-adv-x="1671" 
d="M754 -258q-1 29 16 49t41.5 24.5t49 0t41.5 -24.5t16 -49q2 -50 -40 -70.5t-84 0t-40 70.5zM1360 193q-216 -216 -524 -216q-309 0 -525 216q-215 218 -215 524q0 307 215 522q214 217 525 217q310 0 524 -217q215 -215 215 -522q0 -306 -215 -524zM387 266
q184 -184 449 -184t446 184q184 187 184 451t-184 448q-181 187 -446 187t-449 -187q-182 -185 -182 -448t182 -451z" />
    <glyph glyph-name="uni1ECD" unicode="&#x1ecd;" horiz-adv-x="1251" 
d="M547 -258q-1 29 16 49t41.5 24.5t49 0t41.5 -24.5t16 -49q2 -50 -40 -70.5t-84 0t-40 70.5zM627 -23q-226 0 -383 154q-156 156 -156 381q0 226 156 379q156 156 383 156q223 0 379 -156q157 -154 157 -379q0 -224 -157 -381q-157 -154 -379 -154zM317 203
q127 -127 310 -127q180 0 307 127q125 125 125 309t-125 309q-127 127 -307 127q-183 0 -310 -127q-124 -124 -124 -309t124 -309z" />
    <glyph glyph-name="uni1ECE" unicode="&#x1ece;" horiz-adv-x="1671" 
d="M1360 193q-216 -216 -524 -216q-309 0 -525 216q-215 218 -215 524q0 307 215 522q214 217 525 217q310 0 524 -217q215 -215 215 -522q0 -306 -215 -524zM387 266q184 -184 449 -184t446 184q184 187 184 451t-184 448q-181 187 -446 187t-449 -187q-182 -185 -182 -448
t182 -451zM918 1577h-84v14q0 38 5 55.5t21 30.5q21 21 37 25q3 6 8 6q17 12 24 18t14 20.5t7 33.5q0 29 -17.5 46t-51.5 17q-66 0 -101 -71q-6 3 -36 16t-35 16q23 55 68.5 85t103.5 30q64 0 108.5 -34.5t44.5 -102.5q0 -89 -73 -129q-28 -11 -35.5 -25.5t-7.5 -44.5v-6z
" />
    <glyph glyph-name="uni1ECF" unicode="&#x1ecf;" horiz-adv-x="1251" 
d="M709 1167h-84v15q0 38 5 55.5t21 30.5q21 20 37 24q3 6 8 6q17 12 24 18t14 20.5t7 33.5q0 29 -17.5 46.5t-51.5 17.5q-30 0 -57 -19t-44 -53q-6 3 -23 10.5t-31 13.5t-17 9q23 55 68.5 84.5t103.5 29.5q64 0 108.5 -34.5t44.5 -102.5q0 -89 -73 -129q-28 -11 -35.5 -25
t-7.5 -44v-7zM627 -23q-226 0 -383 154q-156 156 -156 381q0 226 156 379q156 156 383 156q223 0 379 -156q157 -154 157 -379q0 -224 -157 -381q-157 -154 -379 -154zM317 203q127 -127 310 -127q180 0 307 127q125 125 125 309t-125 309q-127 127 -307 127
q-183 0 -310 -127q-124 -124 -124 -309t124 -309z" />
    <glyph glyph-name="uni1ED0" unicode="&#x1ed0;" horiz-adv-x="1671" 
d="M989 1577l-151 180l-154 -180h-109l205 242h113l205 -242h-109zM311 1239q214 217 525 217q310 0 524 -217q215 -215 215 -522q0 -306 -215 -524q-216 -216 -524 -216q-309 0 -525 216q-215 218 -215 524q0 307 215 522zM387 266q184 -184 449 -184t446 184
q184 187 184 451t-184 448q-181 187 -446 187t-449 -187q-182 -185 -182 -448t182 -451zM1026 1747l152 242h114l-174 -242h-92z" />
    <glyph glyph-name="uni1ED1" unicode="&#x1ed1;" horiz-adv-x="1251" 
d="M778 1167l-151 181l-154 -181h-108l204 242h113l205 -242h-109zM627 1047q223 0 379 -156q157 -154 157 -379q0 -224 -157 -381q-157 -154 -379 -154q-226 0 -383 154q-156 156 -156 381q0 226 156 379q156 156 383 156zM317 203q127 -127 310 -127q180 0 307 127
q125 125 125 309t-125 309q-127 127 -307 127q-183 0 -310 -127q-124 -124 -124 -309t124 -309zM815 1337l152 242h114l-174 -242h-92z" />
    <glyph glyph-name="uni1ED2" unicode="&#x1ed2;" horiz-adv-x="1671" 
d="M989 1577l-151 180l-154 -180h-109l205 242h113l205 -242h-109zM311 1239q214 217 525 217q310 0 524 -217q215 -215 215 -522q0 -306 -215 -524q-216 -216 -524 -216q-309 0 -525 216q-215 218 -215 524q0 307 215 522zM387 266q184 -184 449 -184t446 184
q184 187 184 451t-184 448q-181 187 -446 187t-449 -187q-182 -185 -182 -448t182 -451zM1155 1747h-92l-174 242h115z" />
    <glyph glyph-name="uni1ED3" unicode="&#x1ed3;" horiz-adv-x="1251" 
d="M778 1167l-151 181l-154 -181h-108l204 242h113l205 -242h-109zM627 1047q223 0 379 -156q157 -154 157 -379q0 -224 -157 -381q-157 -154 -379 -154q-226 0 -383 154q-156 156 -156 381q0 226 156 379q156 156 383 156zM317 203q127 -127 310 -127q180 0 307 127
q125 125 125 309t-125 309q-127 127 -307 127q-183 0 -310 -127q-124 -124 -124 -309t124 -309zM944 1337h-92l-174 242h115z" />
    <glyph glyph-name="uni1ED4" unicode="&#x1ed4;" horiz-adv-x="1671" 
d="M989 1577l-151 180l-154 -180h-109l205 242h113l205 -242h-109zM311 1239q214 217 525 217q310 0 524 -217q215 -215 215 -522q0 -306 -215 -524q-216 -216 -524 -216q-309 0 -525 216q-215 218 -215 524q0 307 215 522zM387 266q184 -184 449 -184t446 184
q184 187 184 451t-184 448q-181 187 -446 187t-449 -187q-182 -185 -182 -448t182 -451zM1106 1747h-78v14q0 35 4.5 51t20.5 29q18 19 32 23q3 6 9 6q16 11 22.5 16.5t13.5 18.5t7 30q0 27 -17.5 43.5t-48.5 16.5q-59 0 -94 -68q-7 4 -35 16.5t-31 14.5q21 52 63 79t97 27
q60 0 101.5 -32t41.5 -95q0 -82 -69 -118q-26 -11 -32.5 -24.5t-6.5 -41.5v-6z" />
    <glyph glyph-name="uni1ED5" unicode="&#x1ed5;" horiz-adv-x="1251" 
d="M778 1167l-151 181l-154 -181h-108l204 242h113l205 -242h-109zM627 1047q223 0 379 -156q157 -154 157 -379q0 -224 -157 -381q-157 -154 -379 -154q-226 0 -383 154q-156 156 -156 381q0 226 156 379q156 156 383 156zM317 203q127 -127 310 -127q180 0 307 127
q125 125 125 309t-125 309q-127 127 -307 127q-183 0 -310 -127q-124 -124 -124 -309t124 -309zM895 1337h-78v15q0 35 4.5 51t20.5 29q18 18 32 22q3 6 9 6q16 11 22.5 16.5t13.5 19t7 30.5q0 27 -17 43t-49 16q-60 0 -94 -67q-7 4 -35 16t-31 14q21 52 63 79.5t97 27.5
q60 0 102 -32t42 -95q0 -83 -70 -119q-26 -11 -32.5 -24.5t-6.5 -41.5v-6z" />
    <glyph glyph-name="uni1ED6" unicode="&#x1ed6;" horiz-adv-x="1671" 
d="M989 1577l-151 180l-154 -180h-109l205 242h113l205 -242h-109zM311 1239q214 217 525 217q310 0 524 -217q215 -215 215 -522q0 -306 -215 -524q-216 -216 -524 -216q-309 0 -525 216q-215 218 -215 524q0 307 215 522zM387 266q184 -184 449 -184t446 184
q184 187 184 451t-184 448q-181 187 -446 187t-449 -187q-182 -185 -182 -448t182 -451zM674 1870h-80q0 99 38 149.5t96.5 45.5t121.5 -60q82 -68 120 -55t38 106h77q0 -148 -77 -184q-82 -36 -179 49q-155 143 -155 -51z" />
    <glyph glyph-name="uni1ED7" unicode="&#x1ed7;" horiz-adv-x="1251" 
d="M778 1167l-151 181l-154 -181h-108l204 242h113l205 -242h-109zM627 1047q223 0 379 -156q157 -154 157 -379q0 -224 -157 -381q-157 -154 -379 -154q-226 0 -383 154q-156 156 -156 381q0 226 156 379q156 156 383 156zM317 203q127 -127 310 -127q180 0 307 127
q125 125 125 309t-125 309q-127 127 -307 127q-183 0 -310 -127q-124 -124 -124 -309t124 -309zM463 1460h-80q0 99 38 149.5t96.5 45.5t121.5 -60q82 -68 120 -54.5t38 106.5h77q0 -149 -77 -185q-82 -36 -179 49q-155 143 -155 -51z" />
    <glyph glyph-name="uni1ED8" unicode="&#x1ed8;" horiz-adv-x="1671" 
d="M989 1577l-151 180l-154 -180h-109l205 242h113l205 -242h-109zM311 1239q214 217 525 217q310 0 524 -217q215 -215 215 -522q0 -306 -215 -524q-216 -216 -524 -216q-309 0 -525 216q-215 218 -215 524q0 307 215 522zM387 266q184 -184 449 -184t446 184
q184 187 184 451t-184 448q-181 187 -446 187t-449 -187q-182 -185 -182 -448t182 -451zM754 -258q-1 29 16 49t41.5 24.5t49 0t41.5 -24.5t16 -49q2 -50 -40 -70.5t-84 0t-40 70.5z" />
    <glyph glyph-name="uni1ED9" unicode="&#x1ed9;" horiz-adv-x="1251" 
d="M778 1167l-151 181l-154 -181h-108l204 242h113l205 -242h-109zM627 1047q223 0 379 -156q157 -154 157 -379q0 -224 -157 -381q-157 -154 -379 -154q-226 0 -383 154q-156 156 -156 381q0 226 156 379q156 156 383 156zM317 203q127 -127 310 -127q180 0 307 127
q125 125 125 309t-125 309q-127 127 -307 127q-183 0 -310 -127q-124 -124 -124 -309t124 -309zM547 -258q-1 29 16 49t41.5 24.5t49 0t41.5 -24.5t16 -49q2 -50 -40 -70.5t-84 0t-40 70.5z" />
    <glyph glyph-name="uni1EDA" unicode="&#x1eda;" horiz-adv-x="1671" 
d="M793 1577l163 260h123l-186 -260h-100zM1360 193q-216 -216 -524 -216q-309 0 -525 216q-215 218 -215 524q0 307 215 522q214 217 525 217q97 0 190 -22h141q74 0 96.5 31t22.5 112v10h100v-10q0 -110 -36.5 -166t-116.5 -68q65 -42 127 -104q215 -215 215 -522
q0 -306 -215 -524zM387 266q184 -184 449 -184t446 184q184 187 184 451t-184 448q-181 187 -446 187t-449 -187q-182 -185 -182 -448t182 -451z" />
    <glyph glyph-name="uni1EDB" unicode="&#x1edb;" horiz-adv-x="1251" 
d="M592 1167l164 260h123l-187 -260h-100zM627 -23q-226 0 -383 154q-156 156 -156 381q0 226 156 379q156 156 383 156q77 0 161 -23h78q74 0 96.5 31t22.5 112v11h100v-11q0 -102 -32 -157t-101 -72q9 -7 54 -47q157 -154 157 -379q0 -224 -157 -381q-157 -154 -379 -154z
M317 203q127 -127 310 -127q180 0 307 127q125 125 125 309t-125 309q-127 127 -307 127q-183 0 -310 -127q-124 -124 -124 -309t124 -309z" />
    <glyph glyph-name="uni1EDC" unicode="&#x1edc;" horiz-adv-x="1671" 
d="M971 1577h-99l-188 260h123zM1360 193q-216 -216 -524 -216q-309 0 -525 216q-215 218 -215 524q0 307 215 522q214 217 525 217q97 0 190 -22h141q74 0 96.5 31t22.5 112v10h100v-10q0 -110 -36.5 -166t-116.5 -68q65 -42 127 -104q215 -215 215 -522q0 -306 -215 -524z
M387 266q184 -184 449 -184t446 184q184 187 184 451t-184 448q-181 187 -446 187t-449 -187q-182 -185 -182 -448t182 -451z" />
    <glyph glyph-name="uni1EDD" unicode="&#x1edd;" horiz-adv-x="1251" 
d="M758 1167h-99l-188 260h123zM627 -23q-226 0 -383 154q-156 156 -156 381q0 226 156 379q156 156 383 156q77 0 161 -23h78q74 0 96.5 31t22.5 112v11h100v-11q0 -102 -32 -157t-101 -72q9 -7 54 -47q157 -154 157 -379q0 -224 -157 -381q-157 -154 -379 -154zM317 203
q127 -127 310 -127q180 0 307 127q125 125 125 309t-125 309q-127 127 -307 127q-183 0 -310 -127q-124 -124 -124 -309t124 -309z" />
    <glyph glyph-name="uni1EDE" unicode="&#x1ede;" horiz-adv-x="1671" 
d="M918 1577h-84v14q0 38 5 55.5t21 30.5q21 21 37 25q3 6 8 6q17 12 24 18t14 20.5t7 33.5q0 29 -17.5 46t-51.5 17q-66 0 -101 -71q-6 3 -36 16t-35 16q23 55 68.5 85t103.5 30q64 0 108.5 -34.5t44.5 -102.5q0 -89 -73 -129q-28 -11 -35.5 -25.5t-7.5 -44.5v-6zM1360 193
q-216 -216 -524 -216q-309 0 -525 216q-215 218 -215 524q0 307 215 522q214 217 525 217q97 0 190 -22h141q74 0 96.5 31t22.5 112v10h100v-10q0 -110 -36.5 -166t-116.5 -68q65 -42 127 -104q215 -215 215 -522q0 -306 -215 -524zM387 266q184 -184 449 -184t446 184
q184 187 184 451t-184 448q-181 187 -446 187t-449 -187q-182 -185 -182 -448t182 -451z" />
    <glyph glyph-name="uni1EDF" unicode="&#x1edf;" horiz-adv-x="1251" 
d="M709 1167h-84v15q0 38 5 55.5t21 30.5q21 20 37 24q3 6 8 6q17 12 24 18t14 20.5t7 33.5q0 29 -17.5 46.5t-51.5 17.5q-30 0 -57 -19t-44 -53q-6 3 -23 10.5t-31 13.5t-17 9q23 55 68.5 84.5t103.5 29.5q64 0 108.5 -34.5t44.5 -102.5q0 -89 -73 -129q-28 -11 -35.5 -25
t-7.5 -44v-7zM627 -23q-226 0 -383 154q-156 156 -156 381q0 226 156 379q156 156 383 156q77 0 161 -23h78q74 0 96.5 31t22.5 112v11h100v-11q0 -102 -32 -157t-101 -72q9 -7 54 -47q157 -154 157 -379q0 -224 -157 -381q-157 -154 -379 -154zM317 203q127 -127 310 -127
q180 0 307 127q125 125 125 309t-125 309q-127 127 -307 127q-183 0 -310 -127q-124 -124 -124 -309t124 -309z" />
    <glyph glyph-name="uni1EE0" unicode="&#x1ee0;" horiz-adv-x="1671" 
d="M659 1604h-90q0 112 41 168.5t105.5 50.5t136.5 -68q184 -156 184 57h90q0 -166 -88 -206q-86 -39 -194 55q-86 81 -135.5 68.5t-49.5 -125.5zM1360 193q-216 -216 -524 -216q-309 0 -525 216q-215 218 -215 524q0 307 215 522q214 217 525 217q97 0 190 -22h141
q74 0 96.5 31t22.5 112v10h100v-10q0 -110 -36.5 -166t-116.5 -68q65 -42 127 -104q215 -215 215 -522q0 -306 -215 -524zM387 266q184 -184 449 -184t446 184q184 187 184 451t-184 448q-181 187 -446 187t-449 -187q-182 -185 -182 -448t182 -451z" />
    <glyph glyph-name="uni1EE1" unicode="&#x1ee1;" horiz-adv-x="1251" 
d="M463 1194h-90q0 112 41 168.5t105 51t136 -67.5q185 -156 185 57h90q0 -167 -88 -207q-87 -40 -195 55q-86 81 -135 68.5t-49 -125.5zM627 -23q-226 0 -383 154q-156 156 -156 381q0 226 156 379q156 156 383 156q77 0 161 -23h78q74 0 96.5 31t22.5 112v11h100v-11
q0 -102 -32 -157t-101 -72q9 -7 54 -47q157 -154 157 -379q0 -224 -157 -381q-157 -154 -379 -154zM317 203q127 -127 310 -127q180 0 307 127q125 125 125 309t-125 309q-127 127 -307 127q-183 0 -310 -127q-124 -124 -124 -309t124 -309z" />
    <glyph glyph-name="uni1EE2" unicode="&#x1ee2;" horiz-adv-x="1671" 
d="M754 -258q-1 29 16 49t41.5 24.5t49 0t41.5 -24.5t16 -49q2 -50 -40 -70.5t-84 0t-40 70.5zM1360 193q-216 -216 -524 -216q-309 0 -525 216q-215 218 -215 524q0 307 215 522q214 217 525 217q97 0 190 -22h141q74 0 96.5 31t22.5 112v10h100v-10q0 -110 -36.5 -166
t-116.5 -68q65 -42 127 -104q215 -215 215 -522q0 -306 -215 -524zM387 266q184 -184 449 -184t446 184q184 187 184 451t-184 448q-181 187 -446 187t-449 -187q-182 -185 -182 -448t182 -451z" />
    <glyph glyph-name="uni1EE3" unicode="&#x1ee3;" horiz-adv-x="1251" 
d="M547 -258q-1 29 16 49t41.5 24.5t49 0t41.5 -24.5t16 -49q2 -50 -40 -70.5t-84 0t-40 70.5zM627 -23q-226 0 -383 154q-156 156 -156 381q0 226 156 379q156 156 383 156q77 0 161 -23h78q74 0 96.5 31t22.5 112v11h100v-11q0 -102 -32 -157t-101 -72q9 -7 54 -47
q157 -154 157 -379q0 -224 -157 -381q-157 -154 -379 -154zM317 203q127 -127 310 -127q180 0 307 127q125 125 125 309t-125 309q-127 127 -307 127q-183 0 -310 -127q-124 -124 -124 -309t124 -309z" />
    <glyph glyph-name="uni1EE4" unicode="&#x1ee4;" horiz-adv-x="1366" 
d="M158 479v955h108v-955q0 -182 110 -289.5t306 -107.5t307 107.5t111 289.5v955h108v-955q0 -225 -145 -364q-144 -138 -381 -138t-381 138q-143 137 -143 364zM602 -258q-1 29 16 49t41.5 24.5t49 0t41.5 -24.5t16 -49q2 -50 -40 -70.5t-84 0t-40 70.5z" />
    <glyph glyph-name="uni1EE5" unicode="&#x1ee5;" horiz-adv-x="1155" 
d="M446 -258q-1 29 16 49t41.5 24.5t49 0t41.5 -24.5t16 -49q2 -50 -40 -70.5t-84 0t-40 70.5zM895 483v541h102v-1024h-102v195q-111 -218 -367 -218q-182 0 -289.5 111.5t-107.5 298.5v637h105v-637q0 -144 80 -227.5t221 -83.5q162 0 260 106.5t98 300.5z" />
    <glyph glyph-name="uni1EE6" unicode="&#x1ee6;" horiz-adv-x="1366" 
d="M754 1577h-84v14q0 38 5 55.5t21 30.5q21 21 37 25q3 6 8 6q17 12 24 18t14 20.5t7 33.5q0 29 -17.5 46t-51.5 17q-66 0 -101 -71q-6 3 -36 16t-35 16q23 55 68.5 85t103.5 30q64 0 108.5 -34.5t44.5 -102.5q0 -89 -73 -129q-28 -11 -35.5 -25.5t-7.5 -44.5v-6zM158 479
v955h108v-955q0 -182 110 -289.5t306 -107.5t307 107.5t111 289.5v955h108v-955q0 -225 -145 -364q-144 -138 -381 -138t-381 138q-143 137 -143 364z" />
    <glyph glyph-name="uni1EE7" unicode="&#x1ee7;" horiz-adv-x="1155" 
d="M627 1167h-84v15q0 38 5 55.5t21 30.5q21 20 37 24q3 6 8 6q17 12 24 18t14 20.5t7 33.5q0 29 -17.5 46.5t-51.5 17.5q-30 0 -57 -19t-44 -53q-6 3 -23 10.5t-31 13.5t-17 9q23 55 68.5 84.5t103.5 29.5q64 0 108.5 -34.5t44.5 -102.5q0 -89 -73 -129q-28 -11 -35.5 -25
t-7.5 -44v-7zM895 483v541h102v-1024h-102v195q-111 -218 -367 -218q-182 0 -289.5 111.5t-107.5 298.5v637h105v-637q0 -144 80 -227.5t221 -83.5q162 0 260 106.5t98 300.5z" />
    <glyph glyph-name="uni1EE8" unicode="&#x1ee8;" horiz-adv-x="1366" 
d="M629 1577l164 260h122l-186 -260h-100zM158 479v955h108v-955q0 -182 110 -289.5t306 -107.5t307 107.5t111 289.5v955h55q74 0 96.5 31t22.5 112v10h100v-10q0 -114 -39.5 -169.5t-126.5 -66.5v-862q0 -225 -145 -364q-144 -138 -381 -138t-381 138q-143 137 -143 364z
" />
    <glyph glyph-name="uni1EE9" unicode="&#x1ee9;" horiz-adv-x="1155" 
d="M682 1427h123l-187 -260h-100zM895 483v541h55q74 0 96.5 31t22.5 112v11h100v-11q0 -116 -41 -171t-131 -64v-932h-102v195q-111 -218 -367 -218q-182 0 -289.5 111.5t-107.5 298.5v637h105v-637q0 -144 80 -227.5t221 -83.5q162 0 260 106.5t98 300.5z" />
    <glyph glyph-name="uni1EEA" unicode="&#x1eea;" horiz-adv-x="1366" 
d="M778 1577h-98l-188 260h122zM158 479v955h108v-955q0 -182 110 -289.5t306 -107.5t307 107.5t111 289.5v955h55q74 0 96.5 31t22.5 112v10h100v-10q0 -114 -39.5 -169.5t-126.5 -66.5v-862q0 -225 -145 -364q-144 -138 -381 -138t-381 138q-143 137 -143 364z" />
    <glyph glyph-name="uni1EEB" unicode="&#x1eeb;" horiz-adv-x="1155" 
d="M496 1427l163 -260h-98l-188 260h123zM895 483v541h55q74 0 96.5 31t22.5 112v11h100v-11q0 -116 -41 -171t-131 -64v-932h-102v195q-111 -218 -367 -218q-182 0 -289.5 111.5t-107.5 298.5v637h105v-637q0 -144 80 -227.5t221 -83.5q162 0 260 106.5t98 300.5z" />
    <glyph glyph-name="uni1EEC" unicode="&#x1eec;" horiz-adv-x="1366" 
d="M754 1577h-84v14q0 38 5 55.5t21 30.5q21 21 37 25q3 6 8 6q17 12 24 18t14 20.5t7 33.5q0 29 -17.5 46t-51.5 17q-66 0 -101 -71q-6 3 -36 16t-35 16q23 55 68.5 85t103.5 30q64 0 108.5 -34.5t44.5 -102.5q0 -89 -73 -129q-28 -11 -35.5 -25.5t-7.5 -44.5v-6zM158 479
v955h108v-955q0 -182 110 -289.5t306 -107.5t307 107.5t111 289.5v955h55q74 0 96.5 31t22.5 112v10h100v-10q0 -114 -39.5 -169.5t-126.5 -66.5v-862q0 -225 -145 -364q-144 -138 -381 -138t-381 138q-143 137 -143 364z" />
    <glyph glyph-name="uni1EED" unicode="&#x1eed;" horiz-adv-x="1155" 
d="M627 1167h-84v15q0 38 5 55.5t21 30.5q21 20 37 24q3 6 8 6q17 12 24 18t14 20.5t7 33.5q0 29 -17.5 46.5t-51.5 17.5q-30 0 -57 -19t-44 -53q-6 3 -23 10.5t-31 13.5t-17 9q23 55 68.5 84.5t103.5 29.5q64 0 108.5 -34.5t44.5 -102.5q0 -89 -73 -129q-28 -11 -35.5 -25
t-7.5 -44v-7zM895 483v541h55q74 0 96.5 31t22.5 112v11h100v-11q0 -116 -41 -171t-131 -64v-932h-102v195q-111 -218 -367 -218q-182 0 -289.5 111.5t-107.5 298.5v637h105v-637q0 -144 80 -227.5t221 -83.5q162 0 260 106.5t98 300.5z" />
    <glyph glyph-name="uni1EEE" unicode="&#x1eee;" horiz-adv-x="1366" 
d="M158 479v955h108v-955q0 -182 110 -289.5t306 -107.5t307 107.5t111 289.5v955h55q74 0 96.5 31t22.5 112v10h100v-10q0 -114 -39.5 -169.5t-126.5 -66.5v-862q0 -225 -145 -364q-144 -138 -381 -138t-381 138q-143 137 -143 364zM492 1604h-91q0 112 41 168.5
t105.5 50.5t136.5 -68q184 -156 184 57h90q0 -166 -88 -206q-86 -39 -194 55q-86 81 -135 68.5t-49 -125.5z" />
    <glyph glyph-name="uni1EEF" unicode="&#x1eef;" horiz-adv-x="1155" 
d="M895 483v541h55q74 0 96.5 31t22.5 112v11h100v-11q0 -116 -41 -171t-131 -64v-932h-102v195q-111 -218 -367 -218q-182 0 -289.5 111.5t-107.5 298.5v637h105v-637q0 -144 80 -227.5t221 -83.5q162 0 260 106.5t98 300.5zM373 1194h-90q0 112 41 168.5t105 51t136 -67.5
q185 -156 185 57h90q0 -167 -88 -207q-87 -40 -195 55q-86 81 -135 68.5t-49 -125.5z" />
    <glyph glyph-name="uni1EF0" unicode="&#x1ef0;" horiz-adv-x="1366" 
d="M602 -258q-1 29 16 49t41.5 24.5t49 0t41.5 -24.5t16 -49q2 -50 -40 -70.5t-84 0t-40 70.5zM158 479v955h108v-955q0 -182 110 -289.5t306 -107.5t307 107.5t111 289.5v955h55q74 0 96.5 31t22.5 112v10h100v-10q0 -114 -39.5 -169.5t-126.5 -66.5v-862q0 -225 -145 -364
q-144 -138 -381 -138t-381 138q-143 137 -143 364z" />
    <glyph glyph-name="uni1EF1" unicode="&#x1ef1;" horiz-adv-x="1155" 
d="M446 -258q-1 29 16 49t41.5 24.5t49 0t41.5 -24.5t16 -49q2 -50 -40 -70.5t-84 0t-40 70.5zM895 483v541h55q74 0 96.5 31t22.5 112v11h100v-11q0 -116 -41 -171t-131 -64v-932h-102v195q-111 -218 -367 -218q-182 0 -289.5 111.5t-107.5 298.5v637h105v-637
q0 -144 80 -227.5t221 -83.5q162 0 260 106.5t98 300.5z" />
    <glyph glyph-name="Ygrave" unicode="&#x1ef2;" horiz-adv-x="1193" 
d="M526 1837l164 -260h-98l-189 260h123zM1051 1434h123l-523 -844v-590h-108v590l-523 844h123l455 -740z" />
    <glyph glyph-name="ygrave" unicode="&#x1ef3;" horiz-adv-x="1044" 
d="M463 1427l164 -260h-99l-188 260h123zM551 113l356 911h111l-443 -1118q-61 -154 -169.5 -240t-235.5 -76v97q97 -7 176 56t129 183l23 56l-471 1042h110z" />
    <glyph glyph-name="uni1EF4" unicode="&#x1ef4;" horiz-adv-x="1193" 
d="M514 -258q-1 29 16 49t41.5 24.5t49 0t41.5 -24.5t16 -49q2 -50 -40 -70.5t-84 0t-40 70.5zM1051 1434h123l-523 -844v-590h-108v590l-523 844h123l455 -740z" />
    <glyph glyph-name="uni1EF5" unicode="&#x1ef5;" horiz-adv-x="1044" 
d="M688 -258q-1 29 16 49t41.5 24.5t49 0t41.5 -24.5t16 -49q2 -50 -40 -70.5t-84 0t-40 70.5zM551 113l356 911h111l-443 -1118q-61 -154 -169.5 -240t-235.5 -76v97q97 -7 176 56t129 183l23 56l-471 1042h110z" />
    <glyph glyph-name="uni1EF6" unicode="&#x1ef6;" horiz-adv-x="1193" 
d="M655 1577h-84v14q0 37 5 55t22 31q21 21 37 25q3 6 8 6q17 12 24 18t14 20.5t7 33.5q0 29 -18 46t-52 17q-65 0 -100 -71q-6 3 -37 16t-35 16q23 55 68.5 85t103.5 30q64 0 109 -34.5t45 -102.5q0 -48 -22 -80.5t-52 -48.5q-28 -11 -35.5 -25.5t-7.5 -44.5v-6zM1051 1434
h123l-523 -844v-590h-108v590l-523 844h123l455 -740z" />
    <glyph glyph-name="uni1EF7" unicode="&#x1ef7;" horiz-adv-x="1044" 
d="M580 1167h-84v15q0 38 5 55.5t21 30.5q21 20 37 24q3 6 8 6q17 12 24 18t14 20.5t7 33.5q0 29 -17.5 46.5t-51.5 17.5q-30 0 -57 -19t-44 -53q-6 3 -23 10.5t-31 13.5t-17 9q23 55 68.5 84.5t103.5 29.5q64 0 108.5 -34.5t44.5 -102.5q0 -89 -73 -129q-28 -11 -35.5 -25
t-7.5 -44v-7zM551 113l356 911h111l-443 -1118q-61 -154 -169.5 -240t-235.5 -76v97q97 -7 176 56t129 183l23 56l-471 1042h110z" />
    <glyph glyph-name="uni1EF8" unicode="&#x1ef8;" horiz-adv-x="1193" 
d="M1051 1434h123l-523 -844v-590h-108v590l-523 844h123l455 -740zM403 1604h-90q0 112 41 168.5t105.5 50.5t136.5 -68q184 -156 184 57h90q0 -166 -88 -206q-86 -39 -194 55q-86 81 -135.5 68.5t-49.5 -125.5z" />
    <glyph glyph-name="uni1EF9" unicode="&#x1ef9;" horiz-adv-x="1044" 
d="M551 113l356 911h111l-443 -1118q-61 -154 -169.5 -240t-235.5 -76v97q97 -7 176 56t129 183l23 56l-471 1042h110zM340 1194h-90q0 112 41 168.5t105 51t136 -67.5q185 -156 185 57h90q0 -167 -88 -207q-87 -40 -195 55q-86 81 -135 68.5t-49 -125.5z" />
    <glyph glyph-name="endash" unicode="&#x2013;" horiz-adv-x="1378" 
d="M1202 584h-1024v98h1024v-98z" />
    <glyph glyph-name="emdash" unicode="&#x2014;" horiz-adv-x="1583" 
d="M1407 584h-1229v98h1229v-98z" />
    <glyph glyph-name="quoteleft" unicode="&#x2018;" horiz-adv-x="456" 
d="M252 1008h-127l111 426h94z" />
    <glyph glyph-name="quoteright" unicode="&#x2019;" horiz-adv-x="456" 
d="M205 1434h127l-111 -426h-94z" />
    <glyph glyph-name="quotesinglbase" unicode="&#x201a;" horiz-adv-x="456" 
d="M205 139h127l-111 -426h-94z" />
    <glyph glyph-name="quotedblleft" unicode="&#x201c;" horiz-adv-x="716" 
d="M252 1008h-127l111 426h94zM512 1008h-127l111 426h94z" />
    <glyph glyph-name="quotedblright" unicode="&#x201d;" horiz-adv-x="716" 
d="M205 1434h127l-111 -426h-94zM465 1434h127l-111 -426h-94z" />
    <glyph glyph-name="quotedblbase" unicode="&#x201e;" horiz-adv-x="716" 
d="M205 139h127l-111 -426h-94zM465 139h127l-111 -426h-94z" />
    <glyph glyph-name="dagger" unicode="&#x2020;" horiz-adv-x="968" 
d="M537 1079h303v-98h-303v-981h-105v981h-303v98h303v355h105v-355z" />
    <glyph glyph-name="daggerdbl" unicode="&#x2021;" horiz-adv-x="968" 
d="M840 1079v-98h-303v-528h303v-99h-303v-354h-105v354h-303v99h303v528h-303v98h303v355h105v-355h303z" />
    <glyph glyph-name="bullet" unicode="&#x2022;" horiz-adv-x="573" 
d="M289 539q-75 0 -127.5 52.5t-52.5 127.5q0 73 52.5 124.5t127.5 51.5q73 0 124.5 -51.5t51.5 -124.5q0 -75 -51.5 -127.5t-124.5 -52.5z" />
    <glyph glyph-name="ellipsis" unicode="&#x2026;" horiz-adv-x="1214" 
d="M285 6q-26 -26 -65.5 -26t-65.5 26t-26 65.5t26 65.5t65.5 26t65.5 -26t26 -65.5t-26 -65.5zM674 6q-26 -26 -65.5 -26t-65.5 26t-26 65.5t26 65.5t65.5 26t65.5 -26t26 -65.5t-26 -65.5zM1063 6q-26 -26 -65.5 -26t-65.5 26t-26 65.5t26 65.5t65.5 26t65.5 -26t26 -65.5
t-26 -65.5z" />
    <glyph glyph-name="perthousand" unicode="&#x2030;" horiz-adv-x="2203" 
d="M442 846q-137 0 -225 88t-88 217t88 217t225 88q136 0 224 -88q90 -90 90 -217q0 -129 -88 -217t-226 -88zM291 999q59 -59 151 -59q93 0 152 59q61 61 61 152t-61 149q-59 62 -152 62q-92 0 -151 -62q-60 -60 -60 -149t60 -152zM274 145l-67 39l973 1094l69 -39z
M1245 66q-89 -89 -223 -89q-136 0 -225 89q-88 88 -88 217t88 217t225 88q135 0 223 -88q90 -90 90 -217t-90 -217zM1982 66q-89 -89 -223 -89q-136 0 -225 89q-88 88 -88 217t88 217t225 88q135 0 223 -88q91 -91 91 -217t-91 -217zM870 131q59 -59 152 -59t152 59
q61 61 61 152t-61 149q-59 62 -152 62t-152 -62q-59 -59 -59 -149t59 -152zM1608 131q59 -59 151 -59q93 0 152 59q61 61 61 152t-61 149q-59 62 -152 62q-92 0 -151 -62q-60 -60 -60 -149t60 -152z" />
    <glyph glyph-name="guilsinglleft" unicode="&#x2039;" horiz-adv-x="673" 
d="M383 987h127l-219 -354l219 -354h-127l-219 354z" />
    <glyph glyph-name="guilsinglright" unicode="&#x203a;" horiz-adv-x="673" 
d="M164 987h127l219 -354l-219 -354h-127l219 354z" />
    <glyph glyph-name="fraction" unicode="&#x2044;" horiz-adv-x="464" 
d="M696 1434l-833 -1434h-94l831 1434h96z" />
    <glyph glyph-name="Euro" unicode="&#x20ac;" horiz-adv-x="1232" 
d="M752 82q241 0 329 223l90 -51q-55 -132 -163 -204.5t-256 -72.5q-219 0 -360 152.5t-177 419.5h-168v92h160q-2 16 -2 76q0 70 2 88h-160v90h170q36 262 176.5 411.5t358.5 149.5q148 0 256.5 -71.5t162.5 -202.5l-90 -52q-43 106 -128.5 164t-200.5 58
q-168 0 -281 -120.5t-145 -336.5h548v-90h-559q-2 -18 -2 -88q0 -60 2 -76h559v-92h-550q32 -222 144.5 -344.5t283.5 -122.5z" />
    <glyph glyph-name="uni20BD" unicode="&#x20bd;" horiz-adv-x="1181" 
d="M702 588h-380v-213h544v-90h-544v-285h-111v285h-184v90h184v213h-184v102h184v744h491q174 0 299 -125t125 -299t-125 -299q-126 -123 -299 -123zM702 1331h-380v-641h380q132 0 224 92q92 95 92 228q0 132 -92 227q-91 94 -224 94z" />
    <glyph glyph-name="uni2116" unicode="&#x2116;" horiz-adv-x="2086" 
d="M1692 856q-130 0 -219 86q-89 89 -89 213t89 213q88 88 219 88t219 -88t88 -213q0 -128 -88 -213q-86 -86 -219 -86zM1120 201v1233h109v-1434h-96l-846 1233v-1233h-109v1434h94zM1692 950q89 0 147 58q57 57 57 147q0 89 -59 148t-145 59q-88 0 -146.5 -59.5
t-58.5 -147.5q0 -87 59 -146t146 -59zM1976 594h-567v100h567v-100z" />
    <glyph glyph-name="trademark" unicode="&#x2122;" horiz-adv-x="978" 
d="M102 1434h310v-64h-121v-346h-68v346h-121v64zM672 1214l137 220h68v-410h-68v293l-133 -213h-8l-133 213v-293h-68v410h68z" />
    <glyph glyph-name="estimated" unicode="&#x212e;" horiz-adv-x="1705" 
d="M1612 717q0 -31 -31 -31h-1147q-31 0 -31 -31v-393q0 -24 15 -39q173 -182 477 -182q298 0 473 199q15 18 37 18h76q20 0 26 -13t-8 -26q-224 -239 -604 -239q-364 0 -580 210q-219 213 -219 527q0 313 211 524q213 213 547 213q332 0 545 -213t213 -524zM1305 778v393
q0 24 -15 39q-174 183 -436 183t-436 -183q-15 -15 -15 -39v-393q0 -30 31 -30h840q31 0 31 30z" />
    <glyph glyph-name="oneeighth" unicode="&#x215b;" horiz-adv-x="1669" 
d="M356 1434v-820h-98v709l-205 -68l-26 86l252 93h77zM272 0l832 1434h96l-833 -1434h-95zM1464 430q144 -64 144 -217q0 -108 -79.5 -173t-209.5 -65t-210.5 65t-80.5 173q0 73 39 129.5t107 87.5q-119 64 -119 184q0 104 74.5 167t189.5 63q113 0 187.5 -63t74.5 -167
q0 -119 -117 -184zM1319 752q-75 0 -120.5 -37.5t-45.5 -100.5t46 -101t120 -38q73 0 118.5 38t45.5 101t-45 100.5t-119 37.5zM1319 381q-88 0 -140.5 -42t-52.5 -114t52.5 -113.5t140.5 -41.5t139 41.5t51 113.5q0 71 -52.5 113.5t-137.5 42.5z" />
    <glyph glyph-name="threeeighths" unicode="&#x215c;" horiz-adv-x="1880" 
d="M631 850q0 -116 -79.5 -188t-211.5 -72q-207 0 -283 166l82 47q52 -119 201 -119q92 0 142 45.5t50 120.5t-51.5 121.5t-140.5 46.5h-8l-47 72l198 249h-401v95h516v-95l-197 -243q108 -13 169 -80t61 -166zM483 0l832 1434h96l-833 -1434h-95zM1675 430
q144 -64 144 -217q0 -108 -79.5 -173t-209.5 -65t-210.5 65t-80.5 173q0 73 38.5 129.5t106.5 87.5q-118 63 -118 184q0 104 74.5 167t189.5 63q113 0 187.5 -63t74.5 -167q0 -119 -117 -184zM1530 752q-75 0 -120.5 -37.5t-45.5 -100.5t46 -101t120 -38q73 0 118.5 38
t45.5 101t-45 100.5t-119 37.5zM1530 381q-88 0 -140.5 -42t-52.5 -114t52.5 -113.5t140.5 -41.5t139 41.5t51 113.5q0 71 -52.5 113.5t-137.5 42.5z" />
    <glyph glyph-name="fiveeighths" unicode="&#x215d;" horiz-adv-x="1859" 
d="M616 850q0 -117 -78 -188.5t-208 -71.5q-202 0 -279 164l84 47q53 -117 195 -117q87 0 137.5 45t50.5 121q0 80 -50 126t-138 46h-242l31 412h465v-93h-381l-15 -225h144q127 0 205.5 -73.5t78.5 -192.5zM463 0l831 1434h97l-834 -1434h-94zM1655 430q143 -64 143 -217
q0 -108 -79.5 -173t-209.5 -65t-210 65t-80 173q0 73 38.5 129.5t106.5 87.5q-119 64 -119 184q0 104 74.5 167t189.5 63q113 0 188 -63t75 -167q0 -119 -117 -184zM1509 752q-75 0 -120.5 -37.5t-45.5 -100.5t46 -101t120 -38q73 0 118.5 38t45.5 101t-45 100.5t-119 37.5z
M1509 381q-88 0 -140 -42t-52 -114t52 -113.5t140 -41.5t139.5 41.5t51.5 113.5q0 71 -52.5 113.5t-138.5 42.5z" />
    <glyph glyph-name="seveneighths" unicode="&#x215e;" horiz-adv-x="1798" 
d="M35 1434h545v-80l-318 -740h-104l313 725h-436v95zM401 0l832 1434h96l-833 -1434h-95zM1593 430q144 -64 144 -217q0 -108 -79.5 -173t-209.5 -65t-210.5 65t-80.5 173q0 73 39 129.5t107 87.5q-119 64 -119 184q0 104 74.5 167t189.5 63q113 0 187.5 -63t74.5 -167
q0 -119 -117 -184zM1448 752q-75 0 -120.5 -37.5t-45.5 -100.5t46 -101t120 -38q73 0 118.5 38t45.5 101t-45 100.5t-119 37.5zM1448 381q-88 0 -140.5 -42t-52.5 -114t52.5 -113.5t140.5 -41.5t139 41.5t51 113.5q0 71 -52.5 113.5t-137.5 42.5z" />
    <glyph glyph-name="arrowleft" unicode="&#x2190;" horiz-adv-x="1693" 
d="M319 766h1244v-98h-1244l566 -566h-142l-614 615l614 614h142z" />
    <glyph glyph-name="arrowup" unicode="&#x2191;" horiz-adv-x="1488" 
d="M743 1434l615 -615v-141l-561 561v-1239h-105v1241l-563 -563v141z" />
    <glyph glyph-name="arrowright" unicode="&#x2192;" horiz-adv-x="1693" 
d="M807 1331h141l615 -614l-615 -615h-141l565 566h-1243v98h1243z" />
    <glyph glyph-name="arrowdown" unicode="&#x2193;" horiz-adv-x="1488" 
d="M797 1434v-1239l561 561v-142l-615 -614l-614 614v142l563 -563v1241h105z" />
    <glyph glyph-name="arrowboth" unicode="&#x2194;" horiz-adv-x="2115" 
d="M1341 1223h142l504 -506l-504 -506h-142l455 457h-1477l455 -457h-141l-504 506l504 506h141l-455 -457h1477z" />
    <glyph glyph-name="arrowupdn" unicode="&#x2195;" horiz-adv-x="1284" 
d="M1147 1141v-142l-453 451v-1466l453 450v-141l-506 -504l-504 504v141l453 -452v1470l-453 -453v142l504 504z" />
    <glyph glyph-name="uni2196" unicode="&#x2196;" horiz-adv-x="1308" 
d="M301 1104l879 -877l-74 -75l-877 876v-792l-100 98v868h868l101 -98h-797z" />
    <glyph glyph-name="uni2197" unicode="&#x2197;" horiz-adv-x="1308" 
d="M213 1104l98 98h869v-868l-99 -98v794l-876 -878l-76 75l879 877h-795z" />
    <glyph glyph-name="uni2198" unicode="&#x2198;" horiz-adv-x="1308" 
d="M1081 354v795l99 -98v-869h-869l-98 99h795l-879 876l76 76z" />
    <glyph glyph-name="uni2199" unicode="&#x2199;" horiz-adv-x="1308" 
d="M1106 1233l74 -76l-879 -876h797l-101 -99h-868v869l100 98v-793z" />
    <glyph glyph-name="partialdiff" unicode="&#x2202;" horiz-adv-x="1181" 
d="M477 1456q247 0 410 -205q166 -202 166 -534q0 -347 -148 -545q-145 -195 -377 -195q-193 0 -307 123q-112 121 -112 310q0 212 122 340q125 131 342 131q210 0 375 -115q-9 248 -137 420q-126 170 -334 170q-144 0 -260 -70v100q110 70 260 70zM528 76
q184 0 295.5 155.5t122.5 427.5q-165 121 -373 121q-167 0 -263.5 -97.5t-96.5 -272.5q0 -150 84 -242t231 -92z" />
    <glyph glyph-name="emptyset" unicode="&#x2205;" horiz-adv-x="1673" 
d="M1522 1475l-179 -215q236 -217 236 -543q0 -307 -217 -524q-219 -216 -524 -216q-246 0 -439 144l-135 -162h-112l180 217q-236 217 -236 541q0 308 217 522q217 217 525 217q246 0 438 -143l133 162h113zM190 717q0 -279 201 -471l826 997q-169 123 -379 123
q-269 0 -459 -190q-189 -189 -189 -459zM838 68q268 0 456 188q189 192 189 461q0 278 -199 471l-827 -998q168 -122 381 -122z" />
    <glyph glyph-name="product" unicode="&#x220f;" horiz-adv-x="1310" 
d="M281 -410h-103v1844h955v-1844h-103v1743h-749v-1743z" />
    <glyph glyph-name="summation" unicode="&#x2211;" horiz-adv-x="1107" 
d="M1038 -410h-921v101l518 841l-490 799v103h863v-101h-746l492 -801l-518 -841h802v-101z" />
    <glyph glyph-name="minus" unicode="&#x2212;" horiz-adv-x="1105" 
d="M977 668h-848v98h848v-98z" />
    <glyph glyph-name="radical" unicode="&#x221a;" horiz-adv-x="1308" 
d="M715 0h-111l-303 514h-172v100h231l287 -491l504 1515h111z" />
    <glyph glyph-name="infinity" unicode="&#x221e;" horiz-adv-x="1650" 
d="M1208 1038q139 0 228 -92q92 -89 92 -229t-92 -232q-90 -90 -228 -90q-111 0 -199.5 60.5t-183.5 181.5q-94 -121 -182 -181.5t-201 -60.5q-136 0 -229 90q-90 93 -90 232t90 229q92 92 229 92q114 0 201.5 -60t181.5 -181q94 121 183 181t200 60zM444 489q89 0 165 57.5
t157 170.5q-81 112 -157 169.5t-165 57.5q-97 0 -158 -63.5t-61 -163.5t61 -164t158 -64zM1208 489q97 0 158 64t61 164t-61 163.5t-158 63.5q-87 0 -162 -56.5t-159 -170.5q85 -115 159.5 -171.5t161.5 -56.5z" />
    <glyph glyph-name="integral" unicode="&#x222b;" horiz-adv-x="892" 
d="M0 -416v103q106 -42 177 -0.5t91 157.5l230 1338q29 170 132 236.5t263 19.5v-101q-252 81 -293 -157l-227 -1338q-29 -168 -129.5 -235.5t-243.5 -22.5z" />
    <glyph glyph-name="approxequal" unicode="&#x2248;" horiz-adv-x="1202" 
d="M578 838q-284 186 -355 -82l-94 45q16 55 43.5 99t71.5 74.5t98 38.5t127.5 -13.5t155.5 -75.5q284 -187 352 82l94 -45q-16 -55 -42.5 -98.5t-69.5 -74.5t-96.5 -39t-127 13.5t-157.5 75.5zM223 428l-94 45q16 55 43.5 99t71.5 74.5t98 38.5t127.5 -13.5t155.5 -75.5
q284 -187 352 82l94 -45q-16 -55 -42.5 -98.5t-69.5 -74.5t-96.5 -39t-127 13.5t-157.5 75.5q-284 186 -355 -82z" />
    <glyph glyph-name="notequal" unicode="&#x2260;" horiz-adv-x="1099" 
d="M969 971v-99h-305l-140 -311h445v-98h-490l-143 -316h-82l143 316h-268v98h313l140 311h-453v99h498l143 315h82l-143 -315h260z" />
    <glyph glyph-name="lessequal" unicode="&#x2264;" horiz-adv-x="1079" 
d="M131 891l819 323v-114l-692 -260l692 -260v-115l-819 323v103zM950 219h-819v98h819v-98z" />
    <glyph glyph-name="greaterequal" unicode="&#x2265;" horiz-adv-x="1079" 
d="M129 1100v114l819 -323v-103l-819 -323v115l692 260zM948 219h-819v98h819v-98z" />
    <glyph glyph-name="lozenge" unicode="&#x25ca;" horiz-adv-x="1101" 
d="M604 0h-106l-381 717l381 717h106l381 -717zM227 717l324 -604l323 604l-323 604z" />
    <glyph glyph-name="NULL" horiz-adv-x="0" 
 />
    <glyph glyph-name="CR" horiz-adv-x="681" 
 />
    <glyph glyph-name="i.loclTRK" horiz-adv-x="417" 
d="M209 1174q-41 0 -68.5 27.5t-27.5 68.5t27.5 68.5t68.5 27.5q39 0 66.5 -27.5t27.5 -68.5t-27.5 -68.5t-66.5 -27.5zM260 0h-102v1024h102v-1024z" />
    <glyph glyph-name="f_f_j" horiz-adv-x="1597" 
d="M889 1024h551v-1141q0 -165 -88 -246.5t-252 -68.5v98q237 -24 237 217v1041h-448v-924h-105v924h-448v-924h-105v924h-176v100h176v55q0 193 106.5 291.5t303.5 85.5v-98q-305 24 -305 -279v-55h448v76q0 377 410 377q81 0 199 -23v-94q-102 18 -199 18
q-160 0 -232.5 -65.5t-72.5 -212.5v-76z" />
    <glyph glyph-name="f_j" horiz-adv-x="1044" 
d="M336 1024h553v-1141q0 -164 -89 -246t-253 -69v98q237 -24 237 217v1041h-448v-924h-105v924h-176v100h176v55q0 377 410 377q86 0 199 -22v-95q-108 19 -199 19q-159 0 -232 -66t-73 -213v-55z" />
    <glyph glyph-name="uni0414.loclBGR" horiz-adv-x="1439" 
d="M778 1434l477 -1332h131v-376h-110v274h-1112v-274h-109v376h131l478 1332h114zM721 1300l-420 -1198h840z" />
    <glyph glyph-name="uni041B.loclBGR" horiz-adv-x="1239" 
d="M27 0l534 1434h115l534 -1434h-116l-476 1292l-473 -1292h-118z" />
    <glyph glyph-name="uni0424.loclBGR" horiz-adv-x="1742" 
d="M926 -20v-185h-109v185q-318 15 -520 217q-201 201 -201 520t201 520q202 202 520 217v184h109v-184q318 -15 520 -217q201 -201 201 -520t-201 -520q-202 -202 -520 -217zM817 78v1278q-279 -15 -446 -191q-166 -172 -166 -448t166 -451q167 -173 446 -188zM926 1356
v-1278q280 15 446 190t166 449q0 273 -166 448q-167 176 -446 191z" />
    <glyph glyph-name="uni0414.ss01" horiz-adv-x="1413" 
d="M1184 1434v-1332h151v-102h-1298v102h115q147 166 147 514v818h885zM408 1331v-717q0 -329 -127 -512h794v1229h-667z" />
    <glyph glyph-name="uni0426.ss01" horiz-adv-x="1413" 
d="M1188 1434v-1332h149v-102h-1159v1434h109v-1332h792v1332h109z" />
    <glyph glyph-name="uni0429.ss01" horiz-adv-x="2007" 
d="M1782 1434v-1332h149v-102h-1753v1434h109v-1332h639v1332h108v-1332h639v1332h109z" />
    <glyph glyph-name="uni0414.loclBGR.ss01" horiz-adv-x="1439" 
d="M778 1434l477 -1332h131v-102h-1331v102h131l478 1332h114zM721 1300l-420 -1198h840z" />
    <glyph glyph-name="uni0432.loclBGR" horiz-adv-x="1173" 
d="M797 823q139 -37 213.5 -144t74.5 -269q0 -204 -122.5 -318.5t-341.5 -114.5t-341 130t-122 364v487q0 233 116 365.5t320 132.5q166 0 264 -94t98 -238q0 -172 -159 -301zM594 1358q-155 0 -244.5 -107.5t-89.5 -292.5v-180l236 47q94 17 172 17q184 120 184 282
q0 100 -71 167t-187 67zM981 410q0 187 -129.5 273t-355.5 42l-236 -47v-207q0 -186 95.5 -290.5t265.5 -104.5t265 88t95 246z" />
    <glyph glyph-name="uni0433.loclBGR" horiz-adv-x="937" 
d="M768 266l88 -51q-43 -108 -145 -173t-246 -65q-161 0 -264 80q-103 83 -103 209q0 99 59 164.5t156 93.5q29 9 89 24t93.5 24t80 28t71.5 38.5t43.5 51t18.5 70.5q0 85 -66.5 136.5t-163.5 51.5t-170.5 -44t-105.5 -122l-86 49q43 100 138.5 158t223.5 58q146 0 240 -82
t94 -205q0 -76 -33.5 -129.5t-87.5 -82.5t-119 -50t-130 -38t-119 -38t-87.5 -60t-33.5 -96q0 -90 73 -140t189 -50q111 0 191.5 51.5t111.5 138.5z" />
    <glyph glyph-name="uni0434.loclBGR" horiz-adv-x="1327" 
d="M1067 786v238h102v-975q0 -222 -145 -352q-144 -129 -365 -129q-175 0 -300 64.5t-183 181.5l90 51q99 -199 393 -199q190 0 299 103t109 280v189q-63 -122 -179 -191.5t-261 -69.5q-220 0 -377 154q-154 157 -154 381q0 225 154 379q156 156 377 156q145 0 261 -69.5
t179 -191.5zM324 203q127 -127 309 -127q180 0 307 127t127 309t-127 309t-307 127q-182 0 -309 -127q-125 -125 -125 -309t125 -309z" />
    <glyph glyph-name="uni0436.loclBGR" horiz-adv-x="1357" 
d="M827 532l484 -532h-127l-453 502v-502h-104v502l-453 -502h-127l485 532l-464 492h127l432 -463v873h104v-873l432 463h127z" />
    <glyph glyph-name="uni0438.loclBGR" horiz-adv-x="1155" 
d="M895 483v541h102v-1024h-102v195q-111 -218 -367 -218q-182 0 -289.5 111.5t-107.5 298.5v637h105v-637q0 -144 80 -227.5t221 -83.5q162 0 260 106.5t98 300.5z" />
    <glyph glyph-name="uni0439.loclBGR" horiz-adv-x="1155" 
d="M301 1292h518v-90h-518v90zM895 483v541h102v-1024h-102v195q-111 -218 -367 -218q-182 0 -289.5 111.5t-107.5 298.5v637h105v-637q0 -144 80 -227.5t221 -83.5q162 0 260 106.5t98 300.5z" />
    <glyph glyph-name="uni043A.loclBGR" horiz-adv-x="989" 
d="M371 532l571 -532h-139l-543 504v-504h-102v1434h102v-875l518 465h144z" />
    <glyph glyph-name="uni043B.loclBGR" horiz-adv-x="1046" 
d="M586 1024l432 -1024h-109l-387 918l-385 -918h-110l434 1024h125z" />
    <glyph glyph-name="uni043F.loclBGR" horiz-adv-x="1155" 
d="M627 1047q182 0 289.5 -111.5t107.5 -298.5v-637h-104v637q0 144 -80 227.5t-222 83.5q-162 0 -260 -106.5t-98 -300.5v-541h-102v1024h102v-195q111 218 367 218z" />
    <glyph glyph-name="uni0442.loclBGR" horiz-adv-x="1755" 
d="M1251 1047q170 0 271.5 -106t101.5 -292v-649h-102v649q0 141 -74 220t-199 79q-141 0 -224 -96.5t-83 -280.5v-571h-102v649q0 142 -70 220.5t-192 78.5q-140 0 -229 -98.5t-89 -278.5v-571h-102v1024h102v-176q108 199 330 199q113 0 197 -55t122 -154
q53 102 143.5 155.5t198.5 53.5z" />
    <glyph glyph-name="uni0446.loclBGR" horiz-adv-x="1216" 
d="M1081 100h68v-374h-105v276q-69 7 -110 57t-41 125v6q-115 -213 -365 -213q-182 0 -289.5 111.5t-107.5 298.5v637h102v-637q0 -143 81 -227t223 -84q162 0 259 106.5t97 300.5v541h104v-840q0 -38 23 -61t61 -23z" />
    <glyph glyph-name="uni0448.loclBGR" horiz-adv-x="1755" 
d="M1495 453v571h102v-1024h-102v176q-108 -199 -330 -199q-113 0 -197 55t-122 154q-53 -102 -143.5 -155.5t-198.5 -53.5q-170 0 -271.5 106t-101.5 292v649h102v-649q0 -141 74 -220t199 -79q141 0 224 96.5t83 280.5v571h102v-649q0 -141 70.5 -220t192.5 -79
q140 0 228.5 98.5t88.5 278.5z" />
    <glyph glyph-name="uni0449.loclBGR" horiz-adv-x="1818" 
d="M1683 100h66v-374h-102v276q-68 8 -109.5 54.5t-42.5 119.5q-108 -199 -330 -199q-113 0 -197 55t-122 154q-53 -102 -143.5 -155.5t-198.5 -53.5q-170 0 -271.5 106t-101.5 292v649h102v-649q0 -141 74 -220t199 -79q141 0 224 96.5t83 280.5v571h102v-649
q0 -141 70.5 -220t192.5 -79q140 0 228.5 98.5t88.5 278.5v571h102v-840q0 -38 24 -61t62 -23z" />
    <glyph glyph-name="uni044C.loclBGR" horiz-adv-x="983" 
d="M233 680h289q183 0 288 -91t105 -251q0 -152 -110 -256q-111 -105 -283 -105q-181 0 -286 100t-105 261v686h102v-344zM522 76q126 0 207 78q82 76 82 184q0 112 -77.5 177t-211.5 65h-289v-242q0 -113 78.5 -187.5t210.5 -74.5z" />
    <glyph glyph-name="uni044A.loclBGR" horiz-adv-x="1157" 
d="M403 680h289q183 0 288 -91t105 -251q0 -152 -110 -256q-111 -105 -283 -105q-181 0 -286 100t-105 261v586h-301v100h403v-344zM692 76q126 0 207 78q82 76 82 184q0 112 -77.5 177t-211.5 65h-289v-242q0 -113 78.5 -187.5t210.5 -74.5z" />
    <glyph glyph-name="uni044E.loclBGR" horiz-adv-x="1644" 
d="M1020 1047q223 0 379 -156q157 -154 157 -379q0 -224 -157 -381q-157 -154 -379 -154q-213 0 -363 138t-168 348h-229v-463h-102v1434h102v-873h229q18 208 168 346q152 140 363 140zM711 203q127 -127 309 -127q180 0 307 127q125 125 125 309t-125 309
q-127 127 -307 127q-182 0 -309 -127q-125 -125 -125 -309t125 -309z" />
    <glyph glyph-name="zero.sinf" horiz-adv-x="839" 
d="M678 -233q-94 -119 -258 -119t-258 119t-94 315t94 315t258 119t258 -119t94 -315t-94 -315zM233 -168q69 -90 187 -90q117 0 186 90q68 89 68 250t-68 250q-69 90 -186 90q-118 0 -187 -90q-67 -88 -67 -250t67 -250z" />
    <glyph glyph-name="one.sinf" horiz-adv-x="487" 
d="M27 399l252 93h77v-820h-98v709l-205 -68z" />
    <glyph glyph-name="two.sinf" horiz-adv-x="702" 
d="M633 -328h-563v80l358 334q90 81 90 184q0 67 -46 109.5t-124 42.5q-142 0 -194 -135l-82 45q32 87 104.5 135.5t171.5 48.5q120 0 194 -70t74 -176q0 -133 -120 -247l-281 -256h418v-95z" />
    <glyph glyph-name="three.sinf" horiz-adv-x="706" 
d="M598 397l-197 -243q108 -13 169 -80t61 -166q0 -116 -79.5 -188t-211.5 -72q-207 0 -283 166l82 47q52 -119 201 -119q92 0 142 45.5t50 120.5t-51.5 121.5t-140.5 46.5h-8l-47 71l198 250h-401v95h516v-95z" />
    <glyph glyph-name="four.sinf" horiz-adv-x="729" 
d="M569 -72h111v-92h-111v-164h-98v164h-436v92l307 564h107l-308 -564h330v213h98v-213z" />
    <glyph glyph-name="five.sinf" horiz-adv-x="665" 
d="M195 174h143q127 0 206 -73.5t79 -192.5q0 -117 -78.5 -188.5t-208.5 -71.5q-202 0 -279 164l84 47q53 -117 195 -117q87 0 137.5 45t50.5 121q0 80 -50 126t-138 46h-242l31 412h465v-93h-381z" />
    <glyph glyph-name="six.sinf" horiz-adv-x="686" 
d="M342 205q128 0 211 -80q86 -77 86 -197t-86 -200q-83 -80 -211 -80q-125 0 -211 80q-84 81 -84 200q0 80 39 142l272 422h117l-196 -293q30 6 63 6zM342 -258q88 0 143.5 52t55.5 134t-55.5 132.5t-143.5 50.5q-87 0 -142 -51t-55 -132q0 -82 55.5 -134t141.5 -52z" />
    <glyph glyph-name="seven.sinf" horiz-adv-x="632" 
d="M35 397v95h545v-80l-318 -740h-104l313 725h-436z" />
    <glyph glyph-name="eight.sinf" horiz-adv-x="700" 
d="M496 102q143 -64 143 -217q0 -108 -79.5 -172.5t-209.5 -64.5t-210.5 64.5t-80.5 172.5q0 73 39 129.5t107 87.5q-119 64 -119 185q0 104 74.5 166.5t189.5 62.5q113 0 187.5 -62.5t74.5 -166.5q0 -121 -116 -185zM350 424q-75 0 -120.5 -37t-45.5 -100t46 -101.5
t120 -38.5q72 0 118 38.5t46 101.5t-45 100t-119 37zM350 53q-88 0 -140 -41.5t-52 -113.5t52 -114t140 -42t139.5 42t51.5 114q0 71 -52.5 113t-138.5 42z" />
    <glyph glyph-name="nine.sinf" horiz-adv-x="686" 
d="M639 236q0 -80 -39 -142l-272 -422h-117l197 293q-30 -6 -64 -6q-126 0 -213 78q-84 81 -84 199q0 119 84 200q86 80 213 80q126 0 209 -80q86 -80 86 -200zM344 53q87 0 142 51t55 132q0 82 -55.5 134t-141.5 52q-88 0 -143.5 -52t-55.5 -134t55.5 -132.5t143.5 -50.5z
" />
    <glyph glyph-name="zero.tf" horiz-adv-x="1167" 
d="M979 178q-142 -201 -395 -201q-254 0 -396 201q-141 200 -141 539t141 538q142 201 396 201q253 0 395 -201q141 -199 141 -538t-141 -539zM270 248q114 -166 314 -166q199 0 313 166q113 168 113 469q0 302 -113 467q-113 168 -313 168q-201 0 -314 -168
q-112 -164 -112 -467q0 -302 112 -469z" />
    <glyph glyph-name="one.tf" horiz-adv-x="1167" 
d="M676 1434v-1330h434v-104h-1024v104h481v1211l-331 -105l-29 95l377 129h92z" />
    <glyph glyph-name="two.tf" horiz-adv-x="1167" 
d="M1085 0h-983v98l547 477q150 131 221.5 233t71.5 206q0 155 -97 246.5t-263 91.5q-127 0 -224.5 -65t-144.5 -181l-90 53q60 139 183 218t276 79q203 0 336 -121t133 -321q0 -130 -81.5 -253.5t-244.5 -260.5l-469 -396h829v-104z" />
    <glyph glyph-name="three.tf" horiz-adv-x="1167" 
d="M1012 1331l-377 -491q204 -19 324 -131.5t120 -294.5q0 -204 -143 -320q-144 -117 -371 -117q-178 0 -311 80t-184 219l92 54q36 -113 144 -180.5t259 -67.5q189 0 297.5 88.5t108.5 243.5t-108.5 243t-297.5 88v3l-2 -3h-28l-48 72l396 514h-772v103h901v-103z" />
    <glyph glyph-name="four.tf" horiz-adv-x="1167" 
d="M928 403h184v-102h-184v-301h-109v301h-772v102l545 1031h119l-545 -1031h653v422h109v-422z" />
    <glyph glyph-name="five.tf" horiz-adv-x="1167" 
d="M279 850h305q215 0 356 -117t141 -319q0 -203 -141 -320t-356 -117q-174 0 -308.5 81.5t-183.5 220.5l90 53q37 -116 144 -183t258 -67q178 0 283.5 89.5t105.5 242.5t-105.5 242t-283.5 89h-420l47 689h817v-103h-717z" />
    <glyph glyph-name="six.tf" horiz-adv-x="1167" 
d="M569 922q235 0 375 -131q141 -132 141 -342q0 -211 -141 -343q-141 -129 -375 -129q-231 0 -372 129q-142 133 -142 343q0 174 99 294l497 691h129l-385 -535q90 23 174 23zM569 82q190 0 299 100.5t109 266.5q0 168 -109 268t-299 100q-189 0 -297 -100t-108 -268
q0 -166 108.5 -266.5t296.5 -100.5z" />
    <glyph glyph-name="seven.tf" horiz-adv-x="1167" 
d="M82 1331v103h989v-103l-604 -1331h-113l604 1331h-876z" />
    <glyph glyph-name="eight.tf" horiz-adv-x="1167" 
d="M827 741q124 -48 193.5 -142t69.5 -216q0 -189 -136.5 -297.5t-369.5 -108.5t-369.5 108.5t-136.5 297.5q0 122 69 216.5t193 141.5q-100 48 -156.5 133.5t-56.5 194.5q0 182 127 285q129 102 330 102t327 -102q129 -102 129 -285q0 -109 -56.5 -194.5t-156.5 -133.5z
M236 1069q0 -129 94 -205t254 -76t254 76t94 205q0 134 -93 208.5t-255 74.5t-255 -74.5t-93 -208.5zM979 383q0 141 -103 220t-292 79t-292.5 -79t-103.5 -220q0 -142 103.5 -221.5t292.5 -79.5t292 79.5t103 221.5z" />
    <glyph glyph-name="nine.tf" horiz-adv-x="1167" 
d="M1112 985q0 -176 -98 -295l-498 -690h-129l385 535q-90 -23 -174 -23q-235 0 -375 131q-141 132 -141 342q0 211 141 340q140 131 375 131q233 0 373 -131q141 -129 141 -340zM190 985q0 -168 109 -268.5t299 -100.5q189 0 297.5 100.5t108.5 268.5q0 166 -109 266.5
t-297 100.5q-190 0 -299 -100.5t-109 -266.5z" />
    <glyph glyph-name="zero.dnom" horiz-adv-x="839" 
d="M678 94q-94 -119 -258 -119t-258 119t-94 316q0 196 94 315t258 119t258 -119t94 -315q0 -197 -94 -316zM233 158q67 -88 187 -88q119 0 186 88q68 89 68 252q0 160 -68 249q-69 91 -186 91q-118 0 -187 -91q-67 -88 -67 -249q0 -164 67 -252z" />
    <glyph glyph-name="one.dnom" horiz-adv-x="503" 
d="M27 727l252 92h77v-819h-98v709l-205 -68z" />
    <glyph glyph-name="two.dnom" horiz-adv-x="700" 
d="M633 0h-563v80l358 334q90 81 90 184q0 67 -46 109.5t-124 42.5q-141 0 -194 -136l-82 45q33 87 105 136t171 49q120 0 194 -70t74 -176q0 -134 -120 -248l-281 -256h418v-94z" />
    <glyph glyph-name="three.dnom" horiz-adv-x="714" 
d="M598 725l-197 -244q108 -13 169 -79.5t61 -165.5q0 -117 -79.5 -189t-211.5 -72q-207 0 -283 166l82 47q52 -118 201 -118q92 0 142 45.5t50 120.5t-51.5 121t-140.5 46h-8l-47 72l198 250h-401v94h516v-94z" />
    <glyph glyph-name="four.dnom" horiz-adv-x="729" 
d="M569 256h111v-92h-111v-164h-98v164h-436v92l307 563h107l-308 -563h330v213h98v-213z" />
    <glyph glyph-name="five.dnom" horiz-adv-x="694" 
d="M188 502h144q127 0 205.5 -73.5t78.5 -192.5q0 -118 -78 -189.5t-208 -71.5q-202 0 -279 164l84 47q52 -116 195 -116q87 0 137.5 45t50.5 121q0 80 -50 126t-138 46h-242l31 411h465v-92h-381z" />
    <glyph glyph-name="six.dnom" horiz-adv-x="686" 
d="M342 532q129 0 211 -79q86 -77 86 -197q0 -121 -86 -201q-83 -80 -211 -80q-125 0 -211 80q-84 81 -84 201q0 79 39 141l272 422h117l-196 -293q30 6 63 6zM342 70q88 0 143.5 52t55.5 134q0 81 -55.5 131.5t-143.5 50.5q-87 0 -142 -50.5t-55 -131.5q0 -82 55.5 -134
t141.5 -52z" />
    <glyph glyph-name="seven.dnom" horiz-adv-x="632" 
d="M35 725v94h545v-80l-318 -739h-104l313 725h-436z" />
    <glyph glyph-name="eight.dnom" horiz-adv-x="700" 
d="M496 430q143 -64 143 -217q0 -108 -79.5 -173t-209.5 -65t-210.5 65t-80.5 173q0 73 39 129.5t107 87.5q-119 64 -119 184q0 104 74.5 167t189.5 63q113 0 187.5 -63t74.5 -167q0 -120 -116 -184zM350 752q-75 0 -120.5 -37.5t-45.5 -100.5t46 -101t120 -38
q73 0 118.5 38t45.5 101t-45 100.5t-119 37.5zM350 381q-88 0 -140 -42t-52 -114t52 -113.5t140 -41.5t139.5 41.5t51.5 113.5q0 71 -52.5 113.5t-138.5 42.5z" />
    <glyph glyph-name="nine.dnom" horiz-adv-x="686" 
d="M639 563q0 -79 -39 -141l-272 -422h-117l197 293q-30 -6 -64 -6q-126 0 -213 78q-84 81 -84 198q0 120 84 201q86 80 213 80q126 0 209 -80q86 -80 86 -201zM344 381q87 0 142 50.5t55 131.5q0 82 -55.5 134.5t-141.5 52.5q-88 0 -143.5 -52.5t-55.5 -134.5
q0 -81 55.5 -131.5t143.5 -50.5z" />
    <glyph glyph-name="zero.numr" horiz-adv-x="839" 
d="M678 709q-94 -119 -258 -119t-258 119t-94 315t94 315t258 119t258 -119t94 -315t-94 -315zM233 772q67 -88 187 -88q119 0 186 88q68 89 68 252q0 161 -68 250q-69 90 -186 90q-118 0 -187 -90q-67 -88 -67 -250q0 -164 67 -252z" />
    <glyph glyph-name="one.numr" horiz-adv-x="503" 
d="M27 1341l252 93h77v-820h-98v709l-205 -68z" />
    <glyph glyph-name="two.numr" horiz-adv-x="700" 
d="M633 614h-563v80l358 334q90 81 90 184q0 67 -46 109.5t-124 42.5q-142 0 -194 -135l-82 45q32 87 104.5 135.5t171.5 48.5q120 0 194 -70t74 -176q0 -133 -120 -247l-281 -256h418v-95z" />
    <glyph glyph-name="three.numr" horiz-adv-x="714" 
d="M598 1339l-197 -243q108 -13 169 -80t61 -166q0 -116 -79.5 -188t-211.5 -72q-207 0 -283 166l82 47q52 -119 201 -119q92 0 142 45.5t50 120.5t-51.5 121.5t-140.5 46.5h-8l-47 72l198 249h-401v95h516v-95z" />
    <glyph glyph-name="four.numr" horiz-adv-x="729" 
d="M569 870h111v-92h-111v-164h-98v164h-436v92l307 564h107l-308 -564h330v213h98v-213z" />
    <glyph glyph-name="five.numr" horiz-adv-x="694" 
d="M188 1116h144q127 0 205.5 -73.5t78.5 -192.5q0 -117 -78 -188.5t-208 -71.5q-202 0 -279 164l84 47q53 -117 195 -117q87 0 137.5 45t50.5 121q0 80 -50 126t-138 46h-242l31 412h465v-93h-381z" />
    <glyph glyph-name="six.numr" horiz-adv-x="686" 
d="M342 1147q128 0 211 -80q86 -77 86 -197t-86 -200q-83 -80 -211 -80q-125 0 -211 80q-84 81 -84 200q0 80 39 142l272 422h117l-196 -293q30 6 63 6zM342 684q88 0 143.5 52t55.5 134t-55.5 132.5t-143.5 50.5q-87 0 -142 -51t-55 -132q0 -82 55.5 -134t141.5 -52z" />
    <glyph glyph-name="seven.numr" horiz-adv-x="632" 
d="M35 1339v95h545v-80l-318 -740h-104l313 725h-436z" />
    <glyph glyph-name="eight.numr" horiz-adv-x="700" 
d="M496 1044q143 -64 143 -217q0 -108 -79.5 -172.5t-209.5 -64.5t-210.5 64.5t-80.5 172.5q0 73 39 129.5t107 87.5q-119 64 -119 185q0 104 74.5 166.5t189.5 62.5q113 0 187.5 -62.5t74.5 -166.5q0 -121 -116 -185zM350 1366q-75 0 -120.5 -37t-45.5 -100t46 -101
t120 -38q73 0 118.5 38t45.5 101t-45 100t-119 37zM350 995q-88 0 -140 -41.5t-52 -113.5t52 -114t140 -42t139.5 42t51.5 114q0 71 -52.5 113t-138.5 42z" />
    <glyph glyph-name="nine.numr" horiz-adv-x="686" 
d="M639 1178q0 -80 -39 -142l-272 -422h-117l197 293q-30 -6 -64 -6q-126 0 -213 78q-84 81 -84 199q0 119 84 200q86 80 213 80q126 0 209 -80q86 -80 86 -200zM344 995q87 0 142 51t55 132q0 82 -55.5 134t-141.5 52q-88 0 -143.5 -52t-55.5 -134t55.5 -132.5t143.5 -50.5
z" />
    <glyph glyph-name="zero.sups" horiz-adv-x="839" 
d="M678 1036q-93 -118 -258 -118t-258 118q-94 119 -94 316q0 196 94 315t258 119t258 -119t94 -315q0 -197 -94 -316zM233 1100q67 -88 187 -88q119 0 186 88q68 89 68 252q0 161 -68 250q-69 90 -186 90q-118 0 -187 -90q-67 -88 -67 -250q0 -164 67 -252z" />
    <glyph glyph-name="one.sups" horiz-adv-x="503" 
d="M27 1669l252 92h77v-819h-98v709l-205 -68z" />
    <glyph glyph-name="two.sups" horiz-adv-x="700" 
d="M633 942h-563v80l358 334q90 81 90 184q0 67 -46 109.5t-124 42.5q-141 0 -194 -136l-82 46q32 87 104.5 135.5t171.5 48.5q120 0 194 -70t74 -176q0 -134 -120 -248l-281 -256h418v-94z" />
    <glyph glyph-name="three.sups" horiz-adv-x="714" 
d="M598 1667l-197 -244q108 -13 169 -79.5t61 -165.5q0 -116 -79.5 -188t-211.5 -72q-207 0 -283 165l82 47q52 -118 201 -118q92 0 142 45.5t50 120.5t-51.5 121.5t-140.5 46.5h-8l-47 71l198 250h-401v94h516v-94z" />
    <glyph glyph-name="four.sups" horiz-adv-x="729" 
d="M569 1198h111v-92h-111v-164h-98v164h-436v92l307 563h107l-308 -563h330v213h98v-213z" />
    <glyph glyph-name="five.sups" horiz-adv-x="694" 
d="M188 1444h144q127 0 205.5 -73.5t78.5 -192.5q0 -117 -78 -188.5t-208 -71.5q-203 0 -279 163l84 47q52 -116 195 -116q87 0 137.5 45t50.5 121q0 80 -50 126t-138 46h-242l31 411h465v-92h-381z" />
    <glyph glyph-name="six.sups" horiz-adv-x="686" 
d="M342 1475q128 0 211 -80q86 -77 86 -197q0 -121 -86 -201q-82 -79 -211 -79q-126 0 -211 79q-84 81 -84 201q0 79 39 141l272 422h117l-196 -293q35 7 63 7zM342 1012q88 0 143.5 52t55.5 134q0 81 -55.5 131.5t-143.5 50.5q-87 0 -142 -50.5t-55 -131.5q0 -82 55.5 -134
t141.5 -52z" />
    <glyph glyph-name="seven.sups" horiz-adv-x="632" 
d="M35 1667v94h545v-80l-318 -739h-104l313 725h-436z" />
    <glyph glyph-name="eight.sups" horiz-adv-x="700" 
d="M496 1372q143 -64 143 -217q0 -108 -79.5 -172.5t-209.5 -64.5t-210.5 64.5t-80.5 172.5q0 73 39 129.5t107 87.5q-119 64 -119 184q0 104 74.5 167t189.5 63q113 0 187.5 -63t74.5 -167q0 -120 -116 -184zM350 1694q-75 0 -120.5 -37.5t-45.5 -100.5t46 -101t120 -38
q73 0 118.5 38t45.5 101t-45 100.5t-119 37.5zM350 1323q-88 0 -140 -42t-52 -114t52 -113.5t140 -41.5t139.5 41.5t51.5 113.5q0 71 -52.5 113.5t-138.5 42.5z" />
    <glyph glyph-name="nine.sups" horiz-adv-x="686" 
d="M639 1505q0 -79 -39 -141l-272 -422h-117l197 293q-30 -6 -64 -6q-126 0 -213 78q-84 81 -84 198q0 120 84 201q86 80 213 80q126 0 209 -80q86 -80 86 -201zM344 1323q87 0 142 50.5t55 131.5q0 82 -55.5 134.5t-141.5 52.5q-88 0 -143.5 -52.5t-55.5 -134.5
q0 -81 55.5 -131.5t143.5 -50.5z" />
    <glyph glyph-name="cent.tf" horiz-adv-x="1167" 
d="M1008 494l86 -52q-62 -119 -184.5 -189.5t-270.5 -70.5q-81 0 -152 21l-65 -203h-82l74 227q-144 62 -229 193.5t-85 296.5q0 227 154 381q153 153 385 153q44 0 109 -10l63 193h82l-70 -213q185 -63 262 -232l-84 -49q-58 130 -208 186l-273 -829q62 -16 119 -16
q122 0 220 57t149 156zM205 717q0 -128 65 -233.5t176 -159.5l271 823q-37 6 -78 6q-182 0 -309 -127q-125 -125 -125 -309z" />
    <glyph glyph-name="dollar.tf" horiz-adv-x="1167" 
d="M1077 362q0 -163 -115 -266.5t-305 -115.5v-185h-96v185q-175 7 -295.5 88t-175.5 223l94 53q67 -242 377 -260v608q-100 32 -159 59t-119 70q-121 87 -121 262q0 157 110 258q116 104 289 113v184h96v-184q293 -27 387 -291l-92 -51q-71 214 -295 238v-580
q106 -33 169.5 -61.5t123.5 -73.5q127 -89 127 -273zM270 1083q0 -108 67.5 -169t223.5 -113v549q-132 -7 -211.5 -81.5t-79.5 -185.5zM657 662v-578q147 10 229.5 85t82.5 193q0 116 -72.5 181t-239.5 119z" />
    <glyph glyph-name="Euro.tf" horiz-adv-x="1167" 
d="M1014 334l88 -49q-47 -147 -154 -227.5t-254 -80.5q-209 0 -341 152t-163 420h-145v92h137q-2 16 -2 76q0 70 2 88h-137v90h145q36 265 166.5 413t337.5 148q143 0 249 -76.5t153 -216.5l-90 -51q-36 115 -119 177.5t-193 62.5q-158 0 -261 -120t-132 -337h520v-90h-530
q-2 -18 -2 -88q0 -60 2 -76h530v-92h-522q29 -223 131.5 -345t263.5 -122q112 0 197 65.5t123 186.5z" />
    <glyph glyph-name="florin.tf" horiz-adv-x="1167" 
d="M1100 1440v-103q-122 41 -197.5 0.5t-105.5 -157.5l-101 -412h316v-100h-338l-201 -826q-41 -170 -145.5 -236t-259.5 -22v103q122 -42 198 -1t103 158l200 824h-311v100h336l100 414q41 170 145.5 236t260.5 22z" />
    <glyph glyph-name="uni20BD.tf" horiz-adv-x="1167" 
d="M682 588h-369v-213h533v-90h-533v-285h-108v285h-185v90h185v213h-185v102h185v744h477q174 0 299 -125t125 -299t-125 -299q-126 -123 -299 -123zM682 1331h-369v-641h369q131 0 223 92q92 95 92 228q0 132 -92 227q-91 94 -223 94z" />
    <glyph glyph-name="sterling.tf" horiz-adv-x="1167" 
d="M381 600v-496h772v-104h-1085v104h204v496h-163v96h163v348q0 197 119 304q120 108 291 108q140 0 239.5 -71t149.5 -203l-90 -52q-71 222 -299 222q-134 0 -217.5 -82t-83.5 -226v-348h493v-96h-493z" />
    <glyph glyph-name="yen.tf" horiz-adv-x="1167" 
d="M1020 1434h121l-479 -729h358v-93h-381v-157h381v-90h-381v-365h-111v365h-376v90h376v157h-376v93h356l-479 729h118l437 -664z" />
    <glyph glyph-name="brevecy" horiz-adv-x="600" 
d="M559 1202h-518v90h518v-90z" />
    </font>
</defs>
</svg>
